<svg width="274" height="228" viewBox="0 0 274 228" fill="none" xmlns="http://www.w3.org/2000/svg">
<g filter="url(#filter0_d)">
<rect x="0.810718" y="23.1308" width="154.421" height="154.421" transform="rotate(-5 0.810718 23.1308)" fill="#007EFC" stroke="black"/>
<rect x="11.9599" y="150.567" width="154.421" height="26.4975" transform="rotate(-5 11.9599 150.567)" fill="#FDCB02" stroke="black"/>
<rect x="0.810718" y="23.1308" width="10.9554" height="154.421" transform="rotate(-5 0.810718 23.1308)" fill="#123CB1" stroke="black"/>
</g>
<path d="M52.2257 166.04L50.9445 151.396L53.6851 151.156L54.7613 163.457L58.2549 163.152L58.4599 165.495L52.2257 166.04ZM59.1913 165.431L57.9101 150.787L61.9895 150.43C63.4121 150.305 64.3794 150.438 64.8914 150.829C65.4022 151.206 65.7131 152.029 65.8241 153.298L66.1335 156.834C66.2469 158.131 66.0849 159.009 65.6473 159.469C65.2224 159.914 64.2918 160.199 62.8552 160.325L61.5164 160.442L61.9318 165.191L59.1913 165.431ZM62.1472 152.714L60.8501 152.827L61.3169 158.162L62.6139 158.048C62.8928 158.024 63.0984 157.964 63.2305 157.868C63.3615 157.758 63.4129 157.543 63.3848 157.222L63.0517 153.414C63.0236 153.094 62.9356 152.891 62.7876 152.805C62.6396 152.72 62.4261 152.689 62.1472 152.714ZM67.0037 159.498L66.8152 157.343L72.1917 156.873L72.3802 159.028L67.0037 159.498ZM73.7986 164.153L72.5174 149.509L76.4504 149.164C77.9008 149.038 78.8821 149.17 79.3941 149.56C79.9188 149.936 80.2392 150.786 80.3551 152.111L80.4777 153.513C80.5546 154.392 80.4903 155.023 80.285 155.406C80.0923 155.774 79.7137 156.025 79.1492 156.159C79.7551 156.176 80.1848 156.349 80.4384 156.678C80.706 157.006 80.8789 157.617 80.957 158.509L81.1071 160.225C81.162 160.852 81.1647 161.365 81.1151 161.763C81.0784 162.146 81.0012 162.468 80.8837 162.732C80.7789 162.98 80.571 163.174 80.26 163.313C79.949 163.453 79.621 163.559 79.276 163.631C78.9298 163.69 78.4289 163.748 77.7734 163.805L73.7986 164.153ZM75.9827 157.553L76.3396 161.633L77.5739 161.525C77.8668 161.499 78.0787 161.431 78.2096 161.321C78.3393 161.198 78.3889 160.961 78.3584 160.613L78.1479 158.207C78.1187 157.872 78.0224 157.656 77.8592 157.558C77.71 157.458 77.482 157.422 77.1752 157.449L75.9827 157.553ZM75.4574 151.549L75.796 155.419L77.0512 155.31C77.3302 155.285 77.5275 155.212 77.6433 155.089C77.759 154.967 77.8023 154.738 77.773 154.403L77.5808 152.207C77.5515 151.872 77.4623 151.655 77.313 151.555C77.1638 151.456 76.9428 151.419 76.6499 151.445L75.4574 151.549ZM86.1768 150.675L87.253 162.976L84.4915 163.217L83.4153 150.916L80.8212 151.143L80.6163 148.8L88.5659 148.105L88.7709 150.448L86.1768 150.675ZM92.78 147.652L93.2612 147.609C94.7395 147.48 95.7423 147.617 96.2695 148.021C96.7954 148.41 97.1176 149.282 97.236 150.634L97.4702 153.312L94.7297 153.552L94.4808 150.707C94.4478 150.33 94.3498 150.093 94.1866 149.995C94.0374 149.895 93.7954 149.86 93.4607 149.89L92.9795 149.932C92.6587 149.96 92.4265 150.036 92.2829 150.161C92.1392 150.286 92.0839 150.537 92.1168 150.914L92.8562 159.365C92.8892 159.742 92.9872 159.979 93.1504 160.078C93.3136 160.176 93.5556 160.211 93.8763 160.183L94.3575 160.141C94.6922 160.111 94.9244 160.035 95.0541 159.911C95.1978 159.786 95.2532 159.535 95.2202 159.159L94.9347 155.895L97.6752 155.655L97.9461 158.751C98.0645 160.104 97.8991 161.025 97.45 161.514C96.9997 161.989 96.0354 162.291 94.557 162.421L94.0758 162.463C92.6114 162.591 91.6093 162.461 91.0694 162.072C90.5422 161.669 90.2194 160.791 90.1011 159.438L89.3909 151.321C89.2726 149.968 89.4385 149.054 89.8888 148.579C90.3519 148.089 91.3156 147.78 92.78 147.652ZM99.3971 161.913L98.1159 147.269L102.049 146.925C103.499 146.798 104.481 146.93 104.993 147.321C105.517 147.697 105.838 148.547 105.954 149.872L106.076 151.273C106.153 152.152 106.089 152.783 105.883 153.166C105.691 153.535 105.312 153.786 104.748 153.919C105.354 153.937 105.783 154.11 106.037 154.439C106.305 154.767 106.477 155.377 106.555 156.27L106.706 157.985C106.76 158.613 106.763 159.125 106.714 159.523C106.677 159.906 106.6 160.229 106.482 160.492C106.377 160.74 106.17 160.934 105.859 161.074C105.548 161.213 105.22 161.319 104.874 161.392C104.528 161.45 104.027 161.508 103.372 161.565L99.3971 161.913ZM101.581 155.314L101.938 159.393L103.172 159.285C103.465 159.259 103.677 159.192 103.808 159.082C103.938 158.958 103.987 158.722 103.957 158.373L103.746 155.967C103.717 155.633 103.621 155.416 103.458 155.318C103.309 155.219 103.08 155.182 102.774 155.209L101.581 155.314ZM101.056 149.31L101.395 153.18L102.65 153.07C102.929 153.046 103.126 152.972 103.242 152.849C103.358 152.727 103.401 152.498 103.371 152.164L103.179 149.967C103.15 149.632 103.061 149.415 102.912 149.316C102.762 149.216 102.541 149.18 102.248 149.205L101.056 149.31ZM107.869 161.889L109.529 145.448L111.182 145.304L109.501 161.746L107.869 161.889ZM113.555 160.674L112.274 146.03L116.207 145.686C117.657 145.559 118.638 145.691 119.15 146.082C119.675 146.458 119.996 147.308 120.111 148.633L120.234 150.035C120.311 150.913 120.247 151.544 120.041 151.928C119.849 152.296 119.47 152.547 118.906 152.681C119.511 152.698 119.941 152.871 120.195 153.2C120.462 153.528 120.635 154.138 120.713 155.031L120.863 156.746C120.918 157.374 120.921 157.887 120.871 158.285C120.835 158.667 120.758 158.99 120.64 159.253C120.535 159.502 120.327 159.695 120.016 159.835C119.705 159.975 119.377 160.081 119.032 160.153C118.686 160.211 118.185 160.269 117.53 160.327L113.555 160.674ZM115.739 154.075L116.096 158.154L117.33 158.046C117.623 158.021 117.835 157.953 117.966 157.843C118.096 157.719 118.145 157.483 118.115 157.135L117.904 154.729C117.875 154.394 117.779 154.178 117.616 154.079C117.466 153.98 117.238 153.944 116.932 153.971L115.739 154.075ZM115.214 148.071L115.552 151.941L116.808 151.831C117.087 151.807 117.284 151.733 117.4 151.611C117.515 151.488 117.559 151.26 117.529 150.925L117.337 148.728C117.308 148.394 117.219 148.177 117.069 148.077C116.92 147.978 116.699 147.941 116.406 147.967L115.214 148.071ZM121.039 145.263L123.801 145.022L127.038 152.876L127.059 152.874L126.353 144.799L128.926 144.573L130.207 159.218L127.341 159.468L124.347 151.994L124.326 151.996L124.998 159.673L122.32 159.908L121.039 145.263ZM131.451 159.109L130.17 144.465L134.103 144.121C135.554 143.994 136.535 144.126 137.047 144.516C137.572 144.892 137.892 145.742 138.008 147.067L138.131 148.469C138.207 149.348 138.143 149.979 137.938 150.362C137.745 150.73 137.367 150.981 136.802 151.115C137.408 151.132 137.838 151.305 138.091 151.635C138.359 151.962 138.532 152.573 138.61 153.465L138.76 155.181C138.815 155.808 138.817 156.321 138.768 156.719C138.731 157.102 138.654 157.425 138.537 157.688C138.432 157.936 138.224 158.13 137.913 158.269C137.602 158.409 137.274 158.515 136.929 158.587C136.583 158.646 136.082 158.704 135.426 158.761L131.451 159.109ZM133.636 152.509L133.992 156.589L135.227 156.481C135.52 156.455 135.732 156.387 135.862 156.277C135.992 156.154 136.042 155.917 136.011 155.569L135.801 153.163C135.771 152.828 135.675 152.612 135.512 152.514C135.363 152.414 135.135 152.378 134.828 152.405L133.636 152.509ZM133.11 146.505L133.449 150.375L134.704 150.266C134.983 150.241 135.18 150.168 135.296 150.045C135.412 149.923 135.455 149.694 135.426 149.359L135.234 147.163C135.204 146.828 135.115 146.611 134.966 146.511C134.817 146.412 134.596 146.375 134.303 146.401L133.11 146.505Z" fill="black"/>
<path d="M80.5747 85.6917L93.214 84.5859L92.8616 80.5588L85.0515 81.2421L84.1226 70.6252L79.2935 71.0477L80.5747 85.6917ZM96.5181 84.2969L101.347 83.8744L101.067 80.6666L104.571 80.36C108.545 80.0123 110.761 78.0267 110.416 74.0867C110.071 70.1468 107.545 68.576 103.553 68.9253L95.2369 69.6528L96.5181 84.2969ZM100.716 76.6569L100.417 73.24L103.503 72.97C104.653 72.8694 105.453 73.3791 105.552 74.5122C105.651 75.6454 104.952 76.2863 103.784 76.3885L100.716 76.6569Z" fill="white"/>
<path d="M80.5747 85.6917L79.5785 85.7789L79.6657 86.7751L80.6619 86.6879L80.5747 85.6917ZM93.214 84.5859L93.3011 85.5821L94.2973 85.495L94.2101 84.4988L93.214 84.5859ZM92.8616 80.5588L93.8578 80.4717L93.7707 79.4755L92.7745 79.5626L92.8616 80.5588ZM85.0515 81.2421L84.0553 81.3293L84.1424 82.3255L85.1386 82.2383L85.0515 81.2421ZM84.1226 70.6252L85.1188 70.538L85.0316 69.5418L84.0354 69.629L84.1226 70.6252ZM79.2935 71.0477L79.2064 70.0515L78.2102 70.1386L78.2973 71.1348L79.2935 71.0477ZM80.6619 86.6879L93.3011 85.5821L93.1268 83.5897L80.4876 84.6955L80.6619 86.6879ZM94.2101 84.4988L93.8578 80.4717L91.8654 80.646L92.2178 84.6731L94.2101 84.4988ZM92.7745 79.5626L84.9643 80.2459L85.1386 82.2383L92.9488 81.555L92.7745 79.5626ZM86.0477 81.155L85.1188 70.538L83.1264 70.7123L84.0553 81.3293L86.0477 81.155ZM84.0354 69.629L79.2064 70.0515L79.3807 72.0439L84.2098 71.6214L84.0354 69.629ZM78.2973 71.1348L79.5785 85.7789L81.5709 85.6046L80.2897 70.9605L78.2973 71.1348ZM96.5181 84.2969L95.5219 84.384L95.6091 85.3802L96.6053 85.293L96.5181 84.2969ZM101.347 83.8744L101.434 84.8706L102.431 84.7834L102.343 83.7872L101.347 83.8744ZM101.067 80.6666L100.979 79.6704L99.9832 79.7576L100.07 80.7538L101.067 80.6666ZM95.2369 69.6528L95.1498 68.6566L94.1536 68.7438L94.2407 69.7399L95.2369 69.6528ZM100.716 76.6569L99.7195 76.7441L99.8067 77.7403L100.803 77.6531L100.716 76.6569ZM100.417 73.24L100.33 72.2438L99.3334 72.3309L99.4206 73.3271L100.417 73.24ZM96.6053 85.293L101.434 84.8706L101.26 82.8782L96.431 83.3007L96.6053 85.293ZM102.343 83.7872L102.063 80.5795L100.07 80.7538L100.351 83.9615L102.343 83.7872ZM101.154 81.6628L104.658 81.3562L104.484 79.3639L100.979 79.6704L101.154 81.6628ZM104.658 81.3562C106.774 81.1711 108.591 80.5377 109.829 79.2689C111.092 77.9743 111.603 76.1755 111.412 73.9996L109.42 74.1739C109.574 75.9379 109.149 77.1019 108.398 77.872C107.621 78.668 106.342 79.2012 104.484 79.3639L104.658 81.3562ZM111.412 73.9996C111.222 71.8235 110.407 70.1402 108.935 69.0848C107.493 68.0508 105.589 67.7433 103.466 67.9291L103.64 69.9215C105.508 69.758 106.864 70.0612 107.77 70.7102C108.645 71.3379 109.266 72.4099 109.42 74.1739L111.412 73.9996ZM103.466 67.9291L95.1498 68.6566L95.3241 70.649L103.64 69.9215L103.466 67.9291ZM94.2407 69.7399L95.5219 84.384L97.5143 84.2097L96.2331 69.5656L94.2407 69.7399ZM101.712 76.5698L101.413 73.1528L99.4206 73.3271L99.7195 76.7441L101.712 76.5698ZM100.504 74.2362L103.59 73.9662L103.415 71.9738L100.33 72.2438L100.504 74.2362ZM103.59 73.9662C104.012 73.9293 104.236 74.0167 104.337 74.09C104.415 74.1457 104.527 74.2658 104.556 74.5994L106.548 74.4251C106.478 73.6255 106.141 72.9242 105.506 72.4669C104.895 72.0272 104.144 71.9101 103.415 71.9738L103.59 73.9662ZM104.556 74.5994C104.585 74.9327 104.496 75.069 104.429 75.137C104.341 75.2274 104.131 75.3543 103.697 75.3923L103.871 77.3847C104.605 77.3205 105.329 77.0759 105.857 76.537C106.408 75.9757 106.618 75.225 106.548 74.4251L104.556 74.5994ZM103.697 75.3923L100.629 75.6607L100.803 77.6531L103.871 77.3847L103.697 75.3923Z" fill="black"/>
<circle cx="57.3157" cy="109.482" r="24.7441" fill="white" stroke="black"/>
<path d="M49.0566 107.407L56.2552 98.8321L64.8373 106.033L69.0231 101.041L55.452 89.6511L44.0646 103.222L49.0566 107.407Z" fill="#F3BA2F"/>
<path d="M41.1077 106.746L36.9202 111.737L41.9106 115.924L46.0981 110.934L41.1077 106.746Z" fill="#F3BA2F"/>
<path d="M49.6237 113.89L58.2023 121.088L65.4035 112.507L70.3952 116.689L70.3923 116.692L59.0052 130.266L45.4347 118.882L45.4277 118.877L49.6237 113.89Z" fill="#F3BA2F"/>
<path d="M72.5449 103.997L68.3574 108.987L73.3478 113.175L77.5353 108.184L72.5449 103.997Z" fill="#F3BA2F"/>
<path d="M61.8832 109.55L56.8209 105.299L53.6798 109.042L53.3166 109.472L52.573 110.358L52.5672 110.365L52.5744 110.374L57.6362 114.618L61.8835 109.553L61.8864 109.55L61.8832 109.55Z" fill="#F3BA2F"/>
<circle cx="52.8967" cy="55.6277" r="24.7441" fill="white" stroke="black"/>
<path d="M70.8441 60.1348C68.3798 70.024 58.3607 76.0429 48.4686 73.5749C38.5764 71.107 32.5603 61.0928 35.0285 51.2026C37.4966 41.3125 47.5108 35.2908 57.4007 37.7592C67.2906 40.2275 73.3122 50.2422 70.8441 60.1348Z" fill="#F7931A"/>
<path d="M61.0777 53.0368C61.4447 50.5801 59.5742 49.2594 57.0161 48.3784L57.8469 45.0506L55.8206 44.5459L55.0112 47.7861C54.4791 47.6536 53.9323 47.5276 53.3888 47.4043L54.2011 44.1427L52.1768 43.6379L51.3484 46.9644L47.2625 45.9523L46.7234 48.1162C46.7234 48.1162 48.2265 48.4607 48.1948 48.4821C49.0152 48.687 49.164 49.2298 49.1389 49.6603L46.8655 58.7768C46.7651 59.026 46.5107 59.3997 45.9373 59.2568C45.9576 59.2863 44.4648 58.8875 44.4648 58.8875L43.459 61.2098L47.539 62.24L46.7005 65.6065L48.7239 66.1112L49.5547 62.7809C50.1085 62.9308 50.6439 63.0693 51.1686 63.1996L50.3411 66.5144L52.3671 67.0192L53.2056 63.6591C56.6604 64.3127 59.2583 64.0491 60.3503 60.9268C61.2313 58.4114 60.3071 56.9603 58.4894 56.0136C59.8131 55.7071 60.81 54.8368 61.076 53.0381L61.0777 53.0368ZM56.4475 59.5278C55.8198 62.0432 51.5856 60.6839 50.2117 60.3423L51.3242 55.8829C52.6974 56.2255 57.1007 56.9042 56.4483 59.5274L56.4475 59.5278ZM57.0759 53.0012C56.5047 55.2904 52.9791 54.1274 51.8349 53.8419L52.8421 49.7962C53.9868 50.082 57.67 50.6141 57.0745 53.001" fill="white"/>
<circle cx="194.774" cy="83.6665" r="71.2327" transform="rotate(-5 194.774 83.6665)" fill="white" stroke="black"/>
<path d="M174.425 35.4492L174.823 39.9918L179.174 39.6111L179.408 42.2889L171.925 42.9436L170.461 26.2075L177.944 25.5528L178.178 28.2306L173.827 28.6113L174.191 32.7714L178.136 32.4263L178.37 35.104L174.425 35.4492ZM186.176 24.8326L190.485 41.3198L187.353 41.5938L186.557 38.5556L183.33 38.838L183.097 41.9661L179.941 42.2422L181.322 25.2572L186.176 24.8326ZM183.891 27.6344L183.368 35.9677L185.998 35.7377L184.035 27.6218L183.891 27.6344ZM191.279 41.2503L189.815 24.5142L194.573 24.098C196.199 23.9557 197.296 24.1007 197.863 24.5328C198.447 24.9636 198.803 25.9122 198.932 27.3786L199.137 29.7216C199.226 30.7417 199.136 31.4643 198.868 31.8892C198.615 32.2969 198.172 32.5605 197.54 32.68C198.235 32.7316 198.737 32.9608 199.046 33.3674C199.355 33.7741 199.554 34.4954 199.645 35.5314L200.078 40.4805L196.922 40.7566L196.453 35.4011C196.384 34.6041 196.038 34.2329 195.416 34.2872L193.838 34.4253L194.411 40.9763L191.279 41.2503ZM193.175 26.8463L193.617 31.891L195.242 31.7487C195.561 31.7209 195.78 31.6535 195.899 31.5467C196.033 31.4226 196.083 31.1693 196.05 30.7867L195.759 27.4634C195.727 27.0968 195.635 26.872 195.483 26.7889C195.331 26.7058 195.088 26.6789 194.753 26.7082L193.175 26.8463ZM199.739 23.646L202.895 23.3699L206.596 32.3455L206.62 32.3434L205.812 23.1147L208.753 22.8574L210.217 39.5935L206.942 39.88L203.52 31.3377L203.496 31.3398L204.264 40.1143L201.204 40.382L199.739 23.646Z" fill="black"/>
<line x1="175.764" y1="58.4252" x2="211.494" y2="55.2993" stroke="black"/>
<path d="M154.007 87.6351L152.518 70.6201L141.186 71.6115L128.798 89.8406L129.439 97.1626L144.989 95.8021L145.422 100.753L155.08 99.9082L154.647 94.9571L159.075 94.5697L158.435 87.2477L154.007 87.6351ZM137.166 89.1085L143.577 79.6588L144.349 88.4801L137.166 89.1085ZM176.215 98.8321C185.699 98.0024 190.631 92.1252 189.755 82.1184C188.88 72.1116 183.002 67.1801 173.519 68.0098C164.035 68.8395 159.103 74.7167 159.979 84.7235C160.854 94.7303 166.732 99.6618 176.215 98.8321ZM175.505 90.7081C171.948 91.0193 169.912 88.6326 169.498 83.8907C169.083 79.1488 170.673 76.4449 174.229 76.1338C177.786 75.8226 179.822 78.2093 180.237 82.9512C180.651 87.6931 179.061 90.397 175.505 90.7081ZM217.094 82.1157L215.605 65.1007L204.274 66.0921L191.885 84.3212L192.526 91.6432L208.076 90.2827L208.51 95.2338L218.168 94.3888L217.734 89.4377L222.163 89.0503L221.522 81.7283L217.094 82.1157ZM200.253 83.589L206.664 74.1393L207.436 82.9607L200.253 83.589ZM236.639 93.7916L253.02 63.3732L248.738 61.0074L232.357 91.4259L236.639 93.7916ZM231.933 78.9553C237.512 78.4673 239.569 74.6685 239.199 70.4497C238.833 66.2656 236.148 62.8818 230.57 63.3699C224.991 63.8579 222.934 67.6566 223.3 71.8407C223.669 76.0595 226.354 79.4434 231.933 78.9553ZM231.415 73.028C230.055 73.1469 229.446 72.2164 229.367 71.3099C229.285 70.3685 229.728 69.4162 231.088 69.2972C232.448 69.1783 233.05 70.039 233.133 70.9804C233.212 71.887 232.774 72.909 231.415 73.028ZM254.788 91.6066C260.366 91.1185 262.423 87.3198 262.054 83.1009C261.688 78.9169 259.003 75.533 253.424 76.0211C247.845 76.5092 245.789 80.3079 246.155 84.4919C246.524 88.7108 249.209 92.0946 254.788 91.6066ZM254.269 85.6792C252.909 85.7982 252.301 84.8677 252.222 83.9611C252.139 83.0197 252.583 82.0674 253.943 81.9485C255.303 81.8295 255.905 82.6903 255.987 83.6317C256.067 84.5382 255.629 85.5602 254.269 85.6792Z" fill="black"/>
<path d="M185.391 129.788L191.089 129.29L183.469 113.092L175.738 113.769L171.046 131.043L176.744 130.545L177.288 128.269L184.461 127.641L185.391 129.788ZM178.285 124.066L179.579 118.653L180.535 118.569L182.748 123.675L178.285 124.066ZM191.887 129.22L197.406 128.737L197.085 125.071L201.09 124.721C205.632 124.323 208.164 122.054 207.77 117.551C207.376 113.049 204.489 111.253 199.926 111.653L190.422 112.484L191.887 129.22ZM196.684 120.489L196.342 116.584L199.869 116.275C201.184 116.16 202.098 116.743 202.211 118.038C202.325 119.333 201.525 120.065 200.191 120.182L196.684 120.489ZM227.258 126.126L223.789 120.888C225.116 119.768 225.993 118.085 225.796 115.834C225.411 111.431 222.626 109.667 217.984 110.073L208.401 110.911L209.865 127.647L215.384 127.164L215.006 122.841L219.19 122.475L221.839 126.6L227.258 126.126ZM214.321 115.011L218.006 114.688C219.401 114.566 220.178 115.181 220.28 116.356C220.383 117.532 219.725 118.272 218.331 118.394L214.645 118.717L214.321 115.011Z" fill="black"/>
<defs>
<filter id="filter0_d" x="0.269043" y="9.13037" width="218.375" height="218.375" filterUnits="userSpaceOnUse" color-interpolation-filters="sRGB">
<feFlood flood-opacity="0" result="BackgroundImageFix"/>
<feColorMatrix in="SourceAlpha" type="matrix" values="0 0 0 0 0 0 0 0 0 0 0 0 0 0 0 0 0 0 127 0"/>
<feOffset dx="25" dy="25"/>
<feGaussianBlur stdDeviation="12.5"/>
<feColorMatrix type="matrix" values="0 0 0 0 0 0 0 0 0 0 0 0 0 0 0 0 0 0 0.25 0"/>
<feBlend mode="normal" in2="BackgroundImageFix" result="effect1_dropShadow"/>
<feBlend mode="normal" in="SourceGraphic" in2="effect1_dropShadow" result="shape"/>
</filter>
</defs>
</svg>
