<svg width="229" height="151" viewBox="0 0 229 151" fill="none" xmlns="http://www.w3.org/2000/svg">
<rect x="0.810962" y="19.4218" width="129" height="129" transform="rotate(-5 0.810962 19.4218)" fill="#007EFC" stroke="black"/>
<rect x="10.1366" y="126.015" width="129" height="22" transform="rotate(-5 10.1366 126.015)" fill="#FDCB02" stroke="black"/>
<rect x="0.810962" y="19.4218" width="9" height="129" transform="rotate(-5 0.810962 19.4218)" fill="#123CB1" stroke="black"/>
<path d="M29.7727 142.831L28.4915 128.187L31.2321 127.947L32.3083 140.248L35.8019 139.942L36.0069 142.285L29.7727 142.831ZM36.7383 142.221L35.4571 127.577L39.5365 127.22C40.9591 127.096 41.9264 127.229 42.4384 127.62C42.9492 127.997 43.2601 128.82 43.3711 130.089L43.6804 133.624C43.7939 134.921 43.6319 135.8 43.1943 136.26C42.7694 136.705 41.8387 136.99 40.4022 137.115L39.0633 137.233L39.4788 141.981L36.7383 142.221ZM39.6942 129.504L38.3971 129.618L38.8638 134.952L40.1609 134.839C40.4398 134.814 40.6454 134.754 40.7775 134.658C40.9084 134.549 40.9599 134.333 40.9318 134.012L40.5987 130.205C40.5706 129.884 40.4826 129.681 40.3346 129.596C40.1866 129.51 39.9731 129.48 39.6942 129.504ZM44.5507 136.289L44.3622 134.134L49.7387 133.664L49.9272 135.818L44.5507 136.289ZM49.7063 126.33L52.4887 126.087L54.3928 137.009L54.4137 137.007L54.7271 125.891L57.6141 125.639L59.832 136.533L59.8529 136.531L59.8316 125.445L62.6349 125.199L62.3889 139.977L58.1212 140.35L56.7325 132.187L56.7116 132.189L56.7614 140.469L52.5147 140.841L49.7063 126.33ZM64.6454 139.78L63.3642 125.136L67.2971 124.791C68.7476 124.665 69.7288 124.797 70.2409 125.187C70.7656 125.563 71.0859 126.413 71.2018 127.738L71.3245 129.14C71.4013 130.019 71.3371 130.65 71.1317 131.033C70.9391 131.401 70.5605 131.652 69.996 131.786C70.6018 131.803 71.0316 131.976 71.2852 132.306C71.5528 132.633 71.7257 133.244 71.8037 134.136L71.9538 135.852C72.0087 136.479 72.0114 136.992 71.9619 137.39C71.9251 137.773 71.848 138.095 71.7305 138.359C71.6257 138.607 71.4178 138.801 71.1068 138.94C70.7958 139.08 70.4678 139.186 70.1228 139.258C69.7765 139.317 69.2757 139.375 68.6202 139.432L64.6454 139.78ZM66.8295 133.18L67.1864 137.26L68.4207 137.152C68.7136 137.126 68.9255 137.058 69.0564 136.948C69.1861 136.825 69.2357 136.588 69.2052 136.24L68.9947 133.834C68.9654 133.499 68.8692 133.283 68.706 133.185C68.5568 133.085 68.3288 133.049 68.0219 133.076L66.8295 133.18ZM66.3042 127.176L66.6428 131.046L67.898 130.937C68.1769 130.912 68.3743 130.839 68.49 130.716C68.6058 130.594 68.649 130.365 68.6198 130.03L68.4276 127.834C68.3983 127.499 68.309 127.282 68.1598 127.182C68.0106 127.083 67.7895 127.046 67.4966 127.072L66.3042 127.176ZM72.1295 124.369L74.891 124.127L78.1288 131.981L78.1497 131.979L77.4432 123.904L80.0164 123.679L81.2976 138.323L78.4315 138.574L75.4377 131.099L75.4168 131.101L76.0885 138.779L73.4107 139.013L72.1295 124.369ZM82.5418 138.214L81.2607 123.57L85.1936 123.226C86.6441 123.099 87.6253 123.231 88.1373 123.622C88.6621 123.997 88.9824 124.848 89.0983 126.173L89.221 127.574C89.2978 128.453 89.2336 129.084 89.0282 129.467C88.8356 129.835 88.457 130.086 87.8925 130.22C88.4983 130.237 88.928 130.411 89.1817 130.74C89.4493 131.068 89.6221 131.678 89.7002 132.571L89.8503 134.286C89.9052 134.914 89.9079 135.426 89.8584 135.824C89.8216 136.207 89.7445 136.53 89.627 136.793C89.5222 137.041 89.3143 137.235 89.0033 137.375C88.6923 137.514 88.3643 137.62 88.0192 137.693C87.673 137.751 87.1722 137.809 86.5167 137.866L82.5418 138.214ZM84.726 131.614L85.0829 135.694L86.3172 135.586C86.61 135.56 86.8219 135.493 86.9529 135.383C87.0826 135.259 87.1322 135.023 87.1017 134.674L86.8912 132.268C86.8619 131.933 86.7657 131.717 86.6025 131.619C86.4533 131.52 86.2252 131.483 85.9184 131.51L84.726 131.614ZM84.2007 125.61L84.5393 129.481L85.7945 129.371C86.0734 129.346 86.2708 129.273 86.3865 129.15C86.5023 129.028 86.5455 128.799 86.5162 128.464L86.3241 126.268C86.2948 125.933 86.2055 125.716 86.0563 125.617C85.9071 125.517 85.686 125.48 85.3931 125.506L84.2007 125.61ZM91.0138 138.189L92.6742 121.749L94.3269 121.605L92.6456 138.047L91.0138 138.189ZM96.6997 136.975L95.4185 122.331L99.3515 121.987C100.802 121.86 101.783 121.992 102.295 122.383C102.82 122.759 103.14 123.609 103.256 124.934L103.379 126.336C103.456 127.214 103.391 127.845 103.186 128.229C102.993 128.597 102.615 128.848 102.05 128.981C102.656 128.999 103.086 129.172 103.34 129.501C103.607 129.829 103.78 130.439 103.858 131.332L104.008 133.047C104.063 133.675 104.066 134.188 104.016 134.585C103.979 134.968 103.902 135.291 103.785 135.554C103.68 135.802 103.472 135.996 103.161 136.136C102.85 136.276 102.522 136.382 102.177 136.454C101.831 136.512 101.33 136.57 100.674 136.628L96.6997 136.975ZM98.8838 130.376L99.2407 134.455L100.475 134.347C100.768 134.322 100.98 134.254 101.111 134.144C101.24 134.02 101.29 133.784 101.26 133.435L101.049 131.03C101.02 130.695 100.924 130.478 100.76 130.38C100.611 130.281 100.383 130.245 100.076 130.271L98.8838 130.376ZM98.3585 124.372L98.6971 128.242L99.9523 128.132C100.231 128.108 100.429 128.034 100.544 127.912C100.66 127.789 100.703 127.56 100.674 127.226L100.482 125.029C100.453 124.694 100.363 124.477 100.214 124.378C100.065 124.279 99.8438 124.242 99.551 124.267L98.3585 124.372ZM104.1 121.572L106.862 121.33L107.866 132.815C107.902 133.22 107.981 133.48 108.103 133.596C108.225 133.697 108.439 133.735 108.746 133.708L109.541 133.638C109.847 133.612 110.052 133.537 110.154 133.416C110.254 133.281 110.287 133.011 110.251 132.607L109.247 121.121L111.987 120.882L112.983 132.262C113.101 133.615 112.929 134.537 112.466 135.027C112.015 135.502 111.058 135.803 109.594 135.932L109.071 135.977C107.606 136.105 106.604 135.975 106.064 135.587C105.537 135.183 105.214 134.305 105.096 132.952L104.1 121.572ZM116.742 120.381L117.035 120.356C118.513 120.226 119.516 120.363 120.043 120.767C120.569 121.157 120.891 122.028 121.01 123.381L121.156 125.054L118.416 125.294L118.253 123.432C118.22 123.056 118.122 122.825 117.96 122.741C117.811 122.642 117.569 122.607 117.234 122.636L116.941 122.662C116.607 122.691 116.368 122.768 116.224 122.893C116.093 123.003 116.044 123.246 116.077 123.623L116.178 124.773C116.219 125.247 116.331 125.561 116.513 125.714C116.709 125.865 117.131 126.032 117.779 126.214L119.202 126.574C119.634 126.691 119.944 126.784 120.133 126.851C120.321 126.919 120.543 127.047 120.799 127.236C121.054 127.424 121.238 127.682 121.351 128.01C121.477 128.322 121.562 128.729 121.606 129.231L121.803 131.49C121.922 132.843 121.749 133.765 121.286 134.255C120.836 134.73 119.879 135.032 118.414 135.16L118.038 135.193C116.559 135.322 115.557 135.192 115.031 134.802C114.504 134.399 114.181 133.52 114.063 132.168L113.913 130.452L116.653 130.212L116.818 132.095C116.852 132.486 116.944 132.731 117.093 132.83C117.255 132.914 117.504 132.942 117.838 132.912L118.215 132.879C118.438 132.86 118.604 132.831 118.713 132.794C118.836 132.755 118.934 132.662 119.005 132.515C119.077 132.368 119.101 132.163 119.078 131.898L118.926 130.161C118.912 130.008 118.887 129.877 118.849 129.767C118.811 129.658 118.776 129.577 118.743 129.524C118.709 129.456 118.634 129.393 118.516 129.333C118.412 129.272 118.331 129.229 118.273 129.206C118.229 129.182 118.113 129.143 117.925 129.089C117.751 129.02 117.627 128.975 117.555 128.953L116.024 128.56C115.591 128.429 115.273 128.324 115.069 128.243C114.865 128.163 114.628 128.029 114.359 127.841C114.09 127.654 113.892 127.397 113.765 127.071C113.638 126.745 113.553 126.338 113.51 125.85L113.353 124.051C113.235 122.698 113.401 121.784 113.851 121.309C114.314 120.819 115.278 120.509 116.742 120.381ZM123.095 134.666L121.814 120.022L125.935 119.661C127.372 119.536 128.346 119.668 128.858 120.059C129.384 120.449 129.704 121.299 129.819 122.61L130.529 130.727C130.644 132.038 130.476 132.931 130.026 133.406C129.589 133.88 128.653 134.18 127.216 134.305L123.095 134.666ZM126.135 121.942L124.775 122.061L125.636 132.146L127.017 132.025C127.31 131.999 127.521 131.925 127.651 131.801C127.78 131.677 127.83 131.441 127.799 131.092L127.062 122.662C127.033 122.327 126.944 122.117 126.796 122.031C126.662 121.945 126.441 121.915 126.135 121.942Z" fill="black"/>
<path d="M66.8988 75.73L79.5381 74.6242L79.1857 70.5971L71.3756 71.2804L70.4467 60.6634L65.6176 61.0859L66.8988 75.73ZM82.8422 74.3351L87.6713 73.9126L87.3906 70.7049L90.8948 70.3983C94.8696 70.0505 97.0849 68.0649 96.7402 64.1249C96.3955 60.185 93.869 58.6142 89.8768 58.9635L81.561 59.691L82.8422 74.3351ZM87.0398 66.6952L86.7409 63.2782L89.8266 63.0083C90.9772 62.9076 91.7772 63.4173 91.8763 64.5505C91.9755 65.6837 91.2762 66.3245 90.1081 66.4267L87.0398 66.6952Z" fill="white"/>
<path d="M66.8988 75.73L65.9026 75.8171L65.9898 76.8133L66.986 76.7262L66.8988 75.73ZM79.5381 74.6242L79.6252 75.6204L80.6214 75.5332L80.5343 74.537L79.5381 74.6242ZM79.1857 70.5971L80.1819 70.5099L80.0948 69.5137L79.0986 69.6009L79.1857 70.5971ZM71.3756 71.2804L70.3794 71.3675L70.4665 72.3637L71.4627 72.2765L71.3756 71.2804ZM70.4467 60.6634L71.4429 60.5763L71.3557 59.5801L70.3595 59.6672L70.4467 60.6634ZM65.6176 61.0859L65.5305 60.0897L64.5343 60.1769L64.6215 61.1731L65.6176 61.0859ZM66.986 76.7262L79.6252 75.6204L79.4509 73.628L66.8117 74.7338L66.986 76.7262ZM80.5343 74.537L80.1819 70.5099L78.1895 70.6842L78.5419 74.7113L80.5343 74.537ZM79.0986 69.6009L71.2884 70.2842L71.4627 72.2765L79.2729 71.5932L79.0986 69.6009ZM72.3718 71.1932L71.4429 60.5763L69.4505 60.7506L70.3794 71.3675L72.3718 71.1932ZM70.3595 59.6672L65.5305 60.0897L65.7048 62.0821L70.5339 61.6596L70.3595 59.6672ZM64.6215 61.1731L65.9026 75.8171L67.895 75.6428L66.6138 60.9987L64.6215 61.1731ZM82.8422 74.3351L81.846 74.4222L81.9332 75.4184L82.9294 75.3313L82.8422 74.3351ZM87.6713 73.9126L87.7584 74.9088L88.7546 74.8216L88.6675 73.8254L87.6713 73.9126ZM87.3906 70.7049L87.3035 69.7087L86.3073 69.7958L86.3945 70.792L87.3906 70.7049ZM81.561 59.691L81.4739 58.6948L80.4777 58.782L80.5648 59.7782L81.561 59.691ZM87.0398 66.6952L86.0436 66.7823L86.1308 67.7785L87.127 67.6914L87.0398 66.6952ZM86.7409 63.2782L86.6537 62.282L85.6575 62.3692L85.7447 63.3654L86.7409 63.2782ZM82.9294 75.3313L87.7584 74.9088L87.5841 72.9164L82.7551 73.3389L82.9294 75.3313ZM88.6675 73.8254L88.3868 70.6177L86.3945 70.792L86.6751 73.9998L88.6675 73.8254ZM87.4778 71.7011L90.9819 71.3945L90.8076 69.4021L87.3035 69.7087L87.4778 71.7011ZM90.9819 71.3945C93.0978 71.2094 94.9146 70.5759 96.153 69.3072C97.4165 68.0125 97.9268 66.2137 97.7364 64.0378L95.7441 64.2121C95.8984 65.9761 95.4733 67.1401 94.7217 67.9102C93.9448 68.7062 92.6665 69.2395 90.8076 69.4021L90.9819 71.3945ZM97.7364 64.0378C97.5461 61.8618 96.7311 60.1785 95.259 59.1231C93.8168 58.089 91.9133 57.7815 89.7896 57.9673L89.9639 59.9597C91.8325 59.7962 93.1884 60.0994 94.0937 60.7485C94.9691 61.3761 95.5897 62.4482 95.7441 64.2121L97.7364 64.0378ZM89.7896 57.9673L81.4739 58.6948L81.6482 60.6872L89.9639 59.9597L89.7896 57.9673ZM80.5648 59.7782L81.846 74.4222L83.8384 74.2479L82.5572 59.6039L80.5648 59.7782ZM88.036 66.608L87.7371 63.1911L85.7447 63.3654L86.0436 66.7823L88.036 66.608ZM86.8281 64.2744L89.9138 64.0045L89.7395 62.0121L86.6537 62.282L86.8281 64.2744ZM89.9138 64.0045C90.336 63.9675 90.5597 64.0549 90.6614 64.1282C90.7388 64.1839 90.8509 64.3041 90.8801 64.6376L92.8725 64.4633C92.8026 63.6637 92.4651 62.9624 91.8301 62.5052C91.2194 62.0655 90.4678 61.9483 89.7395 62.0121L89.9138 64.0045ZM90.8801 64.6376C90.9093 64.9709 90.8199 65.1073 90.7533 65.1752C90.6647 65.2656 90.4552 65.3925 90.021 65.4305L90.1953 67.4229C90.9291 67.3587 91.6533 67.1141 92.1815 66.5753C92.7318 66.0139 92.9425 65.2632 92.8725 64.4633L90.8801 64.6376ZM90.021 65.4305L86.9527 65.699L87.127 67.6914L90.1953 67.4229L90.021 65.4305Z" fill="black"/>
<circle cx="47.6147" cy="94.407" r="22" fill="white" stroke="black"/>
<path d="M47.6763 111.135C56.8813 111.135 64.3434 103.673 64.3434 94.4681C64.3434 85.2631 56.8813 77.801 47.6763 77.801C38.4714 77.801 31.0093 85.2631 31.0093 94.4681C31.0093 103.673 38.4714 111.135 47.6763 111.135Z" fill="#F0B90B"/>
<path fill-rule="evenodd" clip-rule="evenodd" d="M40.5828 90.2347L47.683 83.1345L50.514 85.9656L43.4139 93.0657L40.5828 90.2347ZM40.588 98.7192L51.9347 87.3725L54.7658 90.2035L43.419 101.55L40.588 98.7192ZM56.1785 91.6242L44.8317 102.971L47.6626 105.802L59.0097 94.4551L56.1785 91.6242ZM36.3425 94.4741L39.1736 91.643L42.0047 94.4741L39.1736 97.3052L36.3425 94.4741Z" fill="white"/>
<circle cx="43.6763" cy="46.407" r="22" fill="white" stroke="black"/>
<path d="M36.2134 44.768L42.3932 37.4065L49.7606 43.5883L53.354 39.303L41.7036 29.5249L31.928 41.1747L36.2134 44.768Z" fill="#F3BA2F"/>
<path d="M29.3895 44.2006L25.7947 48.4846L30.0788 52.0793L33.6736 47.7953L29.3895 44.2006Z" fill="#F3BA2F"/>
<path d="M36.7003 50.3335L44.0648 56.5128L50.2468 49.1456L54.532 52.7361L54.5295 52.7391L44.7541 64.3917L33.1042 54.6191L33.0982 54.6141L36.7003 50.3335Z" fill="#F3BA2F"/>
<path d="M56.3773 41.8405L52.7825 46.1245L57.0666 49.7192L60.6614 45.4352L56.3773 41.8405Z" fill="#F3BA2F"/>
<path d="M47.2248 46.6073L42.8789 42.9583L40.1825 46.1717L39.8706 46.5403L39.2323 47.301L39.2273 47.307L39.2335 47.3148L43.5789 50.9583L47.225 46.61L47.2275 46.607L47.2248 46.6073Z" fill="#F3BA2F"/>
<circle cx="162.961" cy="69.9818" r="59.5" transform="rotate(-5 162.961 69.9818)" fill="white" stroke="black"/>
<path d="M143.532 32.2837L143.93 36.8263L148.281 36.4456L148.515 39.1234L141.032 39.7781L139.568 23.042L147.051 22.3873L147.285 25.0651L142.934 25.4458L143.298 29.6059L147.243 29.2608L147.477 31.9385L143.532 32.2837ZM155.283 21.6671L159.592 38.1543L156.46 38.4283L155.665 35.3901L152.437 35.6725L152.205 38.8006L149.049 39.0767L150.43 22.0918L155.283 21.6671ZM152.999 24.4689L152.475 32.8023L155.105 32.5722L153.142 24.4564L152.999 24.4689ZM160.387 38.0848L158.922 21.3487L163.68 20.9325C165.306 20.7902 166.403 20.9352 166.971 21.3674C167.554 21.7981 167.91 22.7467 168.039 24.2131L168.244 26.5561C168.333 27.5762 168.244 28.2988 167.976 28.7238C167.722 29.1314 167.279 29.395 166.647 29.5145C167.343 29.5661 167.844 29.7953 168.153 30.2019C168.462 30.6086 168.661 31.3299 168.752 32.3659L169.185 37.315L166.029 37.5912L165.56 32.2356C165.491 31.4387 165.145 31.0674 164.523 31.1218L162.945 31.2598L163.519 37.8108L160.387 38.0848ZM162.282 23.6808L162.724 28.7255L164.35 28.5833C164.668 28.5554 164.887 28.488 165.006 28.3812C165.14 28.2571 165.19 28.0038 165.157 27.6212L164.866 24.2979C164.834 23.9313 164.742 23.7065 164.59 23.6234C164.438 23.5403 164.195 23.5134 163.86 23.5427L162.282 23.6808ZM168.847 20.4805L172.002 20.2044L175.703 29.18L175.727 29.1779L174.919 19.9492L177.86 19.6919L179.324 36.428L176.049 36.7145L172.627 28.1722L172.603 28.1743L173.371 36.9488L170.311 37.2166L168.847 20.4805Z" fill="black"/>
<line x1="147.053" y1="48.7875" x2="176.939" y2="46.1729" stroke="black"/>
<path d="M128.101 74.4772L126.825 59.893L117.112 60.7427L106.493 76.3677L107.042 82.6437L120.371 81.4775L120.743 85.7213L129.021 84.9971L128.65 80.7533L132.445 80.4212L131.896 74.1452L128.101 74.4772ZM113.666 75.7401L119.161 67.6404L119.822 75.2015L113.666 75.7401ZM147.137 84.0747C155.266 83.3635 159.493 78.3259 158.742 69.7487C157.992 61.1714 152.954 56.9444 144.825 57.6556C136.696 58.3668 132.469 63.4044 133.22 71.9816C133.97 80.5588 139.008 84.7859 147.137 84.0747ZM146.527 77.1113C143.479 77.378 141.734 75.3323 141.378 71.2678C141.023 67.2033 142.386 64.8857 145.434 64.619C148.483 64.3523 150.228 66.398 150.583 70.4625C150.939 74.527 149.576 76.8446 146.527 77.1113ZM182.175 69.7463L180.899 55.162L171.186 56.0118L160.568 71.6367L161.117 77.9128L174.446 76.7466L174.817 80.9904L183.096 80.2661L182.724 76.0224L186.52 75.6903L185.971 69.4143L182.175 69.7463ZM167.74 71.0092L173.235 62.9095L173.897 70.4706L167.74 71.0092ZM198.928 79.7543L212.969 53.6813L209.299 51.6535L195.258 77.7265L198.928 79.7543ZM194.895 67.0375C199.676 66.6191 201.439 63.3631 201.123 59.7469C200.809 56.1606 198.508 53.2601 193.726 53.6785C188.944 54.0968 187.181 57.3529 187.495 60.9392C187.811 64.5554 190.113 67.4558 194.895 67.0375ZM194.45 61.9569C193.285 62.0588 192.763 61.2612 192.695 60.4842C192.625 59.6773 193.005 58.861 194.17 58.7591C195.336 58.6571 195.852 59.3949 195.923 60.2018C195.991 60.9789 195.616 61.8549 194.45 61.9569ZM214.484 77.8814C219.266 77.463 221.029 74.207 220.713 70.5908C220.399 67.0045 218.097 64.104 213.316 64.5224C208.534 64.9407 206.771 68.1968 207.085 71.7831C207.401 75.3993 209.703 78.2997 214.484 77.8814ZM214.04 72.8008C212.874 72.9027 212.353 72.1052 212.285 71.3281C212.214 70.5212 212.595 69.705 213.76 69.603C214.926 69.501 215.442 70.2388 215.512 71.0457C215.58 71.8228 215.205 72.6988 214.04 72.8008Z" fill="black"/>
<path d="M153.208 112.996L158.906 112.497L151.285 96.2996L143.555 96.9759L138.863 114.251L144.561 113.752L145.105 111.476L152.277 110.849L153.208 112.996ZM146.102 107.273L147.395 101.86L148.351 101.776L150.565 106.883L146.102 107.273ZM159.703 112.427L165.222 111.944L164.901 108.278L168.906 107.928C173.449 107.531 175.981 105.261 175.587 100.759C175.193 96.2557 172.305 94.4606 167.743 94.8597L158.239 95.6912L159.703 112.427ZM164.501 103.696L164.159 99.7909L167.685 99.4823C169 99.3673 169.915 99.9498 170.028 101.245C170.141 102.54 169.342 103.272 168.007 103.389L164.501 103.696ZM195.075 109.333L191.605 104.095C192.933 102.975 193.809 101.292 193.613 99.041C193.227 94.6378 190.443 92.8737 185.801 93.2799L176.217 94.1183L177.682 110.854L183.2 110.372L182.822 106.048L187.006 105.682L189.656 109.807L195.075 109.333ZM182.137 98.218L185.823 97.8955C187.218 97.7735 187.994 98.3881 188.097 99.5637C188.2 100.739 187.542 101.479 186.147 101.601L182.461 101.924L182.137 98.218Z" fill="black"/>
</svg>
