<svg width="27" height="14" viewBox="0 0 27 14" fill="none" xmlns="http://www.w3.org/2000/svg">
<path d="M11.5101 2.56001V9.56001H9.76006V8.86001H6.60006V13.23H4.83006V8.85001H1.68006V9.62001H6.10352e-05V2.56001H4.83006V0.140015H6.60006V2.56001H11.5101ZM4.83006 7.21001V4.21001H1.68006V7.21001H4.83006ZM9.76006 7.21001V4.21001H6.60006V7.21001H9.76006Z" fill="black"/>
<path d="M24.0001 4.12C23.3793 5.96034 22.4005 7.65965 21.1201 9.12C22.686 10.3045 24.4912 11.1337 26.4101 11.55C25.9719 12.0165 25.5955 12.5375 25.2901 13.1C23.2842 12.6006 21.4131 11.6651 19.8101 10.36C18.1358 11.6826 16.205 12.6429 14.1401 13.18C13.8661 12.6274 13.5306 12.1074 13.1401 11.63C15.1108 11.1955 16.9679 10.3504 18.5901 9.15C17.2864 7.68542 16.2689 5.98948 15.5901 4.15H13.4001V2.49H19.3101C19.1157 1.7981 18.851 1.12793 18.5201 0.49L20.3001 0C20.7049 0.670663 21.04 1.38104 21.3001 2.12L20.0901 2.49H26.1801V4.12H24.0001ZM17.3201 4.12C17.9004 5.56455 18.7563 6.88237 19.8401 8C20.855 6.87441 21.6307 5.55439 22.1201 4.12H17.3201Z" fill="black"/>
</svg>
