<svg width="271" height="227" viewBox="0 0 271 227" fill="none" xmlns="http://www.w3.org/2000/svg">
<g filter="url(#filter0_d)">
<rect x="0.541675" y="23.4545" width="153.117" height="153.117" transform="rotate(-5 0.541675 23.4545)" fill="#007EFC" stroke="black"/>
<rect x="11.5974" y="149.822" width="153.117" height="26.2669" transform="rotate(-5 11.5974 149.822)" fill="#FDCB02" stroke="black"/>
<rect x="0.541675" y="23.4545" width="10.8552" height="153.117" transform="rotate(-5 0.541675 23.4545)" fill="#123CB1" stroke="black"/>
</g>
<path d="M94.3707 149.457C128.141 146.503 153.122 116.731 150.167 82.9611C147.213 49.1909 117.442 24.2098 83.6714 27.1643C49.9012 30.1188 24.9201 59.8901 27.8746 93.6603C30.8291 127.431 60.6004 152.412 94.3707 149.457Z" fill="#988430"/>
<path d="M94.1993 147.498C126.888 144.638 151.068 115.821 148.208 83.1326C145.349 50.4443 116.531 26.2636 83.8429 29.1234C51.1546 31.9833 26.9739 60.8007 29.8337 93.489C32.6936 126.177 61.511 150.358 94.1993 147.498Z" fill="#7A6A2A"/>
<path d="M94.0902 146.252C126.09 143.452 149.761 115.242 146.962 83.2418C144.162 51.2421 115.952 27.5707 83.9519 30.3703C51.9522 33.1699 28.2808 61.3804 31.0804 93.3801C33.88 125.38 62.0905 149.051 94.0902 146.252Z" fill="#BA9F33"/>
<path d="M75.7504 114.143L73.49 110.642L74.2163 105.952L81.9885 102.142L77.9505 95.4163L79.0217 88.1741L81.642 81.5442L91.3221 79.1419L97.9334 71.6344L113.61 71.4493L118.124 87.8338L114.071 109.315L111.667 120.462L98.1171 122.166L91.422 118.345L83.7609 115.905L75.7504 114.143Z" fill="#E2CC85"/>
<path d="M98.397 110.261C98.397 110.261 96.5924 111.287 93.3694 111.369C92.3303 110.204 85.7787 110.189 85.7787 110.189C85.7787 110.189 84.9457 110.013 83.563 110.732C82.1695 111.442 80.798 111.492 79.5494 111.92C78.3007 112.349 76.8888 110.797 75.879 110.537C74.8674 110.256 73.4942 109.489 73.4942 109.489L70.7302 109.462L65.0255 107.618L55.5272 99.6752L53.478 103.603L53.1484 108.268L56.2671 113.489L63.948 119.347L78.1279 121.656L86.138 118.512L96.057 113.258L98.397 110.261Z" fill="#F1D789"/>
<path d="M48.4593 81.7643L49.7539 76.2772L51.5502 72.6505L58.2586 71.4953L56.748 77.5895L51.9778 88.1363L55.1079 96.9053L51.1341 99.3466L49.6864 97.4992L48.2644 93.0973L47.7536 88.0573L48.4593 81.7643Z" fill="#F4ECB4"/>
<path d="M57.6663 111.537L56.2118 109.84C56.2118 109.84 55.7902 109.01 55.9223 108.24C56.0535 107.461 56.0195 107.414 55.8954 107.136C55.7714 106.858 54.8537 105.941 54.8287 105.086C54.8029 104.221 54.6591 103.944 55.2326 103.206C55.8375 102.485 55.5392 101.355 55.5392 101.355L56.4467 101.814L56.6186 101.499C56.6186 101.499 56.9569 101.719 56.9907 102.105C57.0132 101.565 56.5098 99.1162 57.1135 98.4951C57.7271 97.8731 59.1553 100.978 59.1553 100.978L58.036 96.3905L55.7884 91.7816L52.1523 87.7129L51.5346 82.9315L51.4982 82.516C51.4982 82.516 50.205 84.9421 49.9479 86.7891C49.7601 88.0618 50.6049 89.5133 50.6132 91.3171C50.6503 93.1085 50.4897 92.9829 50.9866 93.6473C51.4834 94.3117 52.6693 95.6736 52.3455 96.7587C52.0582 97.6911 50.7561 97.167 50.7561 97.167C50.7561 97.167 50.5728 97.9208 50.2598 98.2174C50.103 97.7924 49.9501 97.5266 49.6893 97.2802C49.6842 97.4502 49.6546 97.6821 49.6546 97.6821C49.6546 97.6821 49.3772 97.0184 49.0842 96.1767C48.687 95.0549 48.2379 93.5688 47.88 92.7826C47.802 93.258 47.6289 94.6988 47.6289 94.6988L47.9876 96.8608L49.0603 99.7779L50.0134 101.669L50.9847 103.996L51.7887 105.551L52.4303 106.731L53.1369 109.451L55.5906 111.629L56.8346 112.059L57.6663 111.537Z" fill="#F3E19D"/>
<path d="M48.8414 76.9864C48.8414 76.9864 47.4684 79.8682 47.2449 82.6693C47.0213 85.4705 46.8611 88.4257 47.4869 92.1595C48.1153 95.923 48.8827 98.1989 49.4832 99.8213C50.5064 102.513 52.8706 106.175 52.8706 106.175L52.9268 106.02C52.9268 106.02 52.3069 105.088 51.9381 104.063C51.5792 103.038 51.3712 101.8 51.0745 101.257C50.8074 100.712 50.3989 100.26 50.1602 99.5826C49.934 98.9344 49.8126 97.8882 49.2297 97.1516C48.9843 96.854 48.6445 96.0462 48.4926 95.222C48.2846 93.984 48.311 92.576 48.0918 91.4386C47.7071 89.5481 47.4453 88.2649 47.5557 87.2483C47.6662 86.2316 48.4467 83.302 48.8826 80.9907C49.1718 79.5098 48.818 78.3144 49.4699 76.9912C50.1227 75.6779 50.4916 74.5389 50.5932 73.7623C50.7305 73.0524 48.8414 76.9864 48.8414 76.9864Z" fill="#F2E8B0"/>
<path d="M57.044 75.753C57.044 75.753 56.2345 76.0731 55.8768 76.543C55.5174 76.9932 55.3795 77.3542 54.9067 78.1035C54.4347 78.8626 54.4544 79.4292 54.096 80.3478C53.736 81.2467 52.8897 82.6268 52.8116 83.1023C52.7336 83.5777 52.7261 85.7717 52.5688 86.8224C52.4412 87.8704 53.017 89.0962 53.017 89.0962L53.5706 88.9281C53.5706 88.9281 53.6346 89.6603 54.2419 90.1057C54.8483 90.5411 54.7611 88.4052 54.7611 88.4052L56.2462 81.1069L59.2335 78.6721L59.4275 76.9004L57.044 75.753Z" fill="#F5EEC0"/>
<path d="M58.6872 79.0315C58.6872 79.0315 57.2018 79.2612 56.5164 79.8595C56.2386 80.1032 56.1354 80.2917 55.8422 80.5865C55.3009 81.1224 54.7462 81.6196 54.5146 82.2779C54.2534 82.9388 53.9911 83.9289 53.912 85.7603C53.8797 86.5308 53.9412 87.2333 53.9256 87.8528C53.8994 88.6926 53.809 89.3685 53.9288 89.8266C54.1108 90.7678 55.1337 91.1768 55.327 92.2466L57.2652 91.0401L58.5161 83.3436L62.3503 80.4458L59.8297 78.0742L58.6872 79.0315Z" fill="#E6DB9D"/>
<path d="M61.2818 146.248L52.2477 147.258L47.4169 147.311C47.4169 147.311 47.4056 143.763 47.4021 142.926C47.5253 142.397 47.9612 140.883 48.106 140.601C48.1901 140.195 48.2511 139.183 47.8074 137.985C47.9947 137.62 48.661 137.372 48.8256 130.478C48.8999 127.91 48.7806 125.976 48.8927 124.75C49.0595 123.01 49.2218 122.358 49.1161 121.719C48.9568 120.696 48.8118 119.951 48.8415 119.151C48.8982 118.089 49.8181 116.753 49.7131 115.894C49.6336 115.213 49.2483 114.799 48.9152 114.409C48.582 114.019 48.3142 113.694 48.3142 113.694C48.3142 113.694 50.2205 112.121 49.709 106.503C49.78 106.517 49.8321 106.542 49.8321 106.542L51.0798 109.294L51.8352 110.066L54.8848 114.724L58.5453 117.704L63.8255 120.622L67.2498 123.752L68.3602 132.797L64.7379 138.458L61.2818 146.248Z" fill="#E5CB7A"/>
<path d="M61.9536 141.672C61.9536 141.672 61.9242 140.538 62.7902 139.725C62.9602 139.959 63.08 140.188 63.0659 140.369C63.2081 140.057 64.2193 138.054 66.8376 137.327C69.4567 136.609 69.9302 134.614 69.9302 134.614L75.1305 128.984L81.0712 122.472L88.6857 119.025L92.2777 117.803C92.2777 117.803 92.3704 118.064 92.2838 118.67C92.9621 118.561 94.4457 118.082 95.9704 117.39C96.582 117.088 97.167 116.937 97.5122 117.235C98.0153 117.63 98.1746 118.653 98.2579 119.264C99.005 119.029 99.8216 118.22 100.53 118.228C101.668 118.248 102.784 119.486 103.932 119.386C105.445 119.253 106.047 118.263 107.041 117.439C107.636 116.948 108.499 116.324 108.982 115.913C110.13 114.905 122.764 109.802 122.764 109.802L127.341 109.701L128.501 114.524L129.229 127.402L109.344 140.108L76.9354 148.018L63.2589 145.765L61.9536 141.672Z" fill="#D8C173"/>
<path d="M47.7938 146.865C47.7938 146.865 48.7538 144.049 48.975 140.081C49.1596 136.835 48.68 136.139 48.7087 135.1C48.7418 133.542 50.2201 130.381 50.3174 129.785C50.5409 130.971 51.2828 135.463 52.6178 136.363C52.3852 136.782 52.0595 138.186 53.7442 139.096C53.5264 139.683 53.0419 140.413 53.4782 141.412C53.9146 142.411 54.4582 143.839 54.4015 145.469C53.8479 145.637 53.2561 145.938 52.8119 146.445C52.3652 146.923 47.7938 146.865 47.7938 146.865Z" fill="#F1D789"/>
<path d="M68.7352 147.068L75.8498 144.402L76.1751 144.473C76.1751 144.473 76.352 144.558 76.3814 144.894C76.8231 144.586 77.2232 144.601 77.4945 144.398C77.6706 144.701 77.9108 145.737 78.5751 145.809C79.2708 145.897 79.964 145.388 80.6567 144.759C81.3378 144.111 82.1049 143.307 82.7121 142.954C82.8482 143.142 83.1987 143.729 83.4407 144.217C84.2138 143.481 85.4229 140.663 87.4853 140.533C87.6425 140.05 88.2266 138.294 90.0426 136.829C91.8388 135.366 93.0273 135.163 94.5317 135.151C95.0488 134.338 95.751 133.588 96.5199 133.033C96.7759 133.11 97.495 133.466 98.3112 132.995C99.1374 132.524 99.9729 130.906 101.232 130.596C102.345 130.329 103.247 130.839 103.247 130.839C103.247 130.839 106.644 126.823 109.1 125.372C108.975 125.084 108.679 123.983 111.471 121.246C111.652 121.38 111.569 121.806 111.69 121.815C111.739 121.811 112.444 121.43 113.312 120.636C114.384 119.675 115.68 118.654 116.49 118.334C118.013 117.733 119.758 118.537 119.758 118.537C119.758 118.537 119.943 118.371 120.204 118.279C120.594 118.175 120.876 118.1 121.087 118.002C121.112 118.518 121.476 119.374 121.276 120.159C121.276 120.159 121.713 120.37 122.292 120.489C122.155 120.87 121.871 121.832 121.296 122.331C121.832 122.533 121.927 122.814 122.68 122.997C122.42 123.439 121.998 124.193 121.818 124.648C121.641 125.132 121.028 127.13 120.746 127.892C120.444 128.656 120.067 130.045 119.853 130.333C119.629 130.622 118.878 131.844 118.265 132.466C118.829 132.197 121.17 131.255 122.165 130.889C121.63 131.843 116.697 140.759 116.697 140.759L105.577 145.161L100.06 146.601L70.88 149.134L68.1959 148.083L68.7352 147.068Z" fill="#E0CD81"/>
<path d="M59.5467 79.3658C59.5467 79.3658 58.6859 79.4411 58.5281 79.5745C58.3703 79.708 59.4209 79.8653 59.7479 79.9563C60.0749 80.0474 60.8053 80.5318 61.0214 80.9516C61.226 81.3524 67.4538 83.2502 67.4538 83.2502L71.6893 82.6603L72.9761 80.5039L69.9722 78.3041L71.4266 72.3644L68.8706 73.0067L62.9627 77.2723L59.9409 78.7431L59.5467 79.3658Z" fill="#DFC57C"/>
<path d="M68.7078 81.1402C68.7078 81.1402 68.9037 81.4421 69.3193 81.4057C70.1999 81.3287 71.0302 81.4754 71.4056 81.8912C72.0319 82.5542 73.7943 84.6931 73.7943 84.6931L77.652 85.7115L77.5142 81.287L73.1794 78.8048L68.6789 80.9234L68.6979 81.141L68.7078 81.1402Z" fill="#E5CC7C"/>
<path d="M67.4641 82.8277C67.4641 82.8277 68.1512 82.8175 68.9843 82.4255C69.8174 82.0336 71.1725 81.2271 71.8093 81.4406C72.7021 81.7314 72.6245 82.8947 73.6445 83.8423C74.2639 84.4262 75.2912 84.3164 75.9347 84.948C76.5782 85.5797 78.559 85.0873 78.559 85.0873L79.6801 89.1268L76.9656 93.3124L76.3921 98.2678L72.2563 98.6296L68.346 97.4663L66.0921 93.1271L66.6239 88.4944L67.4641 82.8277Z" fill="#D2C281"/>
<path d="M76.1345 82.8378C76.1345 82.8378 76.2872 82.8743 76.4554 82.8596C76.3453 82.9689 76.117 83.2082 76.2653 83.7635C76.4136 84.3188 76.7925 85.0035 76.5635 85.4622C76.6952 85.6003 76.888 85.7529 77.0995 86.2329C77.3101 86.703 77.3985 87.1439 78.5029 87.1171C78.2685 87.2871 78.0978 87.5015 78.0978 87.5015C78.0978 87.5015 78.9177 88.0977 79.3572 88.6774C79.7513 88.623 80.7715 88.2047 80.7715 88.2047L81.0021 88.3341L81.4498 88.0955C81.4498 88.0955 80.9998 87.9654 81.2238 86.879C81.4392 85.923 81.7107 85.9491 81.7244 85.8781C81.7382 85.8071 81.8504 84.8103 81.8157 84.4145C81.9191 83.887 81.9011 82.3133 81.9011 82.3133L81.2824 78.888L79.407 77.9653L77.8404 76.6966L76.7001 79.3886L75.8785 80.3677L76.004 82.6L76.1345 82.8378Z" fill="#E2C270"/>
<path d="M81.1113 81.1345C81.1113 81.1345 81.5067 82.0071 81.686 82.6893C81.7363 82.4656 81.7189 82.2677 81.7189 82.2677C81.7189 82.2677 82.0858 83.6115 82.1846 84.1711C82.2818 84.1427 82.3781 84.1043 82.4066 84.2016C82.435 84.2988 82.7587 85.3771 82.7629 85.9949C82.8626 85.7668 83.3512 84.8567 84.2797 84.1872C84.6538 83.9052 85.0955 83.5974 85.5786 83.5352C86.3387 83.4488 86.9369 83.9049 87.8472 83.8253C90.0437 83.6331 91.8913 81.8463 93.3124 81.2235C94.3588 80.7631 95.2655 80.4146 95.8666 79.7638C96.1599 79.4689 96.6719 78.8259 97.1094 77.9003C97.689 76.6632 98.3123 75.5818 99.0134 75.3908C98.4581 75.5391 98.0399 75.5458 98.0399 75.5458C98.0399 75.5458 98.2386 75.309 98.5787 74.9802C98.9188 74.6513 99.332 74.2463 99.9652 74.1909C101.093 74.0922 101.672 74.2111 102.305 74.1557C102.937 74.0805 103.29 73.9 103.29 73.9C103.29 73.9 103.993 74.3071 105.487 74.1764C106.983 74.0654 107.994 74.1066 108.781 74.1075C109.569 74.1084 112.166 73.5921 112.92 73.5461C113.703 73.4975 114.365 73.7686 114.365 73.7686L111.324 66.9359L101.952 60.089L97.0884 64.2134L89.8113 72.8859L82.344 76.4205L80.8896 78.3722L81.1311 81.1327L81.1113 81.1345Z" fill="#CCB360"/>
<path d="M98.3234 76.1919C98.3234 76.1919 98.522 75.9551 98.8621 75.6263C99.2023 75.2974 99.6155 74.8924 100.249 74.837C101.377 74.7383 101.955 74.8572 102.589 74.8018C103.22 74.7266 103.573 74.5461 103.573 74.5461C103.573 74.5461 104.277 74.9532 105.771 74.8225C107.267 74.7115 108.277 74.7527 109.065 74.7536C109.853 74.7545 112.449 74.2381 113.203 74.1921C113.986 74.1436 114.648 74.4147 114.648 74.4147L113.272 71.3347L111.784 69.0223L107.794 65.3534C107.794 65.3534 103.195 63.1636 103.164 63.1464C103.143 63.1283 101.614 62.8632 101.614 62.8632L97.8657 65.6039L95.0869 75.2088L95.189 77.1739L97.6102 78.0688C98.1083 77.0382 98.683 76.2003 99.2779 76.0485C98.7389 76.1555 98.3234 76.1919 98.3234 76.1919Z" fill="#D5B457"/>
<path d="M97.5033 75.6986C97.1587 75.7487 96.8658 75.7046 96.765 75.4641C96.3954 74.659 96.1476 74.561 95.9002 74.5827C95.6529 74.6043 95.3632 75.168 95.1696 75.2348C94.9761 75.3016 94.6806 74.6595 94.6806 74.6595L94.4543 74.5796C94.4543 74.5796 93.2507 75.5224 92.436 76.5807C91.6213 77.639 90.2925 79.4302 89.6555 79.785C89.0186 80.1398 86.7516 80.4379 85.9846 80.6745C85.2177 80.911 84.4062 81.5503 84.2988 81.6893C84.1913 81.8283 84.6684 81.9262 84.749 82.0487C84.8286 82.1614 83.9932 82.1847 83.9351 82.3193C83.8943 82.4226 84.191 82.9649 84.3349 83.2415C84.5439 83.1235 84.7555 83.0352 85.0029 83.0136C85.763 82.9271 86.3612 83.3832 87.2715 83.3036C89.468 83.1114 91.3156 81.3247 92.7367 80.7019C93.7832 80.2414 94.6898 79.8929 95.2909 79.2421C95.5842 78.9473 96.0962 78.3043 96.5337 77.3787C96.8568 76.7422 97.1736 76.1462 97.5033 75.6986Z" fill="#D2B257"/>
<path d="M66.7351 125.219C66.7351 125.219 66.4732 124.504 64.4972 122.773C63.936 122.283 63.5804 121.866 63.2064 121.579C62.2746 120.843 61.751 120.67 61.0968 120.259C59.6638 119.377 58.1994 119.505 56.9642 118.377C55.7289 117.249 54.2078 115.019 53.088 112.704C51.9782 110.388 51.6642 109.648 51.6581 109.579C51.652 109.51 51.8587 109.023 52.1814 109.065C52.5041 109.106 52.5577 109.72 52.6499 109.861C52.674 109.909 52.9293 110.206 53.2439 110.497C53.7557 110.991 54.4748 111.576 54.8943 112.496C54.7541 111.691 54.3983 110.815 54.3983 110.815C54.3983 110.815 56.2358 111.761 57.8203 112.779C59.4148 113.796 60.0628 114.138 60.5622 114.832C61.0616 115.526 62.2594 117.365 62.8035 117.886C63.3475 118.407 70.2815 119.944 70.2815 119.944L73.6967 122.057L75.5953 125.411L74.52 127.479L72.1706 128.203L68.1298 126.802L66.7351 125.219Z" fill="#D2B159"/>
<path d="M56.541 115.313C56.541 115.313 57.4658 116.539 59.5519 117.592C61.4273 118.515 64.3328 119.248 66.897 119.612C68.3719 119.832 69.8398 119.972 71.1377 119.879C74.6347 119.623 76.9516 118.413 79.9012 117.826C81.4992 117.517 83.4668 117.215 85.4824 116.55C88.0688 115.686 89.5697 114.837 91.6096 113.651C93.0907 112.804 94.4589 112.146 95.5469 111.363C97.0765 110.272 98.1613 109.11 99.499 108.674C99.3715 109.154 99.2661 110 97.9958 110.979C98.7065 110.897 99.6817 110.761 99.6817 110.761C99.6817 110.761 98.7812 111.409 97.2198 112.821C96.2592 113.693 95.0098 115.138 93.6918 116.141C92.8407 116.784 91.8976 117.285 91.2839 117.678C89.7959 118.675 89.2007 119.166 88.2635 120.305C88.6279 120.253 88.6593 120.27 88.6593 120.27C88.6593 120.27 87.3778 120.552 86.4911 121.128C86.2932 121.145 85.9507 121.105 85.3718 121.325C84.9197 121.514 84.3357 121.905 83.7181 122.138C82.8411 122.484 82.5338 122.391 82.5338 122.391L82.7082 122.675C82.7082 122.675 81.5291 122.758 81.1467 122.832C81.2177 122.845 81.2005 122.877 81.2005 122.877C81.2005 122.877 81.151 122.881 81.0086 122.963C80.896 123.043 80.7093 123.189 80.4186 123.284C80.3016 123.314 80.2026 123.323 80.0568 123.366C80.1167 123.48 80.5605 124.109 80.7733 124.489C80.6335 124.601 78.5545 126.478 78.5545 126.478C78.5545 126.478 78.6664 126.618 78.753 126.81C78.8413 127.021 78.8987 127.335 78.9809 127.478C79.1751 127.76 79.2783 127.801 79.2783 127.801C79.2783 127.801 79.0155 127.873 78.5609 128.033C78.1738 128.166 77.7037 128.377 77.0296 128.536C76.8335 128.573 76.6184 128.622 76.4007 128.641C76.5187 128.85 77.0268 129.643 76.3093 130.673C75.5811 131.693 75.3566 131.863 75.1629 132.498C75.0893 132.454 74.952 132.366 74.7455 132.285C74.468 132.19 74.0863 132.043 73.9369 131.817C73.9258 131.918 73.8606 132.312 73.7214 132.773C73.5321 133.458 73.2231 134.143 73.1971 134.644C72.904 134.37 72.3582 133.83 71.6859 134.008C71.0136 134.187 70.5508 135.164 70.4554 135.442C70.4407 135.274 70.3107 135.155 70.2984 135.356C70.2976 135.575 70.1207 137.884 68.1842 139.908C68.1237 139.444 68.0337 138.415 67.9548 138.083C67.7742 138.299 67.5618 138.606 66.1907 139.344C64.8493 140.08 65.1207 140.674 65.1207 140.674C65.1207 140.674 64.9162 139.705 65.5782 138.61C66.25 137.515 66.6726 136.989 66.6657 136.91C66.664 136.89 66.6355 136.793 66.5477 136.701C66.4401 136.611 66.2318 136.509 66.2249 136.43C66.3393 136.37 67.4674 135.703 67.296 134.542C67.135 133.499 66.6421 132.994 66.2917 132.636C66.2379 132.591 66.7204 132.179 66.6408 132.067C66.5852 132.002 65.9113 131.592 65.8105 131.352C65.8199 131.231 65.8323 131.031 65.8714 130.908C65.9216 130.684 65.9581 130.531 65.9253 130.385C65.8542 130.142 65.5273 129.482 65.4421 129.42C65.5131 129.434 66.0061 129.371 66.0061 129.371C66.0061 129.371 65.5549 128.772 65.4597 128.481C65.3644 128.19 65.1476 127.422 65.0555 127.28C65.2254 127.285 65.6436 127.279 65.6393 127.229C65.6461 127.079 65.2386 126.865 65.3903 126.663C65.5108 126.672 65.747 126.751 65.9889 127.009C65.8425 126.703 65.5909 126.107 65.1537 125.896C65.3455 125.809 65.9929 125.573 66.6069 125.868C67.221 126.164 67.4613 126.631 67.4613 126.631C67.4613 126.631 67.831 126.868 68.3999 127.217C69.0557 127.648 69.898 128.272 71.1871 128.648C71.4672 128.773 72.1499 128.713 72.636 128.571C72.9267 128.476 73.0863 128.362 73.2278 128.27C73.3404 128.19 73.4368 128.152 73.4368 128.152C73.4368 128.152 73.2043 127.774 73.017 127.571C73.1852 127.556 73.3848 127.559 73.3848 127.559C73.3848 127.559 73.4802 127.281 72.9009 126.813C73.0092 126.684 73.1507 126.592 73.1334 126.394C72.9635 126.389 72.645 126.168 72.5671 126.075C72.66 125.997 72.7885 125.756 72.9506 125.672C72.7918 125.567 72.3825 125.104 72.2099 125.069C72.3738 125.005 72.6559 124.811 72.6559 124.811C72.6559 124.811 71.8058 124.666 71.523 124.511C71.2386 124.337 70.8134 124.035 70.5672 123.957C70.3112 123.879 69.8716 123.868 69.6762 123.686C69.8487 123.72 70.1115 123.648 70.3094 123.63C70.4578 123.617 70.5288 123.631 70.5783 123.627C70.5524 123.559 70.5394 123.411 70.921 123.327C71.281 123.226 71.4405 123.113 71.4405 123.113C71.4405 123.113 71.0727 123.125 70.6225 122.765C70.1724 122.406 69.7984 122.12 69.5566 122.091C69.3049 122.063 68.8589 122.321 68.5702 122.327C68.1701 122.312 67.9846 122.129 67.9846 122.129C67.9846 122.129 66.6791 122.363 63.6045 120.837C60.9464 119.514 59.7287 118.245 59.7287 118.245C59.7287 118.245 59.4232 118.172 59.0183 117.988C58.0251 117.576 56.6192 116.663 56.541 115.313Z" fill="#C2A44D"/>
<path d="M92.703 54.8506C92.703 54.8506 93.0579 54.9192 93.3214 55.1953C93.8331 55.6889 94.2182 56.6721 93.2539 57.8432C93.6825 57.9553 93.855 57.99 94.2168 57.9085C93.8888 58.3759 93.139 59.3787 93.1605 60.1943C93.169 60.8616 93.6019 61.0231 93.6019 61.0231C93.6019 61.0231 93.0327 61.8107 93.1104 63.0401C93.2441 62.859 93.5485 62.4634 94.0086 62.0244C94.6897 61.3766 95.6409 60.6254 96.2872 60.1501C96.2908 60.419 96.4015 60.6585 96.4015 60.6585C96.4015 60.6585 97.5861 59.4981 98.6954 59.8696C99.1992 60.0449 99.0413 60.7466 99.0413 60.7466C99.0413 60.7466 99.6825 60.4413 100.188 60.8656C100.694 61.2899 101.462 62.4291 101.839 62.8647C102.006 63.0694 102.428 63.4512 102.88 64.0597C103.412 64.7809 104.018 65.7847 104.474 66.7817C104.449 66.2654 104.508 65.4527 106.016 65.8292C107.526 66.2156 109.282 67.1487 110.863 69.1539C112.445 71.1591 113 73.5232 113.783 74.372C114.572 75.1903 115.432 76.5905 115.535 77.1997C115.639 77.8088 115.545 79.811 117.477 85.0357C117.747 83.3371 118.058 79.5911 118.058 79.5911L118.119 76.3056L117.634 66.1987L106.352 58.3822L97.6077 53.1353L92.2999 54.1181L92.703 54.8506Z" fill="#CAA13E"/>
<path d="M114.768 68.3491C114.768 68.3491 114.534 67.3826 111.915 65.9368C109.298 64.5107 107.369 64.6795 105.466 63.4402C104.004 62.4614 102.359 60.0631 101.356 59.3133C100.384 58.5709 100.028 56.2092 100.028 56.2092L102.843 53.4007L106.793 46.4749L110.244 41.9357L112.297 44.3184L115.101 47.0839L117.041 52.9561L118.323 61.6872L114.768 68.3491Z" fill="#B59544"/>
<path d="M117.345 79.4823C117.345 79.4823 117.346 77.558 116.515 75.5868C115.685 73.6156 113.945 70.1388 113.164 68.8512C112.767 67.3805 112.954 67.2445 113.226 67.0512C113.508 66.857 114.523 66.1501 114.928 63.9412C115.323 61.7332 117.158 61.5029 117.158 61.5029L118.213 60.5731L120.299 64.7075L122.132 68.4455L122.856 71.3632L123.423 73.8559L123.078 79.2599L119.388 83.2318L117.345 79.4823Z" fill="#C89D3A"/>
<path d="M59.9081 147.207C59.9081 147.207 58.8623 145.624 58.7505 144.916C58.6709 144.235 58.8991 143.766 58.8991 143.766C58.8991 143.766 58.5078 143.282 58.1808 143.191C58.2198 142.839 58.3121 142.412 58.5541 142.102C58.7935 141.762 59.2717 141.301 59.3576 141.144C59.4436 140.987 59.4758 140.785 59.7584 140.71C60.0509 140.635 60.3675 140.607 60.3337 140.221L60.2714 139.509C60.2714 139.509 60.3841 139.429 60.4718 139.292C60.5324 139.187 60.5714 139.064 60.6183 139.03C60.7129 138.972 61.165 138.782 61.4167 138.81C61.6683 138.838 62.3447 139.048 62.6893 138.998C63.4 138.916 64.1835 138.299 65.521 138.431C67.5319 138.624 68.1147 139.929 69.3291 140.591C70.1574 141.057 70.948 140.748 71.0667 140.738L71.3339 140.714C71.3833 140.71 71.7131 140.262 71.9127 140.265C72.3102 140.25 72.3783 140.573 72.6274 140.571C73.2172 140.589 74.3132 140.125 74.8901 140.224C75.1633 140.27 75.5339 140.516 75.6648 140.874C75.8156 141.229 75.7573 141.703 75.4938 141.995C74.9297 142.613 74.3927 143.198 74.3146 143.674C74.4932 143.778 74.8143 144.029 74.8143 144.029C74.8143 144.029 74.5688 144.3 74.0948 144.58C73.8858 144.698 73.5542 144.897 73.1727 144.98C72.4466 145.113 71.5449 145.292 71.079 146.12C70.6131 146.949 68.7347 146.674 68.7347 146.674L59.9081 147.207Z" fill="#CEB052"/>
<path d="M115.555 119.894C115.555 119.894 116.919 117.701 117.364 116.635C117.806 115.54 114.416 102.427 114.416 102.427L117.606 87.382L117.07 82.6234C117.07 82.6234 116.903 78.2014 117.25 76.2468C117.96 77.2914 119.985 78.4501 120.462 79.1163C120.542 77.7533 120.957 74.8557 120.593 71.8367C121.008 72.3687 122.385 77.961 122.385 77.961L123.6 81.7032L125.102 85.6594L126.754 89.8319L127.774 92.7236L128.272 93.3979L128.747 94.6126L129.211 95.9279L130.487 98.9967L131.297 101.538L132.173 106.197C132.173 106.197 132.393 106.766 132.487 107.276C132.552 107.789 132.489 108.094 132.497 108.183C132.505 108.282 132.763 109.296 132.763 110.084C132.732 110.874 132.786 111.487 132.222 112.105C131.657 112.723 131.565 116.111 131.565 116.111L130.403 115.474C130.403 115.474 130.533 114.456 129.939 113.591C129.346 112.735 128.329 112.625 127.778 112.823C127.224 112.991 126.112 113.268 125.774 113.616C125.455 113.963 124.69 115.017 123.947 115.531C123.019 116.2 121.43 116.389 120.596 116.661C119.753 116.935 118.854 117.601 117.915 118.372C116.935 119.135 115.928 119.712 115.555 119.894Z" fill="#CCA847"/>
<path d="M114.536 141.704C114.536 141.704 115.446 142.192 117.063 142.44C118.68 142.687 122.93 144.658 122.93 144.658L126.516 146.438L130.748 146.387L134.394 145.55C134.394 145.55 134.376 143.976 133.629 138.169C132.87 132.343 132.609 131.529 132.571 131.093C132.533 130.658 131.735 123.25 131.426 121.652C131.116 120.054 131.092 118.401 130.959 117.456C130.826 116.51 129.954 112.688 129.619 111.711C129.264 110.735 128.706 110.285 128.627 110.292C128.56 110.318 128.307 112.214 128.348 112.679C128.388 113.144 128.388 114.281 128.413 114.568C128.342 114.554 128.297 114.379 128.291 114.309C128.214 114.565 128.133 115.011 128.088 115.065C128.043 115.119 128.121 114.643 128.043 114.55C127.965 114.457 127.841 114.518 127.849 114.268C127.847 114.019 127.88 113.827 127.88 113.827C127.88 113.827 127.621 114.288 127.5 115.415C127.379 116.533 127.381 116.562 127.311 116.668C127.252 116.793 126.891 117.223 126.884 117.374C126.888 117.642 127.297 117.876 127.339 118.022C127.381 118.267 127.115 119.447 127.046 120.021C126.976 120.596 127.122 121.69 127.043 122.265C126.989 122.788 126.916 123.093 126.598 123.341C126.85 123.368 127.094 123.417 127.094 123.417C127.094 123.417 127.568 124.851 126.797 126.175C126.518 126.638 126.456 126.843 126.154 127.268C125.556 128.058 125.114 128.934 125.112 129.483C125.045 129.289 125 129.004 125 129.004C125 129.004 124.076 130.291 123.7 131.012C123.213 131.942 122.427 131.961 122.229 132.197C122.03 132.434 122.015 132.834 122.112 133.145C121.919 133.212 121.559 133.313 121.378 134.096C121.294 134.502 121.031 134.914 120.589 135.222C120.148 135.53 119.591 135.658 119.31 135.753C119.563 135.8 119.662 135.792 119.788 135.861C119.661 136.121 119.012 136.566 118.293 137.128C117.572 137.66 117.266 138.374 117.117 138.836C116.955 139.269 116.692 139.561 116.231 139.651C116.439 139.753 116.75 140.005 116.907 140.081C116.693 140.149 116.327 140.181 115.714 140.803C115.071 141.438 114.849 141.627 114.536 141.704Z" fill="#C39D3C"/>
<path d="M98.9849 147.616C98.9849 147.616 99.5153 146.613 101.007 145.884C102.497 145.135 104.119 144.874 104.745 144.62C105.341 144.368 105.802 144.059 106.551 143.844C106.533 144.433 106.544 144.901 106.41 145.311C106.983 145.361 108.302 144.139 109.042 143.825C109.782 143.511 111.482 142.993 111.62 142.862C111.758 142.73 112.012 141.99 112.108 141.952C112.206 141.923 112.487 142.068 112.656 142.053C112.972 142.026 115.018 139.773 116.782 139.648C118.525 139.516 120.63 140.787 120.447 142.109C120.889 141.802 121.352 141.512 121.756 141.576C121.722 141.749 121.719 141.948 121.719 141.948C121.719 141.948 122.65 141.647 122.925 141.942C123.22 142.236 123.097 142.545 123.806 143.241C124.376 143.829 124.241 143.991 124.161 144.217C124.414 144.265 125.668 144.574 126.888 145.534C128.108 146.484 117.919 146.717 117.919 146.717L99.2141 148.184L98.9849 147.616Z" fill="#D2BA6B"/>
<path d="M128.571 103.753C128.571 103.753 128.405 105.493 127.935 106.621C127.465 107.748 126.983 109.296 126.983 109.296C126.983 109.296 126.936 108.762 127.014 108.286C126.338 108.764 124.694 109.915 124.238 110.404C123.809 110.86 123.092 111.66 122.924 112.024C123.27 110.618 123.647 109.349 123.677 108.778C123.01 109.355 119.925 112.386 118.352 114.348L113.341 119.183C113.341 119.183 112.551 119.721 111.511 120.251C110.615 120.728 109.546 121.16 108.763 121.548C108.929 120.945 109.231 120.4 109.672 119.863C110.144 119.333 111.541 117.526 111.71 116.724C111.857 115.893 111.864 115.404 111.518 114.747C111.256 114.839 110.646 114.923 110.24 115.078C109.835 115.233 109.429 115.717 109.429 115.717C109.429 115.717 109.587 113.879 110.12 112.107C109.607 112.172 108.74 112.398 108.74 112.398C108.74 112.398 109.787 110.232 111.759 108.614C111.418 108.714 110.654 108.98 109.93 109.362C108.748 109.984 107.469 110.864 106.506 111.367C107.002 110.536 110.465 104.54 112.359 99.0701C114.245 93.6111 115.008 92.1884 115.275 89.3236C115.42 87.9051 115.171 85.8531 115.078 83.9969C114.988 82.1604 115.071 80.498 114.827 79.4127C115.507 80.1209 117.99 82.0672 118.489 86.8589C118.978 91.6516 117.28 98.3305 115.181 102.034C115.779 102.151 117.32 102.215 118.647 99.3675C119.973 96.5197 119.886 95.7596 120.351 94.5823C120.47 95.1402 120.468 95.3398 120.468 95.3398C120.468 95.3398 122.502 92.3802 123.276 88.813C123.625 90.288 124.383 91.5476 123.614 94.3766C122.93 96.929 121.805 97.6355 121.805 97.6355C121.805 97.6355 122.38 97.4855 123.196 96.8957C123.376 97.2488 123.383 97.667 123.643 97.7937C123.904 97.9205 124.262 98.1384 124.332 98.3716C124.565 97.9524 124.936 97.4115 125.032 97.0242C125.001 97.8145 125.231 101.244 125.75 102.953C126.506 102.817 127.283 102.7 127.697 101.278C127.449 102.655 127.52 103.467 127.867 104.593C128.249 104.28 128.571 103.753 128.571 103.753Z" fill="#C0993A"/>
<path d="M102.28 49.2256C102.28 49.2256 101.546 49.6089 100.25 49.7223C99.1219 49.821 99.4005 49.3579 97.6393 49.512C94.9283 49.7492 85.5963 52.1409 83.9323 52.2665C82.8521 52.3411 87.6141 52.413 87.6141 52.413L99.6899 51.526L102.097 51.1161L102.837 49.2068L102.28 49.2256Z" fill="#A88F33"/>
<path d="M70.715 73.779C70.715 73.779 69.2745 75.0914 68.7003 76.0489C68.1161 77.0073 67.8317 77.6304 67.1537 78.4275C67.4028 78.4257 67.6621 78.3132 67.6621 78.3132C67.6621 78.3132 67.6794 78.5111 67.565 78.571C67.8106 78.5295 68.0064 78.6021 68.1463 78.7195C67.939 78.8573 67.3973 79.5029 67.9238 80.1647C68.3168 80.6687 69.0533 80.6541 69.0533 80.6541C69.0533 80.6541 68.9275 81.1536 69.6257 81.0427C71.1335 80.841 72.7674 80.0301 73.5638 80.1299C74.3627 80.2594 74.814 80.2897 75.4521 81.2009C76.1189 82.0997 76.6464 82.2031 76.6464 82.2031C76.6464 82.2031 76.9157 81.2922 76.7214 79.9832C77.0877 78.8146 76.9916 77.7163 76.9916 77.7163L76.1456 73.9719L73.6512 71.3287L70.8834 73.196L70.715 73.779Z" fill="#E3C571"/>
<path d="M74.1568 74.033C74.1568 74.033 74.4195 74.5285 75.3341 74.4983C75.2542 74.7246 75.2568 74.7543 75.3012 74.9199C75.3357 75.0864 75.387 75.3311 75.387 75.3311C75.387 75.3311 75.5014 75.2713 75.6368 75.1099C75.7053 75.3232 75.6367 75.6782 75.7078 75.9212C75.7789 76.1642 75.8943 76.3436 75.8943 76.3436C75.8943 76.3436 75.9098 76.2924 75.9351 76.2403C75.9506 76.1891 76.1797 76.7573 76.7035 77.1601C76.6931 77.0414 76.7357 76.9579 76.7357 76.9579C76.7357 76.9579 76.7504 77.1261 76.8847 77.2938C76.8335 77.2783 76.7797 77.2332 76.7797 77.2332C76.7797 77.2332 76.9659 78.7922 77.3041 79.5801C77.3647 79.4751 77.3926 79.4527 77.4081 79.4015C77.4038 79.3521 77.4264 79.8386 77.4072 80.1892C77.3682 80.5416 77.4601 81.0221 77.4601 81.0221C77.4601 81.0221 77.7082 80.781 78.0136 80.6247C78.3 80.48 78.7528 80.0715 78.9787 79.2342C79.2045 78.3969 79.2507 77.7847 79.2507 77.7847C79.2507 77.7847 79.4466 78.0866 79.4996 78.3512C79.541 78.5968 79.9948 78.4275 79.9948 78.4275L79.9994 77.3403L80.3693 74.8454L80.7712 73.2848L82.9931 69.0526L87.3309 65.0739L91.4689 65.6491L94.4855 60.6993L88.2786 57.673L82.7493 58.745L78.2972 66.2033L74.7972 72.9202L74.1568 74.033Z" fill="#D8B65B"/>
<path d="M103.017 61.8923C103.017 61.8923 102.677 61.9919 101.723 62.5938C100.768 63.1957 100.09 63.4245 99.7711 64.2201C99.442 65.0166 99.475 65.6219 99.475 65.6219C99.475 65.6219 100.132 65.2653 100.519 65.1318C100.926 64.9965 101.393 64.9855 101.359 65.158C101.322 65.3108 101.188 65.4919 101.188 65.4919C101.188 65.4919 101.968 65.4038 101.982 65.7914C101.997 66.1889 101.905 66.6157 101.773 66.8167C101.642 67.0275 101.054 67.3681 101.004 67.6018C100.877 68.0815 101.116 68.0805 101.06 68.4643C101.022 68.8364 100.758 69.5774 99.7988 70.9175C98.8096 72.2603 98.4216 73.1816 98.4216 73.1816C98.4216 73.1816 97.7999 72.229 97.4475 71.3924C97.2583 71.5087 96.2606 72.1842 96.2606 72.1842L93.0847 63.9178L93.0849 63.3495C93.0849 63.3495 93.2792 63.0633 93.2854 62.5643C92.9089 62.4776 92.8508 62.383 92.3252 61.9603C91.7997 61.5377 91.3546 61.0084 90.5095 60.6935C90.3718 60.4862 90.1974 60.2024 89.5933 60.1356C88.9992 60.0679 88.6245 60.001 88.6245 60.001C88.6245 60.001 88.9307 59.8546 89.0575 59.5942C88.6957 59.6757 88.4093 59.8204 87.6061 59.8707C86.793 59.9219 86.7014 59.9 86.2622 60.0083C85.823 60.1165 85.306 60.3611 85.0484 59.6957C84.816 59.5466 84.364 59.7357 84.0193 60.354C83.6746 60.9724 83.5768 61.4496 82.8348 61.7438C82.828 61.8939 82.7826 62.2867 82.5716 62.7239C82.386 63.1091 82.0717 63.5055 81.6543 64.0903C80.9974 65.0152 81.24 66.4197 80.1668 67.6003C79.0837 68.7818 80.1032 64.5949 80.1032 64.5949L81.5893 59.9286L86.4842 54.2262L94.746 52.9351L95.9339 57.1681L100.113 58.2083L103.017 61.8923Z" fill="#D3AE4D"/>
<path d="M104.755 63.4409L100.822 58.7103L98.2135 57.0442C98.2135 57.0442 96.1917 53.9908 96.0643 53.9022C95.9593 53.8416 94.3013 53.8072 93.2464 53.8297L93.4867 54.2972C93.4867 54.2972 93.8417 54.3659 94.1051 54.6419C94.6169 55.1355 95.002 56.1188 94.0377 57.2899C94.4662 57.4019 94.6387 57.4367 95.0005 57.3552C94.6725 57.8225 93.9227 58.8253 93.9443 59.641C93.9528 60.3082 94.3857 60.4697 94.3857 60.4697C94.3857 60.4697 93.8165 61.2573 93.8941 62.4868C94.0278 62.3056 94.3322 61.9101 94.7923 61.471C95.4734 60.8232 96.4246 60.072 97.071 59.5967C97.0745 59.8656 97.1852 60.1052 97.1852 60.1052C97.1852 60.1052 98.3698 58.9447 99.4791 59.3163C99.983 59.4915 99.825 60.1933 99.825 60.1933C99.825 60.1933 100.466 59.8879 100.972 60.3123C101.478 60.7366 102.245 61.8758 102.622 62.3114C102.79 62.5161 103.212 62.8979 103.664 63.5064C104.196 64.2276 104.802 65.2313 105.258 66.2283C105.243 65.8308 105.274 65.2698 105.957 65.2101L104.755 63.4409Z" fill="#CAA13E"/>
<path d="M52.3602 78.5696C52.3602 78.5696 52.0591 77.9778 52.2017 76.759C52.3444 75.5401 52.6809 74.9424 52.6554 73.17C52.6201 71.3984 53.5855 69.1006 53.5855 69.1006L56.6352 67.3782L58.9349 67.7951L59.8609 70.745L57.1581 72.5567C57.1581 72.5567 57.0676 73.2326 56.313 73.837C55.5484 74.4423 54.4865 74.9539 54.2669 75.5215C54.0491 76.1088 54.0124 76.6006 54.0124 76.6006C54.0124 76.6006 53.1863 76.5034 52.7483 77.0801C52.2814 77.6693 52.3436 78.1523 52.3602 78.5696Z" fill="#F4EFC8"/>
<path d="M59.0419 77.3257C59.0419 77.3257 58.7895 77.5173 58.6279 77.9501C58.4024 77.6508 57.7729 75.8116 57.6051 74.1214C57.4372 72.4312 57.3019 72.0243 57.6367 71.4068C57.9814 70.7884 59.4614 70.0408 59.1519 69.0111C58.8468 68.0308 57.9002 67.6949 56.8073 68.0796C56.0429 68.3459 55.6046 70.0592 54.866 70.9613C54.3079 71.6482 53.5671 71.6133 53.3995 71.9769C53.1731 72.4653 53.4611 72.9087 53.4079 73.2125C53.3968 73.3131 53.1962 73.8691 52.8072 74.5511C52.0202 75.9261 50.6567 77.8898 50.6025 79.5496C50.5904 78.6134 50.5392 78.598 50.6965 77.5473L50.5264 77.313L51.2255 74.0215L51.6276 71.3244L52.6555 66.7779L54.7533 62.038L56.9402 59.1149L59.478 59.0624L60.1063 62.8259L62.1733 69.8135L65.538 73.2878L60.9566 76.9887L59.0419 77.3257Z" fill="#EBCC73"/>
<path d="M60.0913 78.9203C60.0913 78.9203 59.6844 79.0556 59.5291 78.9894C59.3746 78.9332 59.2175 78.8472 59.2583 78.7439C59.2991 78.6407 59.5516 78.4491 59.5447 78.3699C59.5386 78.3007 59.5015 78.1045 59.2713 78.0947C59.0412 78.085 58.9849 78.2394 58.9849 78.2394C58.9849 78.2394 58.7525 78.0903 58.5718 78.0762C58.7185 78.0434 58.8867 78.0287 58.8867 78.0287C58.8867 78.0287 58.4538 77.8672 58.0042 77.8566C58.2386 77.6866 58.6854 77.2088 59.002 77.1811C59.3186 77.1534 59.5121 77.0866 59.448 76.9228C59.3838 76.7589 59.1148 76.5332 58.839 76.4576C58.9275 76.3302 58.9812 76.1461 58.7013 75.682C58.4116 75.2188 58.4819 74.8837 58.5507 74.758C58.607 74.6036 58.831 74.3148 58.935 74.1362C59.039 73.9576 59.118 73.7214 59.3055 73.5853C59.3984 73.5074 59.7038 73.3511 60.01 73.2046C60.3459 73.0556 60.6198 72.8821 60.8307 73.0132C61.0614 73.1426 60.9797 73.3491 60.9797 73.3491C60.9797 73.3491 61.6408 73.042 62.2819 73.305C62.9214 73.5481 64.4318 73.6054 64.4318 73.6054L65.0605 74.6371L61.7841 77.9846L60.3838 78.8449L60.0913 78.9203Z" fill="#E5C66B"/>
<path d="M64.8767 74.0468C64.8767 74.0468 63.8425 74.875 63.6185 75.1638C63.7687 75.1706 64.0247 75.2479 63.9387 75.405C63.833 75.5638 63.1656 76.1406 62.8122 76.66C62.4391 77.1812 62.097 77.8293 61.9845 78.1382C61.8594 78.4184 60.7999 79.2987 60.4226 79.4314C61.234 79.3604 62.7791 78.2183 63.3925 78.1646C63.3987 78.4632 63.6161 78.7831 63.965 78.7825C64.3131 78.772 65.3297 78.8824 66.6026 77.9336C67.8772 77.0045 67.3792 76.44 67.9085 75.9948C68.9247 75.1881 69.3046 74.5168 69.8636 74.0691C70.4128 73.6222 70.7216 73.5055 70.7216 73.5055C70.7216 73.5055 70.7154 73.2069 70.8961 73.221C71.0661 73.2261 71.1285 73.3702 71.1285 73.3702C71.1285 73.3702 72.0935 72.548 73.3921 72.235C73.3409 72.2195 73.3168 72.1718 73.3168 72.1718C73.3168 72.1718 73.4114 72.1136 73.4268 72.0624C73.4268 72.0624 73.4874 71.9574 73.5412 72.0026C73.595 72.0477 73.6963 72.4078 73.8082 72.5475C74.0173 72.4295 74.3515 71.4631 74.3515 71.4631L75.1006 68.5162L74.8721 65.9042L74.1034 66.121L68.4543 69.1276L65.2152 73.1298L64.8767 74.0468Z" fill="#E6BD62"/>
<path d="M81.2808 60.6491C81.2808 60.6491 81.7849 60.4853 82.1491 60.2042C82.0581 60.5312 82.0884 60.8775 81.6397 61.6745C81.1918 62.4814 81.1807 62.582 80.8335 63.4C80.489 64.2477 80.5416 65.4196 80.1909 65.9687C80.4945 65.7926 80.7401 65.7512 80.7401 65.7512C80.7401 65.7512 80.3746 66.1321 80.2385 66.5129C80.1023 66.8937 79.8721 67.6815 79.1806 68.2106C78.4892 68.7397 77.5851 69.1179 76.6818 70.3036C75.7769 71.4695 74.8673 72.9249 74.3961 73.4646C74.6226 72.9762 74.9073 72.0141 74.9526 71.392C74.9978 70.7699 74.815 70.0482 74.9123 69.2221C75.0095 68.3961 74.9584 67.8123 75.6459 66.3265C76.3335 64.8406 77.2885 59.802 77.2885 59.802L80.1934 58.5907L81.2808 60.6491Z" fill="#B6933F"/>
<path d="M79.6237 59.4253C79.6237 59.4253 78.8367 60.8002 78.6898 61.9696C78.5429 63.1389 78.7618 63.0201 78.6627 63.597C78.5636 64.174 78.7545 64.6458 78.7545 64.6458C78.7545 64.6458 79.0879 63.8988 79.8938 63.3099C80.6997 62.7209 81.3603 62.2942 81.7377 61.8225C82.1126 61.3212 82.3922 60.529 83.2415 59.8665C82.8711 59.849 82.3419 59.7258 82.2447 59.7543C82.5744 59.3067 83.6173 58.5774 84.6588 57.7186C85.6887 56.8408 85.5917 56.5303 87.3043 55.5928C86.7292 55.7428 86.4392 55.6187 85.9587 55.7105C86.1202 55.2777 86.7856 55.0201 87.4086 54.2776C88.0315 53.5352 86.8252 52.6238 86.8252 52.6238L81.8871 56.2363L79.6237 59.4253Z" fill="#C49937"/>
<path d="M66.2067 57.0216L66.2423 56.0614L67.5269 53.5363L68.7223 49.1944L68.2194 43.4459L67.8098 40.1318L67.8667 37.9334L67.9941 37.2244L68.1686 36.9399L69.503 37.4912L71.4736 39.7315L72.0461 44.3374L70.9723 51.7792L66.5512 57.5398L66.2067 57.0216Z" fill="#DFC068"/>
<path d="M67.4345 35.8811C67.4345 35.8811 66.6546 35.9693 66.7711 39.2392C66.8877 42.5091 66.9583 44.2278 66.9807 45.8509C67.0031 47.4741 66.8117 48.4778 66.7563 49.4398C66.691 50.4026 66.7351 51.7048 66.3591 52.5353C66.1933 52.9187 65.8781 54.1028 64.9739 55.0493C63.9588 56.0952 62.3743 56.9019 62.1313 56.973C61.7046 57.11 59.5172 57.5207 58.6601 58.0942C58.3582 58.2901 57.8314 58.5356 57.2772 59.1524C56.1743 60.3356 54.7501 62.4043 53.8058 64.8299C52.3485 68.4568 51.4452 78.4161 51.4452 78.4161L51.7829 77.7186C51.7829 77.7186 51.7554 76.8337 52.5009 75.2131C53.2267 73.5943 52.8278 71.8845 53.7662 68.8213C54.1325 67.6527 54.5882 66.1373 55.1915 64.8283C56.142 62.7013 57.3551 60.8404 58.6473 59.7703C60.7582 58.0303 63.2023 57.4775 63.2023 57.4775L65.7098 55.4834C65.7098 55.4834 66.0961 54.5424 66.6195 53.4597C67.3539 51.9398 68.3111 50.231 68.3434 47.8653C68.4056 44.3604 67.3259 42.1617 67.1953 40.0994C67.0648 38.0371 66.9521 36.5215 67.3356 36.1191C67.7192 35.7166 67.4345 35.8811 67.4345 35.8811Z" fill="#A88F33"/>
<path d="M69.954 52.4827C69.954 52.4827 70.8787 49.4906 71.1888 46.8812C71.2427 46.3581 71.3956 45.8263 71.4087 45.4064C71.444 42.9607 71.4258 41.9553 70.9932 40.6571C70.6601 39.6993 69.6332 38.9018 69.0788 38.2624C68.5317 37.5924 68.2807 37.3451 68.3667 37.1881C68.4526 37.031 68.8169 36.7499 69.1954 36.7467C69.5633 36.7344 70.52 36.7305 71.3886 37.5418C72.2275 38.3558 73.0925 41.291 73.0925 41.291L74.0702 45.1735L76.1175 49.9993L69.954 52.4827Z" fill="#C99E3D"/>
<path d="M80.8039 48.7987C80.8039 48.7987 80.5949 48.9167 80.1905 48.8524C80.2276 49.0486 80.2218 49.4379 79.8674 49.7181C79.4372 49.5863 75.5782 50.2629 75.5782 50.2629C75.5782 50.2629 73.7398 50.1047 72.9664 47.7596C72.4312 46.2013 72.9317 43.9442 72.5777 42.5195C72.0453 40.4225 71.5241 40.0494 71.4167 39.3908C71.3092 38.7322 71.245 38.5684 71.2086 38.1528C70.9866 38.1224 70.852 38.0644 70.6343 38.0834C70.5675 37.8899 70.6517 37.713 70.4038 37.3857C70.5268 37.4248 71.3468 37.4528 72.3754 38.2701C73.2211 38.9338 73.2445 39.201 73.3762 39.339C73.5376 39.4744 74.8248 40.3987 75.4285 41.3728C76.0322 42.3469 77.3171 45.5246 77.5914 46.0389C77.6797 46.2506 77.8472 46.4552 78.2566 46.9179C78.8928 47.5801 79.8368 48.6839 80.8039 48.7987Z" fill="#B58634"/>
<path d="M73.626 39.3621C74.0431 39.9138 74.8288 41.0315 75.5019 42.2288C76.2008 43.4937 76.6414 44.5419 77.4506 45.3584C76.9544 44.2453 76.0546 42.0508 75.5689 41.2858C75.0294 40.4755 74 39.6484 73.626 39.3621Z" fill="#A88F33"/>
<path d="M66.4881 55.147C66.4881 55.147 65.5104 55.4818 63.736 56.6241C63.1503 56.9944 62.5899 57.3126 62.0475 57.6093C60.6412 58.4003 59.1217 59.1514 57.9044 59.5969C58.0138 59.7069 58.0676 59.7521 58.0676 59.7521C58.0676 59.7521 58.11 60.2369 58.4014 60.4906C58.2659 60.652 56.4048 62.1707 57.3824 66.6215C57.7652 66.4385 58.2129 66.1999 58.2822 66.1938C58.4027 66.2032 58.4609 66.5272 58.6093 66.5142C58.7577 66.5012 59.2252 66.2609 59.6817 65.553C59.6853 65.8218 59.6239 68.539 61.3753 70.2103C61.6419 69.8381 62.2934 68.6245 62.2934 68.6245L62.2812 68.2567C62.2812 68.2567 62.2388 66.9743 62.5522 65.7704C62.8647 64.5567 63.6016 63.6348 63.6016 63.6348L67.3074 57.2189L66.4881 55.147Z" fill="#E6C367"/>
<path d="M63.7674 65.1223C63.7674 65.1223 63.4896 65.366 63.1618 65.4943C63.0709 65.253 62.8975 64.4108 63.4086 63.5286C64.0039 62.4695 65.3845 61.0427 65.71 59.9773C65.9192 59.291 65.655 57.6392 67.8435 55.3042C70.032 52.9692 70.898 52.1556 70.898 52.1556L74.5682 49.8904L79.4505 51.3376L77.9097 60.7345L76.4657 65.1978L69.1037 64.466L63.7674 65.1223Z" fill="#DCBA5A"/>
<path d="M65.9315 62.3298L66.7332 61.1231L66.6631 60.3216C66.6631 60.3216 67.639 59.9671 68.6214 58.7745C69.6038 57.5818 70.9134 55.3437 72.2406 55.3571C73.5695 55.3904 73.9353 58.0902 74.0515 58.8477C74.1676 59.6053 74.4873 61.322 74.8358 62.2287C75.214 63.1328 72.0196 66.9616 72.0196 66.9616L69.8034 68.98L65.9315 62.3298Z" fill="#E9CE77"/>
<path d="M69.1822 71.6564C69.1822 71.6564 69.814 70.4446 69.258 70.244C69.5123 69.5039 70.0303 68.7009 70.0303 68.7009C70.0303 68.7009 70.3558 67.6355 71.5907 66.2513C72.8246 64.8572 73.583 63.9534 73.7262 63.0835C73.8686 62.2036 73.7959 61.3725 73.7959 61.3725C73.7959 61.3725 74.0821 61.5668 74.2886 61.6484C74.5149 61.7283 75.6184 62.4892 75.6197 64.2139C75.6211 65.9386 75.0502 66.7064 75.0502 66.7064C75.0502 66.7064 74.4904 67.3735 74.0827 67.7282C73.6454 68.0855 73.5092 68.4663 72.7302 68.5644C72.8403 68.455 72.9844 68.3926 72.9844 68.3926C72.9844 68.3926 72.1644 68.3646 71.7637 68.7985C71.3629 69.2323 70.5393 70.5307 70.1063 70.9375C69.6673 71.275 69.1822 71.6564 69.1822 71.6564Z" fill="#CDAE50"/>
<path d="M101.149 50.783C101.149 50.783 99.5302 50.2865 97.4455 50.3892C95.3616 50.5017 92.3345 50.8862 89.3581 51.1665C86.1541 51.4668 83.1473 50.6032 79.0932 50.7585C78.3956 50.4207 76.5621 48.8364 71.6195 52.9677C71.9344 52.9202 75.3677 51.8222 76.718 53.2395C78.0774 54.6459 77.9561 57.2487 77.8416 57.8769C77.6444 59.27 76.7894 61.3488 76.4959 62.7802C76.2024 64.2117 76.3654 64.9352 76.1543 65.9407C75.9432 66.9462 75.3326 67.4881 75.8171 68.5823C76.3039 68.2207 76.5711 68.1973 77.2631 66.1926C77.9551 64.1879 77.6566 62.8282 78.9386 61.071C80.19 59.3065 82.3186 56.8571 83.1499 56.2161C83.9811 55.5751 90.6776 51.3203 98.3229 54.1508C100.078 53.8079 101.149 50.783 101.149 50.783Z" fill="#D2A83E"/>
<path d="M74.8924 50.3114C74.8924 50.3114 74.8579 50.1449 74.8239 50.098C74.6835 49.8611 74.5221 49.7256 74.5221 49.7256C74.5221 49.7256 72.753 49.5614 71.8811 49.7374C70.3523 50.0406 69.1243 52.0722 68.557 53.1089C67.9798 54.1464 67.3108 55.7304 66.4986 56.5891C66.508 56.4686 66.4301 56.3757 66.4301 56.3757C66.4301 56.3757 66.4856 56.4406 66.3953 56.5482C66.305 56.6558 66.3093 56.7053 66.3631 56.7505L66.5245 56.8859C66.574 56.8816 67.8857 56.1487 69.5944 54.2544C71.4148 52.2707 72.8473 51.2082 73.6111 50.8223C74.1904 50.4924 74.8924 50.3114 74.8924 50.3114Z" fill="#C29637"/>
<path d="M108.391 42.7885C108.391 42.7885 108.109 43.212 107.752 43.6819C106.952 44.689 105.896 45.8382 105.011 47.0024C104.171 48.1128 103.192 49.006 102.133 50.4546C101.073 51.9032 99.8384 53.5167 99.5302 53.9824C99.2516 54.4454 99.0666 55.1794 99.0986 55.5455C98.92 55.4415 98.7109 55.3302 98.7109 55.3302C98.7109 55.3302 98.8272 55.5194 99.0458 55.7396C99.3235 56.0642 99.7474 56.4658 99.9687 56.7156C100.323 57.1233 100.537 57.6231 100.582 57.7986C100.702 57.808 101.477 57.8897 102.29 56.2433C103.103 54.597 104.2 52.7762 104.2 52.7762L105.922 49.6645L106.951 47.062L108.27 44.1351L108.391 42.7885Z" fill="#AC8132"/>
<path d="M110.903 41.0889C110.903 41.0889 109.791 42.1732 109.377 42.7976C108.963 43.4221 108 45.0616 108 45.0616L108.391 44.9775L110.244 43.0209L110.904 41.5574L110.903 41.0889Z" fill="#A88F33"/>
<path d="M111.519 120.625C111.519 120.625 111.428 119.816 111.841 119.291C112.264 118.766 113.379 117.95 114.293 115.178C115.208 112.416 115.283 111.792 115.283 111.792C115.283 111.792 113.379 113.733 112.149 114.259C112.392 113.62 112.522 113.17 112.643 112.84C112.461 112.707 111.734 112.601 111.658 112.528C112.019 112.097 112.152 111.109 112.897 110.395C113.858 109.524 115.62 108.014 116.98 106.688C118.339 105.363 120.964 102.322 121.26 101.478C121.505 101.776 121.572 101.969 121.572 101.969C121.572 101.969 120.292 103.976 119.644 105.239C119.071 106.326 119.172 106.905 119.172 106.905L120.486 106.202C120.486 106.202 121.01 107.632 119.414 110.015C120.17 109.649 120.502 109.8 120.926 109.513C120.234 110.043 119.28 110.764 118.483 112.589C117.705 114.411 116.616 116.55 114.59 118.004C112.629 119.521 111.519 120.625 111.519 120.625Z" fill="#A67A2E"/>
<path d="M105.235 53.0359C105.235 53.0359 104.572 54.7988 104.568 56.1251C104.576 56.4435 104.519 56.6977 104.551 57.0638C104.634 58.243 104.838 59.5511 104.625 60.1879C104.504 59.9492 104.44 59.7854 104.332 59.6951C104.22 60.1236 104.066 61.4431 103.891 61.947C103.765 61.639 103.451 60.5598 103.357 59.2619C103.264 57.9641 103.272 57.7141 103.248 57.447C103.233 57.8471 103.013 58.4047 102.942 58.73C102.77 58.4758 102.571 58.1443 102.348 57.8746C102.247 58.0829 102.124 58.3828 102.008 58.5425C101.978 58.4255 101.901 58.1132 101.832 57.6706C101.767 57.1578 101.68 56.4975 101.697 56.3564C101.723 56.0849 102.047 54.9997 102.844 53.963C103.792 52.7235 104.678 50.4227 104.934 49.7123C105.191 49.0019 106.288 46.0445 106.288 46.0445L107.317 45.9545L106.121 49.4888C106.121 49.4888 105.384 51.4277 104.978 52.1511C104.573 52.8745 103.765 54.9192 103.396 55.7192C103.676 55.2759 103.925 55.0349 104.206 54.6114C104.489 54.3075 105.235 53.0359 105.235 53.0359Z" fill="#8C6228"/>
<path d="M110.679 40.9175C110.679 40.9175 110.543 41.6472 110.021 42.4008C109.471 43.1867 108.241 44.2813 107.666 45.1192C107.149 45.9322 106.154 48.113 106.904 50.5299C107.055 49.9783 107.328 48.8876 108.203 47.6047C109.078 46.3218 110.006 44.8547 110.427 43.7411C110.847 42.6176 110.842 41.7607 110.842 41.7607L111.018 41.496L110.85 40.9424L110.679 40.9175Z" fill="#CBA94C"/>
<path d="M133.228 106.345C133.228 106.345 132.738 105.301 132.534 104.332C132.329 103.363 132.629 103.137 132.165 102.051C131.887 101.388 131.5 101.521 131.393 101.431C131.285 101.341 131.126 100.318 131.096 99.752C131.067 99.1863 130.963 98.4576 130.836 98.1496C130.678 98.0439 130.57 97.9536 130.288 97.2405C129.977 96.53 129.826 96.1743 129.688 95.967C129.551 95.7597 129.187 95.5921 129.168 95.3744C129.13 94.9391 129.506 94.6769 129.495 94.5582C129.454 94.3125 129.174 94.5364 129.089 94.474C128.98 94.364 129.264 93.6213 129.127 93.5336C129.073 93.4885 128.763 93.9343 128.663 93.8234C128.554 93.7133 128.332 92.5463 128.086 91.7802C127.851 91.0331 127.624 90.4946 127.585 90.2687C127.546 90.0528 125.864 86.3315 125.457 85.4301C125.059 84.5277 124.724 83.55 124.584 83.0936C124.444 82.6373 124.292 81.6935 124.251 81.7968C124.21 81.9 124.283 82.3822 124.202 82.3694C124.131 82.3557 123.735 80.6854 123.633 80.4252C123.54 80.1641 123.045 79.2902 122.889 78.6458C122.732 77.9915 122.363 76.2791 122.111 75.1147C121.86 73.9502 121.748 73.4715 121.722 73.1746C121.709 73.0262 121.684 72.171 121.415 71.0281C121.108 69.7987 120.59 68.3187 120.166 67.4684C119.358 65.8641 117.225 61.7637 116.815 60.7327C116.792 60.4656 117.151 60.5837 117.151 60.5837C117.151 60.5837 118.201 62.6653 118.979 64.2722C119.738 65.8807 120.45 67.294 120.612 67.4294C120.743 67.5675 121.816 69.1186 122.465 71.7537C123.115 74.3888 123.479 76.8395 123.87 78.4603C124.057 79.2316 124.228 80.054 124.549 80.8635C124.894 81.7405 125.391 82.6342 126.06 84.0114C126.63 85.1679 127.064 86.1369 127.327 86.9812C127.641 88.0605 127.713 88.8916 127.89 89.4245C128.049 89.8791 128.309 90.7936 128.842 92.1029C129.375 93.4121 130.14 95.09 130.65 96.1321C131.65 98.218 132.174 99.9868 132.376 100.936C132.572 101.916 133.237 105.307 133.228 106.345Z" fill="#A88F33"/>
<path d="M110.859 41.1083L110.819 41.2314C110.819 41.2314 110.972 41.2678 110.96 41.4683C110.969 41.5673 111.002 41.9531 110.981 42.284C110.962 42.6346 110.887 42.9104 110.886 43.1298C110.927 43.5948 111.043 44.1231 110.506 45.506C110.34 45.8894 110.249 46.2164 110.169 46.4428C109.968 46.9987 109.926 47.0822 109.73 47.3486C110.059 47.1204 111.237 46.2297 111.88 46.293C111.467 46.5785 110.846 47.1213 110.486 47.7909C110.587 47.802 111.009 47.8448 111.663 47.6879C112.747 47.4236 113.939 46.9205 115.025 46.9053C116.208 46.8715 115.613 45.4281 115.613 45.4281L113.986 42.5594L111.256 40.9739L110.859 41.1083Z" fill="#BE9C44"/>
<path d="M118.918 63.2137C118.918 63.2137 117.67 62.1663 116.861 58.2691C116.049 54.3521 115.638 48.5157 115.638 48.5157L114.509 46.3214C114.509 46.3214 114.179 44.8249 113.645 44.3034C113.111 43.7818 112.068 42.9159 111.592 42.489C111.116 42.0621 110.566 41.4721 110.26 41.3991C110.387 41.1388 110.928 39.6857 113.469 39.4434C116.01 39.2012 116.915 40.5477 117.228 41.0388C117.54 41.5299 118.932 43.6514 119.747 47.8472C120.533 52.0456 120.581 52.3605 120.64 53.8309C120.661 54.6465 120.559 56.5498 120.269 58.599C119.993 60.338 119.694 62.2784 118.918 63.2137Z" fill="#A17C34"/>
<path d="M114.003 67.0177C114.003 67.0177 114.543 67.0402 115.08 66.6743C115.444 66.6224 116.785 66.6746 117.69 65.2893C117.785 65.5801 118.034 66.366 117.631 67.119C117.857 66.85 118.214 66.7191 118.258 66.6455C118.309 67.0098 118.754 68.1075 117.53 70.9763C117.887 70.5063 118.354 70.4854 118.765 70.3996C118.83 70.9124 119.259 72.6196 118.608 73.6137C118.179 74.2894 117.37 74.1607 117.37 74.1607C117.37 74.1607 117.37 73.9413 117.333 73.7452C117.29 73.4798 117.168 73.2213 117.222 73.0371C117.118 72.9963 116.688 72.8645 116.13 72.4148C115.198 71.6788 113.959 70.3914 113.79 69.3693C113.591 68.2302 114.598 67.8928 114.598 67.8928C114.598 67.8928 114.471 67.8043 114.357 67.6447C114.293 67.4809 114.22 67.2181 114.003 67.0177Z" fill="#8C6228"/>
<path d="M106.447 54.8229C106.447 54.8229 106.391 54.7579 106.152 55.0979C106.173 54.777 106.197 54.4758 106.191 54.1872C106.271 53.9608 106.416 53.679 106.612 53.4126C106.49 53.7224 106.414 53.9982 106.414 53.9982C106.414 53.9982 106.721 53.2834 107.219 52.8211C107.559 52.4923 108.012 52.3131 108.185 52.0187C108.377 51.7029 108.323 51.6577 108.368 51.6039C108.368 51.6039 108.825 51.2449 109.486 50.2499C109.575 50.1225 109.712 49.9809 109.8 49.8535C109.962 49.7695 110.343 49.5568 110.787 49.2787C111.248 48.9691 111.761 48.5554 112.084 48.3776C112.721 48.0228 113.426 47.991 113.712 47.4974C113.953 47.4065 114.155 46.641 114.05 46.0121C114.43 46.1285 116.412 47.1316 117.278 49.628C117.901 51.398 117.314 54.2609 117.086 55.6368C116.857 57.0127 116.895 58.0163 116.464 58.6722C115.922 59.5372 114.043 60.8581 113.608 61.4644C113.233 61.9658 112.089 63.2523 112.213 64.0989C112.318 64.7278 113.13 65.0057 113.309 65.1097C113.487 65.2137 113.5 65.3622 113.811 65.2652C114.121 65.1682 114.227 65.0094 114.356 64.9982C114.506 65.005 114.508 65.0347 114.578 65.0286C114.647 65.0226 114.724 64.9958 114.724 64.9958C114.724 64.9958 114.754 65.9005 112.67 66.362C112.524 66.3947 112.38 66.4572 112.194 66.5033C112.431 66.3629 112.58 66.35 112.815 65.9605C112.514 65.937 111.658 65.962 111.435 65.9118C111.493 65.787 111.693 65.4504 111.868 65.2856C112.024 65.1225 111.831 65.0894 111.69 65.1816C111.625 65.2371 111.317 65.4833 111.007 65.8096C110.779 66.0489 110.587 66.3648 110.214 66.6666C110.061 66.2812 110.015 65.5275 110.433 64.9426C110.316 64.9728 110.118 65.339 109.895 65.2888C109.862 65.1421 109.79 64.6599 109.869 64.2042C109.949 63.7486 110.524 62.9107 110.524 62.9107L113.145 57.0882L113.44 52.8252L106.447 54.8229Z" fill="#92723A"/>
<path d="M106.156 54.677C106.156 54.677 105.999 54.8104 106.355 55.0086C106.311 55.0822 106.214 55.3399 106.081 55.5211C105.93 55.7337 105.762 55.868 105.708 56.0423C105.589 56.4015 105.491 56.6494 105.504 56.7978C105.517 56.9462 105.551 57.9004 105.189 58.5502C105.06 58.7809 104.924 59.1617 104.827 59.4194C104.617 59.8764 104.43 60.2417 104.398 60.4439C104.329 60.7989 104.343 61.7548 104.343 61.7548C104.343 61.7548 104.537 61.4686 104.608 61.3628C104.511 61.6205 104.405 61.8989 104.235 62.1132C104.345 62.0039 104.669 61.7262 105.208 61.1607C105.96 60.407 107.126 59.1485 108.59 58.1031C108.139 58.312 107.744 58.3467 107.431 58.4238C107.657 58.1548 109.655 55.348 110.801 54.9985C110.906 54.8397 110.872 54.6732 110.872 54.6732L109.864 54.6617L107.874 55.2745L107.44 53.7372L106.156 54.677Z" fill="#B18E3E"/>
<path d="M110.132 63.6147C110.132 63.6147 109.888 63.9052 109.699 64.5898C109.624 64.5266 109.375 64.2991 109.156 63.9693C108.737 63.3878 108.104 62.6555 106.827 63.2159C106.771 62.8021 106.722 62.587 106.746 62.2859C106.959 62.2173 107.575 61.6251 108.17 60.7854C108.588 60.2104 108.97 59.5589 109.198 58.7513C109.383 58.5856 109.698 58.3088 110.118 57.9829C110.713 57.4921 111.423 56.8318 111.484 56.1585C111.197 56.3032 110.59 56.6555 109.636 56.6891C109.987 56.4889 110.536 56.2614 110.402 55.5353C110.542 55.4234 110.655 55.3437 110.655 55.3437C110.655 55.3437 110.532 55.3047 110.304 55.3246C110.278 55.257 110.24 55.1607 110.076 55.2249C109.912 55.2891 109.883 55.2917 109.869 55.3626C109.801 55.3885 109.572 55.3886 109.414 55.5221C109.256 55.6555 108.826 56.092 108.654 56.1768C108.713 56.052 108.796 55.8653 108.796 55.8653C108.796 55.8653 108.316 55.9572 107.982 56.1359C107.368 56.4089 106.671 56.8688 105.962 57.3196C106.021 57.1948 106.044 57.113 106.092 57.0889C106.139 57.0648 106.256 57.0247 106.254 57.0049C106.252 56.9851 106.187 56.8114 106.211 56.7395C106.224 56.6685 106.569 55.8208 106.875 55.3255C107.18 54.8302 107.192 54.1612 107.192 54.1612L108.639 53.2669L112.808 51.9152L115.583 51.8419L115.404 53.7817L114.063 57.2589L112.933 60.4185L111.503 62.418L110.132 63.6147Z" fill="#543E26"/>
<path d="M116.429 54.8121C116.429 54.8121 114.946 57.0155 114.509 57.3728C114.751 56.7136 116.251 52.7838 116.822 51.677C116.664 51.5712 116.466 51.5886 116.77 49.7075C116.455 50.6722 116.359 51.1692 116.054 51.4451C115.759 51.7201 115.703 51.6453 115.485 51.6644C115.544 51.5396 115.513 51.4127 115.513 51.4127C115.513 51.4127 114.103 51.3665 113.153 51.4496C112.204 51.5327 110.359 52.2126 109.346 52.7199C108.546 53.1389 108.08 53.1796 107.803 53.4232C107.528 53.6965 107.383 53.9784 107.24 54.0607C107.128 54.1403 106.579 54.3677 106.467 54.567C106.366 54.7753 106.187 55.0102 106.191 55.0597C106.196 55.1092 106.152 55.1828 106.296 55.1203C106.344 55.0962 106.693 54.8663 107.087 54.5826C107.623 54.2166 108.274 53.7908 108.749 53.5298C110.115 52.8421 110.569 52.9021 111.192 52.7279C111.844 52.5512 112.77 52.1911 113.403 52.1357C114.034 52.0605 115.233 51.9755 115.515 52.0008C115.405 52.1101 115.316 52.2375 115.402 52.6487C115.412 52.7674 115.325 52.9047 115.251 53.2003C115.025 54.0376 114.579 55.4326 114.322 56.143C113.968 57.1111 113.541 57.936 113.337 58.4425C113.132 58.949 112.709 60.2721 112.234 61.0015C111.76 61.731 111.519 62.1708 111.364 62.3339C111.209 62.497 110.089 63.4823 110.205 63.7912C110.417 63.7029 111.747 63.068 112.648 61.8527C113.548 60.6373 113.687 59.9373 114.415 59.2555C115.143 58.5736 115.666 57.491 115.958 56.608C116.195 55.7896 116.104 55.5483 116.429 54.8121Z" fill="#806031"/>
<path d="M80.2438 70.68C80.2438 70.68 80.1049 71.5995 79.6491 72.088C79.2024 72.5657 78.3745 73.017 78.3396 73.7579C78.2849 74.5004 79.2965 74.7808 79.2965 74.7808C79.2965 74.7808 78.8392 75.7082 78.8972 76.3711C78.957 77.0538 78.9484 77.1841 79.0748 77.8311C78.9621 77.9107 78.8942 78.0463 78.8942 78.0463C78.8942 78.0463 78.9991 78.6752 79.5186 79.0285C80.038 79.3819 80.4743 79.583 80.713 79.4624C80.7712 79.557 80.8336 79.7011 80.8336 79.7011C80.8336 79.7011 81.1183 78.739 81.2947 77.9061C81.4694 77.0533 81.6974 77.153 81.6985 76.0263C81.6988 74.8897 82.6102 72.8857 82.6102 72.8857L83.1987 71.1792L81.9201 70.3539L80.2438 70.68Z" fill="#B6903C"/>
<path d="M82.6654 72.208C82.6654 72.208 82.3313 72.6061 82.0536 73.0791C81.7751 73.5421 81.5624 73.9595 81.1121 74.1684C80.6618 74.3773 80.3649 74.4033 80.4353 74.8657C80.5057 75.3281 80.9583 75.4879 81.2265 75.7037C81.5152 75.9277 81.7693 76.3242 81.6912 76.7997C81.8336 76.7174 82.0938 76.6149 82.2944 76.059C82.495 75.503 83.9417 72.0963 83.9417 72.0963L82.6654 72.208Z" fill="#685026"/>
<path d="M89.4574 64.3437C89.4574 64.3437 89.5712 63.9349 89.3977 63.661C89.2233 63.3771 88.3143 63.357 87.8396 63.0595C87.3443 62.7539 86.7595 62.5658 86.3075 62.7549C86.362 62.5806 86.607 62.1903 86.3725 62.1311C86.1488 62.0808 85.3695 62.5179 85.1665 62.7052C84.9636 62.8924 84.4862 63.1336 84.3976 63.261C84.3091 63.3883 84.1608 63.6306 84.0532 63.5403C83.9482 63.4797 83.8831 63.306 83.7236 63.4196C83.564 63.5333 82.8107 64.2672 82.696 64.666C82.5814 65.0649 82.3203 65.9551 81.3968 67.023C80.4832 68.0899 80.0933 68.7621 80.4222 69.1022C80.751 69.4423 80.8662 69.1631 80.9434 69.4754C80.9761 69.622 81.0396 70.0053 80.9753 70.4097C80.9015 70.9346 80.7461 71.4368 81.0219 71.5123C81.7236 71.6703 82.3502 71.1967 82.5098 71.3124C82.83 71.5535 82.449 72.554 83.1679 72.6805C83.8976 72.816 84.5681 72.3885 84.5681 72.3885L87.0383 70.7666L89.4165 69.2325L90.4721 66.5978L89.6051 64.5501L89.4574 64.3437Z" fill="#D4B968"/>
<path d="M87.4155 71.1568C87.4155 71.1568 86.9221 70.532 87.4053 69.9015C87.8885 69.271 88.6288 68.957 88.8936 68.5649C88.7842 68.4549 88.6629 68.4356 88.6629 68.4356C88.6629 68.4356 88.8833 67.8779 89.4527 67.5489C89.2913 67.4135 89.083 67.3121 88.8654 67.3311C88.3806 67.3736 88.1097 67.6963 87.6645 67.7353C87.2291 67.7734 87.1606 67.56 87.1606 67.56C87.1606 67.56 87.8867 67.4267 87.7889 67.1063C87.6893 66.766 87.5607 66.7773 87.5607 66.7773C87.5607 66.7773 88.9245 66.0697 89.1442 65.7315C89.3638 65.3932 89.3021 65.0297 89.3386 64.877C89.5068 64.8623 90.4413 64.2621 90.8561 64.4451C91.2709 64.6282 91.0458 65.2461 91.0458 65.2461C91.0458 65.2461 92.1643 64.241 92.7007 63.3067C93.2393 63.3094 93.4503 62.8722 93.8461 62.8376C94.3309 62.7952 95.1507 63.3914 95.4229 64.7933C95.5929 65.596 95.782 66.0481 95.7591 67.4957C95.7608 68.3131 95.9321 70.0429 96.2547 70.882C96.4826 71.55 96.8724 71.4461 96.8724 71.4461C96.8724 71.4461 96.8291 71.749 96.5728 72.0107C96.3273 72.2814 96.3547 72.937 96.4061 73.1818C96.4772 73.4248 96.6012 73.7031 96.6012 73.7031C96.6012 73.7031 96.3166 74.0969 96.2591 74.3512C96.2115 74.6046 95.8997 74.8014 95.6623 74.8221C95.4149 74.8438 95.5418 74.8127 95.2269 74.8602C94.912 74.9077 94.8174 74.9658 94.6135 74.9139C94.4095 74.8619 94.2542 74.7958 94.2779 74.1556C94.2918 73.5163 91.6497 72.262 91.6497 72.262L87.4155 71.1568Z" fill="#CCA849"/>
<path d="M82.6554 77.5486C82.6554 77.5486 83.6605 78.667 87.361 78.3433C89.1222 78.1892 89.7209 77.9673 90.0783 77.8363C90.4654 77.7028 91.8985 76.9892 93.2384 75.0973C94.4447 73.3866 94.0907 72.7595 94.0907 72.7595L93.2987 72.7092L90.7862 73.278L83.5371 77.1424L82.6554 77.5486Z" fill="#585136"/>
<path d="M85.569 77.3817C85.569 77.3817 82.4256 78.3745 82.2482 76.3462C82.0751 74.3674 83.8721 72.1165 84.3348 71.7071C84.8173 71.296 86.0078 70.7731 86.0078 70.7731L88.9662 70.5143L89.6609 71.959L89.6957 75.2061L85.569 77.3817Z" fill="#252211"/>
<path d="M87.9832 71.2356C87.9832 71.2356 87.3204 70.7253 85.9919 71.6092C84.6635 72.4931 83.6741 74.1749 83.7312 75.6255C83.7736 76.9079 84.9747 77.76 86.7205 77.6571C88.0209 77.5932 88.7896 77.3764 89.1767 77.2428C89.0674 77.1327 88.4966 76.5346 88.4966 76.5346L87.9832 71.2356Z" fill="#C3B378"/>
<path d="M87.42 71.5953C87.42 71.5953 87.2612 71.4895 86.8466 71.7651C86.4979 71.995 86.0086 72.5563 85.625 72.9587C85.3769 73.1997 85.2174 73.3134 85.0837 73.4946C84.5343 74.2804 84.1246 75.5226 84.4733 76.0903C84.8212 76.6481 85.8613 77.255 88.314 76.5719L87.42 71.5953Z" fill="#E6D89C"/>
<path d="M86.7825 73.175C86.7825 73.175 86.4404 73.8231 86.5261 74.8026C86.6136 75.8019 87.3169 77.3455 89.4051 77.2825C91.0067 77.2421 91.8658 74.7542 92.9421 73.7228C93.7603 72.9334 94.2929 72.8669 94.2929 72.8669C94.2929 72.8669 93.3068 71.9661 90.7917 70.91C88.3054 69.8414 85.6292 69.906 84.356 71.9915C85.0344 71.8823 87.1914 71.1253 87.1914 71.1253L88.3002 71.3772L86.7825 73.175Z" fill="#252211"/>
<path d="M90.0232 74.2563C89.9409 74.114 89.8742 73.9204 90.1568 73.8458C90.4493 73.7704 90.5706 73.7897 90.6886 73.9987C90.8066 74.2077 90.9211 74.3772 90.7805 74.4792C90.639 74.5713 90.2462 74.5259 90.0232 74.2563ZM89.4361 72.9019C89.4361 72.9019 89.3432 72.9798 89.3806 72.837C89.3857 72.667 89.4883 72.359 89.811 72.4005C90.1337 72.4421 90.0947 72.7944 90.0539 72.8977C90.0131 73.001 89.7606 73.1926 89.5567 73.1406C89.3527 73.0887 89.4361 72.9019 89.4361 72.9019Z" fill="#6F674D"/>
<path d="M62.7287 73.7455C62.7287 73.7455 63.5614 74.2609 64.47 74.1615C65.3686 74.0629 66.4449 73.0316 66.9272 72.3912C67.2135 72.0172 67.4486 71.6277 67.7204 71.3148C67.9461 71.0458 68.1039 70.9124 68.2079 70.7338C68.3588 70.5212 68.5049 70.1395 68.5835 70.013C68.3806 70.2002 68.0899 70.5248 67.7807 70.7512C67.4814 70.9768 66.8307 71.4026 66.5624 71.5258C66.3039 71.6481 63.6616 73.3548 63.6616 73.3548L62.7287 73.7455Z" fill="#AC924C"/>
<path d="M63.6464 66.3948C63.6464 66.3948 64.0558 66.0599 64.8803 65.7984C65.6743 65.5295 67.2939 65.2382 67.2939 65.2382L68.6906 65.7043L69.4023 67.6859L68.6072 69.879L67.4289 70.7697L65.8149 68.6178L63.6464 66.3948Z" fill="#9F8E57"/>
<path d="M62.3077 68.2167L61.873 68.6037C61.873 68.6037 61.9727 68.3756 62.0136 67.704C62.0545 67.0325 62.428 65.3747 63.0985 64.3788C63.7691 63.383 63.7537 63.4342 63.7537 63.4342C63.7537 63.4342 63.5317 63.4038 63.3666 63.5678C63.4465 63.3414 64.0113 62.5044 64.6099 62.0532C65.2085 61.6021 65.4455 61.4617 66.1361 61.7203C66.8267 61.9789 67.0096 62.1324 67.4927 62.0702C67.9758 62.008 68.3464 61.4571 68.3464 61.4571C68.3464 61.4571 68.473 61.7651 68.171 62.5293C67.8689 63.2935 66.5551 64.9139 66.5551 64.9139L63.7273 67.2351L62.3077 68.2167Z" fill="#EAC970"/>
<path d="M64.2256 66.1691C64.2256 66.1691 66.4283 66.2755 67.0375 65.604C67.0634 65.6716 67.1425 65.6646 67.1468 65.7141C67.1512 65.7636 67.106 65.8174 67.106 65.8174C67.106 65.8174 67.223 65.7872 67.322 65.7786C67.4226 65.7897 67.4945 65.8133 67.5934 65.8047C67.6924 65.796 67.8094 65.7658 67.8094 65.7658C67.8094 65.7658 67.8043 65.9358 67.6826 66.0262C67.7816 66.0175 67.8822 66.0286 67.8892 66.1078C67.8961 66.1869 67.9366 66.4227 67.8222 66.4825C67.6782 66.545 67.5237 66.4887 67.5237 66.4887C67.5237 66.4887 67.5471 66.7559 67.7188 67.01C67.9488 67.3588 68.4007 67.738 68.9543 67.5699C68.9543 67.5699 69.3134 68.2563 68.2052 69.9485C68.0561 70.1809 67.9039 70.4933 67.7079 70.7597C67.5743 71.1702 67.5611 71.3608 67.5611 71.3608C67.5611 71.3608 69.5976 70.365 70.0393 68.462C70.49 66.5482 70.4486 64.7074 70.1801 63.0061C70.1179 62.523 70.0084 62.1836 69.868 61.9467C69.5176 61.3592 68.6951 61.5309 68.389 61.9066C67.9466 62.4338 67.2409 63.7119 66.1856 64.6417C65.1106 65.5732 65.0741 65.726 64.2256 66.1691Z" fill="#D7BC6B"/>
<path d="M61.4396 68.7498C61.4396 68.7498 61.0457 69.0335 60.9094 69.9826C60.7748 70.9515 61.2916 72.0727 61.5611 72.4181C61.8405 72.7625 62.4622 73.7151 63.5945 73.6659C63.8419 73.6442 64.1245 73.5696 64.3911 73.4267C64.7722 73.2238 65.1347 72.9229 65.4296 72.6479C65.8824 72.2394 66.2505 71.8881 66.1984 71.8628C66.0754 71.8237 62.9983 69.7001 62.9983 69.7001L61.8142 68.5874L61.4396 68.7498Z" fill="#585136"/>
<path d="M64.4937 72.5175C64.4937 72.5175 65.0731 72.4169 65.4004 72.169C65.7277 71.921 63.147 69.7739 63.147 69.7739L63.5377 72.302L64.4937 72.5175Z" fill="#453A25"/>
<path d="M61.7033 68.5201C61.7033 68.5201 61.4558 69.11 61.4688 69.2584C61.4617 69.7476 61.7434 71.2583 61.9046 71.7327C62.0683 72.2368 62.7798 72.9622 63.6109 72.8895C64.1254 72.8445 64.8101 72.4656 64.8032 72.3864C64.7945 72.2875 64.0537 72.2526 63.8238 71.9038C63.6878 71.7163 63.5959 71.2358 63.5229 70.7437C63.4754 70.4288 63.4451 70.0825 63.5535 69.9534C63.7946 69.6332 63.7697 68.778 63.7697 68.778L64.5654 66.9337L63.3188 67.0428L61.9061 68.1035L61.7033 68.5201Z" fill="#84754B"/>
<path d="M61.4621 69.2185C61.4621 69.2185 62.3282 67.8367 63.1829 67.4628C64.0375 67.0889 64.4488 67.2324 64.4488 67.2324L64.0495 68.5934L63.3883 69.4687L63.4741 69.88C63.4741 69.88 63.4515 70.9886 64.2503 71.6864C65.0491 72.3842 65.5907 72.3069 65.9073 72.2792C66.2239 72.2515 67.1108 71.9047 67.4798 70.7658C67.8053 69.7004 68.0365 68.3542 67.0894 67.1011C66.1629 65.8561 64.7239 65.9322 64.4469 65.9564C64.1707 65.9906 62.0026 66.2799 61.4621 69.2185Z" fill="#252211"/>
<path d="M86.7875 73.4628C86.4067 73.3266 86.663 72.2673 87.0013 71.9187C87.3397 71.57 87.7727 71.1633 88.5797 71.0428C88.8748 70.9971 89.1782 71.1599 89.146 71.3622C89.1088 71.7343 88.6393 72.2938 88.2063 72.7006C87.6073 73.2615 87.2195 73.6144 86.7875 73.4628Z" fill="#F7F7E7"/>
<path d="M66.7604 67.737C67.0258 67.6938 67.3911 67.8812 67.4855 68.1621C67.5824 68.4726 67.4004 69.1266 66.8859 69.1717C66.4703 69.208 66.2076 68.7126 66.1947 68.5641C66.1817 68.4157 66.2379 68.2613 66.2633 68.2092C66.2805 68.1778 66.2997 67.8271 66.7604 67.737Z" fill="#F8F6DE"/>
<path d="M62.7749 67.9459C62.7749 67.9459 62.1199 68.3223 61.8613 69.0129C61.6026 69.7035 61.729 70.3505 61.8001 70.5935C61.8713 70.8365 62.1723 71.4283 62.3595 71.6313C62.5468 71.8343 62.7873 71.9628 62.9538 71.9283C63.1203 71.8938 63.4276 71.4182 63.4042 71.1511C63.3809 70.8839 63.302 69.7542 63.5748 69.1122C63.8081 68.4737 62.7749 67.9459 62.7749 67.9459Z" fill="#D4C38B"/>
<path d="M63.0192 68.0059C62.9065 68.0856 62.7173 68.2018 62.778 68.3261C62.8378 68.4405 63.2603 68.4833 63.4339 68.7573C63.628 69.0394 63.6557 69.356 63.6192 69.5088C63.667 69.4846 63.8085 69.3925 63.9439 69.2311C64.1399 68.9647 64.3776 68.6049 64.6052 68.585C64.7536 68.572 64.9081 68.6283 65.0466 68.6162C65.2643 68.5971 65.4759 68.5088 65.4857 68.2787C65.5092 67.9775 65.0208 67.7511 64.758 67.8239C64.7901 67.6217 64.8343 67.3287 64.5993 67.1499C64.3643 66.971 63.7119 67.377 63.5721 67.489C63.4225 67.6018 63.0192 68.0059 63.0192 68.0059Z" fill="#E2D59D"/>
<path d="M78.4476 88.6806L79.8738 88.1172L80.3153 88.3776C80.3153 88.3776 80.6676 88.9849 81.1395 89.0234C81.0188 89.353 80.6563 89.6539 80.696 89.8797C80.7357 90.1055 80.9483 90.2564 80.9483 90.2564C80.9483 90.2564 79.8228 92.5483 82.6073 94.518C82.0155 94.819 81.2633 95.2238 80.865 95.4581C81.1679 95.5014 81.8124 95.5746 82.1003 95.7887C82.3891 96.0127 82.3951 96.0819 82.6555 96.2087C82.9158 96.3355 83.0816 96.5204 83.0399 96.6137C82.863 96.5295 82.2731 96.282 82.1984 96.5677C82.1228 96.8435 79.7692 96.9497 79.7692 96.9497L75.8782 98.0579C75.8782 98.0579 75.992 97.6491 75.5444 97.3194C75.0215 96.9264 74.4676 97.4335 73.792 97.0041C72.9055 96.4436 72.8117 95.714 72.5203 95.4603C72.7728 95.2688 73.2953 94.9738 74.5767 94.6922C74.5186 94.5976 74.3244 94.3155 74.4 94.0397C74.4884 93.683 74.9641 93.422 74.7793 93.0195C74.9927 92.9509 75.0916 92.9423 75.5761 92.212C76.0309 91.4842 76.3345 91.3081 76.7259 91.224C77.1174 91.1399 77.3592 91.1686 78.0316 90.4219C78.5037 89.892 78.2991 89.4912 78.2991 89.4912C78.2991 89.4912 78.626 89.3529 78.4476 88.6806Z" fill="#CBAC5A"/>
<path d="M74.4839 89.7076C74.495 89.6069 74.5699 89.5505 75.1085 89.5533C75.6471 89.556 78.9989 88.8938 79.9147 88.7639C80.8387 88.6132 84.1181 88.3762 85.7405 88.5732C87.3629 88.7703 89.0103 89.0249 89.8092 89.1544C90.6099 89.3037 90.8642 89.3612 90.8431 89.4628C90.832 89.5634 90.6626 89.678 90.561 89.6569C90.4604 89.6458 87.7988 89.0811 86.9827 88.983C86.1665 88.8849 83.3572 88.682 81.846 88.8442C80.4328 88.9877 79.8654 88.9975 78.6803 89.2408C77.4961 89.4939 75.5345 89.8649 74.934 89.8377C74.3441 89.8195 74.4629 89.8091 74.4839 89.7076Z" fill="#D6BC6F"/>
<path d="M81.795 95.8509C81.795 95.8509 83.9194 96.7717 84.7693 98.0533C85.391 99.0058 84.5834 99.575 84.5834 99.575C84.5834 99.575 85.7311 99.4746 85.6381 100.121C85.6035 100.523 83.7874 101.758 82.5604 102.434C81.3135 103.111 81.3604 103.077 80.7358 103.232C80.1311 103.384 78.4231 103.235 78.1201 103.76C77.8162 104.275 78.0096 104.776 78.1155 104.847C78.2205 104.907 79.0306 104.936 79.0306 104.936C79.0306 104.936 78.903 105.416 77.2451 105.611C75.5872 105.806 75.1821 105.961 75.0987 106.148C75.0145 106.324 75.4214 106.189 76.1945 106.251C76.9667 106.303 78.0422 106.289 78.0422 106.289C78.0422 106.289 77.7219 106.616 76.8423 106.932C75.8367 107.289 74.2456 107.678 73.7867 108.017C74.0488 108.164 74.4365 108.379 74.6064 108.384C74.1995 108.519 73.6348 108.788 73.5428 108.876C73.6999 108.962 73.9081 109.063 73.9081 109.063C73.9081 109.063 73.1645 110.135 72.7013 110.425C72.2381 110.715 69.5613 112.255 68.5799 112.092C66.1301 111.668 65.6039 109.072 65.0028 108.925C64.0963 108.705 63.7327 109.335 62.9147 108.988C63.2393 108.71 63.4143 108.546 63.7657 108.345C63.3526 108.182 61.1911 107.065 61.1911 107.065C61.1911 107.065 60.8944 106.523 60.3593 105.762C59.9038 105.114 59.2404 104.255 58.7349 103.491C57.631 101.813 57.5105 101.006 56.5623 100.082C56.6934 99.8715 57.2105 99.8562 57.2105 99.8562L64.6312 101.6L77.4564 100.847L80.3654 95.8065L81.795 95.8509Z" fill="#DFC677"/>
<path d="M63.6045 104.713C63.6045 104.713 63.7138 104.823 63.8907 104.907C64.1527 105.054 64.5361 105.22 64.8095 105.495C64.8954 105.338 65.1194 105.049 65.5911 105.426C66.0628 105.804 66.581 105.459 66.9261 105.529C67.2828 105.617 67.3069 105.665 67.3069 105.665C67.3069 105.665 67.4901 105.48 67.9098 105.263C68.1683 105.141 68.4789 105.044 68.8165 104.915C69.1271 104.818 69.4647 104.689 69.7022 104.668C69.9328 104.797 70.7872 105.56 73.8163 104.059C76.6743 102.652 77.3457 102.464 77.856 102.599C77.8951 102.476 77.9247 102.244 78.6891 102.207C78.6614 101.89 77.9338 100.867 77.9338 100.867L74.3364 99.9753L72.4268 100.142L66.7898 101.692L63.7722 103.781L63.6045 104.713Z" fill="#C4A859"/>
<path d="M61.7039 102.941C61.7039 102.941 61.8199 103.47 62.6608 103.964C63.4918 104.46 63.7686 104.775 63.7686 104.775C63.7686 104.775 63.8997 104.564 64.0011 104.356C64.1008 104.128 64.1781 103.872 64.3699 103.785C64.7509 103.582 65.679 103.82 65.8726 103.753C66.0364 103.689 65.9567 103.347 66.1348 103.331C66.5486 103.275 66.8408 103.539 66.9893 103.526C67.1377 103.513 67.502 103.461 67.5446 103.378C67.5871 103.294 67.5351 102.471 68.0644 102.026C68.6398 101.537 69.4082 101.659 69.6147 101.741C69.6277 101.889 69.6795 102.254 70.077 102.239C70.4745 102.224 70.508 102.151 70.8647 102.24C71.2214 102.328 71.6248 102.153 71.8639 102.721C72.0278 102.656 72.4192 102.572 72.2709 102.017C72.4558 101.851 72.6154 101.738 72.9799 101.117C73.0658 100.96 73.2193 100.777 73.3289 100.549C73.6752 100.518 74.0847 100.413 74.6812 100.849C74.5234 100.982 74.4314 101.07 74.3923 101.193C74.4461 101.238 74.6613 101.419 74.8287 101.624C74.9945 101.809 75.1142 102.037 75.3065 102.07C75.7324 102.153 76.4004 101.925 77.1666 101.908C77.9031 101.893 78.5399 102.107 78.8218 102.251C78.9164 102.193 78.9147 102.173 79.1664 102.201C79.418 102.229 79.6078 102.232 79.3129 101.939C79.4674 101.995 79.6486 102.129 79.784 101.968C79.9194 101.806 80.0191 101.578 80.4304 101.492C80.8416 101.407 80.9961 101.463 81.1262 101.013C81.2971 100.46 80.5451 100.525 80.5451 100.525C80.5451 100.525 80.8637 100.178 81.2133 99.7291C81.6402 99.2531 82.1251 98.6424 82.1932 97.9385C82.2992 96.6431 81.0378 96.584 81.0378 96.584L75.1551 98.973L67.7321 99.2535L61.7039 102.941Z" fill="#927D49"/>
<path d="M55.4516 85.6311C55.4516 85.6311 55.2754 85.8958 55.2077 86.4899C55.1401 87.0841 55.1835 87.0105 55.1209 87.4347C55.0583 87.8589 54.2031 92.1012 54.7803 93.4564C55.3575 94.8117 56.1941 95.257 56.7875 96.3416C56.9081 96.5803 57.02 96.7201 57.0885 96.9334C57.3208 97.6509 57.2217 98.2278 57.4836 98.9427C57.5745 99.184 57.7777 99.4554 58.0708 99.7288C58.7083 100.291 59.7191 100.791 60.171 101.17C60.8084 101.733 61.7486 102.907 62.8177 102.933C63.3877 102.953 64.1684 102.645 64.7967 102.191C65.3484 101.774 65.6695 101.227 66.2569 100.877C66.6732 100.621 67.1313 100.501 67.5382 100.366C68.3843 100.123 69.1634 100.025 69.6371 100.083C70.3624 100.169 72.0895 100.536 73.0195 100.455C73.3856 100.423 74.2421 100.298 75.1505 99.9693C76.529 99.43 78.1784 98.5678 79.2786 98.1525C79.9243 97.8966 80.4542 97.8004 80.988 97.6341C81.899 97.335 82.6547 96.9698 83.0506 96.3669C82.7235 96.0466 82.3106 95.5443 80.3335 95.7372C78.0919 95.9832 75.6086 97.4567 74.3496 97.7662C73.0905 98.0758 72.5512 98.2924 71.0814 97.9026C69.6413 97.5102 69.5615 97.1682 69.5615 97.1682C69.5615 97.1682 68.0072 96.2673 67.1652 93.7089C66.3224 91.1406 66.7696 89.1872 68.2042 87.2372C68.579 86.7358 68.4437 86.3289 68.4437 86.3289C68.4437 86.3289 69.3687 84.8223 68.9658 83.5216C68.5341 82.2333 66.5291 82.6779 66.5291 82.6779L55.4516 85.6311Z" fill="#6E6342"/>
<path d="M57.608 89.2887C57.608 89.2887 57.483 89.5688 57.536 89.8334C57.5792 90.0988 57.6886 90.4382 58.5584 91.1497C59.3009 91.7727 59.2191 92.5475 59.2191 92.5475C59.2191 92.5475 59.5715 92.5865 60.4634 92.0698C61.1653 91.6594 61.4663 92.2512 61.4663 92.2512C61.4663 92.2512 61.7485 92.057 62.13 91.9738C62.5214 91.8897 62.7261 91.7222 62.7261 91.7222C62.7261 91.7222 63.664 92.5275 64.4523 92.8773C65.167 93.1837 65.5844 93.3964 65.8992 93.1196C66.1968 92.8742 66.1578 92.429 66.1207 92.2328C66.1207 92.2328 66.0001 91.9941 65.7789 91.7443C65.5335 91.4467 65.1552 91.1109 65.1094 90.8158C65.0002 90.1375 65.4932 89.2768 65.3572 89.0893C65.2211 88.9018 64.7716 88.8913 63.7079 89.3831C62.603 89.8587 57.608 89.2887 57.608 89.2887Z" fill="#39331F"/>
<path d="M60.5338 93.3606C60.5338 93.3606 59.9231 92.8756 59.8942 90.266C60.1893 90.2203 60.6127 90.273 60.6127 90.273C60.6127 90.273 61.0951 92.2547 60.5338 93.3606Z" fill="#292311"/>
<path d="M56.1494 83.0651C56.1494 83.0651 56.2423 82.9872 56.3497 82.8481C56.1839 83.2315 55.4116 84.7747 56.3455 87.016C57.2785 89.2474 59.2686 90.7981 61.5413 90.679C63.814 90.5599 64.9043 89.3479 66.1243 87.5662C66.6006 86.8565 67.1413 85.9717 67.6362 85.3602C68.3705 84.4086 68.9821 84.1058 68.9076 83.2549C68.7553 81.5135 66.9059 80.8877 64.2156 80.3355C61.5252 79.7832 59.1691 80.089 57.989 80.7307C56.8429 81.4192 56.382 82.0776 56.1494 83.0651Z" fill="#252211"/>
<path d="M64.851 94.1931L65.0402 94.0768C65.0402 94.0768 65.0213 93.2908 65.3397 93.2829C65.6606 93.3047 65.8454 93.7073 65.8287 93.8583C65.8219 94.0084 65.7644 94.2627 65.4452 94.2607C65.0305 94.307 64.851 94.1931 64.851 94.1931Z" fill="#3F3824"/>
<path d="M63.9087 90.9066C63.9087 90.9066 64.1005 90.82 64.3588 91.0367C64.5566 91.0194 65.3989 90.846 65.6807 90.9909C65.9626 91.1357 66.0547 91.2772 66.0547 91.2772C66.0547 91.2772 65.0745 91.5823 64.5112 91.4122C63.9407 91.2727 63.9087 90.9066 63.9087 90.9066Z" fill="#2D2815"/>
<path d="M68.3589 90.8883C68.3546 90.8389 67.7883 90.5195 67.2139 90.4501C67.1132 90.439 67.0995 90.51 67.0203 90.5169C66.9691 90.5014 66.9364 90.3548 66.9364 90.3548L66.6345 90.5507C66.6345 90.5507 66.5911 90.6243 66.7705 90.7382C66.9293 90.8439 67.1853 90.9212 67.2719 91.113C67.3585 91.3049 67.3645 91.3741 67.3968 91.4012C67.4183 91.4193 67.7629 91.3692 67.9224 91.2555C68.0811 91.132 68.3847 90.9559 68.3589 90.8883Z" fill="#82764F"/>
<path d="M63.3581 93.0469C63.3581 93.0469 63.3973 92.3556 64.0576 92.2679C64.736 92.1587 64.9226 92.8104 64.9226 92.8104L64.5615 93.2408C64.5606 93.2309 64.2274 92.8413 63.3581 93.0469Z" fill="#2D2816"/>
<path d="M67.6521 89.9724C67.6521 89.9724 67.3206 90.4002 66.5197 90.5899C66.4417 90.4971 66.276 90.3122 66.466 89.9765C66.656 89.6408 66.8947 89.5203 67.1507 89.5976C67.4024 89.6254 67.5853 89.7789 67.6521 89.9724Z" fill="#574F35"/>
<path d="M69.2001 90.6079C69.2112 90.5072 69.1402 90.4935 69.1854 90.4397C69.2305 90.3859 69.489 90.2636 69.5428 90.3087C69.5643 90.3268 69.5515 90.4077 69.5601 90.5066C69.5688 90.6056 69.5774 90.7045 69.534 90.7781C69.4734 90.8831 69.2799 90.9499 69.1783 90.9289C69.0777 90.9177 69.0449 90.771 69.0423 90.7414C69.09 90.7172 69.2044 90.6574 69.2001 90.6079ZM70.7985 89.3913C70.7942 89.3418 70.9537 89.2282 71.0527 89.2195C71.2011 89.2065 71.2115 89.3253 71.2339 89.3532C71.2851 89.3687 71.2816 89.3291 71.3389 89.4138C71.397 89.5084 71.4793 89.6508 71.4384 89.7541C71.3976 89.8573 71.2058 89.9439 71.1546 89.9284C71.081 89.885 70.8244 89.4588 70.7985 89.3913Z" fill="#82764F"/>
<path d="M67.4202 90.7675C67.4202 90.7675 67.6423 90.7979 67.9607 91.0193C67.8679 91.0972 67.7264 91.1893 67.7264 91.1893C67.7264 91.1893 67.6867 90.9635 67.4202 90.7675Z" fill="#6E6342"/>
<path d="M67.055 88.6528C67.0012 88.6076 67.1887 88.4716 67.3092 88.481C67.4297 88.4904 67.486 88.5652 67.6164 88.5737C67.7468 88.5823 67.7605 88.5113 67.8056 88.4575C67.8508 88.4037 68.0216 88.4187 68.053 88.4358C68.0745 88.4539 68.1085 88.5008 68.1085 88.5008C68.1085 88.5008 68.0981 88.382 68.1902 88.2942C68.283 88.2163 68.382 88.2077 68.453 88.2214C68.4788 88.2889 68.5994 88.5276 68.5839 88.5788C68.5685 88.63 68.2777 88.7253 68.2239 88.6801C68.2838 88.7945 68.5231 89.0228 68.5571 89.0697C68.5812 89.1174 68.3541 89.2569 68.2535 89.2458C68.1141 89.248 67.2199 88.8278 67.055 88.6528ZM68.2075 86.8969C68.2075 86.8969 68.1816 86.8294 68.0982 86.7868C68.0272 86.7731 67.8013 86.8128 67.8117 86.9315C67.8221 87.0503 68.078 87.6959 68.326 88.0231C68.6036 88.3478 68.7969 88.62 68.972 88.6844C69.1463 88.739 69.2349 88.6116 69.2602 88.5595C69.2757 88.5083 69.2931 88.1379 69.198 87.2788C69.1029 86.4198 69.0005 85.5913 68.9467 85.5461C68.8929 85.501 68.695 85.5183 68.6344 85.6233C68.5738 85.7283 68.2143 86.7468 68.2075 86.8969Z" fill="#585136"/>
<path d="M67.3422 91.9539C67.3422 91.9539 66.9769 91.7665 66.6534 91.9444C66.3498 92.1205 66.4207 92.7025 66.4207 92.7025C66.4207 92.7025 66.647 92.7824 66.8517 92.615C67.0564 92.4475 67.3118 92.1759 67.3422 91.9539Z" fill="#574F35"/>
<path d="M68.0672 93.0083C68.0301 92.8121 67.852 92.8277 67.8434 92.7287C67.8545 92.6281 67.9474 92.5502 68.0463 92.5415C68.1453 92.5328 68.2546 92.6429 68.3803 92.7117C68.5051 92.7706 68.6944 92.8836 68.7272 93.0303C68.7599 93.177 68.5786 93.6116 68.3412 93.6323C68.1028 93.6432 68.134 93.2018 68.0672 93.0083ZM69.9534 92.574C69.9534 92.574 69.5681 92.7274 69.5874 92.6061C69.5968 92.4856 69.6931 92.4473 69.8217 92.436C69.8669 92.3822 69.9598 92.3043 70.0587 92.2956C70.1576 92.287 70.2114 92.3321 70.2114 92.3321C70.2114 92.3321 70.4682 92.19 70.5534 92.2524C70.6287 92.3156 70.5793 92.3199 70.6357 92.3947C70.6912 92.4597 70.7734 92.602 70.7804 92.6812C70.7873 92.7603 70.5052 92.9545 70.2651 92.9456C69.9829 92.9104 70.0072 92.6192 69.9534 92.574ZM72.2199 91.9271C72.2199 91.9271 72.3446 91.986 72.2526 92.0738C72.1894 92.1491 71.8544 92.308 71.5593 92.3538C71.2625 92.3798 70.9996 92.4526 70.991 92.3537C70.9823 92.2547 71.2124 92.0352 71.3565 91.9727C71.3999 91.8992 71.4945 91.841 71.5934 91.8324C71.7122 91.822 72.1729 91.7318 72.2997 91.7008C72.4167 91.6706 72.5217 91.7312 72.4611 91.8362C72.4375 91.9081 72.2199 91.9271 72.2199 91.9271ZM72.6351 88.8101C72.6351 88.8101 72.5144 89.1397 72.3462 89.1544C72.1762 89.1493 72.1719 89.0998 72.1676 89.0504C72.1615 88.9811 72.3141 88.7883 72.29 88.7406C72.2405 88.7449 72.1218 88.7553 72.1312 88.6348C72.1226 88.5359 72.2804 88.4024 72.4305 88.4092C72.4757 88.3554 72.6352 88.2418 72.8133 88.2262C72.9815 88.2115 73.1342 88.248 73.1429 88.3469C73.1516 88.4458 72.9727 88.6808 72.9078 88.7364C72.8356 88.8224 72.7409 88.8806 72.6351 88.8101ZM70.8908 94.8549C70.8908 94.8549 70.6946 94.892 70.7033 94.991C70.7076 95.0404 70.7571 95.0361 70.8237 95.0004C70.8732 94.996 70.9407 94.9702 70.9407 94.9702C70.9623 94.9883 70.9709 95.0872 71.1193 95.0742C71.1886 95.0682 71.3327 95.0057 71.4552 94.9252C71.5696 94.8653 71.6643 94.8072 71.6556 94.7083C71.5914 94.5444 71.4855 94.4739 71.3371 94.4869C71.1887 94.4999 71.1238 94.5554 71.1238 94.5554C71.1238 94.5554 71.0657 94.4608 70.9061 94.5744C70.7466 94.6881 70.7664 94.6864 70.8202 94.7315C70.9161 94.8029 70.8908 94.8549 70.8908 94.8549ZM69.8628 95.9817C69.8584 95.9323 70.0971 95.8117 70.169 95.8353C70.24 95.849 70.4707 96.2077 70.4742 96.2473C70.4785 96.2968 70.2416 96.4371 70.1426 96.4458C70.0437 96.4544 69.8608 96.301 69.8582 96.2713C69.8564 96.2515 69.9726 96.2114 69.9708 96.1916C69.9962 96.1396 69.8671 96.0312 69.8628 95.9817ZM68.9547 94.6056C69.0025 94.5815 68.9981 94.532 69.0631 94.4764C69.128 94.4209 69.2097 94.4437 69.2097 94.4437C69.2097 94.4437 69.2506 94.3404 69.3676 94.3102C69.4846 94.2801 69.5852 94.2912 69.5698 94.3424C69.5828 94.4908 69.6904 94.5811 69.7007 94.6998C69.7111 94.8186 69.6549 94.973 69.4162 95.0936C69.1749 95.1845 68.8385 95.2139 68.7873 95.1985C68.7361 95.183 68.6693 94.9895 68.7101 94.8862C68.7401 94.7739 68.8799 94.662 68.9547 94.6056Z" fill="#82764F"/>
<path d="M69.0738 94.5132C69.0738 94.5132 68.9143 94.6269 68.9186 94.6764C68.9032 94.7276 68.9092 94.7968 68.9118 94.8265C68.9144 94.8562 69.1278 94.7877 69.1548 94.7554C69.163 94.7347 69.0782 94.5627 69.0738 94.5132Z" fill="#6E6342"/>
<path d="M67.5843 94.0556C67.685 94.0668 67.8515 94.0323 67.9844 94.0705C68.0877 94.1113 68.1656 94.2042 68.0771 94.3316C67.9885 94.459 67.9051 94.6457 67.6849 94.6351C67.4358 94.6369 67.1871 94.5291 67.1784 94.4301C67.1482 94.3131 67.2045 94.1587 67.2668 94.0734C67.3589 93.9856 67.4127 94.0308 67.5843 94.0556Z" fill="#585136"/>
<path d="M67.3807 94.1174C67.3807 94.1174 67.0857 94.3924 67.017 94.5181C66.9284 94.6455 66.4973 95.3013 66.3601 95.443C66.4009 95.3397 66.5067 95.1809 66.5067 95.1809C66.5067 95.1809 66.2246 95.3751 66.1379 95.7515C66.0512 96.128 66.8501 96.2575 67.3776 96.3609C67.9051 96.4643 68.1073 96.4965 68.1073 96.4965C68.1073 96.4965 67.7724 96.0871 67.5437 95.6385C67.3051 95.1908 67.2019 95.15 67.3114 94.921C67.3913 94.6947 67.5268 94.5333 67.5121 94.3651C67.4388 94.212 67.3807 94.1174 67.3807 94.1174Z" fill="#574F35"/>
<path d="M56.0552 96.0581C56.0552 96.0581 56.1262 96.0718 56.2729 96.0391C56.4196 96.0063 57.9137 95.3073 59.5351 95.2651C60.2519 95.2523 61.527 95.2404 63.158 95.5364C65.2331 95.8932 67.8487 96.7312 69.5341 97.1919C69.9842 97.322 70.4356 97.5816 70.7626 97.6726C72.0517 98.0484 72.1011 98.0441 72.8446 98.1086C73.7158 98.152 74.5712 97.7881 75.4741 97.5097C76.5804 97.1636 78.4994 96.8761 80.1697 96.4807C81.0399 96.285 81.7504 95.9736 81.7504 95.9736C81.7504 95.9736 80.5225 97.4369 77.3394 98.2039C75.7483 98.5924 74.4155 98.6292 73.4058 98.5979C72.3682 98.589 71.6725 98.5003 71.145 98.3969C70.5465 98.2798 69.3104 97.9393 67.8041 97.7022C66.7517 97.525 65.5867 97.4276 64.2491 97.2953C60.9518 96.9856 57.3698 96.6111 56.0552 96.0581Z" fill="#252211"/>
<path d="M54.4601 80.962C54.0861 80.6757 53.6923 80.3911 53.3282 80.1039C52.9542 79.8176 52.5901 79.5304 52.2161 79.2441L51.1014 78.3546C50.9185 78.2011 50.7274 78.0683 50.5445 77.9148C50.3633 77.7811 50.1507 77.6302 49.9695 77.4965C48.4907 76.3198 47.002 75.144 45.543 73.9656C47.0498 75.1199 48.526 76.2669 50.0345 77.441L50.5617 77.8834C50.7446 78.0368 50.9357 78.1697 51.1186 78.3232L52.2307 79.183C52.6047 79.4693 52.9688 79.7565 53.3454 80.0725C53.722 80.3885 54.0861 80.6757 54.4601 80.962ZM36.3166 82.3499C36.3166 82.3499 41.3285 82.4299 43.7829 82.5641C46.0566 82.6842 53.1758 83.1481 53.1758 83.1481L36.3166 82.3499ZM36.3166 82.3499C37.722 82.3466 39.1301 82.373 40.5382 82.3993C41.2566 82.4063 41.9462 82.4257 42.635 82.4352L43.6942 82.4622C44.0448 82.4814 44.3855 82.5014 44.7362 82.5206L48.9498 82.8199L51.0578 82.9845C51.7509 83.0435 52.4449 83.1124 53.1677 83.1688C52.4789 83.1592 51.7579 83.1226 51.0665 83.0834L48.9627 82.9684L44.7535 82.7185C44.4029 82.6993 44.0604 82.6595 43.7098 82.6403L42.6506 82.6133C41.9618 82.6038 41.2408 82.5672 40.5512 82.5478C39.1414 82.5016 37.7307 82.4456 36.3166 82.3499ZM52.7945 84.4875C52.7945 84.4875 47.6089 86.2971 45.8631 86.9683C44.1443 87.6072 38.9533 89.6964 38.9533 89.6964" fill="#CFB66C"/>
<path d="M52.1675 84.5174C51.0204 84.9667 49.8823 85.4052 48.7128 85.8266L45.2538 87.0863C44.1067 87.5357 42.9686 87.9742 41.8214 88.4235L40.1027 89.0624C39.5336 89.2817 38.953 89.482 38.3641 89.703C38.9306 89.4541 39.5069 89.2043 40.076 88.985L41.7878 88.2669C42.9332 87.7978 44.0704 87.3494 45.2158 86.8803C46.387 86.4787 47.5368 86.0591 48.7089 85.6674C49.8216 85.281 50.9937 84.8893 52.1675 84.5174ZM39.354 92.9265C39.9187 92.6577 46.3724 88.9326 47.8716 88.0637C48.6213 87.6292 50.826 86.6188 50.826 86.6188" fill="#CFB66C"/>
<path d="M39.1468 92.9685C39.644 92.7256 40.1081 92.4458 40.5829 92.1749L41.9875 91.3641L44.8023 89.6921C45.7411 89.1414 46.646 88.5438 47.6171 88.0201C48.1125 87.7575 48.6115 87.5343 49.1112 87.3211L49.8712 87.0054C50.1323 86.9128 50.3728 86.812 50.6338 86.7193C49.695 87.2701 48.7006 87.7559 47.7609 88.2967C46.8238 88.8672 45.8591 89.3504 44.888 89.874L42.0151 91.4514C41.0512 91.9445 40.1098 92.4655 39.1468 92.9685ZM40.0396 95.6521C40.0396 95.6521 45.822 91.5471 47.8191 90.2158C48.8637 89.5063 52.2617 87.4343 52.2617 87.4343" fill="#CFB66C"/>
<path d="M39.9578 95.6855C40.9314 94.9622 41.924 94.2274 42.9156 93.4826L44.3958 92.396C44.9024 92.0326 45.3909 91.6908 45.9074 91.3265C46.414 90.9632 46.9008 90.6015 47.419 90.2571C47.6714 90.0655 47.9273 89.9135 48.194 89.7706L48.9887 89.2823C50.0403 88.6519 51.0909 88.0117 52.2079 87.4453C51.2171 88.2 50.1879 88.8583 49.1605 89.5365C48.6522 89.88 48.1314 90.1948 47.6231 90.5384C47.1148 90.8819 46.628 91.2436 46.1089 91.5781C45.6023 91.9415 45.1138 92.2833 44.5947 92.6178L43.059 93.6395C42.0126 94.3293 40.9852 95.0074 39.9578 95.6855ZM52.1988 88.2537C52.1988 88.2537 48.6638 91.4941 47.5183 92.5315C46.3728 93.5689 42.9899 96.497 42.9899 96.497" fill="#CFB66C"/>
<path d="M52.1702 88.433C51.4465 89.1643 50.6708 89.8702 49.9132 90.5546L47.6338 92.6483C46.8563 93.3345 46.1004 94.0387 45.3229 94.7249C44.5455 95.411 43.7654 96.0675 42.9342 96.7085C43.6579 95.9772 44.4353 95.2911 45.2136 94.6148C45.9919 93.9385 46.8008 93.2696 47.5485 92.586L49.828 90.4923C50.6153 89.8053 51.3712 89.1011 52.1702 88.433ZM48.4524 95.7372C48.4524 95.7372 49.2689 94.928 50.2771 93.8029C51.5309 92.4071 53.0602 90.6283 53.5685 90.2847" fill="#CFB66C"/>
<path d="M48.4 95.9992C48.7973 95.5257 49.2251 95.0596 49.6538 94.6033L50.3125 93.9276C50.5128 93.7106 50.7412 93.4713 50.9398 93.2346C51.337 92.7612 51.7218 92.2589 52.1182 91.7756C52.3168 91.5389 52.5155 91.3022 52.7455 91.0826C52.8556 90.9733 52.9755 90.8631 53.1179 90.7809C53.2306 90.7012 53.3479 90.5613 53.5144 90.5268C53.4285 90.6839 53.3158 90.7635 53.2281 90.9008C53.118 91.0102 53.0295 91.1375 52.9392 91.2451C52.7406 91.4819 52.5105 91.7014 52.3101 91.9183C51.8797 92.3548 51.4287 92.7831 51 93.2393C50.5713 93.6955 50.1749 94.1789 49.7463 94.6351C49.2789 95.1047 48.8502 95.561 48.4 95.9992ZM53.9705 91.5238C53.9705 91.5238 51.0211 94.9623 50.4032 95.5348L53.9705 91.5238Z" fill="#CFB66C"/>
<path d="M53.7119 91.6305C53.4454 92.0028 53.1565 92.3471 52.865 92.6617L51.9668 93.6775C51.6779 94.0218 51.4088 94.3644 51.1001 94.7104C50.7798 95.0376 50.4882 95.3522 50.1464 95.6613L51.0149 94.6481C51.3038 94.3038 51.6267 94.0063 51.9354 93.6603L52.8039 92.6471C53.1018 92.2921 53.3908 91.9477 53.7119 91.6305ZM54.0101 93.3292C54.0101 93.3292 53.7384 94.4397 53.1734 95.8451C52.4877 97.58 51.4228 99.7669 50.9713 100.873" fill="#CFB66C"/>
<path d="M53.9364 93.3489C53.9684 93.715 53.8972 94.0403 53.8061 94.3673C53.7151 94.6943 53.6142 95.0221 53.4917 95.332C53.3693 95.6418 53.2288 95.9731 53.0857 96.2747C52.9435 96.5863 52.7707 96.8905 52.6482 97.2003L51.803 99.0489C51.5078 99.663 51.2233 100.286 50.9066 100.882C51.0985 100.227 51.383 99.6041 51.6485 98.9927C51.9438 98.3786 52.2084 97.7573 52.4722 97.126C52.5947 96.8162 52.7154 96.4866 52.8064 96.1596C52.9271 95.83 53.0496 95.5202 53.1432 95.2229C53.2639 94.8933 53.3567 94.586 53.48 94.2861C53.6214 93.9647 53.7339 93.6557 53.9364 93.3489Z" fill="#CFB66C"/>
<path d="M57.2709 101.948C57.2709 101.948 56.4048 103.33 56.6474 104.964C56.8393 104.08 57.0605 102.734 57.2709 101.948ZM58.3144 103.163C58.3144 103.163 58.2763 106.716 58.1408 108.472C58.3716 106.438 58.4655 106.6 58.3144 103.163ZM65.2729 108.058C65.2729 108.058 64.1851 112.49 64.2602 113.69C64.4695 112.435 64.8631 109.868 65.2729 108.058Z" fill="#DEC270"/>
<path d="M68.3605 101.567C68.3605 101.567 71.078 105.278 73.1515 108.466C72.5195 106.826 71.1413 103.836 68.3605 101.567Z" fill="#CBAF59"/>
<path d="M74.772 107.329C74.772 107.329 76.9126 110.372 78.9168 114.135C78.5717 112.47 77.7855 109.638 74.772 107.329Z" fill="#E3C677"/>
<path d="M94.8191 113.26C95.1933 112.978 95.8572 111.564 96.5105 111.168C97.1629 110.762 97.6713 110.648 98.225 109.912C98.7761 109.145 98.9063 108.695 100.203 108.014C102.011 107.038 100.624 106.103 100.624 106.103C100.624 106.103 100.912 105.758 101.237 105.481C101.69 105.072 102.215 104.577 102.097 103.8C101.913 102.49 101.498 100.602 100.323 99.5886C101.353 99.2791 103.348 98.955 104.567 98.5293C105.98 98.0368 106.598 97.4643 106.598 97.4643C106.598 97.4643 105.643 96.1222 106.864 94.5797C108.085 93.0471 109.108 92.0902 109.78 90.4262C108.84 90.3889 107.382 90.0179 103.881 91.7101C104.158 91.8054 104.472 91.9773 104.472 91.9773C104.472 91.9773 102.3 92.7855 101.548 93.5392C100.238 94.8602 100.146 95.8553 98.6762 96.7217C97.1968 97.5889 95.6459 97.5252 94.4214 98.2305C93.1962 98.9259 93.0532 99.4569 92.6072 99.7152C92.7165 99.8253 92.6151 100.034 92.8178 100.185C92.7138 100.364 92.1199 101.552 91.4174 101.614C91.51 101.875 92.121 102.021 92.121 102.021C92.121 102.021 91.7133 102.376 90.6121 102.552C91.2272 103.086 91.8177 103.683 93.3733 104.484C93.2762 104.741 92.8135 105.151 93.0521 105.598C93.3105 106.044 93.9298 106.628 96.2307 106.945C95.0873 107.095 93.7651 107.48 91.9328 107.391C90.1031 107.332 89.795 107.229 88.7012 107.604C88.8303 107.713 89.147 107.685 89.4517 107.977C89.1566 108.023 87.2757 107.948 86.7152 108.835C86.1276 109.754 85.9644 111.194 86.097 112.139C85.7654 112.338 85.455 112.664 85.6769 113.263C85.8987 113.861 86.7966 113.982 87.3944 114.319C87.9947 114.685 88.0572 114.829 88.5828 114.683C89.1364 114.515 89.9182 113.879 90.403 113.836C90.8878 113.794 91.2661 114.13 91.2661 114.13C91.2661 114.13 92.5266 113.381 92.6657 113.489C92.7948 113.597 92.7625 114.367 92.9015 114.475C93.0379 114.553 94.445 113.542 94.8191 113.26Z" fill="#ECD592"/>
<path opacity="0.8" d="M121.307 70.554C113.726 55.1257 98.1802 53.5047 98.1802 53.5047L54.5663 57.3204L56.1576 73.5719L64.8448 72.8118L68.0225 109.134L59.1672 109.908L60.5877 126.145L102.994 122.435C113.215 121.54 120.509 110.554 120.509 110.554C132 90.7847 121.307 70.554 121.307 70.554ZM101.366 101.202C101.366 101.202 98.4614 106.291 94.8401 106.608L87.5976 107.242L84.2707 71.1522L93.5613 70.3393C93.5613 70.3393 97.9441 70.8632 101.697 79.1189C101.697 79.1189 106.752 90.9697 101.366 101.202Z" fill="white"/>
<path d="M77.0359 162.668L75.7547 148.024L79.876 147.663C81.3125 147.538 82.2868 147.67 82.7988 148.061C83.3247 148.451 83.6451 149.301 83.7598 150.612L84.4699 158.729C84.5846 160.04 84.4168 160.933 83.9665 161.408C83.5301 161.882 82.5937 162.182 81.1572 162.307L77.0359 162.668ZM80.0755 149.944L78.7157 150.063L79.577 160.148L80.9577 160.027C81.2506 160.001 81.4619 159.927 81.5916 159.803C81.7213 159.679 81.7709 159.443 81.7404 159.094L81.0028 150.663C80.9735 150.329 80.8848 150.119 80.7368 150.033C80.6028 149.947 80.3823 149.917 80.0755 149.944ZM88.2336 146.848L88.7566 146.802C90.221 146.674 91.2168 146.812 91.744 147.215C92.2839 147.604 92.613 148.474 92.7314 149.827L93.4415 157.944C93.5599 159.297 93.3875 160.218 92.9245 160.709C92.4742 161.184 91.5168 161.485 90.0524 161.613L89.5294 161.659C88.065 161.787 87.0623 161.65 86.5211 161.248C85.9939 160.844 85.6718 159.973 85.5546 158.634L84.8445 150.517C84.7261 149.164 84.8921 148.25 85.3424 147.775C85.8055 147.285 86.7692 146.976 88.2336 146.848ZM89.3718 159.375L89.832 159.335C90.1667 159.306 90.4059 159.229 90.5496 159.104C90.692 158.965 90.7467 158.707 90.7138 158.33L89.978 149.92C89.9451 149.544 89.847 149.306 89.6839 149.208C89.5195 149.096 89.2699 149.055 88.9352 149.084L88.4749 149.124C88.1402 149.154 87.901 149.231 87.7574 149.356C87.6137 149.481 87.559 149.739 87.5931 150.129L88.3289 158.539C88.3631 158.929 88.4617 159.174 88.6249 159.272C88.7881 159.37 89.037 159.404 89.3718 159.375ZM97.2636 146.058L97.7238 146.017C99.1882 145.889 100.184 146.027 100.711 146.431C101.251 146.819 101.58 147.69 101.699 149.043L101.841 150.674L99.1008 150.914L98.9434 149.115C98.9105 148.738 98.8124 148.501 98.6492 148.403C98.486 148.305 98.2441 148.27 97.9233 148.298L97.4631 148.338C97.1423 148.366 96.9101 148.443 96.7664 148.568C96.6228 148.693 96.5674 148.943 96.6004 149.32L97.3453 157.834C97.3782 158.211 97.4687 158.442 97.6167 158.527C97.7774 158.598 98.0252 158.618 98.3599 158.589L98.8201 158.549C99.0572 158.528 99.224 158.506 99.3204 158.484C99.4295 158.446 99.5204 158.361 99.5931 158.228C99.6798 158.094 99.7115 157.894 99.6883 157.629L99.4577 154.993L98.1816 155.105L97.9821 152.825L101.999 152.473L102.409 157.16C102.527 158.512 102.355 159.434 101.892 159.924C101.441 160.399 100.484 160.701 99.0196 160.829L98.5594 160.869C97.095 160.997 96.0928 160.867 95.5529 160.479C95.0257 160.075 94.703 159.197 94.5846 157.844L93.8745 149.727C93.7561 148.374 93.9221 147.46 94.3724 146.985C94.8354 146.495 95.7992 146.186 97.2636 146.058ZM106.049 153.763L106.397 157.738L110.204 157.405L110.409 159.748L103.861 160.321L102.58 145.677L109.128 145.104L109.333 147.447L105.526 147.78L105.844 151.42L109.296 151.118L109.501 153.461L106.049 153.763Z" fill="black"/>
<circle cx="192.874" cy="83.4789" r="70.6312" transform="rotate(-5 192.874 83.4789)" fill="white" stroke="black"/>
<path d="M172.572 35.8009L172.97 40.3435L177.321 39.9628L177.555 42.6406L170.072 43.2953L168.608 26.5592L176.091 25.9045L176.325 28.5823L171.974 28.963L172.338 33.1231L176.283 32.778L176.517 35.4557L172.572 35.8009ZM184.323 25.1843L188.632 41.6715L185.5 41.9455L184.704 38.9073L181.477 39.1897L181.244 42.3178L178.089 42.5939L179.469 25.609L184.323 25.1843ZM182.038 27.9861L181.515 36.3195L184.145 36.0894L182.182 27.9735L182.038 27.9861ZM189.426 41.602L187.962 24.8659L192.72 24.4497C194.346 24.3074 195.443 24.4524 196.011 24.8845C196.594 25.3153 196.95 26.2639 197.079 27.7303L197.284 30.0733C197.373 31.0934 197.283 31.816 197.015 32.241C196.762 32.6486 196.319 32.9122 195.687 33.0317C196.382 33.0833 196.884 33.3125 197.193 33.7191C197.502 34.1258 197.701 34.8471 197.792 35.8831L198.225 40.8322L195.069 41.1083L194.6 35.7528C194.531 34.9558 194.185 34.5846 193.563 34.6389L191.985 34.777L192.559 41.328L189.426 41.602ZM191.322 27.198L191.764 32.2427L193.389 32.1004C193.708 32.0726 193.927 32.0052 194.046 31.8984C194.18 31.7743 194.23 31.521 194.197 31.1384L193.906 27.8151C193.874 27.4485 193.782 27.2237 193.63 27.1406C193.478 27.0575 193.235 27.0306 192.9 27.0599L191.322 27.198ZM197.886 23.9977L201.042 23.7216L204.743 32.6972L204.767 32.6951L203.959 23.4664L206.9 23.2091L208.364 39.9452L205.089 40.2317L201.667 31.6894L201.643 31.6915L202.411 40.466L199.351 40.7337L197.886 23.9977Z" fill="black"/>
<line x1="174.023" y1="58.4451" x2="209.453" y2="55.3454" stroke="black"/>
<path d="M161.013 75.5465C160.542 70.1671 156.115 67.7538 148.943 68.3813C141.441 69.0376 137.928 72.5973 138.459 78.6641L146.528 77.9582C146.259 75.5725 148.412 75.0529 149.876 74.9248C152.088 74.7313 152.881 75.5352 152.98 76.6709C153.323 80.586 138.395 80.6874 139.334 91.4164L139.66 95.1521L162.463 93.1572L161.914 86.8811L148.794 88.029C150.702 83.6761 161.769 84.1836 161.013 75.5465ZM176.705 92.5737C184.834 91.8625 189.061 86.8249 188.311 78.2476C187.561 69.6704 182.523 65.4434 174.394 66.1546C166.265 66.8658 162.038 71.9033 162.788 80.4806C163.539 89.0578 168.576 93.2848 176.705 92.5737ZM176.096 85.6102C173.048 85.8769 171.303 83.8312 170.947 79.7668C170.592 75.7023 171.955 73.3847 175.003 73.118C178.052 72.8513 179.797 74.897 180.152 78.9614C180.508 83.0259 179.145 85.3436 176.096 85.6102ZM212.111 71.0761C211.64 65.6966 207.213 63.2833 200.04 63.9108C192.539 64.5671 189.026 68.1268 189.557 74.1937L197.626 73.4877C197.357 71.1021 199.51 70.5824 200.974 70.4543C203.186 70.2608 203.979 71.0648 204.078 72.2004C204.421 76.1155 189.493 76.2169 190.431 86.9459L190.758 90.6817L213.561 88.6867L213.012 82.4106L199.892 83.5585C201.8 79.2056 212.866 79.7131 212.111 71.0761ZM225.52 88.5137L239.561 62.4407L235.891 60.4129L221.85 86.4859L225.52 88.5137ZM221.487 75.7969C226.268 75.3785 228.031 72.1225 227.715 68.5063C227.401 64.92 225.1 62.0196 220.318 62.4379C215.536 62.8562 213.773 66.1123 214.087 69.6986C214.403 73.3148 216.705 76.2152 221.487 75.7969ZM221.042 70.7163C219.877 70.8183 219.355 70.0207 219.287 69.2436C219.216 68.4367 219.597 67.6205 220.762 67.5185C221.928 67.4165 222.444 68.1543 222.515 68.9613C222.583 69.7383 222.208 70.6143 221.042 70.7163ZM241.076 86.6408C245.858 86.2224 247.621 82.9664 247.305 79.3502C246.991 75.7639 244.689 72.8635 239.907 73.2818C235.126 73.7002 233.363 76.9562 233.677 80.5425C233.993 84.1587 236.295 87.0591 241.076 86.6408ZM240.632 81.5602C239.466 81.6622 238.945 80.8646 238.877 80.0875C238.806 79.2806 239.186 78.4644 240.352 78.3624C241.518 78.2604 242.034 78.9982 242.104 79.8052C242.172 80.5822 241.797 81.4582 240.632 81.5602Z" fill="black"/>
<path d="M183.472 129.442L189.17 128.943L181.549 112.746L173.819 113.422L169.127 130.697L174.825 130.198L175.369 127.922L182.541 127.295L183.472 129.442ZM176.366 123.719L177.659 118.306L178.616 118.222L180.829 123.329L176.366 123.719ZM189.967 128.873L195.486 128.39L195.166 124.724L199.17 124.374C203.713 123.977 206.245 121.707 205.851 117.205C205.457 112.702 202.57 110.907 198.007 111.306L188.503 112.137L189.967 128.873ZM194.765 120.142L194.423 116.237L197.95 115.928C199.265 115.813 200.179 116.396 200.292 117.691C200.405 118.986 199.606 119.718 198.271 119.835L194.765 120.142ZM225.339 125.779L221.87 120.541C223.197 119.421 224.074 117.738 223.877 115.487C223.491 111.084 220.707 109.32 216.065 109.726L206.481 110.564L207.946 127.3L213.465 126.818L213.086 122.494L217.27 122.128L219.92 126.253L225.339 125.779ZM212.401 114.664L216.087 114.342C217.482 114.22 218.258 114.834 218.361 116.01C218.464 117.185 217.806 117.925 216.411 118.047L212.725 118.37L212.401 114.664Z" fill="black"/>
<defs>
<filter id="filter0_d" x="0" y="9.56775" width="216.963" height="216.963" filterUnits="userSpaceOnUse" color-interpolation-filters="sRGB">
<feFlood flood-opacity="0" result="BackgroundImageFix"/>
<feColorMatrix in="SourceAlpha" type="matrix" values="0 0 0 0 0 0 0 0 0 0 0 0 0 0 0 0 0 0 127 0"/>
<feOffset dx="25" dy="25"/>
<feGaussianBlur stdDeviation="12.5"/>
<feColorMatrix type="matrix" values="0 0 0 0 0 0 0 0 0 0 0 0 0 0 0 0 0 0 0.25 0"/>
<feBlend mode="normal" in2="BackgroundImageFix" result="effect1_dropShadow"/>
<feBlend mode="normal" in="SourceGraphic" in2="effect1_dropShadow" result="shape"/>
</filter>
</defs>
</svg>
