<svg width="274" height="228" viewBox="0 0 274 228" fill="none" xmlns="http://www.w3.org/2000/svg">
<g filter="url(#filter0_d)">
<rect x="0.810962" y="23.2011" width="154.548" height="154.548" transform="rotate(-5 0.810962 23.2011)" fill="#007EFC" stroke="black"/>
<rect x="11.9694" y="150.742" width="154.548" height="26.5201" transform="rotate(-5 11.9694 150.742)" fill="#FDCB02" stroke="black"/>
<rect x="0.810962" y="23.2011" width="10.9653" height="154.548" transform="rotate(-5 0.810962 23.2011)" fill="#123CB1" stroke="black"/>
</g>
<path d="M111.218 78.8687C111.96 78.4978 113.072 79.2396 113.072 79.9813L114.556 85.5442C114.927 86.286 114.185 87.3986 113.443 87.3986C112.702 87.7694 111.589 87.0277 111.589 86.286L110.106 80.723C109.735 79.9813 110.106 78.8687 111.218 78.8687ZM68.5688 37.332C68.1979 36.5902 68.1979 35.4776 68.9397 35.1068L73.7609 31.769C74.5026 31.3981 75.6152 31.3981 75.9861 32.1399C76.3569 33.2524 76.3569 33.9942 75.6152 34.7359L70.794 38.0737C70.0523 38.0737 68.9397 38.0737 68.5688 37.332Z" fill="white"/>
<path fill-rule="evenodd" clip-rule="evenodd" d="M93.4166 56.9879C87.8537 55.8753 81.9199 56.617 76.7278 59.9548C84.1451 57.3587 92.6749 59.213 98.6087 65.1469C106.768 73.6767 106.768 87.3987 98.6087 95.5577C97.4962 96.6703 96.3836 97.412 95.271 98.1537C98.2379 97.0412 101.205 95.5577 103.43 92.9617C109.364 87.0278 110.847 78.498 108.622 71.0807C102.317 68.8555 96.7544 63.6634 93.4166 56.9879Z" fill="#FFAE54"/>
<path d="M128.649 105.2C115.297 130.048 84.1449 139.32 59.6679 125.598C34.8201 112.247 25.9193 80.7232 39.2704 55.8753C48.1711 39.5573 64.4892 29.9148 81.9198 29.1731C84.1449 29.1731 85.9993 30.2857 87.1118 32.5109C88.2244 34.7361 88.9662 37.703 88.5953 40.6699C88.5953 41.7825 88.5953 42.8951 88.5953 44.0076C88.5953 49.1997 90.0788 54.3918 92.3039 58.8422C81.5489 54.7627 69.3104 59.2131 63.7474 69.5972C57.4427 81.094 61.8931 95.1868 73.019 101.492C84.1449 107.796 98.6086 103.346 104.542 92.2199C107.88 85.9152 108.251 78.498 105.655 72.1933C110.105 74.4185 114.927 75.5311 120.119 75.5311C123.086 75.5311 125.682 75.1602 128.649 74.4185C130.132 74.0476 131.986 74.0476 133.099 74.7893C134.212 75.5311 134.953 76.2728 134.953 77.3854C135.324 86.657 133.099 96.2994 128.649 105.2Z" fill="url(#paint0_radial)" stroke="#AC562A" stroke-width="1.0716"/>
<path d="M115.298 95.1868L117.152 94.4451C118.635 98.1538 116.781 101.492 115.668 104.088C115.668 104.088 115.668 104.088 115.668 104.458C114.927 105.942 114.185 107.054 114.185 108.167C113.814 110.021 113.814 111.876 114.185 112.988C114.556 114.101 115.668 115.213 117.152 115.584C118.264 115.955 120.119 115.584 122.344 114.101C131.245 103.717 135.324 90.3656 134.582 77.7562C134.582 76.6437 133.841 75.5311 132.728 74.7893C131.616 74.0476 129.761 74.0476 128.278 74.4185C125.682 75.1602 122.715 75.5311 120.119 75.5311C114.927 75.5311 110.105 74.4185 105.655 71.8224C108.251 78.1271 107.88 85.1735 104.913 91.4782C104.542 92.5908 103.801 93.3325 103.059 94.4451C104.542 94.0742 106.026 93.3325 108.251 91.8491C110.847 89.9947 114.185 91.8491 115.298 95.1868ZM115.298 95.1868C116.41 98.1537 114.927 100.75 113.814 103.346C113.072 104.829 112.331 106.313 111.96 107.796L115.298 95.1868ZM79.6946 57.3587C74.5025 58.8422 70.423 58.1005 67.4561 56.617C64.4892 54.7627 61.8932 52.1666 60.7806 49.1997C59.2971 45.862 58.9263 42.5242 59.668 39.5573C60.4097 36.5904 61.8932 34.3652 64.1183 33.2526C70.423 30.6566 77.0986 29.1731 83.4033 29.1731C85.2576 29.1731 86.741 30.2857 87.8536 32.14C88.9662 33.9943 89.3371 36.5904 88.9662 38.8156C88.5954 40.299 88.5954 42.1533 88.5954 44.0076C88.5954 49.1997 90.0788 54.3918 92.304 58.8422C88.2245 56.9879 83.7741 56.617 79.6946 57.3587Z" fill="#AC562A" stroke="#AC562A" stroke-width="1.0716"/>
<path d="M45.2042 71.4516C46.638 71.4516 47.8002 70.2893 47.8002 68.8556C47.8002 67.4218 46.638 66.2595 45.2042 66.2595C43.7704 66.2595 42.6082 67.4218 42.6082 68.8556C42.6082 70.2893 43.7704 71.4516 45.2042 71.4516Z" fill="#AC562A"/>
<path d="M83.774 117.81C85.2078 117.81 86.3701 116.647 86.3701 115.213C86.3701 113.78 85.2078 112.617 83.774 112.617C82.3403 112.617 81.178 113.78 81.178 115.213C81.178 116.647 82.3403 117.81 83.774 117.81Z" fill="#AC562A"/>
<path d="M67.4562 121.889C69.9141 121.889 71.9066 119.897 71.9066 117.439C71.9066 114.981 69.9141 112.988 67.4562 112.988C64.9984 112.988 63.0059 114.981 63.0059 117.439C63.0059 119.897 64.9984 121.889 67.4562 121.889Z" fill="#AC562A"/>
<path d="M72.8735 166.678L71.4093 149.942L75.9041 149.548C77.5618 149.403 78.6832 149.554 79.2683 150.001C79.868 150.43 80.2341 151.402 80.3666 152.916L80.5067 154.518C80.5946 155.522 80.5212 156.243 80.2865 156.682C80.0663 157.102 79.6336 157.389 78.9885 157.542C79.6809 157.562 80.172 157.76 80.4619 158.136C80.7677 158.511 80.9652 159.208 81.0545 160.228L81.226 162.189C81.2888 162.906 81.2918 163.492 81.2353 163.946C81.1932 164.384 81.105 164.753 80.9707 165.054C80.851 165.337 80.6134 165.559 80.258 165.718C79.9025 165.878 79.5277 165.999 79.1334 166.082C78.7377 166.149 78.1653 166.215 77.4161 166.28L72.8735 166.678ZM75.3696 159.135L75.7775 163.798L77.1881 163.674C77.5228 163.645 77.765 163.567 77.9146 163.442C78.0629 163.3 78.1196 163.031 78.0847 162.632L77.8442 159.883C77.8107 159.5 77.7007 159.253 77.5142 159.14C77.3437 159.027 77.0831 158.985 76.7324 159.016L75.3696 159.135ZM74.7693 152.274L75.1563 156.697L76.5908 156.571C76.9096 156.543 77.1351 156.459 77.2674 156.319C77.3997 156.179 77.4491 155.918 77.4156 155.535L77.196 153.025C77.1625 152.642 77.0605 152.394 76.89 152.281C76.7194 152.167 76.4668 152.125 76.1321 152.154L74.7693 152.274ZM88.4799 148.448L92.7892 164.935L89.6572 165.209L88.8613 162.171L85.6337 162.453L85.4014 165.582L82.2455 165.858L83.6264 148.873L88.4799 148.448ZM86.1954 151.25L85.6717 159.583L88.3016 159.353L86.3388 151.237L86.1954 151.25ZM96.1901 158.037L96.7633 164.588L93.6312 164.862L92.167 148.125L95.2991 147.851L95.9015 154.737L96.9056 154.649L98.0964 147.607L101.467 147.312L99.8171 155.985L103.099 164.033L99.6323 164.337L97.3138 157.938L96.1901 158.037ZM106.452 156.464L106.849 161.007L111.2 160.626L111.435 163.304L103.951 163.959L102.487 147.223L109.97 146.568L110.205 149.246L105.853 149.626L106.217 153.786L110.162 153.441L110.396 156.119L106.452 156.464Z" fill="black"/>
<circle cx="194.934" cy="83.787" r="71.2916" transform="rotate(-5 194.934 83.787)" fill="white" stroke="black"/>
<path d="M174.581 35.5168L174.978 40.0594L179.329 39.6787L179.564 42.3565L172.08 43.0112L170.616 26.2752L178.1 25.6204L178.334 28.2982L173.982 28.6789L174.346 32.839L178.291 32.4939L178.526 35.1717L174.581 35.5168ZM186.331 24.9002L190.641 41.3874L187.509 41.6614L186.713 38.6232L183.485 38.9056L183.253 42.0338L180.097 42.3099L181.478 25.3249L186.331 24.9002ZM184.047 27.702L183.523 36.0354L186.153 35.8053L184.19 27.6895L184.047 27.702ZM191.435 41.3179L189.971 24.5818L194.729 24.1656C196.354 24.0234 197.451 24.1683 198.019 24.6005C198.603 25.0312 198.959 25.9798 199.087 27.4462L199.292 29.7893C199.381 30.8094 199.292 31.5319 199.024 31.9569C198.771 32.3645 198.328 32.6281 197.696 32.7476C198.391 32.7992 198.893 33.0284 199.202 33.435C199.51 33.8417 199.71 34.563 199.8 35.5991L200.233 40.5482L197.077 40.8243L196.609 35.4687C196.539 34.6718 196.193 34.3005 195.572 34.3549L193.994 34.4929L194.567 41.0439L191.435 41.3179ZM193.331 26.9139L193.772 31.9586L195.398 31.8164C195.717 31.7885 195.936 31.7211 196.055 31.6143C196.189 31.4902 196.239 31.2369 196.205 30.8544L195.914 27.531C195.882 27.1644 195.79 26.9396 195.639 26.8565C195.487 26.7734 195.243 26.7465 194.909 26.7758L193.331 26.9139ZM199.895 23.7136L203.051 23.4375L206.751 32.4131L206.775 32.411L205.968 23.1823L208.908 22.925L210.373 39.6611L207.097 39.9477L203.676 31.4054L203.652 31.4074L204.419 40.1819L201.359 40.4497L199.895 23.7136Z" fill="black"/>
<line x1="175.909" y1="58.5256" x2="211.668" y2="55.3971" stroke="black"/>
<path d="M145.647 101.614C154.503 100.839 159.62 97.0892 159.132 91.5105C158.803 87.7449 156.399 85.5661 153.394 84.9507L153.351 84.4625C155.555 83.1455 157.282 81.2025 156.992 77.8902C156.556 72.9042 151.911 70.0081 143.229 70.7676C134.687 71.515 130.301 75.2012 131.018 82.5869L139.595 81.8365C139.396 79.5701 141.07 78.6157 143.824 78.3747C146.369 78.152 148.278 78.6877 148.422 80.3264C148.492 81.1283 148.191 82.9113 143.693 83.3048L142.089 83.4452L142.565 88.8844L144.169 88.7441C148.737 88.3445 149.405 90.3589 149.475 91.1608C149.612 92.7298 147.91 93.7571 144.772 94.0316C142.018 94.2726 140.188 93.8354 139.841 91.4767L131.194 92.2332C131.777 99.7008 136.477 102.417 145.647 101.614ZM176.373 98.926C185.857 98.0963 190.789 92.2191 189.913 82.2124C189.038 72.2056 183.161 67.274 173.677 68.1038C164.193 68.9335 159.262 74.8107 160.137 84.8174C161.013 94.8242 166.89 99.7558 176.373 98.926ZM175.663 90.8021C172.106 91.1132 170.071 88.7266 169.656 83.9847C169.241 79.2428 170.831 76.5389 174.388 76.2277C177.944 75.9166 179.98 78.3032 180.395 83.0451C180.81 87.787 179.219 90.4909 175.663 90.8021ZM206.364 96.3022C215.22 95.5274 220.338 91.7771 219.85 86.1984C219.52 82.4328 217.116 80.254 214.111 79.6386L214.068 79.1505C216.272 77.8334 217.999 75.8905 217.709 72.5781C217.273 67.5922 212.628 64.696 203.946 65.4555C195.404 66.2029 191.018 69.8891 191.735 77.2748L200.312 76.5244C200.114 74.2581 201.787 73.3036 204.541 73.0626C207.087 72.8399 208.996 73.3756 209.139 75.0143C209.209 75.8163 208.908 77.5993 204.411 77.9928L202.807 78.1331L203.283 83.5723L204.886 83.432C209.454 83.0324 210.122 85.0468 210.192 85.8488C210.33 87.4178 208.628 88.445 205.49 88.7196C202.735 88.9605 200.905 88.5234 200.558 86.1646L191.911 86.9211C192.494 94.3887 197.194 97.1045 206.364 96.3022ZM234.427 94.0929L250.809 63.6744L246.526 61.3087L230.145 91.7272L234.427 94.0929ZM229.721 79.2566C235.3 78.7685 237.357 74.9698 236.988 70.7509C236.622 66.5669 233.937 63.1831 228.358 63.6711C222.779 64.1592 220.722 67.9579 221.088 72.1419C221.458 76.3608 224.143 79.7447 229.721 79.2566ZM229.203 73.3292C227.843 73.4482 227.235 72.5177 227.155 71.6112C227.073 70.6698 227.517 69.7175 228.876 69.5985C230.236 69.4795 230.839 70.3403 230.921 71.2817C231 72.1883 230.563 73.2103 229.203 73.3292ZM252.576 91.9078C258.155 91.4198 260.211 87.6211 259.842 83.4022C259.476 79.2182 256.791 75.8343 251.212 76.3224C245.634 76.8104 243.577 80.6092 243.943 84.7932C244.312 89.0121 246.997 92.3959 252.576 91.9078ZM252.057 85.9805C250.698 86.0994 250.089 85.1689 250.01 84.2624C249.928 83.321 250.371 82.3687 251.731 82.2497C253.091 82.1308 253.693 82.9915 253.775 83.9329C253.855 84.8395 253.417 85.8615 252.057 85.9805Z" fill="black"/>
<path d="M185.553 129.925L191.251 129.426L183.631 113.229L175.9 113.905L171.208 131.18L176.906 130.681L177.45 128.405L184.622 127.778L185.553 129.925ZM178.447 124.202L179.74 118.789L180.697 118.705L182.91 123.812L178.447 124.202ZM192.049 129.356L197.568 128.874L197.247 125.208L201.252 124.857C205.794 124.46 208.326 122.19 207.932 117.688C207.538 113.185 204.651 111.39 200.088 111.789L190.584 112.62L192.049 129.356ZM196.846 120.625L196.504 116.72L200.031 116.411C201.346 116.296 202.26 116.879 202.373 118.174C202.487 119.469 201.687 120.201 200.353 120.318L196.846 120.625ZM227.42 126.262L223.951 121.024C225.278 119.904 226.155 118.221 225.958 115.97C225.573 111.567 222.788 109.803 218.146 110.209L208.563 111.047L210.027 127.783L215.546 127.301L215.167 122.977L219.352 122.611L222.001 126.736L227.42 126.262ZM214.482 115.147L218.168 114.825C219.563 114.703 220.34 115.317 220.442 116.493C220.545 117.668 219.887 118.408 218.493 118.53L214.807 118.853L214.482 115.147Z" fill="black"/>
<defs>
<filter id="filter0_d" x="0.269287" y="9.1897" width="218.514" height="218.514" filterUnits="userSpaceOnUse" color-interpolation-filters="sRGB">
<feFlood flood-opacity="0" result="BackgroundImageFix"/>
<feColorMatrix in="SourceAlpha" type="matrix" values="0 0 0 0 0 0 0 0 0 0 0 0 0 0 0 0 0 0 127 0"/>
<feOffset dx="25" dy="25"/>
<feGaussianBlur stdDeviation="12.5"/>
<feColorMatrix type="matrix" values="0 0 0 0 0 0 0 0 0 0 0 0 0 0 0 0 0 0 0.25 0"/>
<feBlend mode="normal" in2="BackgroundImageFix" result="effect1_dropShadow"/>
<feBlend mode="normal" in="SourceGraphic" in2="effect1_dropShadow" result="shape"/>
</filter>
<radialGradient id="paint0_radial" cx="0" cy="0" r="1" gradientUnits="userSpaceOnUse" gradientTransform="translate(83.9083 80.6484) rotate(90) scale(53.3225 52.7852)">
<stop offset="0.3335" stop-color="#F7B450"/>
<stop offset="0.6477" stop-color="#FFC977"/>
<stop offset="1" stop-color="#FF9900"/>
</radialGradient>
</defs>
</svg>
