<svg width="229" height="154" viewBox="0 0 229 154" fill="none" xmlns="http://www.w3.org/2000/svg">
<rect x="0.810962" y="20.0314" width="129" height="129" transform="rotate(-5 0.810962 20.0314)" fill="#007EFC" stroke="black"/>
<rect x="10.1366" y="126.624" width="129" height="22" transform="rotate(-5 10.1366 126.624)" fill="#FDCB02" stroke="black"/>
<rect x="0.810962" y="20.0314" width="9" height="129" transform="rotate(-5 0.810962 20.0314)" fill="#123CB1" stroke="black"/>
<path d="M52.903 62.5833L68.7526 43.7029L87.6483 59.5577L96.8645 48.5669L66.9841 23.4885L41.9118 53.3675L52.903 62.5833Z" fill="#F3BA2F"/>
<path d="M35.4013 61.1278L26.1814 72.1152L37.1691 81.3347L46.389 70.3473L35.4013 61.1278Z" fill="#F3BA2F"/>
<path d="M54.1518 76.8576L73.0398 92.706L88.8952 73.8108L99.8858 83.0196L99.8793 83.0273L74.8077 112.913L44.9285 87.8491L44.9132 87.8362L54.1518 76.8576Z" fill="#F3BA2F"/>
<path d="M104.619 55.0748L95.3987 66.0623L106.386 75.2818L115.606 64.2943L104.619 55.0748Z" fill="#F3BA2F"/>
<path d="M81.1442 67.3006L69.9982 57.9417L63.0824 66.1834L62.2826 67.1288L60.6455 69.0797L60.6326 69.0951L60.6486 69.1151L71.7933 78.4598L81.1449 67.3076L81.1513 67.2999L81.1442 67.3006Z" fill="#F3BA2F"/>
<path d="M64.063 141.481L62.5988 124.745L67.0936 124.351C68.7513 124.206 69.8727 124.357 70.4579 124.804C71.0576 125.233 71.4237 126.205 71.5562 127.719L71.6963 129.321C71.7842 130.325 71.7107 131.047 71.476 131.485C71.2559 131.905 70.8232 132.192 70.1781 132.345C70.8704 132.365 71.3615 132.563 71.6514 132.939C71.9573 133.314 72.1548 134.011 72.244 135.031L72.4156 136.992C72.4783 137.709 72.4814 138.295 72.4248 138.75C72.3828 139.187 72.2946 139.556 72.1603 139.857C72.0406 140.14 71.803 140.362 71.4475 140.522C71.0921 140.681 70.7172 140.802 70.3229 140.885C69.9272 140.952 69.3548 141.018 68.6057 141.083L64.063 141.481ZM66.5592 133.939L66.9671 138.601L68.3777 138.477C68.7124 138.448 68.9546 138.371 69.1042 138.245C69.2524 138.104 69.3091 137.834 69.2743 137.435L69.0337 134.686C69.0002 134.303 68.8903 134.056 68.7038 133.944C68.5332 133.83 68.2726 133.789 67.922 133.819L66.5592 133.939ZM65.9588 127.077L66.3458 131.5L67.7803 131.374C68.0991 131.346 68.3247 131.262 68.457 131.122C68.5893 130.982 68.6387 130.721 68.6052 130.339L68.3856 127.828C68.3521 127.446 68.2501 127.198 68.0795 127.084C67.909 126.97 67.6564 126.928 67.3216 126.958L65.9588 127.077ZM72.6164 123.868L75.7723 123.592L79.4727 132.568L79.4966 132.566L78.6892 123.337L81.6299 123.08L83.0941 139.816L79.8187 140.102L76.3971 131.56L76.3732 131.562L77.1409 140.337L74.0806 140.604L72.6164 123.868ZM84.5161 139.691L83.0519 122.955L87.5468 122.562C89.2044 122.417 90.3258 122.568 90.911 123.015C91.5107 123.444 91.8768 124.416 92.0093 125.93L92.1494 127.532C92.2373 128.536 92.1638 129.257 91.9291 129.695C91.709 130.116 91.2763 130.403 90.6312 130.556C91.3235 130.575 91.8147 130.773 92.1046 131.15C92.4104 131.524 92.6079 132.222 92.6972 133.242L92.8687 135.202C92.9314 135.92 92.9345 136.506 92.8779 136.96C92.8359 137.398 92.7477 137.767 92.6134 138.067C92.4937 138.351 92.2561 138.573 91.9006 138.732C91.5452 138.892 91.1703 139.013 90.776 139.096C90.3803 139.162 89.8079 139.228 89.0588 139.294L84.5161 139.691ZM87.0123 132.149L87.4202 136.811L88.8308 136.688C89.1655 136.659 89.4077 136.581 89.5573 136.456C89.7056 136.314 89.7622 136.044 89.7274 135.646L89.4868 132.896C89.4534 132.514 89.3434 132.266 89.1569 132.154C88.9864 132.041 88.7258 131.999 88.3751 132.03L87.0123 132.149ZM86.412 125.287L86.7989 129.71L88.2335 129.585C88.5522 129.557 88.7778 129.473 88.9101 129.333C89.0424 129.193 89.0918 128.932 89.0583 128.549L88.8387 126.039C88.8052 125.656 88.7032 125.408 88.5327 125.295C88.3621 125.181 88.1095 125.139 87.7748 125.168L86.412 125.287Z" fill="black"/>
<circle cx="162.961" cy="70.5914" r="59.5" transform="rotate(-5 162.961 70.5914)" fill="white" stroke="black"/>
<path d="M143.532 32.8933L143.93 37.4359L148.281 37.0552L148.515 39.733L141.032 40.3877L139.568 23.6517L147.051 22.9969L147.285 25.6747L142.934 26.0554L143.298 30.2155L147.243 29.8704L147.477 32.5482L143.532 32.8933ZM155.283 22.2768L159.592 38.7639L156.46 39.0379L155.665 35.9997L152.437 36.2821L152.205 39.4103L149.049 39.6864L150.43 22.7014L155.283 22.2768ZM152.999 25.0785L152.475 33.4119L155.105 33.1818L153.142 25.066L152.999 25.0785ZM160.387 38.6944L158.922 21.9584L163.68 21.5421C165.306 21.3999 166.403 21.5448 166.971 21.977C167.554 22.4077 167.91 23.3563 168.039 24.8227L168.244 27.1658C168.333 28.1859 168.244 28.9084 167.976 29.3334C167.722 29.741 167.279 30.0046 166.647 30.1241C167.343 30.1757 167.844 30.4049 168.153 30.8115C168.462 31.2182 168.661 31.9395 168.752 32.9756L169.185 37.9247L166.029 38.2008L165.56 32.8452C165.491 32.0483 165.145 31.677 164.523 31.7314L162.945 31.8694L163.519 38.4204L160.387 38.6944ZM162.282 24.2904L162.724 29.3351L164.35 29.1929C164.668 29.165 164.887 29.0976 165.006 28.9909C165.14 28.8667 165.19 28.6134 165.157 28.2309L164.866 24.9075C164.834 24.5409 164.742 24.3161 164.59 24.233C164.438 24.1499 164.195 24.123 163.86 24.1523L162.282 24.2904ZM168.847 21.0901L172.002 20.814L175.703 29.7896L175.727 29.7875L174.919 20.5588L177.86 20.3015L179.324 37.0376L176.049 37.3242L172.627 28.7819L172.603 28.7839L173.371 37.5584L170.311 37.8262L168.847 21.0901Z" fill="black"/>
<line x1="147.053" y1="49.3972" x2="176.939" y2="46.7825" stroke="black"/>
<path d="M127.104 79.4503L125.457 60.6222L117.179 61.3465C115.259 63.502 113.2 64.4049 111.138 64.5853L111.745 71.5188C113.807 71.3384 116.209 70.9174 117.872 69.2662L118.826 80.1746L111.952 80.7759L112.501 87.052L132.973 85.2609L132.424 78.9849L127.104 79.4503ZM146.997 84.6965C155.126 83.9854 159.353 78.9478 158.602 70.3705C157.852 61.7933 152.814 57.5663 144.685 58.2775C136.556 58.9886 132.329 64.0262 133.08 72.6035C133.83 81.1807 138.868 85.4077 146.997 84.6965ZM146.387 77.7331C143.339 77.9998 141.594 75.9541 141.239 71.8897C140.883 67.8252 142.246 65.5076 145.295 65.2409C148.343 64.9742 150.088 67.0199 150.443 71.0843C150.799 75.1488 149.436 77.4664 146.387 77.7331ZM175.786 75.1913L174.138 56.3632L165.86 57.0874C163.941 59.2429 161.881 60.1458 159.819 60.3262L160.426 67.2598C162.488 67.0793 164.89 66.6584 166.553 65.0072L167.507 75.9155L160.634 76.5169L161.183 82.7929L181.654 81.0019L181.105 74.7258L175.786 75.1913ZM193.99 80.7959L208.031 54.723L204.361 52.6952L190.32 78.7681L193.99 80.7959ZM189.957 68.0791C194.738 67.6607 196.501 64.4047 196.185 60.7885C195.871 57.2022 193.57 54.3018 188.788 54.7201C184.006 55.1385 182.243 58.3945 182.557 61.9808C182.873 65.597 185.175 68.4974 189.957 68.0791ZM189.512 62.9985C188.347 63.1005 187.825 62.3029 187.757 61.5259C187.687 60.7189 188.067 59.9027 189.232 59.8007C190.398 59.6987 190.914 60.4366 190.985 61.2435C191.053 62.0205 190.678 62.8965 189.512 62.9985ZM209.546 78.923C214.328 78.5047 216.091 75.2486 215.775 71.6324C215.461 68.0461 213.159 65.1457 208.378 65.564C203.596 65.9824 201.833 69.2384 202.147 72.8247C202.463 76.4409 204.765 79.3414 209.546 78.923ZM209.102 73.8424C207.936 73.9444 207.415 73.1468 207.347 72.3698C207.276 71.5629 207.657 70.7466 208.822 70.6446C209.988 70.5427 210.504 71.2805 210.575 72.0874C210.643 72.8644 210.267 73.7404 209.102 73.8424Z" fill="black"/>
<path d="M153.208 113.605L158.906 113.107L151.285 96.9092L143.555 97.5855L138.863 114.86L144.561 114.362L145.105 112.086L152.277 111.458L153.208 113.605ZM146.102 107.883L147.395 102.469L148.351 102.386L150.565 107.492L146.102 107.883ZM159.703 113.037L165.222 112.554L164.901 108.888L168.906 108.538C173.449 108.14 175.981 105.871 175.587 101.368C175.193 96.8654 172.305 95.0702 167.743 95.4694L158.239 96.3008L159.703 113.037ZM164.501 104.306L164.159 100.4L167.685 100.092C169 99.9769 169.915 100.559 170.028 101.854C170.141 103.15 169.342 103.882 168.007 103.999L164.501 104.306ZM195.075 109.942L191.605 104.705C192.933 103.585 193.809 101.902 193.613 99.6506C193.227 95.2474 190.443 93.4834 185.801 93.8895L176.217 94.7279L177.682 111.464L183.2 110.981L182.822 106.658L187.006 106.292L189.656 110.416L195.075 109.942ZM182.137 98.8276L185.823 98.5051C187.218 98.3831 187.994 98.9978 188.097 100.173C188.2 101.349 187.542 102.089 186.147 102.211L182.461 102.533L182.137 98.8276Z" fill="black"/>
</svg>
