<svg width="229" height="153" viewBox="0 0 229 153" fill="none" xmlns="http://www.w3.org/2000/svg">
<rect x="0.810962" y="19.4219" width="129" height="129" transform="rotate(-5 0.810962 19.4219)" fill="#007EFC" stroke="black"/>
<rect x="10.1366" y="126.015" width="129" height="22" transform="rotate(-5 10.1366 126.015)" fill="#FDCB02" stroke="black"/>
<rect x="0.810962" y="19.4219" width="9" height="129" transform="rotate(-5 0.810962 19.4219)" fill="#123CB1" stroke="black"/>
<path fill-rule="evenodd" clip-rule="evenodd" d="M39.8224 40.655C37.9153 33.9536 42.608 27.203 49.4241 26.6067C55.4538 26.0792 60.8706 30.6244 61.3981 36.6541L62.5908 50.2863C64.1637 50.1487 65.7137 49.7489 67.2867 49.6113C68.8596 49.4737 70.1704 49.359 71.7663 49.4836L70.5737 35.8513C70.0461 29.8217 74.5914 24.4049 80.621 23.8773C87.4372 23.281 93.2308 29.1141 92.7785 36.022L91.2938 52.266C101.908 55.8282 110.461 63.0048 111.309 72.7047L111.837 78.7344C112.548 86.8613 107.901 94.1362 100.688 99.258C93.4987 104.642 83.766 108.135 72.4931 109.121C61.2203 110.108 51.0289 108.358 43.0135 104.304C35.2831 100.489 29.4436 94.132 28.7326 86.0051L28.2051 79.9754C27.3564 70.2755 34.271 61.7456 44.1052 56.3944L39.8224 40.655ZM87.5449 54.7073L89.3016 35.5337C89.6753 30.746 85.8773 26.5875 80.8963 27.0232C76.7017 27.3902 73.5918 31.0964 73.9588 35.291L75.4726 52.5935C74.401 52.4231 73.0902 52.5377 72.0416 52.6295C70.4686 52.7671 69.1349 52.6196 67.5619 52.7572C65.989 52.8948 64.416 53.0325 62.866 53.4322C61.8174 53.524 60.5295 53.9008 59.4809 53.9926L57.99 36.9522C57.6231 32.7577 53.9168 29.6478 49.7223 30.0148C45.0034 30.4276 41.7231 35.2054 43.1846 39.8325L48.244 58.4098C37.6003 63.5677 30.9021 71.5503 31.6361 79.9394L32.1636 85.9691C33.2874 98.8148 51.2452 107.81 72.2179 105.975C93.1906 104.141 109.314 92.1634 108.19 79.3176L107.662 73.288C107.167 64.6138 99.1847 57.9156 87.5449 54.7073Z" fill="#633001"/>
<path d="M108.429 79.0325C109.553 91.8783 93.4298 103.856 72.4571 105.69C51.4844 107.525 33.5266 98.5297 32.4028 85.6839L31.8752 79.6543L108.163 72.9799L108.691 79.0096L108.429 79.0325Z" fill="#FEDC90"/>
<path fill-rule="evenodd" clip-rule="evenodd" d="M43.1846 39.8327C41.7231 35.2056 45.0034 30.4278 49.7223 30.0149C53.9168 29.6479 57.6231 32.7578 57.99 36.9524L59.5038 54.2549C62.1025 53.7634 64.7011 53.2718 67.5849 53.0195C70.2064 52.7902 72.851 52.823 75.4955 52.8558L73.9817 35.5533C73.6147 31.3588 76.7246 27.6525 80.9192 27.2855C85.638 26.8727 89.6982 31.0083 89.3246 35.796L87.5679 54.9696C98.9455 58.2008 107.19 64.8761 107.924 73.2652C109.048 86.111 92.9253 98.0882 71.9525 99.923C50.9798 101.758 33.0221 92.7624 31.8982 79.9166C31.1643 71.5275 37.8625 63.5449 48.5062 58.387L43.1846 39.8327Z" fill="#D1884F"/>
<path d="M59.0022 75.696C59.3003 79.1041 57.7175 82.1484 55.3581 82.3548C52.9987 82.5612 50.9113 79.838 50.6131 76.43C50.3149 73.0219 51.8977 69.9776 54.2572 69.7712C56.6166 69.5647 58.704 72.2879 59.0022 75.696Z" fill="#633001"/>
<path d="M88.1019 73.1501C88.4001 76.5582 86.8172 79.6025 84.4578 79.8089C82.0984 80.0153 80.011 77.2921 79.7128 73.8841C79.4146 70.476 80.9975 67.4317 83.3569 67.2253C85.7163 67.0189 87.8037 69.7421 88.1019 73.1501Z" fill="#633001"/>
<path d="M61.5596 124.13L62.1095 124.082C63.799 123.934 64.945 124.091 65.5475 124.552C66.1486 124.997 66.5168 125.993 66.6521 127.539L66.9198 130.599L63.7878 130.873L63.5033 127.622C63.4657 127.191 63.3536 126.92 63.1671 126.808C62.9966 126.694 62.72 126.654 62.3375 126.688L61.7876 126.736C61.421 126.768 61.1556 126.855 60.9914 126.998C60.8272 127.141 60.764 127.428 60.8016 127.858L61.6467 137.517C61.6843 137.947 61.7964 138.219 61.9829 138.331C62.1694 138.443 62.4459 138.483 62.8125 138.451L63.3624 138.403C63.745 138.37 64.0104 138.282 64.1586 138.141C64.3228 137.998 64.386 137.711 64.3484 137.281L64.0221 133.551L67.1541 133.277L67.4637 136.815C67.5989 138.362 67.41 139.414 66.8967 139.973C66.3821 140.516 65.28 140.861 63.5904 141.009L63.0405 141.057C61.3669 141.204 60.2216 141.055 59.6046 140.611C59.0021 140.15 58.6332 139.146 58.4979 137.6L57.6863 128.323C57.5511 126.777 57.7408 125.733 58.2554 125.19C58.7846 124.63 59.886 124.276 61.5596 124.13ZM74.5952 123.086L78.9045 139.573L75.7725 139.847L74.9767 136.809L71.749 137.091L71.5168 140.219L68.3608 140.495L69.7417 123.51L74.5952 123.086ZM72.3107 125.887L71.787 134.221L74.4169 133.991L72.4541 125.875L72.3107 125.887ZM82.3055 132.674L82.8786 139.225L79.7466 139.499L78.2824 122.763L81.4144 122.489L82.0168 129.375L83.021 129.287L84.2117 122.244L87.5828 121.949L85.9324 130.622L89.2144 138.671L85.7476 138.974L83.4292 132.576L82.3055 132.674ZM92.5669 131.102L92.9643 135.645L97.3157 135.264L97.5499 137.942L90.0665 138.596L88.6023 121.86L96.0857 121.206L96.32 123.883L91.9686 124.264L92.3326 128.424L96.2775 128.079L96.5118 130.757L92.5669 131.102Z" fill="black"/>
<circle cx="162.961" cy="69.982" r="59.5" transform="rotate(-5 162.961 69.982)" fill="white" stroke="black"/>
<path d="M143.678 28.0432L146.499 27.7964L146.361 26.2184L151.717 25.7499L151.836 27.1127L154.681 26.8638L154.562 25.501L159.607 25.0596L159.383 22.5014L154.338 22.9427L154.194 21.293L151.349 21.542L151.493 23.1917L146.137 23.6602L145.993 22.0105L143.172 22.2573L143.316 23.907L138.2 24.3547L138.424 26.9129L143.54 26.4653L143.678 28.0432ZM144.425 28.0501C144.081 28.5139 143.688 28.9819 143.247 29.4541C142.576 28.9347 141.836 28.4694 140.932 28.0426L139.218 29.6621C140.099 30.091 140.816 30.5823 141.438 31.082C140.445 31.8435 139.4 32.5613 138.316 33.1139C138.907 33.544 139.746 34.3138 140.178 34.8542C141.141 34.2881 142.121 33.6483 143.046 32.9409C143.299 33.3524 143.526 33.7422 143.685 34.186C142.724 35.8602 140.625 37.7543 138.803 38.6846C139.423 39.1604 140.193 39.9844 140.633 40.5964C141.857 39.7184 143.26 38.4151 144.373 37.0891L144.394 37.3282C144.584 39.5039 144.499 41.005 144.051 41.6706C143.881 41.9264 143.724 42.0606 143.367 42.1159C142.895 42.2294 142.011 42.3068 140.833 42.3376C141.372 42.9891 141.716 43.8985 141.811 44.7093C142.963 44.6567 143.894 44.5513 144.785 44.2805C145.349 44.1108 145.804 43.8059 146.127 43.3681C147.1 42.1025 147.245 39.8975 147.015 37.2675C146.829 35.1397 146.405 33.0566 145.038 31.2007C145.703 30.5402 146.318 29.86 146.834 29.1404L144.425 28.0501ZM160.254 33.2905L160.024 30.6605L157.633 30.8697L159.248 29.4997C158.647 28.685 157.349 27.6181 156.228 26.9212L154.432 28.4274C155.41 29.1369 156.532 30.1228 157.155 30.9115L154.43 31.15L154.421 31.0543L154.099 27.3724L151.445 27.6046L151.765 31.2626L151.776 31.3822L146.851 31.8131L147.081 34.443L151.791 34.0309C151.571 36.7485 150.493 39.8542 146.953 42.6213C147.686 43.0149 148.688 43.7223 149.218 44.2782C151.902 42.1883 153.281 39.7789 153.941 37.4084C155.334 40.1053 157.198 42.1345 159.797 43.2081C160.115 42.4334 160.836 41.3103 161.387 40.732C158.262 39.7045 156.178 37.0922 154.899 33.759L160.254 33.2905ZM179.565 22.9762L173.349 23.52L173.244 22.3246L179.46 21.7808L179.565 22.9762ZM179.837 26.0843L173.621 26.6282L173.512 25.3849L179.728 24.8411L179.837 26.0843ZM182.156 19.5453L170.321 20.5807L171.045 28.8531L182.88 27.8177L182.156 19.5453ZM166.15 20.2711C165.286 21.9608 163.352 24.0815 161.587 25.3923C162.07 25.9523 162.866 27.0632 163.209 27.6836C165.329 26.0286 167.563 23.4722 168.948 21.1345L166.15 20.2711ZM167.228 25.4288C166.046 27.8932 163.906 30.4173 161.908 32.0858C162.399 32.7415 163.258 34.3045 163.528 34.9073C164.197 34.2947 164.856 33.5625 165.51 32.7825L166.378 42.7046L169.128 42.464L167.992 29.4816C168.693 28.4084 169.322 27.3415 169.808 26.2871L167.228 25.4288ZM184.561 32.4408L181.309 32.7253L181.19 31.3625L183.963 31.1198L183.761 28.8007L169.917 30.0118L170.12 32.3309L178.297 31.6156L178.416 32.9784L169.666 33.7439L169.877 36.1587L173.224 35.8659L171.557 37.1922C172.65 38.1085 173.992 39.4124 174.598 40.2749L176.594 38.5825C175.923 37.798 174.643 36.6573 173.607 35.8324L178.628 35.3931L178.918 38.7164C178.941 38.9794 178.854 39.0834 178.521 39.1366C178.211 39.1638 177.087 39.2621 176.079 39.3022C176.5 39.9881 176.998 41.0045 177.185 41.7591C178.811 41.6169 180.006 41.5123 180.855 41.0284C181.752 40.5404 181.933 39.8501 181.818 38.5351L181.521 35.14L184.796 34.8535L184.561 32.4408Z" fill="black"/>
<line x1="147.053" y1="48.7878" x2="176.939" y2="46.1731" stroke="black"/>
<path d="M120.799 86.379C128.39 85.7149 132.777 82.5004 132.359 77.7186C132.076 74.491 130.016 72.6235 127.44 72.0959L127.403 71.6775C129.292 70.5486 130.772 68.8833 130.524 66.0441C130.15 61.7704 126.169 59.288 118.727 59.939C111.405 60.5796 107.646 63.7393 108.26 70.0698L115.612 69.4266C115.442 67.4841 116.876 66.6659 119.237 66.4594C121.419 66.2685 123.055 66.7277 123.178 68.1323C123.238 68.8197 122.98 70.3479 119.125 70.6852L117.75 70.8055L118.158 75.4677L119.533 75.3474C123.448 75.0049 124.021 76.7316 124.081 77.4189C124.199 78.7638 122.74 79.6443 120.05 79.8796C117.689 80.0862 116.12 79.7115 115.823 77.6897L108.411 78.3381C108.911 84.7389 112.939 87.0667 120.799 86.379ZM147.137 84.0748C155.266 83.3636 159.493 78.3261 158.742 69.7488C157.992 61.1716 152.954 56.9445 144.825 57.6557C136.696 58.3669 132.469 63.4045 133.22 71.9817C133.97 80.559 139.008 84.786 147.137 84.0748ZM146.528 77.1114C143.479 77.3781 141.734 75.3324 141.379 71.2679C141.023 67.2035 142.386 64.8858 145.435 64.6191C148.483 64.3524 150.228 66.3981 150.583 70.4626C150.939 74.5271 149.576 76.8447 146.528 77.1114ZM172.843 81.8258C180.434 81.1617 184.82 77.9472 184.402 73.1654C184.12 69.9378 182.059 68.0703 179.483 67.5427L179.447 67.1243C181.335 65.9954 182.816 64.3301 182.567 61.4909C182.194 57.2172 178.212 54.7348 170.77 55.3858C163.448 56.0264 159.69 59.1861 160.304 65.5166L167.656 64.8734C167.486 62.9308 168.92 62.1127 171.281 61.9062C173.462 61.7153 175.099 62.1744 175.222 63.5791C175.282 64.2665 175.024 65.7947 171.169 66.132L169.794 66.2523L170.202 70.9145L171.576 70.7942C175.492 70.4517 176.064 72.1784 176.124 72.8657C176.242 74.2106 174.783 75.0911 172.093 75.3264C169.732 75.533 168.164 75.1583 167.867 73.1365L160.455 73.7849C160.955 80.1857 164.983 82.5135 172.843 81.8258ZM196.897 79.9321L210.938 53.8592L207.268 51.8314L193.227 77.9044L196.897 79.9321ZM192.864 67.2153C197.645 66.797 199.408 63.5409 199.092 59.9247C198.778 56.3384 196.477 53.438 191.695 53.8563C186.913 54.2747 185.15 57.5307 185.464 61.117C185.78 64.7332 188.082 67.6337 192.864 67.2153ZM192.419 62.1347C191.253 62.2367 190.732 61.4391 190.664 60.6621C190.593 59.8552 190.974 59.0389 192.139 58.9369C193.305 58.835 193.821 59.5728 193.892 60.3797C193.96 61.1567 193.585 62.0328 192.419 62.1347ZM212.453 78.0592C217.235 77.6409 218.998 74.3848 218.681 70.7687C218.368 67.1824 216.066 64.2819 211.284 64.7003C206.503 65.1186 204.74 68.3746 205.054 71.9609C205.37 75.5771 207.671 78.4776 212.453 78.0592ZM212.009 72.9786C210.843 73.0806 210.322 72.283 210.254 71.506C210.183 70.6991 210.563 69.8828 211.729 69.7809C212.894 69.6789 213.411 70.4167 213.481 71.2236C213.549 72.0006 213.174 72.8767 212.009 72.9786Z" fill="black"/>
<path d="M153.208 112.996L158.906 112.497L151.285 96.2998L143.555 96.9761L138.863 114.251L144.561 113.752L145.105 111.476L152.277 110.849L153.208 112.996ZM146.102 107.273L147.395 101.86L148.352 101.776L150.565 106.883L146.102 107.273ZM159.703 112.427L165.222 111.945L164.902 108.279L168.906 107.928C173.449 107.531 175.981 105.262 175.587 100.759C175.193 96.2559 172.305 94.4607 167.743 94.8599L158.239 95.6914L159.703 112.427ZM164.501 103.696L164.159 99.791L167.686 99.4825C169.001 99.3675 169.915 99.95 170.028 101.245C170.141 102.54 169.342 103.273 168.007 103.389L164.501 103.696ZM195.075 109.333L191.606 104.095C192.933 102.975 193.81 101.293 193.613 99.0411C193.227 94.638 190.443 92.8739 185.801 93.2801L176.217 94.1185L177.682 110.855L183.201 110.372L182.822 106.048L187.006 105.682L189.656 109.807L195.075 109.333ZM182.137 98.2181L185.823 97.8957C187.218 97.7737 187.994 98.3883 188.097 99.5638C188.2 100.739 187.542 101.479 186.147 101.602L182.461 101.924L182.137 98.2181Z" fill="black"/>
</svg>
