<svg width="274" height="228" viewBox="0 0 274 228" fill="none" xmlns="http://www.w3.org/2000/svg">
<g filter="url(#filter0_d)">
<rect x="0.810962" y="23.2011" width="154.548" height="154.548" transform="rotate(-5 0.810962 23.2011)" fill="#007EFC" stroke="black"/>
<rect x="11.9694" y="150.742" width="154.548" height="26.5201" transform="rotate(-5 11.9694 150.742)" fill="#FDCB02" stroke="black"/>
<rect x="0.810962" y="23.2011" width="10.9653" height="154.548" transform="rotate(-5 0.810962 23.2011)" fill="#123CB1" stroke="black"/>
</g>
<path d="M111.218 78.8687C111.96 78.4978 113.072 79.2396 113.072 79.9813L114.556 85.5443C114.927 86.286 114.185 87.3986 113.443 87.3986C112.702 87.7694 111.589 87.0277 111.589 86.286L110.106 80.723C109.735 79.9813 110.106 78.8687 111.218 78.8687ZM68.5688 37.332C68.1979 36.5902 68.1979 35.4776 68.9397 35.1068L73.7609 31.769C74.5026 31.3981 75.6152 31.3981 75.9861 32.1399C76.3569 33.2525 76.3569 33.9942 75.6152 34.7359L70.794 38.0737C70.0523 38.0737 68.9397 38.0737 68.5688 37.332Z" fill="white"/>
<path fill-rule="evenodd" clip-rule="evenodd" d="M93.4166 56.9877C87.8537 55.8751 81.9199 56.6168 76.7278 59.9546C84.1451 57.3586 92.6749 59.2129 98.6087 65.1467C106.768 73.6766 106.768 87.3985 98.6087 95.5575C97.4962 96.6701 96.3836 97.4118 95.271 98.1536C98.2379 97.041 101.205 95.5575 103.43 92.9615C109.364 87.0277 110.847 78.4978 108.622 71.0805C102.317 68.8553 96.7544 63.6632 93.4166 56.9877Z" fill="#FFAE54"/>
<path d="M128.649 105.2C115.298 130.048 84.1452 139.32 59.6682 125.598C34.8203 112.247 25.9196 80.7232 39.2707 55.8753C48.1714 39.5573 64.4894 29.9148 81.92 29.1731C84.1452 29.1731 85.9995 30.2857 87.1121 32.5109C88.2247 34.7361 88.9664 37.703 88.5955 40.6699C88.5955 41.7825 88.5955 42.8951 88.5955 44.0077C88.5955 49.1997 90.079 54.3918 92.3042 58.8422C81.5491 54.7627 69.3106 59.2131 63.7477 69.5973C57.443 81.094 61.8934 95.1869 73.0193 101.492C84.1452 107.796 98.6089 103.346 104.543 92.2199C107.88 85.9153 108.251 78.498 105.655 72.1933C110.106 74.4185 114.927 75.5311 120.119 75.5311C123.086 75.5311 125.682 75.1602 128.649 74.4185C130.132 74.0476 131.987 74.0476 133.099 74.7893C134.212 75.5311 134.954 76.2728 134.954 77.3854C135.324 86.657 133.099 96.2994 128.649 105.2Z" fill="url(#paint0_radial)" stroke="#AC562A" stroke-width="1.0716"/>
<path d="M115.298 95.1868L117.152 94.4451C118.635 98.1538 116.781 101.492 115.669 104.088C115.669 104.088 115.669 104.088 115.669 104.458C114.927 105.942 114.185 107.054 114.185 108.167C113.814 110.021 113.814 111.876 114.185 112.988C114.556 114.101 115.669 115.213 117.152 115.584C118.265 115.955 120.119 115.584 122.344 114.101C131.245 103.717 135.324 90.3656 134.583 77.7563C134.583 76.6437 133.841 75.5311 132.728 74.7893C131.616 74.0476 129.761 74.0476 128.278 74.4185C125.682 75.1602 122.715 75.5311 120.119 75.5311C114.927 75.5311 110.106 74.4185 105.655 71.8224C108.251 78.1271 107.88 85.1735 104.913 91.4782C104.543 92.5908 103.801 93.3325 103.059 94.4451C104.543 94.0743 106.026 93.3325 108.251 91.8491C110.847 89.9948 114.185 91.8491 115.298 95.1868ZM115.298 95.1868C116.41 98.1538 114.927 100.75 113.814 103.346C113.072 104.829 112.331 106.313 111.96 107.796L115.298 95.1868ZM79.6947 57.3587C74.5027 58.8422 70.4232 58.1005 67.4562 56.617C64.4893 54.7627 61.8933 52.1667 60.7807 49.1997C59.2972 45.862 58.9264 42.5242 59.6681 39.5573C60.4098 36.5904 61.8933 34.3652 64.1185 33.2526C70.4232 30.6566 77.0987 29.1731 83.4034 29.1731C85.2577 29.1731 86.7412 30.2857 87.8537 32.14C88.9663 33.9943 89.3372 36.5904 88.9663 38.8156C88.5955 40.299 88.5955 42.1533 88.5955 44.0077C88.5955 49.1997 90.0789 54.3918 92.3041 58.8422C88.2246 56.9879 83.7742 56.617 79.6947 57.3587Z" fill="#AC562A" stroke="#AC562A" stroke-width="1.0716"/>
<path d="M45.2044 71.4515C46.6382 71.4515 47.8005 70.2892 47.8005 68.8554C47.8005 67.4216 46.6382 66.2594 45.2044 66.2594C43.7707 66.2594 42.6084 67.4216 42.6084 68.8554C42.6084 70.2892 43.7707 71.4515 45.2044 71.4515Z" fill="#AC562A"/>
<path d="M83.7743 117.809C85.208 117.809 86.3703 116.647 86.3703 115.213C86.3703 113.78 85.208 112.617 83.7743 112.617C82.3405 112.617 81.1782 113.78 81.1782 115.213C81.1782 116.647 82.3405 117.809 83.7743 117.809Z" fill="#AC562A"/>
<path d="M67.4562 121.889C69.9141 121.889 71.9066 119.896 71.9066 117.439C71.9066 114.981 69.9141 112.988 67.4562 112.988C64.9984 112.988 63.0059 114.981 63.0059 117.439C63.0059 119.896 64.9984 121.889 67.4562 121.889Z" fill="#AC562A"/>
<path d="M72.8735 166.678L71.4093 149.942L75.9041 149.548C77.5618 149.403 78.6832 149.554 79.2683 150.001C79.868 150.43 80.2341 151.402 80.3666 152.916L80.5067 154.518C80.5946 155.522 80.5212 156.243 80.2865 156.682C80.0663 157.102 79.6336 157.389 78.9885 157.542C79.6809 157.562 80.172 157.76 80.4619 158.136C80.7677 158.511 80.9652 159.208 81.0545 160.228L81.226 162.189C81.2888 162.906 81.2918 163.492 81.2353 163.946C81.1932 164.384 81.105 164.753 80.9707 165.054C80.851 165.337 80.6134 165.559 80.258 165.718C79.9025 165.878 79.5277 165.999 79.1334 166.082C78.7377 166.149 78.1653 166.215 77.4161 166.28L72.8735 166.678ZM75.3696 159.135L75.7775 163.798L77.1881 163.674C77.5228 163.645 77.765 163.567 77.9146 163.442C78.0629 163.3 78.1196 163.031 78.0847 162.632L77.8442 159.883C77.8107 159.5 77.7007 159.253 77.5142 159.14C77.3437 159.027 77.0831 158.985 76.7324 159.016L75.3696 159.135ZM74.7693 152.274L75.1563 156.697L76.5908 156.571C76.9096 156.543 77.1351 156.459 77.2674 156.319C77.3997 156.179 77.4491 155.918 77.4156 155.535L77.196 153.025C77.1625 152.642 77.0605 152.394 76.89 152.281C76.7194 152.167 76.4668 152.125 76.1321 152.154L74.7693 152.274ZM88.4799 148.448L92.7892 164.935L89.6572 165.209L88.8613 162.171L85.6337 162.453L85.4014 165.582L82.2455 165.858L83.6264 148.873L88.4799 148.448ZM86.1954 151.25L85.6717 159.583L88.3016 159.353L86.3388 151.237L86.1954 151.25ZM96.1901 158.037L96.7633 164.588L93.6312 164.862L92.167 148.125L95.2991 147.851L95.9015 154.737L96.9056 154.649L98.0964 147.607L101.467 147.312L99.8171 155.985L103.099 164.033L99.6323 164.337L97.3138 157.938L96.1901 158.037ZM106.452 156.464L106.849 161.007L111.2 160.626L111.435 163.304L103.951 163.959L102.487 147.223L109.97 146.568L110.205 149.246L105.853 149.626L106.217 153.786L110.162 153.441L110.396 156.119L106.452 156.464Z" fill="black"/>
<circle cx="194.934" cy="83.7869" r="71.2916" transform="rotate(-5 194.934 83.7869)" fill="white" stroke="black"/>
<path d="M171.104 34.5441L173.925 34.2973L173.787 32.7193L179.142 32.2507L179.261 33.6135L182.107 33.3646L181.987 32.0018L187.032 31.5605L186.808 29.0022L181.764 29.4436L181.619 27.7939L178.774 28.0428L178.918 29.6925L173.563 30.1611L173.419 28.5114L170.597 28.7582L170.742 30.4079L165.625 30.8555L165.849 33.4137L170.965 32.9661L171.104 34.5441ZM171.851 34.551C171.506 35.0148 171.113 35.4828 170.673 35.955C170.001 35.4356 169.262 34.9702 168.357 34.5435L166.644 36.163C167.524 36.5918 168.242 37.0832 168.864 37.5829C167.87 38.3443 166.825 39.0622 165.741 39.6148C166.333 40.0448 167.171 40.8147 167.604 41.355C168.566 40.789 169.546 40.1492 170.472 39.4418C170.725 39.8533 170.952 40.243 171.111 40.6868C170.149 42.361 168.05 44.2552 166.228 45.1855C166.848 45.6613 167.619 46.4852 168.058 47.0973C169.282 46.2193 170.686 44.916 171.799 43.5899L171.819 43.829C172.01 46.0047 171.924 47.5059 171.477 48.1714C171.306 48.4272 171.149 48.5614 170.793 48.6167C170.321 48.7303 169.436 48.8077 168.259 48.8384C168.797 49.49 169.142 50.3994 169.237 51.2102C170.389 51.1576 171.319 51.0521 172.211 50.7814C172.774 50.6116 173.229 50.3068 173.552 49.869C174.526 48.6033 174.67 46.3983 174.44 43.7684C174.254 41.6405 173.831 39.5575 172.464 37.7015C173.129 37.0411 173.744 36.3609 174.259 35.6412L171.851 34.551ZM187.68 39.7913L187.45 37.1614L185.059 37.3705L186.674 36.0006C186.072 35.1859 184.774 34.119 183.653 33.422L181.858 34.9282C182.835 35.6377 183.958 36.6237 184.581 37.4124L181.855 37.6508L181.847 37.5552L181.525 33.8733L178.871 34.1055L179.191 37.7635L179.201 37.883L174.276 38.3139L174.506 40.9439L179.216 40.5318C178.996 43.2493 177.919 46.355 174.379 49.1221C175.112 49.5157 176.113 50.2231 176.644 50.779C179.328 48.6891 180.707 46.2798 181.367 43.9092C182.759 46.6061 184.623 48.6354 187.223 49.7089C187.54 48.9343 188.261 47.8112 188.813 47.2329C185.687 46.2054 183.604 43.5931 182.324 40.2599L187.68 39.7913ZM206.99 29.4771L200.774 30.0209L200.67 28.8255L206.886 28.2816L206.99 29.4771ZM207.262 32.5852L201.046 33.129L200.937 31.8858L207.154 31.3419L207.262 32.5852ZM209.581 26.0462L197.746 27.0816L198.47 35.354L210.305 34.3186L209.581 26.0462ZM193.576 26.7719C192.712 28.4617 190.777 30.5823 189.013 31.8931C189.495 32.4532 190.291 33.5641 190.634 34.1845C192.754 32.5294 194.988 29.973 196.374 27.6354L193.576 26.7719ZM194.653 31.9296C193.472 34.394 191.331 36.9181 189.333 38.5866C189.824 39.2424 190.684 40.8054 190.953 41.4082C191.622 40.7955 192.281 40.0633 192.936 39.2833L193.804 49.2054L196.553 48.9649L195.417 35.9825C196.119 34.9093 196.748 33.8424 197.234 32.788L194.653 31.9296ZM211.986 38.9416L208.735 39.2261L208.616 37.8633L211.389 37.6207L211.186 35.3015L197.343 36.5127L197.546 38.8318L205.723 38.1164L205.842 39.4792L197.091 40.2448L197.303 42.6596L200.65 42.3667L198.983 43.693C200.075 44.6094 201.418 45.9133 202.023 46.7758L204.019 45.0834C203.348 44.2989 202.068 43.1581 201.032 42.3333L206.053 41.894L206.344 45.2173C206.367 45.4803 206.28 45.5843 205.947 45.6375C205.636 45.6647 204.512 45.763 203.504 45.803C203.925 46.4889 204.424 47.5053 204.61 48.26C206.236 48.1177 207.432 48.0131 208.281 47.5293C209.178 47.0413 209.358 46.3509 209.243 45.0359L208.946 41.6409L212.222 41.3543L211.986 38.9416Z" fill="black"/>
<line x1="175.909" y1="58.5254" x2="211.668" y2="55.3969" stroke="black"/>
<path d="M145.647 101.614C154.503 100.839 159.62 97.0891 159.132 91.5104C158.803 87.7448 156.399 85.566 153.394 84.9506L153.351 84.4625C155.555 83.1454 157.282 81.2025 156.992 77.8901C156.556 72.9042 151.911 70.008 143.229 70.7676C134.687 71.5149 130.301 75.2012 131.018 82.5868L139.595 81.8364C139.396 79.5701 141.07 78.6156 143.824 78.3746C146.369 78.152 148.278 78.6876 148.422 80.3264C148.492 81.1283 148.191 82.9113 143.693 83.3048L142.089 83.4451L142.565 88.8843L144.169 88.744C148.737 88.3444 149.405 90.3588 149.475 91.1608C149.612 92.7298 147.91 93.757 144.772 94.0316C142.018 94.2726 140.188 93.8354 139.841 91.4767L131.194 92.2332C131.777 99.7008 136.477 102.417 145.647 101.614ZM176.373 98.926C185.857 98.0963 190.789 92.2191 189.913 82.2123C189.038 72.2055 183.161 67.274 173.677 68.1037C164.193 68.9334 159.262 74.8106 160.137 84.8174C161.013 94.8242 166.89 99.7557 176.373 98.926ZM175.663 90.802C172.106 91.1132 170.071 88.7265 169.656 83.9846C169.241 79.2427 170.831 76.5388 174.388 76.2277C177.944 75.9165 179.98 78.3032 180.395 83.0451C180.81 87.787 179.219 90.4909 175.663 90.802ZM206.364 96.3022C215.22 95.5273 220.338 91.777 219.85 86.1984C219.52 82.4327 217.116 80.254 214.111 79.6385L214.068 79.1504C216.272 77.8333 217.999 75.8904 217.709 72.5781C217.273 67.5921 212.628 64.6959 203.946 65.4555C195.404 66.2029 191.018 69.8891 191.735 77.2748L200.312 76.5243C200.114 74.258 201.787 73.3035 204.541 73.0626C207.087 72.8399 208.996 73.3755 209.139 75.0143C209.209 75.8162 208.908 77.5992 204.411 77.9927L202.807 78.133L203.283 83.5723L204.886 83.4319C209.454 83.0323 210.122 85.0468 210.192 85.8487C210.33 87.4177 208.628 88.445 205.49 88.7195C202.735 88.9605 200.905 88.5233 200.558 86.1646L191.911 86.9211C192.494 94.3887 197.194 97.1044 206.364 96.3022ZM234.427 94.0929L250.809 63.6744L246.526 61.3086L230.145 91.7271L234.427 94.0929ZM229.721 79.2566C235.3 78.7685 237.357 74.9698 236.988 70.7509C236.622 66.5669 233.937 63.183 228.358 63.6711C222.779 64.1592 220.722 67.9579 221.088 72.1419C221.458 76.3608 224.143 79.7446 229.721 79.2566ZM229.203 73.3292C227.843 73.4482 227.235 72.5176 227.155 71.6111C227.073 70.6697 227.517 69.7174 228.876 69.5984C230.236 69.4795 230.839 70.3403 230.921 71.2817C231 72.1882 230.563 73.2102 229.203 73.3292ZM252.576 91.9078C258.155 91.4197 260.211 87.621 259.842 83.4021C259.476 79.2181 256.791 75.8342 251.212 76.3223C245.634 76.8104 243.577 80.6091 243.943 84.7931C244.312 89.012 246.997 92.3959 252.576 91.9078ZM252.057 85.9804C250.698 86.0994 250.089 85.1689 250.01 84.2623C249.928 83.3209 250.371 82.3686 251.731 82.2497C253.091 82.1307 253.693 82.9915 253.775 83.9329C253.855 84.8394 253.417 85.8615 252.057 85.9804Z" fill="black"/>
<path d="M185.553 129.925L191.251 129.426L183.631 113.229L175.9 113.905L171.208 131.18L176.906 130.681L177.45 128.405L184.622 127.777L185.553 129.925ZM178.447 124.202L179.74 118.789L180.697 118.705L182.91 123.812L178.447 124.202ZM192.049 129.356L197.567 128.873L197.247 125.207L201.251 124.857C205.794 124.46 208.326 122.19 207.932 117.688C207.538 113.185 204.651 111.39 200.088 111.789L190.584 112.62L192.049 129.356ZM196.846 120.625L196.504 116.72L200.031 116.411C201.346 116.296 202.26 116.879 202.373 118.174C202.486 119.469 201.687 120.201 200.352 120.318L196.846 120.625ZM227.42 126.262L223.951 121.024C225.278 119.904 226.155 118.221 225.958 115.97C225.572 111.567 222.788 109.803 218.146 110.209L208.562 111.047L210.027 127.783L215.546 127.301L215.167 122.977L219.351 122.611L222.001 126.736L227.42 126.262ZM214.482 115.147L218.168 114.824C219.563 114.702 220.339 115.317 220.442 116.493C220.545 117.668 219.887 118.408 218.492 118.53L214.807 118.853L214.482 115.147Z" fill="black"/>
<defs>
<filter id="filter0_d" x="0.269287" y="9.18964" width="218.514" height="218.514" filterUnits="userSpaceOnUse" color-interpolation-filters="sRGB">
<feFlood flood-opacity="0" result="BackgroundImageFix"/>
<feColorMatrix in="SourceAlpha" type="matrix" values="0 0 0 0 0 0 0 0 0 0 0 0 0 0 0 0 0 0 127 0"/>
<feOffset dx="25" dy="25"/>
<feGaussianBlur stdDeviation="12.5"/>
<feColorMatrix type="matrix" values="0 0 0 0 0 0 0 0 0 0 0 0 0 0 0 0 0 0 0.25 0"/>
<feBlend mode="normal" in2="BackgroundImageFix" result="effect1_dropShadow"/>
<feBlend mode="normal" in="SourceGraphic" in2="effect1_dropShadow" result="shape"/>
</filter>
<radialGradient id="paint0_radial" cx="0" cy="0" r="1" gradientUnits="userSpaceOnUse" gradientTransform="translate(83.9086 80.6484) rotate(90) scale(53.3225 52.7852)">
<stop offset="0.3335" stop-color="#F7B450"/>
<stop offset="0.6477" stop-color="#FFC977"/>
<stop offset="1" stop-color="#FF9900"/>
</radialGradient>
</defs>
</svg>
