<svg width="229" height="153" viewBox="0 0 229 153" fill="none" xmlns="http://www.w3.org/2000/svg">
<rect x="0.810962" y="19.4218" width="129" height="129" transform="rotate(-5 0.810962 19.4218)" fill="#007EFC" stroke="black"/>
<rect x="10.1366" y="126.015" width="129" height="22" transform="rotate(-5 10.1366 126.015)" fill="#FDCB02" stroke="black"/>
<rect x="0.810962" y="19.4218" width="9" height="129" transform="rotate(-5 0.810962 19.4218)" fill="#123CB1" stroke="black"/>
<path fill-rule="evenodd" clip-rule="evenodd" d="M39.8225 40.6548C37.9154 33.9534 42.6081 27.2029 49.4242 26.6065C55.4539 26.079 60.8707 30.6242 61.3982 36.6539L62.5909 50.2862C64.1638 50.1485 65.7139 49.7488 67.2868 49.6112C68.8598 49.4735 70.1706 49.3589 71.7664 49.4834L70.5738 35.8511C70.0463 29.8215 74.5915 24.4047 80.6211 23.8772C87.4373 23.2808 93.2309 29.1139 92.7786 36.0218L91.294 52.2658C101.908 55.828 110.461 63.0047 111.31 72.7045L111.837 78.7342C112.548 86.8611 107.901 94.136 100.689 99.2578C93.4988 104.642 83.7661 108.135 72.4933 109.121C61.2204 110.107 51.029 108.357 43.0136 104.304C35.2832 100.489 29.4437 94.1318 28.7327 86.0049L28.2052 79.9752C27.3565 70.2754 34.2711 61.7454 44.1054 56.3942L39.8225 40.6548ZM87.5451 54.7071L89.3017 35.5335C89.6754 30.7458 85.8774 26.5873 80.8964 27.0231C76.7018 27.39 73.5919 31.0963 73.9589 35.2908L75.4727 52.5933C74.4011 52.4229 73.0903 52.5376 72.0417 52.6293C70.4687 52.7669 69.135 52.6194 67.562 52.7571C65.9891 52.8947 64.4161 53.0323 62.8661 53.4321C61.8175 53.5238 60.5296 53.9006 59.481 53.9924L57.9902 36.9521C57.6232 32.7575 53.9169 29.6476 49.7224 30.0146C45.0035 30.4274 41.7232 35.2052 43.1847 39.8324L48.2442 58.4096C37.6005 63.5675 30.9022 71.5501 31.6362 79.9392L32.1637 85.9689C33.2876 98.8147 51.2453 107.81 72.218 105.975C93.1908 104.14 109.314 92.1632 108.19 79.3175L107.662 73.2878C107.168 64.6136 99.1849 57.9154 87.5451 54.7071Z" fill="#633001"/>
<path d="M108.429 79.0323C109.553 91.8781 93.4301 103.855 72.4574 105.69C51.4846 107.525 33.5269 98.5295 32.403 85.6837L31.8755 79.6541L108.164 72.9797L108.691 79.0093L108.429 79.0323Z" fill="#FEDC90"/>
<path fill-rule="evenodd" clip-rule="evenodd" d="M43.1848 39.8326C41.7233 35.2054 45.0037 30.4276 49.7225 30.0148C53.9171 29.6478 57.6233 32.7577 57.9903 36.9523L59.504 54.2547C62.1027 53.7632 64.7013 53.2717 67.5851 53.0194C70.2067 52.79 72.8512 52.8228 75.4957 52.8556L73.982 35.5532C73.615 31.3586 76.7249 27.6524 80.9194 27.2854C85.6383 26.8726 89.6984 31.0082 89.3248 35.7958L87.5681 54.9694C98.9458 58.2007 107.191 64.876 107.925 73.2651C109.048 86.1108 92.9255 98.088 71.9528 99.9229C50.9801 101.758 33.0223 92.7623 31.8984 79.9165C31.1645 71.5274 37.8627 63.5447 48.5064 58.3869L43.1848 39.8326Z" fill="#D1884F"/>
<path d="M59.0023 75.6958C59.3005 79.1039 57.7176 82.1482 55.3582 82.3546C52.9988 82.561 50.9114 79.8378 50.6132 76.4298C50.315 73.0217 51.8979 69.9774 54.2573 69.771C56.6167 69.5645 58.7041 72.2877 59.0023 75.6958Z" fill="#633001"/>
<path d="M88.1019 73.1499C88.4001 76.558 86.8172 79.6023 84.4578 79.8087C82.0984 80.0151 80.011 77.2919 79.7128 73.8839C79.4146 70.4758 80.9975 67.4315 83.3569 67.2251C85.7163 67.0186 87.8037 69.7418 88.1019 73.1499Z" fill="#633001"/>
<path d="M61.5595 124.13L62.1094 124.082C63.7989 123.934 64.9449 124.09 65.5474 124.552C66.1485 124.997 66.5167 125.993 66.652 127.539L66.9197 130.599L63.7877 130.873L63.5032 127.622C63.4655 127.191 63.3535 126.92 63.167 126.808C62.9964 126.694 62.7199 126.654 62.3374 126.688L61.7875 126.736C61.4209 126.768 61.1555 126.855 60.9913 126.998C60.8271 127.141 60.7639 127.428 60.8015 127.858L61.6466 137.517C61.6842 137.947 61.7963 138.219 61.9828 138.331C62.1693 138.443 62.4458 138.483 62.8124 138.451L63.3623 138.403C63.7448 138.369 64.0102 138.282 64.1585 138.14C64.3226 137.998 64.3859 137.711 64.3483 137.281L64.0219 133.551L67.154 133.277L67.4636 136.815C67.5988 138.361 67.4098 139.414 66.8966 139.973C66.3819 140.516 65.2799 140.861 63.5903 141.009L63.0404 141.057C61.3668 141.203 60.2215 141.055 59.6044 140.611C59.002 140.15 58.6331 139.146 58.4978 137.6L57.6862 128.323C57.5509 126.777 57.7406 125.733 58.2553 125.19C58.7845 124.629 59.8859 124.276 61.5595 124.13ZM74.5951 123.086L78.9044 139.573L75.7724 139.847L74.9766 136.809L71.7489 137.091L71.5166 140.219L68.3607 140.495L69.7416 123.51L74.5951 123.086ZM72.3106 125.887L71.7869 134.221L74.4168 133.991L72.454 125.875L72.3106 125.887ZM82.3053 132.674L82.8785 139.225L79.7464 139.499L78.2822 122.763L81.4143 122.489L82.0167 129.375L83.0209 129.287L84.2116 122.244L87.5827 121.949L85.9323 130.622L89.2143 138.671L85.7475 138.974L83.4291 132.576L82.3053 132.674ZM92.5667 131.102L92.9642 135.644L97.3155 135.264L97.5498 137.941L90.0664 138.596L88.6022 121.86L96.0856 121.205L96.3199 123.883L91.9685 124.264L92.3325 128.424L96.2774 128.079L96.5117 130.757L92.5667 131.102Z" fill="black"/>
<circle cx="162.961" cy="69.9818" r="59.5" transform="rotate(-5 162.961 69.9818)" fill="white" stroke="black"/>
<path d="M143.532 32.2837L143.93 36.8263L148.281 36.4456L148.515 39.1234L141.032 39.7781L139.568 23.042L147.051 22.3873L147.285 25.0651L142.934 25.4458L143.298 29.6059L147.243 29.2608L147.477 31.9385L143.532 32.2837ZM155.283 21.6671L159.592 38.1543L156.46 38.4283L155.665 35.3901L152.437 35.6725L152.205 38.8006L149.049 39.0767L150.43 22.0918L155.283 21.6671ZM152.999 24.4689L152.475 32.8023L155.105 32.5722L153.142 24.4564L152.999 24.4689ZM160.387 38.0848L158.922 21.3487L163.68 20.9325C165.306 20.7902 166.403 20.9352 166.971 21.3674C167.554 21.7981 167.91 22.7467 168.039 24.2131L168.244 26.5561C168.333 27.5762 168.244 28.2988 167.976 28.7238C167.722 29.1314 167.279 29.395 166.647 29.5145C167.343 29.5661 167.844 29.7953 168.153 30.2019C168.462 30.6086 168.661 31.3299 168.752 32.3659L169.185 37.315L166.029 37.5912L165.56 32.2356C165.491 31.4387 165.145 31.0674 164.523 31.1218L162.945 31.2598L163.519 37.8108L160.387 38.0848ZM162.282 23.6808L162.724 28.7255L164.35 28.5833C164.668 28.5554 164.887 28.488 165.006 28.3812C165.14 28.2571 165.19 28.0038 165.157 27.6212L164.866 24.2979C164.834 23.9313 164.742 23.7065 164.59 23.6234C164.438 23.5403 164.195 23.5134 163.86 23.5427L162.282 23.6808ZM168.847 20.4805L172.002 20.2044L175.703 29.18L175.727 29.1779L174.919 19.9492L177.86 19.6919L179.324 36.428L176.049 36.7145L172.627 28.1722L172.603 28.1743L173.371 36.9488L170.311 37.2166L168.847 20.4805Z" fill="black"/>
<line x1="147.053" y1="48.7875" x2="176.939" y2="46.1729" stroke="black"/>
<path d="M120.799 86.3789C128.39 85.7148 132.777 82.5002 132.358 77.7185C132.076 74.4908 130.015 72.6233 127.44 72.0958L127.403 71.6774C129.292 70.5485 130.772 68.8831 130.524 66.0439C130.15 61.7703 126.169 59.2878 118.727 59.9389C111.405 60.5795 107.646 63.7391 108.26 70.0697L115.612 69.4265C115.442 67.4839 116.876 66.6658 119.237 66.4592C121.419 66.2684 123.055 66.7275 123.178 68.1321C123.238 68.8195 122.98 70.3478 119.125 70.6851L117.75 70.8054L118.158 75.4676L119.533 75.3473C123.448 75.0048 124.021 76.7314 124.081 77.4188C124.198 78.7637 122.74 79.6441 120.05 79.8795C117.689 80.086 116.12 79.7113 115.823 77.6895L108.411 78.338C108.911 84.7388 112.939 87.0666 120.799 86.3789ZM147.137 84.0747C155.266 83.3635 159.493 78.3259 158.742 69.7487C157.992 61.1714 152.954 56.9444 144.825 57.6556C136.696 58.3668 132.469 63.4044 133.22 71.9816C133.97 80.5588 139.008 84.7859 147.137 84.0747ZM146.527 77.1113C143.479 77.378 141.734 75.3323 141.379 71.2678C141.023 67.2033 142.386 64.8857 145.434 64.619C148.483 64.3523 150.228 66.398 150.583 70.4625C150.939 74.5269 149.576 76.8446 146.527 77.1113ZM172.843 81.8257C180.434 81.1616 184.82 77.947 184.402 73.1653C184.119 69.9376 182.059 68.0701 179.483 67.5426L179.446 67.1242C181.335 65.9953 182.816 64.3299 182.567 61.4907C182.193 57.2171 178.212 54.7346 170.77 55.3857C163.448 56.0263 159.689 59.1859 160.303 65.5165L167.655 64.8733C167.485 62.9307 168.92 62.1126 171.281 61.906C173.462 61.7152 175.098 62.1743 175.221 63.5789C175.282 64.2663 175.024 65.7946 171.168 66.1319L169.794 66.2522L170.202 70.9143L171.576 70.7941C175.491 70.4515 176.064 72.1782 176.124 72.8656C176.242 74.2104 174.783 75.0909 172.093 75.3263C169.732 75.5328 168.164 75.1581 167.866 73.1363L160.455 73.7848C160.954 80.1856 164.983 82.5133 172.843 81.8257ZM196.897 79.932L210.938 53.859L207.267 51.8312L193.226 77.9042L196.897 79.932ZM192.863 67.2152C197.645 66.7968 199.408 63.5408 199.092 59.9246C198.778 56.3383 196.476 53.4378 191.695 53.8562C186.913 54.2745 185.15 57.5306 185.464 61.1169C185.78 64.7331 188.082 67.6335 192.863 67.2152ZM192.419 62.1346C191.253 62.2365 190.732 61.439 190.664 60.6619C190.593 59.855 190.974 59.0388 192.139 58.9368C193.305 58.8348 193.821 59.5726 193.892 60.3795C193.96 61.1566 193.584 62.0326 192.419 62.1346ZM212.453 78.0591C217.235 77.6407 218.998 74.3847 218.681 70.7685C218.368 67.1822 216.066 64.2818 211.284 64.7001C206.503 65.1185 204.74 68.3745 205.053 71.9608C205.37 75.577 207.671 78.4774 212.453 78.0591ZM212.009 72.9785C210.843 73.0805 210.322 72.2829 210.254 71.5058C210.183 70.6989 210.563 69.8827 211.729 69.7807C212.894 69.6787 213.411 70.4165 213.481 71.2235C213.549 72.0005 213.174 72.8765 212.009 72.9785Z" fill="black"/>
<path d="M153.208 112.996L158.906 112.497L151.285 96.2996L143.555 96.9759L138.863 114.251L144.561 113.752L145.105 111.476L152.277 110.849L153.208 112.996ZM146.102 107.273L147.395 101.86L148.351 101.776L150.565 106.883L146.102 107.273ZM159.703 112.427L165.222 111.944L164.901 108.278L168.906 107.928C173.449 107.531 175.981 105.261 175.587 100.759C175.193 96.2557 172.305 94.4606 167.743 94.8597L158.239 95.6912L159.703 112.427ZM164.501 103.696L164.159 99.7909L167.685 99.4823C169 99.3673 169.915 99.9498 170.028 101.245C170.141 102.54 169.342 103.272 168.007 103.389L164.501 103.696ZM195.075 109.333L191.605 104.095C192.933 102.975 193.809 101.292 193.613 99.041C193.227 94.6378 190.443 92.8737 185.801 93.2799L176.217 94.1183L177.682 110.854L183.2 110.372L182.822 106.048L187.006 105.682L189.656 109.807L195.075 109.333ZM182.137 98.218L185.823 97.8955C187.218 97.7735 187.994 98.3881 188.097 99.5637C188.2 100.739 187.542 101.479 186.147 101.601L182.461 101.924L182.137 98.218Z" fill="black"/>
</svg>
