<svg width="147" height="25" viewBox="0 0 147 25" fill="none" xmlns="http://www.w3.org/2000/svg">
<path d="M16.124 14.122H11.768V10.018H16.124V14.122ZM10.49 8.812V15.31H17.438V8.812H10.49ZM7.898 18.136V6.022H20.048V18.136H7.898ZM6.548 4.69V20.368H7.898V19.396H20.048V20.368H21.47V4.69H6.548ZM29.228 17.83V14.842H32.612V13.618H29.228V11.476H27.932V13.618H24.494V14.842H27.932V17.992C26.348 18.19 24.908 18.37 23.774 18.496L23.99 19.828C26.366 19.486 29.876 19 33.224 18.514L33.188 17.308L29.228 17.83ZM29.642 7.804C30.11 8.362 30.614 9.01 31.064 9.658C29.624 9.73 28.202 9.784 26.924 9.838C27.428 8.776 27.95 7.444 28.4 6.31H33.152V5.122H23.972V6.31H26.906C26.564 7.426 26.06 8.83 25.574 9.892L23.936 9.964L24.044 11.242C26.096 11.116 28.994 10.972 31.82 10.774C32.072 11.188 32.27 11.566 32.432 11.89L33.476 11.26C32.972 10.162 31.712 8.488 30.632 7.246L29.642 7.804ZM35.204 6.094H33.926V15.994H35.204V6.094ZM38.156 4.438V18.568C38.156 18.91 38.048 19 37.724 19.018C37.382 19.018 36.248 19.036 35.078 18.982C35.258 19.378 35.456 20.008 35.528 20.368C36.986 20.368 38.048 20.35 38.642 20.134C39.236 19.9 39.452 19.486 39.452 18.568V4.438H38.156ZM49.37 13.924C49.37 15.85 48.614 17.956 41.972 19.306C42.26 19.576 42.638 20.098 42.782 20.386C49.73 18.874 50.72 16.39 50.72 13.942V10.702H49.37V13.924ZM50.81 17.002C52.898 17.938 55.562 19.432 56.876 20.44L57.704 19.378C56.336 18.388 53.618 16.984 51.566 16.084L50.81 17.002ZM42.386 4.924V6.184H49.1C48.884 6.886 48.56 7.696 48.272 8.326H44.15V16.678H45.482V9.568H54.644V16.642H56.048V8.326H49.622C49.946 7.696 50.306 6.922 50.63 6.184H57.776V4.924H42.386ZM73.724 18.19H71.024V9.91H73.724V18.19ZM62.222 9.91H64.778V18.19H62.222V9.91ZM69.8 11.89H66.002V9.91H69.8V11.89ZM66.002 16.102H69.8V18.19H66.002V16.102ZM69.8 15.004H66.002V12.988H69.8V15.004ZM75.938 6.418V5.14H60.116V6.418H67.01C66.866 7.156 66.686 7.984 66.488 8.668H60.926V20.386H62.222V19.432H73.724V20.386H75.074V8.668H67.856C68.09 7.984 68.342 7.174 68.558 6.418H75.938ZM85.568 7.75V16.192H86.828V8.992H92.228V16.156H93.524V7.75H89.42C89.636 7.21 89.87 6.544 90.086 5.932H94.226V4.744H84.848V5.932H88.646C88.52 6.526 88.322 7.192 88.142 7.75H85.568ZM84.488 6.49V5.23H77.864V6.49H80.78V18.046C80.78 18.316 80.672 18.406 80.366 18.424C80.096 18.442 79.124 18.442 78.044 18.406C78.242 18.766 78.476 19.36 78.548 19.738C79.952 19.738 80.834 19.702 81.356 19.468C81.896 19.252 82.094 18.856 82.094 18.028V6.49H84.488ZM90.194 10.108H88.88V13.69C88.88 15.544 88.574 17.92 84.182 19.342C84.434 19.594 84.83 20.098 84.992 20.368C89.474 18.694 90.194 15.958 90.194 13.708V10.108ZM89.672 17.344C90.968 18.244 92.606 19.558 93.38 20.404L94.28 19.414C93.47 18.568 91.814 17.308 90.554 16.462L89.672 17.344ZM111.56 4.834H110.3V7.894H107.582V3.97H106.304V7.894H103.82V4.834H102.596V9.082H111.56V4.834ZM101.642 7.534H99.464V4.168H98.258V7.534H95.99V8.74H101.642V7.534ZM98.15 15.22C98.132 13.654 97.826 11.296 97.412 9.442L96.404 9.604C96.764 11.44 97.052 13.834 97.052 15.4L98.15 15.22ZM100.058 15.796C100.454 14.122 100.904 11.548 101.21 9.568L99.968 9.298C99.806 11.278 99.374 14.122 98.996 15.796L99.482 15.922C98.042 16.246 96.692 16.534 95.648 16.714L95.972 18.046C97.682 17.614 99.95 17.074 102.092 16.534L101.948 15.382L100.058 15.796ZM112.19 11.62V10.432H101.804V11.62H106.178C106.088 12.178 105.962 12.79 105.836 13.294H102.38V20.35H103.568V14.446H105.17V20.17H106.214V14.446H107.888V20.134H108.932V14.446H110.606V19.108C110.606 19.27 110.57 19.306 110.408 19.306C110.264 19.324 109.796 19.324 109.292 19.306C109.454 19.612 109.634 20.062 109.688 20.386C110.48 20.386 110.966 20.368 111.362 20.17C111.722 20.008 111.812 19.684 111.812 19.126V13.294H107.132C107.312 12.79 107.492 12.196 107.672 11.62H112.19Z" fill="white"/>
<rect x="0.5" y="0.5" width="116" height="24" stroke="white"/>
<rect x="116.769" y="0.5" width="29" height="24" stroke="white"/>
<path d="M130.769 5L138.997 19.25H122.542L130.769 5Z" fill="white"/>
</svg>
