<svg width="229" height="153" viewBox="0 0 229 153" fill="none" xmlns="http://www.w3.org/2000/svg">
<rect x="0.810962" y="19.4545" width="129" height="129" transform="rotate(-5 0.810962 19.4545)" fill="#007EFC" stroke="black"/>
<rect x="10.1366" y="126.047" width="129" height="22" transform="rotate(-5 10.1366 126.047)" fill="#FDCB02" stroke="black"/>
<rect x="0.810962" y="19.4545" width="9" height="129" transform="rotate(-5 0.810962 19.4545)" fill="#123CB1" stroke="black"/>
<path d="M52.9028 62.0064L68.7525 43.1259L87.6482 58.9808L96.8643 47.9899L66.9839 22.9116L41.9117 52.7905L52.9028 62.0064Z" fill="#F3BA2F"/>
<path d="M35.4011 60.5508L26.1813 71.5383L37.169 80.7578L46.3889 69.7703L35.4011 60.5508Z" fill="#F3BA2F"/>
<path d="M54.1518 76.2805L73.0398 92.1289L88.8952 73.2338L99.8858 82.4425L99.8793 82.4502L74.8077 112.336L44.9285 87.272L44.9132 87.2591L54.1518 76.2805Z" fill="#F3BA2F"/>
<path d="M104.619 54.4977L95.3987 65.4851L106.386 74.7047L115.606 63.7172L104.619 54.4977Z" fill="#F3BA2F"/>
<path d="M81.1442 66.7236L69.9982 57.3647L63.0824 65.6064L62.2826 66.5518L60.6455 68.5027L60.6326 68.5181L60.6486 68.5381L71.7933 77.8828L81.1449 66.7306L81.1513 66.723L81.1442 66.7236Z" fill="#F3BA2F"/>
<path d="M64.0631 140.904L62.5989 124.168L67.0938 123.775C68.7514 123.63 69.8728 123.78 70.458 124.227C71.0577 124.656 71.4238 125.628 71.5563 127.142L71.6964 128.744C71.7843 129.748 71.7108 130.47 71.4761 130.908C71.256 131.329 70.8233 131.615 70.1782 131.768C70.8705 131.788 71.3617 131.986 71.6516 132.362C71.9574 132.737 72.1549 133.434 72.2442 134.454L72.4157 136.415C72.4784 137.132 72.4815 137.718 72.4249 138.173C72.3829 138.61 72.2947 138.979 72.1604 139.28C72.0407 139.563 71.8031 139.785 71.4476 139.945C71.0922 140.104 70.7173 140.225 70.323 140.308C69.9273 140.375 69.3549 140.441 68.6058 140.506L64.0631 140.904ZM66.5593 133.362L66.9672 138.024L68.3778 137.9C68.7125 137.871 68.9547 137.794 69.1043 137.668C69.2526 137.527 69.3092 137.257 69.2744 136.858L69.0338 134.109C69.0004 133.726 68.8904 133.479 68.7039 133.367C68.5334 133.253 68.2728 133.212 67.9221 133.242L66.5593 133.362ZM65.959 126.5L66.3459 130.923L67.7805 130.797C68.0992 130.77 68.3248 130.686 68.4571 130.545C68.5894 130.405 68.6388 130.144 68.6053 129.762L68.3857 127.251C68.3522 126.869 68.2502 126.621 68.0797 126.507C67.9091 126.393 67.6565 126.351 67.3218 126.381L65.959 126.5ZM72.6165 123.291L75.7724 123.015L79.4728 131.991L79.4967 131.989L78.6893 122.76L81.63 122.503L83.0943 139.239L79.8188 139.525L76.3972 130.983L76.3733 130.985L77.141 139.76L74.0807 140.027L72.6165 123.291ZM84.5163 139.114L83.0521 122.378L87.5469 121.985C89.2046 121.84 90.326 121.991 90.9111 122.438C91.5108 122.867 91.8769 123.839 92.0094 125.353L92.1495 126.955C92.2374 127.959 92.164 128.68 91.9293 129.118C91.7091 129.539 91.2764 129.826 90.6313 129.979C91.3237 129.998 91.8148 130.196 92.1047 130.573C92.4105 130.947 92.608 131.645 92.6973 132.665L92.8688 134.625C92.9316 135.343 92.9346 135.929 92.8781 136.383C92.836 136.821 92.7478 137.19 92.6136 137.491C92.4938 137.774 92.2562 137.996 91.9008 138.155C91.5453 138.315 91.1705 138.436 90.7762 138.519C90.3805 138.585 89.8081 138.651 89.0589 138.717L84.5163 139.114ZM87.0124 131.572L87.4203 136.234L88.8309 136.111C89.1656 136.082 89.4078 136.004 89.5574 135.879C89.7057 135.737 89.7624 135.467 89.7275 135.069L89.487 132.319C89.4535 131.937 89.3435 131.689 89.157 131.577C88.9865 131.464 88.7259 131.422 88.3752 131.453L87.0124 131.572ZM86.4121 124.71L86.7991 129.134L88.2336 129.008C88.5524 128.98 88.7779 128.896 88.9102 128.756C89.0425 128.616 89.0919 128.355 89.0584 127.972L88.8388 125.462C88.8053 125.079 88.7033 124.831 88.5328 124.718C88.3622 124.604 88.1096 124.562 87.7749 124.591L86.4121 124.71Z" fill="black"/>
<circle cx="162.961" cy="70.0146" r="59.5" transform="rotate(-5 162.961 70.0146)" fill="white" stroke="black"/>
<path d="M141.678 27.0432L144.499 26.7964L144.361 25.2184L149.717 24.7498L149.836 26.1126L152.681 25.8637L152.562 24.5009L157.607 24.0596L157.383 21.5013L152.338 21.9427L152.194 20.293L149.349 20.5419L149.493 22.1916L144.137 22.6602L143.993 21.0105L141.172 21.2573L141.316 22.907L136.2 23.3546L136.424 25.9129L141.54 25.4652L141.678 27.0432ZM142.425 27.0501C142.081 27.5139 141.688 27.9819 141.247 28.4541C140.576 27.9347 139.836 27.4693 138.932 27.0426L137.218 28.6621C138.099 29.0909 138.816 29.5823 139.438 30.082C138.445 30.8434 137.4 31.5613 136.316 32.1139C136.907 32.5439 137.746 33.3138 138.178 33.8541C139.141 33.2881 140.121 32.6483 141.046 31.9409C141.299 32.3524 141.526 32.7421 141.685 33.1859C140.724 34.8601 138.625 36.7543 136.803 37.6846C137.423 38.1604 138.193 38.9843 138.633 39.5964C139.857 38.7184 141.26 37.4151 142.373 36.089L142.394 36.3281C142.584 38.5038 142.499 40.005 142.051 40.6705C141.881 40.9264 141.724 41.0605 141.367 41.1158C140.895 41.2294 140.011 41.3068 138.833 41.3375C139.372 41.9891 139.716 42.8985 139.811 43.7093C140.963 43.6567 141.894 43.5512 142.785 43.2805C143.349 43.1107 143.804 42.8059 144.127 42.3681C145.1 41.1024 145.245 38.8974 145.015 36.2675C144.829 34.1396 144.405 32.0566 143.038 30.2006C143.703 29.5402 144.318 28.86 144.834 28.1403L142.425 27.0501ZM158.254 32.2904L158.024 29.6605L155.633 29.8697L157.248 28.4997C156.647 27.685 155.349 26.6181 154.228 25.9211L152.432 27.4273C153.41 28.1368 154.532 29.1228 155.155 29.9115L152.43 30.1499L152.421 30.0543L152.099 26.3724L149.445 26.6046L149.765 30.2626L149.776 30.3821L144.851 30.813L145.081 33.443L149.791 33.0309C149.571 35.7484 148.493 38.8541 144.953 41.6212C145.686 42.0148 146.688 42.7222 147.218 43.2781C149.902 41.1882 151.281 38.7789 151.941 36.4083C153.334 39.1052 155.198 41.1345 157.797 42.208C158.115 41.4334 158.836 40.3103 159.387 39.732C156.262 38.7045 154.178 36.0922 152.899 32.759L158.254 32.2904ZM177.565 21.9762L171.349 22.52L171.244 21.3246L177.46 20.7807L177.565 21.9762ZM177.837 25.0843L171.621 25.6281L171.512 24.3849L177.728 23.841L177.837 25.0843ZM180.156 18.5453L168.321 19.5807L169.045 27.8531L180.88 26.8177L180.156 18.5453ZM164.15 19.271C163.286 20.9608 161.352 23.0815 159.587 24.3922C160.07 24.9523 160.866 26.0632 161.209 26.6836C163.329 25.0285 165.563 22.4721 166.948 20.1345L164.15 19.271ZM165.228 24.4287C164.046 26.8931 161.906 29.4173 159.908 31.0858C160.399 31.7415 161.258 33.3045 161.528 33.9073C162.197 33.2946 162.856 32.5624 163.51 31.7824L164.378 41.7045L167.128 41.464L165.992 28.4816C166.693 27.4084 167.322 26.3415 167.808 25.2871L165.228 24.4287ZM182.561 31.4408L179.309 31.7252L179.19 30.3624L181.963 30.1198L181.761 27.8007L167.917 29.0118L168.12 31.3309L176.297 30.6155L176.416 31.9783L167.666 32.7439L167.877 35.1587L171.224 34.8658L169.557 36.1922C170.65 37.1085 171.992 38.4124 172.598 39.2749L174.594 37.5825C173.923 36.798 172.643 35.6572 171.607 34.8324L176.628 34.3931L176.918 37.7164C176.941 37.9794 176.854 38.0834 176.521 38.1366C176.211 38.1638 175.087 38.2621 174.079 38.3021C174.5 38.988 174.998 40.0044 175.185 40.7591C176.811 40.6168 178.006 40.5122 178.855 40.0284C179.752 39.5404 179.933 38.85 179.818 37.535L179.521 34.14L182.796 33.8534L182.561 31.4408Z" fill="black"/>
<line x1="147.053" y1="48.8204" x2="176.939" y2="46.2057" stroke="black"/>
<path d="M127.104 78.8734L125.457 60.0454L117.179 60.7696C115.259 62.9251 113.2 63.828 111.138 64.0084L111.745 70.9419C113.807 70.7615 116.209 70.3405 117.872 68.6894L118.826 79.5977L111.952 80.1991L112.501 86.4751L132.973 84.684L132.424 78.408L127.104 78.8734ZM146.997 84.1197C155.126 83.4085 159.353 78.3709 158.602 69.7937C157.852 61.2164 152.814 56.9894 144.685 57.7006C136.556 58.4118 132.329 63.4494 133.08 72.0266C133.83 80.6038 138.868 84.8309 146.997 84.1197ZM146.387 77.1563C143.339 77.423 141.594 75.3773 141.239 71.3128C140.883 67.2483 142.246 64.9307 145.295 64.664C148.343 64.3973 150.088 66.443 150.443 70.5075C150.799 74.5719 149.436 76.8896 146.387 77.1563ZM175.786 74.6144L174.138 55.7863L165.86 56.5106C163.941 58.6661 161.881 59.569 159.819 59.7494L160.426 66.6829C162.488 66.5025 164.89 66.0815 166.553 64.4303L167.507 75.3386L160.634 75.94L161.183 82.216L181.654 80.425L181.105 74.149L175.786 74.6144ZM193.99 80.2191L208.031 54.1461L204.361 52.1183L190.32 78.1913L193.99 80.2191ZM189.957 67.5022C194.738 67.0839 196.501 63.8278 196.185 60.2116C195.871 56.6253 193.57 53.7249 188.788 54.1432C184.006 54.5616 182.243 57.8176 182.557 61.4039C182.873 65.0201 185.175 67.9206 189.957 67.5022ZM189.512 62.4216C188.347 62.5236 187.825 61.726 187.757 60.949C187.687 60.1421 188.067 59.3258 189.232 59.2238C190.398 59.1219 190.914 59.8597 190.985 60.6666C191.053 61.4436 190.678 62.3197 189.512 62.4216ZM209.546 78.3461C214.328 77.9278 216.091 74.6717 215.775 71.0556C215.461 67.4693 213.159 64.5688 208.378 64.9872C203.596 65.4055 201.833 68.6616 202.147 72.2479C202.463 75.864 204.765 78.7645 209.546 78.3461ZM209.102 73.2655C207.936 73.3675 207.415 72.5699 207.347 71.7929C207.276 70.986 207.657 70.1697 208.822 70.0678C209.988 69.9658 210.504 70.7036 210.575 71.5105C210.643 72.2875 210.267 73.1636 209.102 73.2655Z" fill="black"/>
<path d="M153.208 113.028L158.906 112.53L151.285 96.3323L143.555 97.0087L138.863 114.283L144.561 113.785L145.105 111.509L152.277 110.881L153.208 113.028ZM146.102 107.306L147.395 101.893L148.351 101.809L150.565 106.915L146.102 107.306ZM159.703 112.46L165.222 111.977L164.901 108.311L168.906 107.961C173.449 107.563 175.981 105.294 175.587 100.791C175.193 96.2885 172.305 94.4933 167.743 94.8925L158.239 95.724L159.703 112.46ZM164.501 103.729L164.159 99.8236L167.685 99.5151C169 99.4 169.915 99.9826 170.028 101.278C170.141 102.573 169.342 103.305 168.007 103.422L164.501 103.729ZM195.075 109.365L191.605 104.128C192.933 103.008 193.809 101.325 193.613 99.0737C193.227 94.6705 190.443 92.9065 185.801 93.3126L176.217 94.1511L177.682 110.887L183.2 110.404L182.822 106.081L187.006 105.715L189.656 109.84L195.075 109.365ZM182.137 98.2507L185.823 97.9282C187.218 97.8062 187.994 98.4209 188.097 99.5964C188.2 100.772 187.542 101.512 186.147 101.634L182.461 101.957L182.137 98.2507Z" fill="black"/>
</svg>
