<svg width="272" height="228" viewBox="0 0 272 228" fill="none" xmlns="http://www.w3.org/2000/svg">
<g filter="url(#filter0_d)">
<rect x="0.810962" y="23.4545" width="153.657" height="153.657" transform="rotate(-5 0.810962 23.4545)" fill="#007EFC" stroke="black"/>
<rect x="11.9054" y="150.264" width="153.657" height="26.3623" transform="rotate(-5 11.9054 150.264)" fill="#FDCB02" stroke="black"/>
<rect x="0.810962" y="23.4545" width="10.8967" height="153.657" transform="rotate(-5 0.810962 23.4545)" fill="#123CB1" stroke="black"/>
</g>
<path d="M48.7179 166.14L47.4367 151.496L50.1773 151.256L51.2535 163.557L54.7471 163.251L54.9521 165.594L48.7179 166.14ZM55.6835 165.53L54.4023 150.886L58.4817 150.529C59.9043 150.405 60.8716 150.538 61.3836 150.929C61.8944 151.306 62.2053 152.129 62.3164 153.398L62.6257 156.933C62.7391 158.23 62.5771 159.109 62.1395 159.569C61.7147 160.014 60.784 160.299 59.3475 160.424L58.0086 160.542L58.424 165.29L55.6835 165.53ZM58.6394 152.813L57.3424 152.927L57.8091 158.261L59.1061 158.148C59.3851 158.123 59.5906 158.063 59.7227 157.967C59.8537 157.858 59.9051 157.642 59.877 157.321L59.5439 153.514C59.5159 153.193 59.4278 152.99 59.2798 152.905C59.1318 152.819 58.9183 152.789 58.6394 152.813ZM63.4959 159.598L63.3074 157.443L68.6839 156.973L68.8724 159.127L63.4959 159.598ZM72.5204 157.691L72.8682 161.666L76.6756 161.333L76.8806 163.676L70.3326 164.249L69.0514 149.605L75.5994 149.032L75.8044 151.375L71.997 151.708L72.3154 155.348L75.7673 155.046L75.9722 157.389L72.5204 157.691ZM81.6475 150.863L82.7237 163.164L79.9623 163.406L78.8861 151.105L76.292 151.332L76.087 148.989L84.0366 148.293L84.2416 150.637L81.6475 150.863ZM86.0636 162.872L84.7824 148.228L87.5229 147.988L88.0464 153.972L90.3685 153.768L89.845 147.785L92.6065 147.544L93.8877 162.188L91.1262 162.429L90.5863 156.258L88.2642 156.461L88.8041 162.633L86.0636 162.872ZM94.8614 162.819L96.5219 146.379L98.1745 146.234L96.4932 162.677L94.8614 162.819ZM98.8059 147.001L101.588 146.758L103.492 157.68L103.513 157.678L103.827 146.562L106.714 146.309L108.932 157.204L108.953 157.202L108.931 146.115L111.734 145.87L111.489 160.648L107.221 161.021L105.832 152.858L105.811 152.86L105.861 161.14L101.614 161.512L98.8059 147.001ZM113.745 160.45L112.464 145.806L116.397 145.462C117.847 145.335 118.828 145.467 119.34 145.858C119.865 146.234 120.185 147.084 120.301 148.409L120.424 149.811C120.501 150.69 120.437 151.321 120.231 151.704C120.039 152.072 119.66 152.323 119.096 152.457C119.701 152.474 120.131 152.647 120.385 152.976C120.652 153.304 120.825 153.915 120.903 154.807L121.053 156.523C121.108 157.15 121.111 157.663 121.061 158.061C121.025 158.443 120.948 158.766 120.83 159.03C120.725 159.278 120.517 159.472 120.206 159.611C119.895 159.751 119.567 159.857 119.222 159.929C118.876 159.988 118.375 160.045 117.72 160.103L113.745 160.45ZM115.929 153.851L116.286 157.93L117.52 157.822C117.813 157.797 118.025 157.729 118.156 157.619C118.286 157.495 118.335 157.259 118.305 156.911L118.094 154.505C118.065 154.17 117.969 153.954 117.806 153.855C117.656 153.756 117.428 153.72 117.122 153.747L115.929 153.851ZM115.404 147.847L115.742 151.717L116.998 151.607C117.277 151.583 117.474 151.509 117.59 151.387C117.705 151.264 117.749 151.036 117.719 150.701L117.527 148.504C117.498 148.17 117.409 147.953 117.259 147.853C117.11 147.754 116.889 147.717 116.596 147.743L115.404 147.847ZM121.229 145.04L123.991 144.798L127.228 152.652L127.249 152.65L126.543 144.575L129.116 144.35L130.397 158.994L127.531 159.244L124.537 151.77L124.516 151.772L125.188 159.449L122.51 159.684L121.229 145.04ZM131.641 158.885L130.36 144.241L134.293 143.897C135.744 143.77 136.725 143.902 137.237 144.293C137.762 144.668 138.082 145.519 138.198 146.843L138.321 148.245C138.397 149.124 138.333 149.755 138.128 150.138C137.935 150.506 137.557 150.757 136.992 150.891C137.598 150.908 138.028 151.081 138.281 151.411C138.549 151.739 138.722 152.349 138.8 153.241L138.95 154.957C139.005 155.584 139.007 156.097 138.958 156.495C138.921 156.878 138.844 157.201 138.727 157.464C138.622 157.712 138.414 157.906 138.103 158.045C137.792 158.185 137.464 158.291 137.119 158.363C136.773 158.422 136.272 158.48 135.616 158.537L131.641 158.885ZM133.826 152.285L134.182 156.365L135.417 156.257C135.71 156.231 135.922 156.163 136.052 156.054C136.182 155.93 136.232 155.694 136.201 155.345L135.991 152.939C135.961 152.604 135.865 152.388 135.702 152.29C135.553 152.19 135.325 152.154 135.018 152.181L133.826 152.285ZM133.3 146.281L133.639 150.151L134.894 150.042C135.173 150.017 135.37 149.944 135.486 149.821C135.602 149.699 135.645 149.47 135.616 149.135L135.424 146.939C135.394 146.604 135.305 146.387 135.156 146.288C135.007 146.188 134.786 146.151 134.493 146.177L133.3 146.281Z" fill="black"/>
<path d="M82.5749 86.6917L95.2141 85.5859L94.8617 81.5588L87.0516 82.2421L86.1227 71.6251L81.2937 72.0476L82.5749 86.6917ZM98.5183 85.2968L103.347 84.8743L103.067 81.6666L106.571 81.36C110.546 81.0122 112.761 79.0266 112.416 75.0866C112.072 71.1467 109.545 69.5759 105.553 69.9252L97.2371 70.6527L98.5183 85.2968ZM102.716 77.6569L102.417 74.2399L105.503 73.97C106.653 73.8693 107.453 74.379 107.552 75.5122C107.651 76.6454 106.952 77.2862 105.784 77.3884L102.716 77.6569Z" fill="white"/>
<path d="M82.5749 86.6917L81.5787 86.7788L81.6658 87.775L82.662 87.6879L82.5749 86.6917ZM95.2141 85.5859L95.3012 86.5821L96.2974 86.4949L96.2103 85.4987L95.2141 85.5859ZM94.8617 81.5588L95.8579 81.4716L95.7708 80.4754L94.7746 80.5626L94.8617 81.5588ZM87.0516 82.2421L86.0554 82.3292L86.1425 83.3254L87.1387 83.2382L87.0516 82.2421ZM86.1227 71.6251L87.1189 71.538L87.0318 70.5418L86.0356 70.6289L86.1227 71.6251ZM81.2937 72.0476L81.2065 71.0514L80.2103 71.1386L80.2975 72.1348L81.2937 72.0476ZM82.662 87.6879L95.3012 86.5821L95.1269 84.5897L82.4877 85.6955L82.662 87.6879ZM96.2103 85.4987L95.8579 81.4716L93.8656 81.6459L94.2179 85.673L96.2103 85.4987ZM94.7746 80.5626L86.9644 81.2459L87.1387 83.2382L94.9489 82.5549L94.7746 80.5626ZM88.0478 82.1549L87.1189 71.538L85.1265 71.7123L86.0554 82.3292L88.0478 82.1549ZM86.0356 70.6289L81.2065 71.0514L81.3808 73.0438L86.2099 72.6213L86.0356 70.6289ZM80.2975 72.1348L81.5787 86.7788L83.5711 86.6045L82.2899 71.9604L80.2975 72.1348ZM98.5183 85.2968L97.5221 85.3839L97.6092 86.3801L98.6054 86.293L98.5183 85.2968ZM103.347 84.8743L103.434 85.8705L104.431 85.7833L104.344 84.7871L103.347 84.8743ZM103.067 81.6666L102.98 80.6704L101.983 80.7575L102.07 81.7537L103.067 81.6666ZM97.2371 70.6527L97.1499 69.6565L96.1537 69.7437L96.2409 70.7399L97.2371 70.6527ZM102.716 77.6569L101.72 77.744L101.807 78.7402L102.803 78.6531L102.716 77.6569ZM102.417 74.2399L102.33 73.2437L101.334 73.3309L101.421 74.3271L102.417 74.2399ZM98.6054 86.293L103.434 85.8705L103.26 83.8781L98.4311 84.3006L98.6054 86.293ZM104.344 84.7871L104.063 81.5794L102.07 81.7537L102.351 84.9615L104.344 84.7871ZM103.154 82.6628L106.658 82.3562L106.484 80.3638L102.98 80.6704L103.154 82.6628ZM106.658 82.3562C108.774 82.1711 110.591 81.5376 111.829 80.2689C113.093 78.9742 113.603 77.1754 113.412 74.9995L111.42 75.1738C111.574 76.9378 111.149 78.1018 110.398 78.8719C109.621 79.6679 108.343 80.2012 106.484 80.3638L106.658 82.3562ZM113.412 74.9995C113.222 72.8235 112.407 71.1402 110.935 70.0848C109.493 69.0507 107.589 68.7432 105.466 68.929L105.64 70.9214C107.509 70.7579 108.864 71.0611 109.77 71.7102C110.645 72.3378 111.266 73.4099 111.42 75.1738L113.412 74.9995ZM105.466 68.929L97.1499 69.6565L97.3242 71.6489L105.64 70.9214L105.466 68.929ZM96.2409 70.7399L97.5221 85.3839L99.5144 85.2096L98.2333 70.5656L96.2409 70.7399ZM103.712 77.5697L103.413 74.1528L101.421 74.3271L101.72 77.744L103.712 77.5697ZM102.504 75.2361L105.59 74.9662L105.415 72.9738L102.33 73.2437L102.504 75.2361ZM105.59 74.9662C106.012 74.9292 106.236 75.0166 106.337 75.0899C106.415 75.1456 106.527 75.2658 106.556 75.5993L108.549 75.425C108.479 74.6254 108.141 73.9241 107.506 73.4669C106.895 73.0272 106.144 72.91 105.415 72.9738L105.59 74.9662ZM106.556 75.5993C106.585 75.9326 106.496 76.069 106.429 76.1369C106.341 76.2273 106.131 76.3542 105.697 76.3922L105.871 78.3846C106.605 78.3204 107.329 78.0758 107.858 77.537C108.408 76.9756 108.619 76.2249 108.549 75.425L106.556 75.5993ZM105.697 76.3922L102.629 76.6607L102.803 78.6531L105.871 78.3846L105.697 76.3922Z" fill="black"/>
<circle cx="59.3159" cy="110.482" r="24.7441" fill="white" stroke="black"/>
<path d="M52.2134 108.768L58.3932 101.407L65.7606 107.589L69.354 103.303L57.7036 93.5251L47.928 105.175L52.2134 108.768Z" fill="#F3BA2F"/>
<path d="M45.3894 108.201L41.7946 112.485L46.0787 116.079L49.6735 111.795L45.3894 108.201Z" fill="#F3BA2F"/>
<path d="M52.7003 114.334L60.0648 120.513L66.2468 113.146L70.532 116.736L70.5295 116.739L60.7541 128.392L49.1042 118.619L49.0982 118.614L52.7003 114.334Z" fill="#F3BA2F"/>
<path d="M72.3773 105.841L68.7825 110.125L73.0666 113.719L76.6614 109.435L72.3773 105.841Z" fill="#F3BA2F"/>
<path d="M63.2247 110.608L58.8788 106.959L56.1823 110.172L55.8705 110.541L55.2322 111.301L55.2272 111.307L55.2334 111.315L59.5787 114.959L63.2249 110.61L63.2274 110.607L63.2247 110.608Z" fill="#F3BA2F"/>
<circle cx="54.897" cy="56.6277" r="24.7441" fill="white" stroke="black"/>
<path d="M52.1114 35.4782L51.9117 36.4693L54.3648 64.508L54.6739 64.767L67.016 55.935L52.1114 35.4782Z" fill="#343434"/>
<path d="M52.1116 35.4782L40.9857 58.2123L54.674 64.767L53.4834 51.1579L52.1116 35.4782Z" fill="#8C8C8C"/>
<path d="M54.8895 67.2313L54.7463 67.4406L55.6202 77.4286L55.8213 77.8825L67.2397 58.4025L54.8895 67.2313Z" fill="#3C3C3B"/>
<path d="M55.8214 77.8823L54.8895 67.2311L41.2015 60.6803L55.8214 77.8823Z" fill="#8C8C8C"/>
<path d="M54.6739 64.7669L67.0159 55.9351L53.4833 51.158L54.6739 64.7669Z" fill="#141414"/>
<path d="M40.9857 58.2124L54.6738 64.7669L53.4832 51.158L40.9857 58.2124Z" fill="#393939"/>
<circle cx="193.818" cy="83.6904" r="70.8799" transform="rotate(-5 193.818 83.6904)" fill="white" stroke="black"/>
<path d="M171.988 34.6444L174.809 34.3976L174.671 32.8196L180.027 32.3511L180.146 33.7139L182.991 33.465L182.872 32.1022L187.917 31.6608L187.693 29.1026L182.648 29.5439L182.504 27.8943L179.659 28.1432L179.803 29.7929L174.448 30.2614L174.303 28.6117L171.482 28.8585L171.626 30.5082L166.51 30.9559L166.734 33.5141L171.85 33.0665L171.988 34.6444ZM172.736 34.6513C172.391 35.1151 171.998 35.5832 171.558 36.0553C170.886 35.5359 170.146 35.0706 169.242 34.6438L167.528 36.2633C168.409 36.6922 169.127 37.1835 169.749 37.6832C168.755 38.4447 167.71 39.1625 166.626 39.7151C167.217 40.1452 168.056 40.915 168.489 41.4554C169.451 40.8894 170.431 40.2495 171.357 39.5421C171.61 39.9537 171.836 40.3434 171.996 40.7872C171.034 42.4614 168.935 44.3555 167.113 45.2858C167.733 45.7616 168.504 46.5856 168.943 47.1976C170.167 46.3196 171.571 45.0163 172.683 43.6903L172.704 43.9294C172.895 46.1051 172.809 47.6062 172.361 48.2718C172.191 48.5276 172.034 48.6618 171.678 48.7171C171.206 48.8306 170.321 48.908 169.143 48.9388C169.682 49.5903 170.027 50.4997 170.122 51.3105C171.273 51.258 172.204 51.1525 173.096 50.8817C173.659 50.712 174.114 50.4071 174.437 49.9693C175.411 48.7037 175.555 46.4987 175.325 43.8687C175.139 41.7409 174.716 39.6578 173.349 37.8019C174.014 37.1414 174.629 36.4612 175.144 35.7416L172.736 34.6513ZM188.565 39.8917L188.335 37.2617L185.944 37.4709L187.558 36.101C186.957 35.2863 185.659 34.2193 184.538 33.5224L182.743 35.0286C183.72 35.7381 184.842 36.724 185.466 37.5127L182.74 37.7512L182.732 37.6556L182.409 33.9736L179.756 34.2058L180.076 37.8638L180.086 37.9834L175.161 38.4143L175.391 41.0442L180.101 40.6322C179.881 43.3497 178.804 46.4554 175.263 49.2225C175.996 49.6161 176.998 50.3235 177.528 50.8794C180.212 48.7895 181.592 46.3801 182.252 44.0096C183.644 46.7065 185.508 48.7358 188.107 49.8093C188.425 49.0346 189.146 47.9115 189.698 47.3333C186.572 46.3058 184.488 43.6934 183.209 40.3602L188.565 39.8917ZM207.875 29.5774L201.659 30.1213L201.554 28.9258L207.771 28.382L207.875 29.5774ZM208.147 32.6855L201.931 33.2294L201.822 31.9861L208.038 31.4423L208.147 32.6855ZM210.466 26.1465L198.631 27.182L199.355 35.4544L211.19 34.4189L210.466 26.1465ZM194.46 26.8723C193.596 28.562 191.662 30.6827 189.897 31.9935C190.38 32.5535 191.176 33.6644 191.519 34.2848C193.639 32.6298 195.873 30.0734 197.258 27.7357L194.46 26.8723ZM195.538 32.03C194.356 34.4944 192.216 37.0185 190.218 38.687C190.709 39.3427 191.568 40.9057 191.838 41.5085C192.507 40.8959 193.166 40.1637 193.82 39.3837L194.688 49.3058L197.438 49.0652L196.302 36.0828C197.003 35.0096 197.633 33.9427 198.119 32.8883L195.538 32.03ZM212.871 39.042L209.619 39.3265L209.5 37.9637L212.274 37.721L212.071 35.4019L198.228 36.613L198.431 38.9322L206.607 38.2168L206.727 39.5796L197.976 40.3452L198.187 42.7599L201.534 42.4671L199.868 43.7934C200.96 44.7097 202.302 46.0136 202.908 46.8762L204.904 45.1837C204.233 44.3992 202.953 43.2585 201.917 42.4336L206.938 41.9944L207.229 45.3177C207.252 45.5807 207.164 45.6847 206.832 45.7379C206.521 45.765 205.397 45.8634 204.389 45.9034C204.81 46.5893 205.309 47.6057 205.495 48.3603C207.121 48.2181 208.316 48.1135 209.165 47.6296C210.062 47.1416 210.243 46.4513 210.128 45.1363L209.831 41.7413L213.106 41.4547L212.871 39.042Z" fill="black"/>
<line x1="174.901" y1="58.5708" x2="210.455" y2="55.4602" stroke="black"/>
<path d="M153.061 87.8173L151.573 70.8022L140.241 71.7936L127.853 90.0227L128.493 97.3448L144.044 95.9843L144.477 100.935L154.135 100.09L153.702 95.1393L158.13 94.7519L157.489 87.4298L153.061 87.8173ZM136.221 89.2906L142.631 79.8409L143.403 88.6622L136.221 89.2906ZM175.27 99.0143C184.754 98.1845 189.685 92.3074 188.81 82.3006C187.934 72.2938 182.057 67.3623 172.573 68.192C163.09 69.0217 158.158 74.8989 159.033 84.9057C159.909 94.9124 165.786 99.844 175.27 99.0143ZM174.559 90.8903C171.003 91.2014 168.967 88.8148 168.552 84.0729C168.137 79.331 169.728 76.6271 173.284 76.316C176.84 76.0048 178.876 78.3915 179.291 83.1334C179.706 87.8752 178.116 90.5791 174.559 90.8903ZM216.148 82.2978L214.66 65.2828L203.328 66.2742L190.94 84.5033L191.58 91.8254L207.131 90.4648L207.564 95.4159L217.222 94.571L216.789 89.6199L221.217 89.2325L220.577 81.9104L216.148 82.2978ZM199.308 83.7712L205.719 74.3215L206.49 83.1428L199.308 83.7712ZM235.694 93.9738L252.075 63.5553L247.792 61.1896L231.411 91.608L235.694 93.9738ZM230.988 79.1375C236.566 78.6494 238.623 74.8507 238.254 70.6318C237.888 66.4478 235.203 63.064 229.624 63.552C224.045 64.0401 221.989 67.8388 222.355 72.0228C222.724 76.2417 225.409 79.6256 230.988 79.1375ZM230.469 73.2101C229.109 73.3291 228.501 72.3986 228.422 71.4921C228.339 70.5506 228.783 69.5984 230.143 69.4794C231.503 69.3604 232.105 70.2212 232.187 71.1626C232.267 72.0691 231.829 73.0912 230.469 73.2101ZM253.842 91.7887C259.421 91.3007 261.478 87.5019 261.109 83.2831C260.743 79.099 258.057 75.7152 252.479 76.2033C246.9 76.6913 244.843 80.49 245.209 84.6741C245.578 88.8929 248.264 92.2768 253.842 91.7887ZM253.324 85.8614C251.964 85.9803 251.355 85.0498 251.276 84.1433C251.194 83.2019 251.638 82.2496 252.997 82.1306C254.357 82.0117 254.959 82.8724 255.042 83.8138C255.121 84.7204 254.684 85.7424 253.324 85.8614Z" fill="black"/>
<path d="M184.424 129.719L190.122 129.221L182.501 113.023L174.771 113.699L170.079 130.974L175.777 130.476L176.32 128.199L183.493 127.572L184.424 129.719ZM177.318 123.997L178.611 118.583L179.567 118.5L181.781 123.606L177.318 123.997ZM190.919 129.151L196.438 128.668L196.117 125.002L200.122 124.652C204.665 124.254 207.197 121.985 206.803 117.482C206.409 112.979 203.521 111.184 198.959 111.583L189.455 112.415L190.919 129.151ZM195.717 120.419L195.375 116.514L198.901 116.206C200.216 116.091 201.131 116.673 201.244 117.968C201.357 119.263 200.558 119.996 199.223 120.113L195.717 120.419ZM226.291 126.056L222.821 120.819C224.149 119.699 225.025 118.016 224.828 115.764C224.443 111.361 221.659 109.597 217.017 110.003L207.433 110.842L208.897 127.578L214.416 127.095L214.038 122.772L218.222 122.405L220.872 126.53L226.291 126.056ZM213.353 114.941L217.039 114.619C218.434 114.497 219.21 115.112 219.313 116.287C219.416 117.463 218.758 118.203 217.363 118.325L213.677 118.647L213.353 114.941Z" fill="black"/>
<defs>
<filter id="filter0_d" x="0.269287" y="9.52081" width="217.547" height="217.547" filterUnits="userSpaceOnUse" color-interpolation-filters="sRGB">
<feFlood flood-opacity="0" result="BackgroundImageFix"/>
<feColorMatrix in="SourceAlpha" type="matrix" values="0 0 0 0 0 0 0 0 0 0 0 0 0 0 0 0 0 0 127 0"/>
<feOffset dx="25" dy="25"/>
<feGaussianBlur stdDeviation="12.5"/>
<feColorMatrix type="matrix" values="0 0 0 0 0 0 0 0 0 0 0 0 0 0 0 0 0 0 0.25 0"/>
<feBlend mode="normal" in2="BackgroundImageFix" result="effect1_dropShadow"/>
<feBlend mode="normal" in="SourceGraphic" in2="effect1_dropShadow" result="shape"/>
</filter>
</defs>
</svg>
