<svg width="274" height="228" viewBox="0 0 274 228" fill="none" xmlns="http://www.w3.org/2000/svg">
<g filter="url(#filter0_d)">
<rect x="0.810718" y="23.1308" width="154.421" height="154.421" transform="rotate(-5 0.810718 23.1308)" fill="#007EFC" stroke="black"/>
<rect x="11.9599" y="150.567" width="154.421" height="26.4975" transform="rotate(-5 11.9599 150.567)" fill="#FDCB02" stroke="black"/>
<rect x="0.810718" y="23.1308" width="10.9554" height="154.421" transform="rotate(-5 0.810718 23.1308)" fill="#123CB1" stroke="black"/>
</g>
<path d="M52.2257 166.04L50.9445 151.396L53.6851 151.156L54.7613 163.457L58.2549 163.152L58.4599 165.495L52.2257 166.04ZM59.1913 165.431L57.9101 150.787L61.9895 150.43C63.4121 150.305 64.3794 150.439 64.8914 150.829C65.4022 151.206 65.7131 152.029 65.8241 153.298L66.1335 156.834C66.2469 158.131 66.0849 159.009 65.6473 159.469C65.2224 159.914 64.2918 160.199 62.8552 160.325L61.5164 160.442L61.9318 165.191L59.1913 165.431ZM62.1472 152.714L60.8501 152.827L61.3169 158.162L62.6139 158.048C62.8928 158.024 63.0984 157.964 63.2305 157.868C63.3615 157.758 63.4129 157.543 63.3848 157.222L63.0517 153.415C63.0236 153.094 62.9356 152.891 62.7876 152.805C62.6396 152.72 62.4261 152.689 62.1472 152.714ZM67.0037 159.498L66.8152 157.344L72.1917 156.873L72.3802 159.028L67.0037 159.498ZM73.7986 164.153L72.5174 149.509L76.4504 149.165C77.9008 149.038 78.8821 149.17 79.3941 149.561C79.9188 149.936 80.2392 150.787 80.3551 152.112L80.4777 153.513C80.5546 154.392 80.4903 155.023 80.285 155.406C80.0923 155.774 79.7137 156.025 79.1492 156.159C79.7551 156.176 80.1848 156.349 80.4384 156.679C80.706 157.007 80.8789 157.617 80.957 158.509L81.1071 160.225C81.162 160.852 81.1647 161.365 81.1151 161.763C81.0784 162.146 81.0012 162.469 80.8837 162.732C80.7789 162.98 80.571 163.174 80.26 163.313C79.949 163.453 79.621 163.559 79.276 163.631C78.9298 163.69 78.4289 163.748 77.7734 163.805L73.7986 164.153ZM75.9827 157.553L76.3396 161.633L77.5739 161.525C77.8668 161.499 78.0787 161.431 78.2096 161.322C78.3393 161.198 78.3889 160.962 78.3584 160.613L78.1479 158.207C78.1187 157.872 78.0224 157.656 77.8592 157.558C77.71 157.458 77.482 157.422 77.1752 157.449L75.9827 157.553ZM75.4574 151.549L75.796 155.419L77.0512 155.31C77.3302 155.285 77.5275 155.212 77.6433 155.089C77.759 154.967 77.8023 154.738 77.773 154.403L77.5808 152.207C77.5515 151.872 77.4623 151.655 77.313 151.556C77.1638 151.456 76.9428 151.419 76.6499 151.445L75.4574 151.549ZM86.1768 150.675L87.253 162.976L84.4915 163.217L83.4153 150.916L80.8212 151.143L80.6163 148.8L88.5659 148.105L88.7709 150.448L86.1768 150.675ZM92.78 147.652L93.2612 147.61C94.7395 147.48 95.7423 147.617 96.2695 148.021C96.7954 148.411 97.1176 149.282 97.236 150.635L97.4702 153.312L94.7297 153.552L94.4808 150.707C94.4478 150.33 94.3498 150.093 94.1866 149.995C94.0374 149.896 93.7954 149.861 93.4607 149.89L92.9795 149.932C92.6587 149.96 92.4265 150.037 92.2829 150.162C92.1392 150.287 92.0839 150.537 92.1168 150.914L92.8562 159.366C92.8892 159.742 92.9872 159.979 93.1504 160.078C93.3136 160.176 93.5556 160.211 93.8763 160.183L94.3575 160.141C94.6922 160.111 94.9244 160.035 95.0541 159.911C95.1978 159.786 95.2532 159.535 95.2202 159.159L94.9347 155.895L97.6752 155.655L97.9461 158.752C98.0645 160.104 97.8991 161.025 97.45 161.514C96.9997 161.989 96.0354 162.292 94.557 162.421L94.0758 162.463C92.6114 162.591 91.6093 162.461 91.0694 162.073C90.5422 161.669 90.2194 160.791 90.1011 159.438L89.3909 151.321C89.2726 149.968 89.4385 149.054 89.8888 148.579C90.3519 148.089 91.3156 147.78 92.78 147.652ZM99.3971 161.913L98.1159 147.269L102.049 146.925C103.499 146.798 104.481 146.93 104.993 147.321C105.517 147.697 105.838 148.547 105.954 149.872L106.076 151.274C106.153 152.152 106.089 152.783 105.883 153.167C105.691 153.535 105.312 153.786 104.748 153.919C105.354 153.937 105.783 154.11 106.037 154.439C106.305 154.767 106.477 155.377 106.555 156.27L106.706 157.985C106.76 158.613 106.763 159.126 106.714 159.523C106.677 159.906 106.6 160.229 106.482 160.492C106.377 160.74 106.17 160.934 105.859 161.074C105.548 161.213 105.22 161.319 104.874 161.392C104.528 161.45 104.027 161.508 103.372 161.565L99.3971 161.913ZM101.581 155.314L101.938 159.393L103.172 159.285C103.465 159.26 103.677 159.192 103.808 159.082C103.938 158.958 103.987 158.722 103.957 158.373L103.746 155.968C103.717 155.633 103.621 155.416 103.458 155.318C103.309 155.219 103.08 155.183 102.774 155.209L101.581 155.314ZM101.056 149.31L101.395 153.18L102.65 153.07C102.929 153.046 103.126 152.972 103.242 152.85C103.358 152.727 103.401 152.498 103.371 152.164L103.179 149.967C103.15 149.632 103.061 149.415 102.912 149.316C102.762 149.217 102.541 149.18 102.248 149.205L101.056 149.31ZM107.869 161.889L109.529 145.448L111.182 145.304L109.501 161.746L107.869 161.889ZM113.555 160.675L112.274 146.03L116.207 145.686C117.657 145.559 118.638 145.691 119.15 146.082C119.675 146.458 119.996 147.308 120.111 148.633L120.234 150.035C120.311 150.914 120.247 151.545 120.041 151.928C119.849 152.296 119.47 152.547 118.906 152.681C119.511 152.698 119.941 152.871 120.195 153.2C120.462 153.528 120.635 154.139 120.713 155.031L120.863 156.747C120.918 157.374 120.921 157.887 120.871 158.285C120.835 158.667 120.758 158.99 120.64 159.254C120.535 159.502 120.327 159.696 120.016 159.835C119.705 159.975 119.377 160.081 119.032 160.153C118.686 160.212 118.185 160.269 117.53 160.327L113.555 160.675ZM115.739 154.075L116.096 158.154L117.33 158.047C117.623 158.021 117.835 157.953 117.966 157.843C118.096 157.72 118.145 157.483 118.115 157.135L117.904 154.729C117.875 154.394 117.779 154.178 117.616 154.08C117.466 153.98 117.238 153.944 116.932 153.971L115.739 154.075ZM115.214 148.071L115.552 151.941L116.808 151.831C117.087 151.807 117.284 151.734 117.4 151.611C117.515 151.488 117.559 151.26 117.529 150.925L117.337 148.728C117.308 148.394 117.219 148.177 117.069 148.077C116.92 147.978 116.699 147.941 116.406 147.967L115.214 148.071ZM121.039 145.264L123.801 145.022L127.038 152.876L127.059 152.874L126.353 144.799L128.926 144.574L130.207 159.218L127.341 159.468L124.347 151.994L124.326 151.996L124.998 159.673L122.32 159.908L121.039 145.264ZM131.451 159.109L130.17 144.465L134.103 144.121C135.554 143.994 136.535 144.126 137.047 144.517C137.572 144.892 137.892 145.743 138.008 147.068L138.131 148.469C138.207 149.348 138.143 149.979 137.938 150.362C137.745 150.73 137.367 150.981 136.802 151.115C137.408 151.132 137.838 151.306 138.091 151.635C138.359 151.963 138.532 152.573 138.61 153.465L138.76 155.181C138.815 155.808 138.817 156.321 138.768 156.719C138.731 157.102 138.654 157.425 138.537 157.688C138.432 157.936 138.224 158.13 137.913 158.269C137.602 158.409 137.274 158.515 136.929 158.587C136.583 158.646 136.082 158.704 135.426 158.761L131.451 159.109ZM133.636 152.509L133.992 156.589L135.227 156.481C135.52 156.455 135.732 156.387 135.862 156.278C135.992 156.154 136.042 155.918 136.011 155.569L135.801 153.163C135.771 152.828 135.675 152.612 135.512 152.514C135.363 152.414 135.135 152.378 134.828 152.405L133.636 152.509ZM133.11 146.505L133.449 150.375L134.704 150.266C134.983 150.241 135.18 150.168 135.296 150.045C135.412 149.923 135.455 149.694 135.426 149.359L135.234 147.163C135.204 146.828 135.115 146.611 134.966 146.512C134.817 146.412 134.596 146.375 134.303 146.401L133.11 146.505Z" fill="black"/>
<path d="M80.5747 85.6917L93.214 84.5859L92.8616 80.5588L85.0515 81.2421L84.1226 70.6251L79.2935 71.0476L80.5747 85.6917ZM96.5181 84.2968L101.347 83.8743L101.067 80.6666L104.571 80.36C108.545 80.0123 110.761 78.0266 110.416 74.0867C110.071 70.1467 107.545 68.5759 103.553 68.9252L95.2369 69.6527L96.5181 84.2968ZM100.716 76.6569L100.417 73.2399L103.503 72.97C104.653 72.8693 105.453 73.379 105.552 74.5122C105.651 75.6454 104.952 76.2863 103.784 76.3884L100.716 76.6569Z" fill="white"/>
<path d="M80.5747 85.6917L79.5785 85.7788L79.6657 86.775L80.6619 86.6879L80.5747 85.6917ZM93.214 84.5859L93.3011 85.5821L94.2973 85.4949L94.2101 84.4987L93.214 84.5859ZM92.8616 80.5588L93.8578 80.4716L93.7707 79.4754L92.7745 79.5626L92.8616 80.5588ZM85.0515 81.2421L84.0553 81.3292L84.1424 82.3254L85.1386 82.2383L85.0515 81.2421ZM84.1226 70.6251L85.1188 70.538L85.0316 69.5418L84.0354 69.6289L84.1226 70.6251ZM79.2935 71.0476L79.2064 70.0514L78.2102 70.1386L78.2973 71.1348L79.2935 71.0476ZM80.6619 86.6879L93.3011 85.5821L93.1268 83.5897L80.4876 84.6955L80.6619 86.6879ZM94.2101 84.4987L93.8578 80.4716L91.8654 80.6459L92.2178 84.673L94.2101 84.4987ZM92.7745 79.5626L84.9643 80.2459L85.1386 82.2383L92.9488 81.555L92.7745 79.5626ZM86.0477 81.1549L85.1188 70.538L83.1264 70.7123L84.0553 81.3292L86.0477 81.1549ZM84.0354 69.6289L79.2064 70.0514L79.3807 72.0438L84.2098 71.6213L84.0354 69.6289ZM78.2973 71.1348L79.5785 85.7788L81.5709 85.6045L80.2897 70.9605L78.2973 71.1348ZM96.5181 84.2968L95.5219 84.384L95.6091 85.3802L96.6053 85.293L96.5181 84.2968ZM101.347 83.8743L101.434 84.8705L102.431 84.7834L102.343 83.7872L101.347 83.8743ZM101.067 80.6666L100.979 79.6704L99.9832 79.7575L100.07 80.7537L101.067 80.6666ZM95.2369 69.6527L95.1498 68.6565L94.1536 68.7437L94.2407 69.7399L95.2369 69.6527ZM100.716 76.6569L99.7195 76.744L99.8067 77.7402L100.803 77.6531L100.716 76.6569ZM100.417 73.2399L100.33 72.2437L99.3334 72.3309L99.4206 73.3271L100.417 73.2399ZM96.6053 85.293L101.434 84.8705L101.26 82.8781L96.431 83.3006L96.6053 85.293ZM102.343 83.7872L102.063 80.5794L100.07 80.7537L100.351 83.9615L102.343 83.7872ZM101.154 81.6628L104.658 81.3562L104.484 79.3638L100.979 79.6704L101.154 81.6628ZM104.658 81.3562C106.774 81.1711 108.591 80.5377 109.829 79.2689C111.092 77.9743 111.603 76.1755 111.412 73.9995L109.42 74.1738C109.574 75.9378 109.149 77.1018 108.398 77.8719C107.621 78.6679 106.342 79.2012 104.484 79.3638L104.658 81.3562ZM111.412 73.9995C111.222 71.8235 110.407 70.1402 108.935 69.0848C107.493 68.0507 105.589 67.7432 103.466 67.929L103.64 69.9214C105.508 69.7579 106.864 70.0611 107.77 70.7102C108.645 71.3378 109.266 72.4099 109.42 74.1738L111.412 73.9995ZM103.466 67.929L95.1498 68.6565L95.3241 70.6489L103.64 69.9214L103.466 67.929ZM94.2407 69.7399L95.5219 84.384L97.5143 84.2097L96.2331 69.5656L94.2407 69.7399ZM101.712 76.5697L101.413 73.1528L99.4206 73.3271L99.7195 76.744L101.712 76.5697ZM100.504 74.2361L103.59 73.9662L103.415 71.9738L100.33 72.2437L100.504 74.2361ZM103.59 73.9662C104.012 73.9292 104.236 74.0166 104.337 74.0899C104.415 74.1456 104.527 74.2658 104.556 74.5994L106.548 74.425C106.478 73.6254 106.141 72.9241 105.506 72.4669C104.895 72.0272 104.144 71.9101 103.415 71.9738L103.59 73.9662ZM104.556 74.5994C104.585 74.9327 104.496 75.069 104.429 75.1369C104.341 75.2273 104.131 75.3543 103.697 75.3923L103.871 77.3846C104.605 77.3204 105.329 77.0758 105.857 76.537C106.408 75.9756 106.618 75.2249 106.548 74.425L104.556 74.5994ZM103.697 75.3923L100.629 75.6607L100.803 77.6531L103.871 77.3846L103.697 75.3923Z" fill="black"/>
<circle cx="57.3157" cy="109.482" r="24.7441" fill="white" stroke="black"/>
<path d="M49.0566 107.407L56.2552 98.832L64.8373 106.033L69.0231 101.041L55.452 89.6511L44.0646 103.222L49.0566 107.407Z" fill="#F3BA2F"/>
<path d="M41.1077 106.746L36.9202 111.736L41.9106 115.924L46.0981 110.933L41.1077 106.746Z" fill="#F3BA2F"/>
<path d="M49.6237 113.89L58.2023 121.088L65.4035 112.507L70.3952 116.689L70.3923 116.692L59.0052 130.266L45.4347 118.882L45.4277 118.877L49.6237 113.89Z" fill="#F3BA2F"/>
<path d="M72.5449 103.997L68.3574 108.987L73.3478 113.175L77.5353 108.184L72.5449 103.997Z" fill="#F3BA2F"/>
<path d="M61.8832 109.55L56.8209 105.299L53.6798 109.042L53.3166 109.472L52.573 110.358L52.5672 110.365L52.5744 110.374L57.6362 114.618L61.8835 109.553L61.8864 109.549L61.8832 109.55Z" fill="#F3BA2F"/>
<circle cx="52.8967" cy="55.6277" r="24.7441" fill="white" stroke="black"/>
<path d="M70.8441 60.1348C68.3798 70.024 58.3607 76.0429 48.4686 73.5749C38.5764 71.107 32.5603 61.0928 35.0285 51.2026C37.4966 41.3125 47.5108 35.2908 57.4007 37.7592C67.2906 40.2275 73.3122 50.2423 70.8441 60.1348Z" fill="#F7931A"/>
<path d="M61.0777 53.0368C61.4447 50.5801 59.5742 49.2593 57.0161 48.3783L57.8469 45.0506L55.8206 44.5458L55.0112 47.7861C54.4791 47.6535 53.9323 47.5276 53.3888 47.4043L54.2011 44.1426L52.1768 43.6379L51.3484 46.9643L47.2625 45.9523L46.7234 48.1162C46.7234 48.1162 48.2265 48.4607 48.1948 48.4821C49.0152 48.687 49.164 49.2298 49.1389 49.6603L46.8655 58.7767C46.7651 59.0259 46.5107 59.3996 45.9373 59.2567C45.9576 59.2862 44.4648 58.8875 44.4648 58.8875L43.459 61.2098L47.539 62.2399L46.7005 65.6064L48.7239 66.1112L49.5547 62.7809C50.1085 62.9308 50.6439 63.0692 51.1686 63.1996L50.3411 66.5144L52.3671 67.0191L53.2056 63.6591C56.6604 64.3126 59.2583 64.049 60.3503 60.9268C61.2313 58.4114 60.3071 56.9603 58.4894 56.0135C59.8131 55.7071 60.81 54.8368 61.076 53.0381L61.0777 53.0368ZM56.4475 59.5277C55.8198 62.0431 51.5856 60.6838 50.2117 60.3423L51.3242 55.8828C52.6974 56.2255 57.1007 56.9041 56.4483 59.5274L56.4475 59.5277ZM57.0759 53.0011C56.5047 55.2904 52.9791 54.1273 51.8349 53.8419L52.8421 49.7962C53.9868 50.082 57.67 50.614 57.0745 53.001" fill="white"/>
<circle cx="194.774" cy="83.6666" r="71.2327" transform="rotate(-5 194.774 83.6666)" fill="white" stroke="black"/>
<path d="M172.917 34.3044L175.738 34.0576L175.6 32.4796L180.955 32.011L181.075 33.3738L183.92 33.1249L183.801 31.7621L188.845 31.3208L188.621 28.7625L183.577 29.2039L183.432 27.5542L180.587 27.8031L180.732 29.4528L175.376 29.9214L175.232 28.2717L172.41 28.5185L172.555 30.1682L167.438 30.6158L167.662 33.174L172.779 32.7264L172.917 34.3044ZM173.664 34.3113C173.319 34.7751 172.927 35.2431 172.486 35.7153C171.814 35.1959 171.075 34.7305 170.17 34.3038L168.457 35.9232C169.338 36.3521 170.055 36.8434 170.677 37.3431C169.684 38.1046 168.638 38.8225 167.554 39.375C168.146 39.8051 168.984 40.575 169.417 41.1153C170.379 40.5493 171.359 39.9095 172.285 39.2021C172.538 39.6136 172.765 40.0033 172.924 40.4471C171.962 42.1213 169.863 44.0154 168.042 44.9458C168.661 45.4216 169.432 46.2455 169.871 46.8576C171.095 45.9796 172.499 44.6763 173.612 43.3502L173.633 43.5893C173.823 45.765 173.737 47.2662 173.29 47.9317C173.119 48.1875 172.963 48.3217 172.606 48.377C172.134 48.4906 171.249 48.568 170.072 48.5987C170.611 49.2503 170.955 50.1597 171.05 50.9705C172.202 50.9179 173.132 50.8124 174.024 50.5417C174.587 50.3719 175.043 50.0671 175.366 49.6293C176.339 48.3636 176.483 46.1586 176.253 43.5287C176.067 41.4008 175.644 39.3178 174.277 37.4618C174.942 36.8014 175.557 36.1212 176.072 35.4015L173.664 34.3113ZM189.493 39.5516L189.263 36.9217L186.872 37.1308L188.487 35.7609C187.886 34.9462 186.588 33.8793 185.467 33.1823L183.671 34.6885C184.649 35.398 185.771 36.384 186.394 37.1727L183.668 37.4111L183.66 37.3155L183.338 33.6336L180.684 33.8657L181.004 37.5238L181.014 37.6433L176.089 38.0742L176.319 40.7042L181.029 40.2921C180.809 43.0096 179.732 46.1153 176.192 48.8824C176.925 49.276 177.926 49.9834 178.457 50.5393C181.141 48.4494 182.52 46.0401 183.18 43.6695C184.572 46.3664 186.436 48.3957 189.036 49.4692C189.353 48.6946 190.074 47.5715 190.626 46.9932C187.501 45.9657 185.417 43.3534 184.138 40.0202L189.493 39.5516ZM208.804 29.2373L202.587 29.7812L202.483 28.5858L208.699 28.0419L208.804 29.2373ZM209.076 32.3455L202.859 32.8893L202.751 31.6461L208.967 31.1022L209.076 32.3455ZM211.394 25.8065L199.56 26.8419L200.283 35.1143L212.118 34.0789L211.394 25.8065ZM195.389 26.5322C194.525 28.222 192.59 30.3426 190.826 31.6534C191.308 32.2135 192.104 33.3243 192.448 33.9448C194.567 32.2897 196.801 29.7333 198.187 27.3957L195.389 26.5322ZM196.466 31.6899C195.285 34.1543 193.145 36.6784 191.146 38.3469C191.637 39.0026 192.497 40.5657 192.766 41.1685C193.436 40.5558 194.094 39.8236 194.749 39.0436L195.617 48.9657L198.366 48.7252L197.231 35.7428C197.932 34.6696 198.561 33.6027 199.047 32.5483L196.466 31.6899ZM213.8 38.7019L210.548 38.9864L210.429 37.6236L213.202 37.381L212.999 35.0618L199.156 36.273L199.359 38.5921L207.536 37.8767L207.655 39.2395L198.904 40.0051L199.116 42.4199L202.463 42.127L200.796 43.4533C201.888 44.3697 203.231 45.6736 203.836 46.5361L205.832 44.8437C205.162 44.0592 203.881 42.9184 202.845 42.0936L207.866 41.6543L208.157 44.9776C208.18 45.2406 208.093 45.3446 207.76 45.3978C207.449 45.425 206.326 45.5233 205.317 45.5633C205.739 46.2492 206.237 47.2656 206.424 48.0203C208.049 47.878 209.245 47.7734 210.094 47.2896C210.991 46.8016 211.171 46.1112 211.056 44.7962L210.759 41.4012L214.035 41.1146L213.8 38.7019Z" fill="black"/>
<line x1="175.764" y1="58.4254" x2="211.494" y2="55.2995" stroke="black"/>
<path d="M154.007 87.6351L152.518 70.6201L141.186 71.6115L128.798 89.8406L129.439 97.1627L144.989 95.8022L145.422 100.753L155.08 99.9083L154.647 94.9572L159.075 94.5698L158.435 87.2477L154.007 87.6351ZM137.166 89.1085L143.577 79.6588L144.349 88.4801L137.166 89.1085ZM176.215 98.8322C185.699 98.0024 190.631 92.1253 189.755 82.1185C188.88 72.1117 183.002 67.1802 173.519 68.0099C164.035 68.8396 159.103 74.7168 159.979 84.7236C160.854 94.7303 166.732 99.6619 176.215 98.8322ZM175.505 90.7082C171.948 91.0193 169.912 88.6327 169.498 83.8908C169.083 79.1489 170.673 76.445 174.229 76.1339C177.786 75.8227 179.822 78.2094 180.237 82.9512C180.651 87.6931 179.061 90.397 175.505 90.7082ZM217.094 82.1157L215.605 65.1007L204.274 66.0921L191.885 84.3212L192.526 91.6432L208.076 90.2827L208.51 95.2338L218.168 94.3889L217.734 89.4378L222.163 89.0504L221.522 81.7283L217.094 82.1157ZM200.253 83.5891L206.664 74.1394L207.436 82.9607L200.253 83.5891ZM236.639 93.7917L253.02 63.3732L248.738 61.0075L232.357 91.4259L236.639 93.7917ZM231.933 78.9554C237.512 78.4673 239.569 74.6686 239.199 70.4497C238.833 66.2657 236.148 62.8818 230.57 63.3699C224.991 63.858 222.934 67.6567 223.3 71.8407C223.669 76.0596 226.354 79.4435 231.933 78.9554ZM231.415 73.028C230.055 73.147 229.446 72.2165 229.367 71.3099C229.285 70.3685 229.728 69.4162 231.088 69.2973C232.448 69.1783 233.05 70.0391 233.133 70.9805C233.212 71.887 232.774 72.9091 231.415 73.028ZM254.788 91.6066C260.366 91.1185 262.423 87.3198 262.054 83.101C261.688 78.9169 259.003 75.5331 253.424 76.0212C247.845 76.5092 245.789 80.3079 246.155 84.492C246.524 88.7108 249.209 92.0947 254.788 91.6066ZM254.269 85.6793C252.909 85.7982 252.301 84.8677 252.222 83.9612C252.139 83.0198 252.583 82.0675 253.943 81.9485C255.303 81.8295 255.905 82.6903 255.987 83.6317C256.067 84.5383 255.629 85.5603 254.269 85.6793Z" fill="black"/>
<path d="M185.391 129.789L191.089 129.29L183.469 113.093L175.738 113.769L171.046 131.044L176.744 130.545L177.288 128.269L184.461 127.642L185.391 129.789ZM178.285 124.066L179.579 118.653L180.535 118.569L182.748 123.676L178.285 124.066ZM191.887 129.22L197.406 128.737L197.085 125.071L201.09 124.721C205.632 124.324 208.164 122.054 207.77 117.552C207.376 113.049 204.489 111.254 199.926 111.653L190.422 112.484L191.887 129.22ZM196.684 120.489L196.342 116.584L199.869 116.275C201.184 116.16 202.098 116.743 202.211 118.038C202.325 119.333 201.525 120.065 200.191 120.182L196.684 120.489ZM227.258 126.126L223.789 120.888C225.116 119.768 225.993 118.085 225.796 115.834C225.411 111.431 222.626 109.667 217.984 110.073L208.401 110.911L209.865 127.647L215.384 127.165L215.006 122.841L219.19 122.475L221.839 126.6L227.258 126.126ZM214.321 115.011L218.006 114.689C219.401 114.567 220.178 115.181 220.28 116.357C220.383 117.532 219.725 118.272 218.331 118.394L214.645 118.717L214.321 115.011Z" fill="black"/>
<defs>
<filter id="filter0_d" x="0.269043" y="9.13051" width="218.375" height="218.375" filterUnits="userSpaceOnUse" color-interpolation-filters="sRGB">
<feFlood flood-opacity="0" result="BackgroundImageFix"/>
<feColorMatrix in="SourceAlpha" type="matrix" values="0 0 0 0 0 0 0 0 0 0 0 0 0 0 0 0 0 0 127 0"/>
<feOffset dx="25" dy="25"/>
<feGaussianBlur stdDeviation="12.5"/>
<feColorMatrix type="matrix" values="0 0 0 0 0 0 0 0 0 0 0 0 0 0 0 0 0 0 0.25 0"/>
<feBlend mode="normal" in2="BackgroundImageFix" result="effect1_dropShadow"/>
<feBlend mode="normal" in="SourceGraphic" in2="effect1_dropShadow" result="shape"/>
</filter>
</defs>
</svg>
