<svg width="721" height="339" viewBox="0 0 721 339" fill="none" xmlns="http://www.w3.org/2000/svg">
<rect x="0.769287" y="159.5" width="719" height="179" fill="#FDCB02" stroke="black"/>
<rect x="8.76929" y="167.5" width="703" height="163" stroke="black"/>
<rect x="0.769287" y="4.5" width="719" height="155" fill="white" stroke="black"/>
<rect x="174.769" y="30.5" width="35" height="11" stroke="black"/>
<rect x="181.269" y="30" width="18" height="12" fill="black"/>
<line x1="210.269" y1="35.5" x2="230.269" y2="35.5" stroke="black"/>
<circle cx="234.269" cy="36" r="4.5" stroke="black"/>
<line x1="230.916" y1="39.7175" x2="237.987" y2="32.6464" stroke="black"/>
<rect x="-0.5" y="0.5" width="35" height="11" transform="matrix(-1 0 0 1 544.269 30)" stroke="black"/>
<rect width="18" height="12" transform="matrix(-1 0 0 1 538.269 30)" fill="black"/>
<line y1="-0.5" x2="20" y2="-0.5" transform="matrix(-1 0 0 1 509.269 36)" stroke="black"/>
<circle r="4.5" transform="matrix(-1 0 0 1 485.269 36)" stroke="black"/>
<line y1="-0.5" x2="10" y2="-0.5" transform="matrix(-0.707107 -0.707107 -0.707107 0.707107 488.269 40.071)" stroke="black"/>
<circle cx="34.2693" cy="109" r="9.5" stroke="black"/>
<line x1="34.7693" y1="92" x2="34.7693" y2="127" stroke="black"/>
<line x1="52.2693" y1="109.5" x2="17.2693" y2="109.5" stroke="black"/>
<circle cx="684.269" cy="109" r="9.5" stroke="black"/>
<line x1="684.769" y1="92" x2="684.769" y2="127" stroke="black"/>
<line x1="702.269" y1="109.5" x2="667.269" y2="109.5" stroke="black"/>
<line x1="151.269" y1="275.5" x2="581.269" y2="275.5" stroke="black" stroke-dasharray="5 5"/>
<path d="M327.837 183.8H333.597V203.276C333.597 203.756 333.669 204.08 333.813 204.248C333.957 204.392 334.221 204.464 334.605 204.464H335.505C335.889 204.464 336.153 204.392 336.297 204.248C336.441 204.08 336.513 203.756 336.513 203.276V183.8H342.273V203.024C342.273 205.496 341.829 207.14 340.941 207.956C340.053 208.748 338.205 209.144 335.397 209.144H334.713C331.905 209.144 330.057 208.748 329.169 207.956C328.281 207.14 327.837 205.496 327.837 203.024V183.8ZM343.764 209V183.8H351.18C353.94 183.8 355.752 184.208 356.616 185.024C357.504 185.816 357.948 187.412 357.948 189.812V195.176C357.948 197.624 357.516 199.244 356.652 200.036C355.788 200.804 353.964 201.188 351.18 201.188H349.524V209H343.764ZM351.144 188.48H349.524V196.508H351.144C351.504 196.508 351.768 196.448 351.936 196.328C352.104 196.184 352.188 195.908 352.188 195.5V189.524C352.188 189.116 352.104 188.84 351.936 188.696C351.768 188.552 351.504 188.48 351.144 188.48ZM373.127 188.696V209H367.367V188.696H363.119V183.8H377.375V188.696H373.127ZM385.127 183.656H385.811C388.619 183.656 390.467 184.052 391.355 184.844C392.243 185.636 392.687 187.28 392.687 189.776V203.024C392.687 205.496 392.243 207.14 391.355 207.956C390.467 208.748 388.619 209.144 385.811 209.144H385.127C382.343 209.144 380.495 208.736 379.583 207.92C378.695 207.104 378.251 205.472 378.251 203.024V189.776C378.251 187.28 378.695 185.636 379.583 184.844C380.471 184.052 382.319 183.656 385.127 183.656ZM385.163 204.464H385.775C386.183 204.464 386.471 204.392 386.639 204.248C386.831 204.104 386.927 203.792 386.927 203.312V189.488C386.927 189.008 386.831 188.696 386.639 188.552C386.471 188.408 386.183 188.336 385.775 188.336H385.163C384.755 188.336 384.455 188.408 384.263 188.552C384.095 188.696 384.011 189.008 384.011 189.488V203.312C384.011 203.792 384.095 204.104 384.263 204.248C384.455 204.392 384.755 204.464 385.163 204.464ZM227.057 235.733H214.31V222.987H201.99V235.733H189.297V247.413H201.99V260.107H214.31V247.413H227.057V235.733ZM270.119 245.227V219.2H252.786L231.559 245.227V256.427H255.346V264H270.119V256.427H276.893V245.227H270.119ZM244.359 245.227L255.346 231.733V245.227H244.359ZM302.345 265.173C316.852 265.173 325.118 256.907 325.118 241.6C325.118 226.293 316.852 218.027 302.345 218.027C287.838 218.027 279.572 226.293 279.572 241.6C279.572 256.907 287.838 265.173 302.345 265.173ZM302.345 252.747C296.905 252.747 294.132 248.853 294.132 241.6C294.132 234.347 296.905 230.453 302.345 230.453C307.785 230.453 310.558 234.347 310.558 241.6C310.558 248.853 307.785 252.747 302.345 252.747ZM350.033 265.173C364.539 265.173 372.806 256.907 372.806 241.6C372.806 226.293 364.539 218.027 350.033 218.027C335.526 218.027 327.259 226.293 327.259 241.6C327.259 256.907 335.526 265.173 350.033 265.173ZM350.033 252.747C344.593 252.747 341.819 248.853 341.819 241.6C341.819 234.347 344.593 230.453 350.033 230.453C355.473 230.453 358.246 234.347 358.246 241.6C358.246 248.853 355.473 252.747 350.033 252.747ZM393.613 265.547L422.52 221.547L416.333 217.387L387.427 261.387L393.613 265.547ZM388.44 242.4C396.973 242.4 400.6 236.907 400.6 230.453C400.6 224.053 396.973 218.56 388.44 218.56C379.907 218.56 376.28 224.053 376.28 230.453C376.28 236.907 379.907 242.4 388.44 242.4ZM388.44 233.333C386.36 233.333 385.56 231.84 385.56 230.453C385.56 229.013 386.36 227.627 388.44 227.627C390.52 227.627 391.32 229.013 391.32 230.453C391.32 231.84 390.52 233.333 388.44 233.333ZM421.453 264.64C429.987 264.64 433.613 259.147 433.613 252.693C433.613 246.293 429.987 240.8 421.453 240.8C412.92 240.8 409.293 246.293 409.293 252.693C409.293 259.147 412.92 264.64 421.453 264.64ZM421.453 255.573C419.373 255.573 418.573 254.08 418.573 252.693C418.573 251.253 419.373 249.867 421.453 249.867C423.533 249.867 424.333 251.253 424.333 252.693C424.333 254.08 423.533 255.573 421.453 255.573ZM470.807 219.2L478.423 264H470.039L468.631 255.744H459.991L458.647 264H450.199L457.815 219.2H470.807ZM464.087 226.112L460.759 248.128H467.799L464.471 226.112H464.087ZM480.549 264V219.2H493.029C497.381 219.2 500.282 219.861 501.733 221.184C503.183 222.464 503.909 225.045 503.909 228.928V239.744C503.909 243.712 503.183 246.336 501.733 247.616C500.325 248.853 497.423 249.472 493.029 249.472H488.933V264H480.549ZM492.901 226.176H488.933V242.496H492.901C493.754 242.496 494.394 242.368 494.821 242.112C495.247 241.813 495.461 241.173 495.461 240.192V228.544C495.461 227.563 495.247 226.923 494.821 226.624C494.394 226.325 493.754 226.176 492.901 226.176ZM506.611 264V219.2H519.347C523.699 219.2 526.579 219.84 527.987 221.12C529.438 222.4 530.163 225.003 530.163 228.928V235.2C530.163 237.931 529.758 239.829 528.947 240.896C528.179 241.92 526.942 242.517 525.235 242.688C527.07 242.987 528.35 243.712 529.075 244.864C529.8 246.016 530.163 247.979 530.163 250.752V264H521.715V249.664C521.715 247.531 520.883 246.464 519.219 246.464H514.995V264H506.611ZM514.995 226.176V239.68H519.347C520.2 239.68 520.798 239.552 521.139 239.296C521.523 238.997 521.715 238.336 521.715 237.312V228.416C521.715 227.435 521.523 226.816 521.139 226.56C520.755 226.304 520.115 226.176 519.219 226.176H514.995ZM531.175 258.213L532.372 257.7H532.957V263.514H533.848V264H531.463V263.514H532.381V258.267L531.337 258.582L531.175 258.213ZM290.814 302.172V312H285.09V286.8H296.862V291.696H290.814V297.276H296.214V302.172H290.814ZM304.76 286.656H305.444C308.252 286.656 310.1 287.052 310.988 287.844C311.876 288.636 312.32 290.28 312.32 292.776V306.024C312.32 308.496 311.876 310.14 310.988 310.956C310.1 311.748 308.252 312.144 305.444 312.144H304.76C301.976 312.144 300.128 311.736 299.216 310.92C298.328 310.104 297.884 308.472 297.884 306.024V292.776C297.884 290.28 298.328 288.636 299.216 287.844C300.104 287.052 301.952 286.656 304.76 286.656ZM304.796 307.464H305.408C305.816 307.464 306.104 307.392 306.272 307.248C306.464 307.104 306.56 306.792 306.56 306.312V292.488C306.56 292.008 306.464 291.696 306.272 291.552C306.104 291.408 305.816 291.336 305.408 291.336H304.796C304.388 291.336 304.088 291.408 303.896 291.552C303.728 291.696 303.644 292.008 303.644 292.488V306.312C303.644 306.792 303.728 307.104 303.896 307.248C304.088 307.392 304.388 307.464 304.796 307.464ZM313.81 312V286.8H321.298C324.082 286.8 325.906 287.196 326.77 287.988C327.634 288.756 328.066 290.364 328.066 292.812V295.656C328.066 297.336 327.838 298.476 327.382 299.076C326.926 299.676 326.074 300.024 324.826 300.12C326.098 300.288 326.95 300.708 327.382 301.38C327.838 302.028 328.066 303.204 328.066 304.908V312H322.306V304.26C322.306 303.204 321.958 302.652 321.262 302.604H319.57V312H313.81ZM319.57 291.48V298.176H321.298C321.658 298.176 321.91 298.116 322.054 297.996C322.222 297.852 322.306 297.564 322.306 297.132V292.488C322.306 292.08 322.222 291.816 322.054 291.696C321.886 291.552 321.622 291.48 321.262 291.48H319.57ZM336.691 301.596V296.916H340.687C341.311 296.916 341.623 296.568 341.623 295.872V292.452C341.623 292.02 341.527 291.732 341.335 291.588C341.167 291.42 340.891 291.336 340.507 291.336H340.111C339.727 291.336 339.439 291.42 339.247 291.588C339.079 291.732 338.995 292.02 338.995 292.452V294.576H333.631V292.812C333.631 290.244 334.051 288.576 334.891 287.808C335.731 287.04 337.567 286.656 340.399 286.656H341.047C343.543 286.656 345.223 287.064 346.087 287.88C346.951 288.672 347.383 290.316 347.383 292.812V294.504C347.383 296.16 347.155 297.312 346.699 297.96C346.267 298.584 345.415 298.968 344.143 299.112C345.439 299.232 346.303 299.58 346.735 300.156C347.167 300.732 347.383 301.872 347.383 303.576V305.988C347.383 307.14 347.287 308.112 347.095 308.904C346.903 309.672 346.651 310.272 346.339 310.704C346.051 311.136 345.607 311.46 345.007 311.676C344.407 311.892 343.831 312.024 343.279 312.072C342.751 312.12 342.007 312.144 341.047 312.144H340.399C337.567 312.144 335.731 311.76 334.891 310.992C334.051 310.224 333.631 308.556 333.631 305.988V304.152H338.995V306.348C338.995 306.78 339.079 307.08 339.247 307.248C339.439 307.392 339.727 307.464 340.111 307.464H340.507C340.891 307.464 341.167 307.392 341.335 307.248C341.527 307.08 341.623 306.78 341.623 306.348V302.676C341.623 302.292 341.551 302.028 341.407 301.884C341.263 301.716 341.023 301.62 340.687 301.596H336.691ZM355.701 286.656H356.385C359.169 286.656 361.005 287.076 361.893 287.916C362.805 288.756 363.261 290.424 363.261 292.92V305.88C363.261 308.376 362.805 310.044 361.893 310.884C361.005 311.724 359.169 312.144 356.385 312.144H355.701C352.941 312.144 351.105 311.724 350.193 310.884C349.281 310.02 348.825 308.352 348.825 305.88V292.92C348.825 290.424 349.269 288.756 350.157 287.916C351.069 287.076 352.917 286.656 355.701 286.656ZM355.701 307.464H356.385C356.793 307.464 357.081 307.392 357.249 307.248C357.417 307.104 357.501 306.792 357.501 306.312V292.488C357.501 292.008 357.417 291.696 357.249 291.552C357.081 291.408 356.793 291.336 356.385 291.336H355.701C355.293 291.336 355.005 291.408 354.837 291.552C354.669 291.696 354.585 292.008 354.585 292.488V306.312C354.585 306.792 354.669 307.104 354.837 307.248C355.005 307.392 355.293 307.464 355.701 307.464ZM369.463 312V286.8H376.915C379.699 286.8 381.523 287.196 382.387 287.988C383.275 288.78 383.719 290.412 383.719 292.884V305.916C383.719 308.388 383.275 310.02 382.387 310.812C381.523 311.604 379.699 312 376.915 312H369.463ZM376.915 291.48H375.223V307.32H376.915C377.299 307.32 377.575 307.248 377.743 307.104C377.911 306.936 377.995 306.636 377.995 306.204V292.524C377.995 292.092 377.911 291.816 377.743 291.696C377.575 291.552 377.299 291.48 376.915 291.48ZM396.709 286.8L400.309 312H394.585L394.045 307.752H390.337L389.833 312H384.073L387.673 286.8H396.709ZM392.101 291.624L390.733 302.712H393.649L392.245 291.624H392.101ZM403.669 312V302.748L398.557 286.8H404.317L406.513 296.052L408.781 286.8H414.541L409.429 302.748V312H403.669ZM421.302 286.656H421.626C424.458 286.656 426.318 287.064 427.206 287.88C428.094 288.672 428.538 290.316 428.538 292.812V295.368H422.706V292.488C422.706 292.032 422.622 291.732 422.454 291.588C422.286 291.444 422.01 291.372 421.626 291.372H421.302C420.918 291.372 420.642 291.444 420.474 291.588C420.306 291.732 420.222 292.032 420.222 292.488V294C420.222 294.792 420.354 295.32 420.618 295.584C420.882 295.824 421.554 296.136 422.634 296.52L424.83 297.312C425.574 297.576 426.114 297.804 426.45 297.996C426.81 298.164 427.194 298.44 427.602 298.824C428.01 299.184 428.286 299.664 428.43 300.264C428.574 300.84 428.646 301.584 428.646 302.496V305.988C428.646 308.484 428.202 310.14 427.314 310.956C426.426 311.748 424.566 312.144 421.734 312.144H421.302C418.47 312.144 416.61 311.748 415.722 310.956C414.834 310.14 414.39 308.484 414.39 305.988V303.396H420.222V306.312C420.222 306.744 420.306 307.044 420.474 307.212C420.642 307.356 420.918 307.428 421.302 307.428H421.734C422.118 307.428 422.394 307.356 422.562 307.212C422.73 307.044 422.814 306.744 422.814 306.312V304.008C422.814 303.816 422.802 303.648 422.778 303.504C422.778 303.36 422.742 303.24 422.67 303.144C422.598 303.024 422.538 302.928 422.49 302.856C422.466 302.784 422.382 302.712 422.238 302.64C422.094 302.544 421.986 302.484 421.914 302.46C421.842 302.412 421.686 302.34 421.446 302.244C421.206 302.148 421.026 302.076 420.906 302.028L418.458 301.164C417.69 300.852 417.126 300.6 416.766 300.408C416.406 300.216 415.998 299.928 415.542 299.544C415.11 299.136 414.81 298.632 414.642 298.032C414.474 297.432 414.39 296.688 414.39 295.8V292.812C414.39 290.316 414.834 288.672 415.722 287.88C416.61 287.064 418.47 286.656 421.302 286.656ZM431.233 304.224L429.901 293.892V286.8H435.337V293.892L434.005 304.224H431.233ZM430.189 312V306.384H435.049V312H430.189Z" fill="black"/>
<path d="M77.4365 138H122.616V121.56H97.1765V87.6H77.4365V138ZM167.102 138H187.442L169.562 87.6H141.962L124.082 138H144.422L146.102 132.54H165.482L167.102 138ZM150.482 118.08L154.142 106.02H157.442L161.102 118.08H150.482ZM212.315 139.68C230.855 139.68 239.615 132.24 239.615 115.2V87.6H219.935V114.9C219.935 119.94 217.835 123.18 212.315 123.18C206.795 123.18 204.875 119.94 204.875 114.9V87.6H185.015V115.38C185.015 132.24 193.775 139.68 212.315 139.68ZM243.233 138H262.433V115.2H264.233L277.013 138H299.033V87.6H279.833V110.4H278.093L265.793 87.6H243.233V138ZM330.547 139.68C343.807 139.68 357.127 133.92 358.267 115.26H339.547C338.647 120.3 335.467 122.7 330.547 122.7C325.507 122.7 321.367 119.04 321.367 112.8C321.367 106.56 325.507 102.9 330.547 102.9C335.467 102.9 338.647 105.24 339.547 110.16H358.267C357.127 91.62 343.687 85.92 330.547 85.92C313.147 85.92 301.747 96.42 301.747 112.8C301.747 129.12 313.147 139.68 330.547 139.68ZM396.576 87.6V104.52H380.676V87.6H360.936V138H380.676V121.08H396.576V138H416.316V87.6H396.576ZM419.929 138H439.669V128.58H450.169C464.029 128.58 472.729 122.64 472.729 108.06C472.729 93.48 464.029 87.6 450.049 87.6H419.929V138ZM439.669 112.26V103.92H448.309C450.949 103.92 452.809 105.3 452.809 108.06C452.809 110.82 450.949 112.26 448.189 112.26H439.669ZM504.017 139.68C521.897 139.68 533.117 129.12 533.117 112.8C533.117 96.42 521.897 85.92 504.017 85.92C486.077 85.92 474.857 96.42 474.857 112.8C474.857 129.12 486.077 139.68 504.017 139.68ZM504.017 122.7C498.977 122.7 494.477 119.46 494.477 112.8C494.477 106.08 498.977 102.9 504.017 102.9C508.997 102.9 513.557 106.08 513.557 112.8C513.557 119.46 508.997 122.7 504.017 122.7ZM564.837 139.68C582.717 139.68 593.937 129.12 593.937 112.8C593.937 96.42 582.717 85.92 564.837 85.92C546.897 85.92 535.677 96.42 535.677 112.8C535.677 129.12 546.897 139.68 564.837 139.68ZM564.837 122.7C559.797 122.7 555.297 119.46 555.297 112.8C555.297 106.08 559.797 102.9 564.837 102.9C569.817 102.9 574.377 106.08 574.377 112.8C574.377 119.46 569.817 122.7 564.837 122.7ZM596.624 138H641.804V121.56H616.364V87.6H596.624V138Z" fill="black"/>
<line x1="0.269287" y1="66.5" x2="720.269" y2="66.5" stroke="black"/>
<path d="M277.863 58V13.2H291.047C295.954 13.2 299.175 13.9253 300.711 15.376C302.29 16.784 303.079 19.6213 303.079 23.888V33.424C303.079 37.776 302.311 40.656 300.775 42.064C299.239 43.4293 295.997 44.112 291.047 44.112H288.103V58H277.863ZM290.983 21.52H288.103V35.792H290.983C291.623 35.792 292.093 35.6853 292.391 35.472C292.69 35.216 292.839 34.7253 292.839 34V23.376C292.839 22.6507 292.69 22.16 292.391 21.904C292.093 21.648 291.623 21.52 290.983 21.52ZM305.051 58V13.2H318.363C323.312 13.2 326.555 13.904 328.091 15.312C329.627 16.6773 330.395 19.536 330.395 23.888V28.944C330.395 31.9307 329.989 33.9573 329.179 35.024C328.368 36.0907 326.853 36.7093 324.635 36.88C326.896 37.1787 328.411 37.9253 329.179 39.12C329.989 40.272 330.395 42.3627 330.395 45.392V58H320.155V44.24C320.155 42.3627 319.536 41.3813 318.299 41.296H315.291V58H305.051ZM315.291 21.52V33.424H318.363C319.003 33.424 319.451 33.3173 319.707 33.104C320.005 32.848 320.155 32.336 320.155 31.568V23.312C320.155 22.5867 320.005 22.1173 319.707 21.904C319.408 21.648 318.939 21.52 318.299 21.52H315.291ZM342.856 39.44V49.296H353.928V58H332.68V13.2H353.928V21.904H342.856V30.736H352.776V39.44H342.856ZM355.79 42.704V34.768H372.878V42.704H355.79ZM375.305 58V13.2H385.481V58H375.305ZM388.363 58V13.2H401.611C406.561 13.2 409.803 13.904 411.339 15.312C412.918 16.72 413.707 19.6213 413.707 24.016V47.184C413.707 51.5787 412.918 54.48 411.339 55.888C409.803 57.296 406.561 58 401.611 58H388.363ZM401.611 21.52H398.603V49.68H401.611C402.294 49.68 402.785 49.552 403.083 49.296C403.382 48.9973 403.531 48.464 403.531 47.696V23.376C403.531 22.608 403.382 22.1173 403.083 21.904C402.785 21.648 402.294 21.52 401.611 21.52ZM428.273 12.944H429.489C434.481 12.944 437.767 13.648 439.345 15.056C440.924 16.464 441.713 19.3867 441.713 23.824V47.376C441.713 51.7707 440.924 54.6933 439.345 56.144C437.767 57.552 434.481 58.256 429.489 58.256H428.273C423.324 58.256 420.039 57.5307 418.417 56.08C416.839 54.6293 416.049 51.728 416.049 47.376V23.824C416.049 19.3867 416.839 16.464 418.417 15.056C419.996 13.648 423.281 12.944 428.273 12.944ZM428.337 49.936H429.425C430.151 49.936 430.663 49.808 430.961 49.552C431.303 49.296 431.473 48.7413 431.473 47.888V23.312C431.473 22.4587 431.303 21.904 430.961 21.648C430.663 21.392 430.151 21.264 429.425 21.264H428.337C427.612 21.264 427.079 21.392 426.737 21.648C426.439 21.904 426.289 22.4587 426.289 23.312V47.888C426.289 48.7413 426.439 49.296 426.737 49.552C427.079 49.808 427.612 49.936 428.337 49.936Z" fill="black"/>
</svg>
