<svg width="519" height="223" viewBox="0 0 519 223" fill="none" xmlns="http://www.w3.org/2000/svg">
<path d="M381.632 136.136C380.805 136.09 380.097 136.723 380.052 137.551L379.308 151.03C379.262 151.857 379.896 152.565 380.723 152.611C381.55 152.656 382.257 152.023 382.303 151.196L382.965 139.214L394.946 139.875C395.773 139.921 396.481 139.287 396.527 138.46C396.572 137.633 395.939 136.925 395.112 136.88L381.632 136.136ZM457.377 220.074L382.667 136.633L380.432 138.634L455.142 222.075L457.377 220.074Z" fill="black"/>
<path d="M408.997 49.7026C408.841 50.5162 409.373 51.3024 410.187 51.4586L423.445 54.0049C424.258 54.1611 425.044 53.6283 425.201 52.8147C425.357 52.0012 424.824 51.215 424.011 51.0587L412.226 48.7954L414.489 37.0108C414.646 36.1972 414.113 35.411 413.299 35.2548C412.486 35.0985 411.699 35.6314 411.543 36.4449L408.997 49.7026ZM480.428 0.758323L409.628 48.7439L411.311 51.2272L482.111 3.24168L480.428 0.758323Z" fill="black"/>
<path d="M120.649 77.957C121.406 77.62 121.746 76.7333 121.409 75.9766L115.918 63.6439C115.581 62.8871 114.694 62.5468 113.938 62.8837C113.181 63.2207 112.84 64.1074 113.177 64.8642L118.059 75.8266L107.096 80.7078C106.339 81.0448 105.999 81.9314 106.336 82.6882C106.673 83.445 107.56 83.7854 108.317 83.4484L120.649 77.957ZM0.731784 32.4004L119.502 77.9871L120.577 75.1863L1.80679 29.5996L0.731784 32.4004Z" fill="black"/>
<line x1="106.448" y1="7.07216" x2="143.448" y2="54.0722" stroke="black" stroke-width="3"/>
<line x1="96.2521" y1="156.973" x2="132.1" y2="123.898" stroke="black" stroke-width="3"/>
<line x1="423.921" y1="119.649" x2="467.857" y2="140.831" stroke="black" stroke-width="3"/>
<line x1="426.098" y1="86.0833" x2="518.098" y2="75.5098" stroke="black" stroke-width="3"/>
<line x1="11.9777" y1="123.529" x2="117.941" y2="102.529" stroke="black" stroke-width="3"/>
</svg>
