<svg width="229" height="151" viewBox="0 0 229 151" fill="none" xmlns="http://www.w3.org/2000/svg">
<rect x="0.810962" y="19.422" width="129" height="129" transform="rotate(-5 0.810962 19.422)" fill="#007EFC" stroke="black"/>
<rect x="10.1366" y="126.015" width="129" height="22" transform="rotate(-5 10.1366 126.015)" fill="#FDCB02" stroke="black"/>
<rect x="0.810962" y="19.422" width="9" height="129" transform="rotate(-5 0.810962 19.422)" fill="#123CB1" stroke="black"/>
<path d="M29.9529 142.852L28.6718 128.208L31.4123 127.968L32.4885 140.269L35.9821 139.963L36.1871 142.306L29.9529 142.852ZM36.9185 142.242L35.6373 127.598L39.7167 127.241C41.1393 127.117 42.1066 127.25 42.6186 127.641C43.1294 128.018 43.4403 128.841 43.5514 130.11L43.8607 133.646C43.9742 134.943 43.8121 135.821 43.3745 136.281C42.9497 136.726 42.019 137.011 40.5825 137.137L39.2436 137.254L39.659 142.003L36.9185 142.242ZM39.8744 129.525L38.5774 129.639L39.0441 134.973L40.3411 134.86C40.6201 134.836 40.8256 134.775 40.9577 134.68C41.0887 134.57 41.1401 134.354 41.112 134.034L40.7789 130.226C40.7509 129.905 40.6628 129.702 40.5148 129.617C40.3668 129.531 40.1533 129.501 39.8744 129.525ZM44.731 136.31L44.5424 134.155L49.9189 133.685L50.1074 135.84L44.731 136.31ZM50.2028 126.324L52.9642 126.082L53.969 137.568C54.0044 137.972 54.0834 138.232 54.206 138.348C54.3273 138.45 54.5414 138.487 54.8482 138.46L55.6432 138.391C55.95 138.364 56.1543 138.29 56.2561 138.168C56.3567 138.033 56.3893 137.763 56.3539 137.359L55.3491 125.874L58.0896 125.634L59.0853 137.014C59.2037 138.367 59.0313 139.289 58.5683 139.779C58.118 140.254 57.1606 140.556 55.6962 140.684L55.1732 140.73C53.7088 140.858 52.7067 140.728 52.1667 140.339C51.6396 139.936 51.3168 139.057 51.1984 137.705L50.2028 126.324ZM62.8446 125.134L63.1375 125.108C64.6158 124.979 65.6186 125.116 66.1458 125.519C66.6717 125.909 66.9939 126.78 67.1122 128.133L67.2587 129.807L64.5181 130.046L64.3552 128.185C64.3223 127.808 64.2248 127.578 64.0629 127.493C63.9137 127.394 63.6717 127.359 63.337 127.388L63.0441 127.414C62.7094 127.443 62.4702 127.52 62.3265 127.645C62.1956 127.755 62.1466 127.998 62.1796 128.375L62.2802 129.526C62.3217 130 62.4335 130.313 62.6155 130.466C62.8114 130.617 63.2336 130.784 63.8819 130.966L65.3047 131.327C65.7365 131.444 66.0468 131.536 66.2354 131.604C66.424 131.672 66.646 131.8 66.9014 131.988C67.1568 132.177 67.341 132.435 67.454 132.762C67.5797 133.074 67.6645 133.481 67.7084 133.983L67.9061 136.243C68.0244 137.596 67.8521 138.517 67.3891 139.007C66.9387 139.482 65.9814 139.784 64.517 139.912L64.1404 139.945C62.6621 140.074 61.6599 139.944 61.1339 139.555C60.6068 139.151 60.284 138.273 60.1656 136.92L60.0156 135.205L62.7561 134.965L62.9208 136.848C62.955 137.238 63.0467 137.483 63.1959 137.582C63.3579 137.667 63.6062 137.694 63.9409 137.665L64.3175 137.632C64.5406 137.612 64.7068 137.584 64.8159 137.546C64.939 137.507 65.0363 137.414 65.1077 137.268C65.1792 137.121 65.2034 136.915 65.1802 136.65L65.0283 134.914C65.0148 134.76 64.9893 134.629 64.9517 134.52C64.914 134.411 64.8788 134.329 64.846 134.276C64.812 134.209 64.7362 134.145 64.6185 134.085C64.5148 134.024 64.4338 133.982 64.3756 133.959C64.3313 133.935 64.2155 133.896 64.028 133.842C63.8534 133.773 63.7299 133.727 63.6578 133.705L62.1267 133.312C61.6936 133.182 61.3752 133.076 61.1714 132.995C60.9676 132.915 60.7311 132.781 60.4617 132.594C60.1924 132.406 59.9942 132.15 59.8673 131.824C59.7404 131.497 59.6556 131.09 59.6129 130.602L59.4555 128.803C59.3371 127.45 59.5031 126.536 59.9534 126.061C60.4165 125.571 61.3802 125.262 62.8446 125.134ZM69.1976 139.418L67.9164 124.774L72.0376 124.414C73.4741 124.288 74.4484 124.421 74.9604 124.811C75.4864 125.201 75.8067 126.051 75.9214 127.362L76.6315 135.479C76.7462 136.79 76.5784 137.683 76.1281 138.158C75.6918 138.632 74.7553 138.932 73.3188 139.058L69.1976 139.418ZM72.2371 126.694L70.8773 126.813L71.7386 136.898L73.1193 136.777C73.4122 136.752 73.6235 136.677 73.7532 136.553C73.8829 136.43 73.9325 136.193 73.902 135.845L73.1644 127.414C73.1351 127.079 73.0465 126.869 72.8985 126.784C72.7644 126.697 72.544 126.667 72.2371 126.694ZM81.6983 125.929L82.7745 138.23L80.0131 138.472L78.9369 126.171L76.3428 126.398L76.1378 124.055L84.0874 123.359L84.2924 125.703L81.6983 125.929ZM84.7791 138.772L86.4395 122.332L88.0922 122.187L86.4108 138.629L84.7791 138.772ZM88.7235 122.954L91.5059 122.71L93.41 133.632L93.4309 133.63L93.7443 122.515L96.6313 122.262L98.8492 133.156L98.8702 133.154L98.8488 122.068L101.652 121.823L101.406 136.6L97.1385 136.974L95.7497 128.811L95.7288 128.813L95.7787 137.093L91.5319 137.464L88.7235 122.954ZM103.663 136.403L102.381 121.759L106.314 121.415C107.765 121.288 108.746 121.42 109.258 121.811C109.783 122.186 110.103 123.037 110.219 124.362L110.342 125.763C110.419 126.642 110.354 127.273 110.149 127.656C109.956 128.025 109.578 128.276 109.013 128.409C109.619 128.427 110.049 128.6 110.302 128.929C110.57 129.257 110.743 129.867 110.821 130.76L110.971 132.475C111.026 133.103 111.029 133.615 110.979 134.013C110.942 134.396 110.865 134.719 110.748 134.982C110.643 135.23 110.435 135.424 110.124 135.564C109.813 135.703 109.485 135.809 109.14 135.882C108.794 135.94 108.293 135.998 107.637 136.055L103.663 136.403ZM105.847 129.804L106.204 133.883L107.438 133.775C107.731 133.749 107.943 133.682 108.074 133.572C108.203 133.448 108.253 133.212 108.222 132.863L108.012 130.457C107.983 130.123 107.886 129.906 107.723 129.808C107.574 129.709 107.346 129.672 107.039 129.699L105.847 129.804ZM105.321 123.799L105.66 127.67L106.915 127.56C107.194 127.535 107.392 127.462 107.507 127.339C107.623 127.217 107.666 126.988 107.637 126.654L107.445 124.457C107.416 124.122 107.326 123.905 107.177 123.806C107.028 123.706 106.807 123.67 106.514 123.695L105.321 123.799ZM111.147 120.992L113.908 120.75L117.146 128.604L117.167 128.602L116.46 120.527L119.034 120.302L120.315 134.946L117.449 135.197L114.455 127.722L114.434 127.724L115.106 135.402L112.428 135.636L111.147 120.992ZM121.559 134.837L120.278 120.193L124.211 119.849C125.661 119.722 126.643 119.854 127.155 120.245C127.679 120.621 128 121.471 128.116 122.796L128.238 124.198C128.315 125.076 128.251 125.707 128.045 126.091C127.853 126.459 127.474 126.71 126.91 126.844C127.516 126.861 127.945 127.034 128.199 127.363C128.467 127.691 128.639 128.301 128.717 129.194L128.868 130.909C128.922 131.537 128.925 132.05 128.876 132.447C128.839 132.83 128.762 133.153 128.644 133.416C128.539 133.664 128.332 133.858 128.021 133.998C127.709 134.138 127.381 134.244 127.036 134.316C126.69 134.374 126.189 134.432 125.534 134.49L121.559 134.837ZM123.743 128.238L124.1 132.317L125.334 132.209C125.627 132.184 125.839 132.116 125.97 132.006C126.1 131.882 126.149 131.646 126.119 131.297L125.908 128.892C125.879 128.557 125.783 128.34 125.62 128.242C125.471 128.143 125.242 128.107 124.936 128.133L123.743 128.238ZM123.218 122.234L123.557 126.104L124.812 125.994C125.091 125.97 125.288 125.896 125.404 125.774C125.52 125.651 125.563 125.422 125.533 125.088L125.341 122.891C125.312 122.556 125.223 122.339 125.074 122.24C124.924 122.141 124.703 122.104 124.41 122.129L123.218 122.234Z" fill="black"/>
<path d="M66.8988 75.7302L79.5381 74.6244L79.1857 70.5973L71.3756 71.2806L70.4467 60.6636L65.6176 61.0861L66.8988 75.7302ZM82.8422 74.3353L87.6713 73.9128L87.3906 70.7051L90.8948 70.3985C94.8696 70.0508 97.0849 68.0651 96.7402 64.1252C96.3955 60.1852 93.869 58.6144 89.8768 58.9637L81.561 59.6913L82.8422 74.3353ZM87.0398 66.6954L86.7409 63.2785L89.8266 63.0085C90.9772 62.9078 91.7772 63.4175 91.8763 64.5507C91.9755 65.6839 91.2762 66.3248 90.1081 66.427L87.0398 66.6954Z" fill="white"/>
<path d="M66.8988 75.7302L65.9026 75.8173L65.9898 76.8135L66.986 76.7264L66.8988 75.7302ZM79.5381 74.6244L79.6252 75.6206L80.6214 75.5334L80.5343 74.5372L79.5381 74.6244ZM79.1857 70.5973L80.1819 70.5101L80.0948 69.5139L79.0986 69.6011L79.1857 70.5973ZM71.3756 71.2806L70.3794 71.3677L70.4665 72.3639L71.4627 72.2768L71.3756 71.2806ZM70.4467 60.6636L71.4429 60.5765L71.3557 59.5803L70.3595 59.6674L70.4467 60.6636ZM65.6176 61.0861L65.5305 60.0899L64.5343 60.1771L64.6215 61.1733L65.6176 61.0861ZM66.986 76.7264L79.6252 75.6206L79.4509 73.6282L66.8117 74.734L66.986 76.7264ZM80.5343 74.5372L80.1819 70.5101L78.1895 70.6844L78.5419 74.7116L80.5343 74.5372ZM79.0986 69.6011L71.2884 70.2844L71.4627 72.2768L79.2729 71.5935L79.0986 69.6011ZM72.3718 71.1934L71.4429 60.5765L69.4505 60.7508L70.3794 71.3677L72.3718 71.1934ZM70.3595 59.6674L65.5305 60.0899L65.7048 62.0823L70.5339 61.6598L70.3595 59.6674ZM64.6215 61.1733L65.9026 75.8173L67.895 75.643L66.6138 60.999L64.6215 61.1733ZM82.8422 74.3353L81.846 74.4225L81.9332 75.4187L82.9294 75.3315L82.8422 74.3353ZM87.6713 73.9128L87.7584 74.909L88.7546 74.8219L88.6675 73.8257L87.6713 73.9128ZM87.3906 70.7051L87.3035 69.7089L86.3073 69.796L86.3945 70.7922L87.3906 70.7051ZM81.561 59.6913L81.4739 58.6951L80.4777 58.7822L80.5648 59.7784L81.561 59.6913ZM87.0398 66.6954L86.0436 66.7826L86.1308 67.7788L87.127 67.6916L87.0398 66.6954ZM86.7409 63.2785L86.6537 62.2823L85.6575 62.3694L85.7447 63.3656L86.7409 63.2785ZM82.9294 75.3315L87.7584 74.909L87.5841 72.9166L82.7551 73.3391L82.9294 75.3315ZM88.6675 73.8257L88.3868 70.6179L86.3945 70.7922L86.6751 74L88.6675 73.8257ZM87.4778 71.7013L90.9819 71.3947L90.8076 69.4023L87.3035 69.7089L87.4778 71.7013ZM90.9819 71.3947C93.0978 71.2096 94.9146 70.5762 96.153 69.3074C97.4165 68.0128 97.9268 66.214 97.7364 64.038L95.7441 64.2123C95.8984 65.9763 95.4733 67.1403 94.7217 67.9104C93.9448 68.7064 92.6665 69.2397 90.8076 69.4023L90.9819 71.3947ZM97.7364 64.038C97.5461 61.862 96.7311 60.1787 95.259 59.1233C93.8168 58.0893 91.9133 57.7817 89.7896 57.9675L89.9639 59.9599C91.8325 59.7964 93.1884 60.0997 94.0937 60.7487C94.9691 61.3764 95.5897 62.4484 95.7441 64.2123L97.7364 64.038ZM89.7896 57.9675L81.4739 58.6951L81.6482 60.6875L89.9639 59.9599L89.7896 57.9675ZM80.5648 59.7784L81.846 74.4225L83.8384 74.2482L82.5572 59.6041L80.5648 59.7784ZM88.036 66.6082L87.7371 63.1913L85.7447 63.3656L86.0436 66.7826L88.036 66.6082ZM86.8281 64.2746L89.9138 64.0047L89.7395 62.0123L86.6537 62.2823L86.8281 64.2746ZM89.9138 64.0047C90.336 63.9677 90.5597 64.0552 90.6614 64.1284C90.7388 64.1842 90.8509 64.3043 90.8801 64.6379L92.8725 64.4636C92.8026 63.664 92.4651 62.9627 91.8301 62.5054C91.2194 62.0657 90.4678 61.9486 89.7395 62.0123L89.9138 64.0047ZM90.8801 64.6379C90.9093 64.9712 90.8199 65.1075 90.7533 65.1754C90.6647 65.2659 90.4552 65.3928 90.021 65.4308L90.1953 67.4232C90.9291 67.359 91.6533 67.1143 92.1815 66.5755C92.7318 66.0141 92.9425 65.2634 92.8725 64.4636L90.8801 64.6379ZM90.021 65.4308L86.9527 65.6992L87.127 67.6916L90.1953 67.4232L90.021 65.4308Z" fill="black"/>
<circle cx="47.615" cy="94.4071" r="22" fill="white" stroke="black"/>
<path d="M40.2134 91.7683L46.3932 84.4068L53.7606 90.5886L57.354 86.3033L45.7036 76.5252L35.928 88.1751L40.2134 91.7683Z" fill="#F3BA2F"/>
<path d="M33.3895 91.2008L29.7947 95.4848L34.0788 99.0795L37.6736 94.7955L33.3895 91.2008Z" fill="#F3BA2F"/>
<path d="M40.7003 97.3339L48.0648 103.513L54.2468 96.1459L58.532 99.7364L58.5295 99.7394L48.7541 111.392L37.1042 101.619L37.0982 101.614L40.7003 97.3339Z" fill="#F3BA2F"/>
<path d="M60.3773 88.8407L56.7825 93.1247L61.0666 96.7194L64.6614 92.4354L60.3773 88.8407Z" fill="#F3BA2F"/>
<path d="M51.2248 93.6076L46.8789 89.9586L44.1825 93.172L43.8706 93.5406L43.2323 94.3013L43.2273 94.3073L43.2335 94.3151L47.5789 97.9586L51.225 93.6104L51.2275 93.6074L51.2248 93.6076Z" fill="#F3BA2F"/>
<circle cx="43.6763" cy="46.4072" r="22" fill="white" stroke="black"/>
<path fill-rule="evenodd" clip-rule="evenodd" d="M30.8941 33.7352L25.5196 48.1421C25.4991 48.1957 25.4962 48.2545 25.5115 48.3099C25.5268 48.3652 25.5593 48.4143 25.6045 48.4498L44.8785 63.9346C44.9332 63.9786 45.0029 63.9997 45.0729 63.9936C45.1429 63.9875 45.2078 63.9546 45.254 63.9017L61.5464 45.3064C61.5847 45.2635 61.6083 45.2096 61.6137 45.1524C61.6191 45.0952 61.6061 45.0378 61.5765 44.9886L53.782 31.7339C53.7567 31.6893 53.7191 31.6529 53.6736 31.6291C53.6282 31.6054 53.5769 31.5952 53.5258 31.5998L31.1253 33.5596C31.0739 33.5634 31.0248 33.582 30.9837 33.6132C30.9427 33.6444 30.9116 33.6868 30.8941 33.7352Z" fill="#50AF95"/>
<path fill-rule="evenodd" clip-rule="evenodd" d="M46.0513 47.781C45.9245 47.8017 45.2683 47.8988 43.7969 48.0275C42.6266 48.1299 41.7926 48.1675 41.4999 48.1792C36.9598 48.3759 33.5152 47.884 33.4327 46.9413C33.3503 45.9987 36.6572 44.9171 41.1622 44.3193L41.4313 47.3951C41.7289 47.3905 42.5802 47.3664 43.7505 47.264C45.1548 47.1411 45.853 47.0211 45.9785 46.9983L45.7095 43.9236C50.2402 43.7299 53.6774 44.2225 53.7597 45.163C53.842 46.1034 50.5436 47.1853 46.0469 47.7803L46.0513 47.781ZM45.686 43.6051L45.4452 40.8528L51.7435 40.3018L51.3763 36.1047L34.2283 37.6049L34.5955 41.8021L40.8927 41.2511L41.1334 44.0024C36.0355 44.6853 32.275 46.036 32.3813 47.2509C32.4876 48.4659 36.4255 49.142 41.5646 48.9304L42.3362 57.7501L46.8876 57.352L46.1157 48.529C51.2018 47.8471 54.956 46.498 54.8498 45.2841C54.7436 44.0702 50.8154 43.3933 45.6848 43.6042L45.686 43.6051Z" fill="white"/>
<circle cx="162.961" cy="69.9821" r="59.5" transform="rotate(-5 162.961 69.9821)" fill="white" stroke="black"/>
<path d="M141.678 27.0432L144.499 26.7964L144.361 25.2184L149.717 24.7499L149.836 26.1127L152.681 25.8638L152.562 24.501L157.607 24.0596L157.383 21.5014L152.338 21.9428L152.194 20.2931L149.349 20.542L149.493 22.1917L144.137 22.6602L143.993 21.0105L141.172 21.2573L141.316 22.907L136.2 23.3547L136.424 25.9129L141.54 25.4653L141.678 27.0432ZM142.425 27.0501C142.081 27.514 141.688 27.982 141.247 28.4542C140.576 27.9347 139.836 27.4694 138.932 27.0426L137.218 28.6621C138.099 29.091 138.816 29.5823 139.438 30.082C138.445 30.8435 137.4 31.5613 136.316 32.1139C136.907 32.544 137.746 33.3138 138.178 33.8542C139.141 33.2882 140.121 32.6483 141.046 31.9409C141.299 32.3525 141.526 32.7422 141.685 33.186C140.724 34.8602 138.625 36.7543 136.803 37.6846C137.423 38.1604 138.193 38.9844 138.633 39.5964C139.857 38.7184 141.26 37.4151 142.373 36.0891L142.394 36.3282C142.584 38.5039 142.499 40.005 142.051 40.6706C141.881 40.9264 141.724 41.0606 141.367 41.1159C140.895 41.2294 140.011 41.3068 138.833 41.3376C139.372 41.9891 139.716 42.8985 139.811 43.7093C140.963 43.6568 141.894 43.5513 142.785 43.2805C143.349 43.1108 143.804 42.8059 144.127 42.3681C145.1 41.1025 145.245 38.8975 145.015 36.2675C144.829 34.1397 144.405 32.0566 143.038 30.2007C143.703 29.5402 144.318 28.86 144.834 28.1404L142.425 27.0501ZM158.254 32.2905L158.024 29.6605L155.633 29.8697L157.248 28.4998C156.647 27.6851 155.349 26.6181 154.228 25.9212L152.432 27.4274C153.41 28.1369 154.532 29.1228 155.155 29.9115L152.43 30.15L152.421 30.0544L152.099 26.3724L149.445 26.6046L149.765 30.2626L149.776 30.3822L144.851 30.8131L145.081 33.443L149.791 33.031C149.571 35.7485 148.493 38.8542 144.953 41.6213C145.686 42.0149 146.688 42.7223 147.218 43.2782C149.902 41.1883 151.281 38.7789 151.941 36.4084C153.334 39.1053 155.198 41.1346 157.797 42.2081C158.115 41.4335 158.836 40.3103 159.387 39.7321C156.262 38.7046 154.178 36.0922 152.899 32.759L158.254 32.2905ZM177.565 21.9762L171.349 22.5201L171.244 21.3246L177.46 20.7808L177.565 21.9762ZM177.837 25.0843L171.621 25.6282L171.512 24.3849L177.728 23.8411L177.837 25.0843ZM180.156 18.5453L168.321 19.5808L169.045 27.8532L180.88 26.8178L180.156 18.5453ZM164.15 19.2711C163.286 20.9608 161.352 23.0815 159.587 24.3923C160.07 24.9523 160.866 26.0632 161.209 26.6836C163.329 25.0286 165.563 22.4722 166.948 20.1345L164.15 19.2711ZM165.228 24.4288C164.046 26.8932 161.906 29.4173 159.908 31.0858C160.399 31.7415 161.258 33.3045 161.528 33.9073C162.197 33.2947 162.856 32.5625 163.51 31.7825L164.378 41.7046L167.128 41.464L165.992 28.4816C166.693 27.4084 167.322 26.3415 167.808 25.2872L165.228 24.4288ZM182.561 31.4408L179.309 31.7253L179.19 30.3625L181.963 30.1198L181.761 27.8007L167.917 29.0118L168.12 31.331L176.297 30.6156L176.416 31.9784L167.666 32.744L167.877 35.1587L171.224 34.8659L169.557 36.1922C170.65 37.1085 171.992 38.4124 172.598 39.275L174.594 37.5825C173.923 36.798 172.643 35.6573 171.607 34.8324L176.628 34.3932L176.918 37.7165C176.941 37.9795 176.854 38.0835 176.521 38.1367C176.211 38.1638 175.087 38.2622 174.079 38.3022C174.5 38.9881 174.998 40.0045 175.185 40.7591C176.811 40.6169 178.006 40.5123 178.855 40.0285C179.752 39.5404 179.933 38.8501 179.818 37.5351L179.521 34.1401L182.796 33.8535L182.561 31.4408Z" fill="black"/>
<line x1="147.053" y1="48.7879" x2="176.939" y2="46.1732" stroke="black"/>
<path d="M128.101 74.4775L126.825 59.8932L117.112 60.743L106.493 76.3679L107.042 82.6439L120.371 81.4778L120.743 85.7216L129.021 84.9973L128.65 80.7535L132.445 80.4214L131.896 74.1454L128.101 74.4775ZM113.666 75.7404L119.161 67.6406L119.822 75.2017L113.666 75.7404ZM147.137 84.0749C155.266 83.3637 159.493 78.3261 158.742 69.7489C157.992 61.1717 152.954 56.9446 144.825 57.6558C136.696 58.367 132.469 63.4046 133.22 71.9818C133.97 80.5591 139.008 84.7861 147.137 84.0749ZM146.527 77.1115C143.479 77.3782 141.734 75.3325 141.378 71.268C141.023 67.2036 142.386 64.8859 145.434 64.6192C148.483 64.3525 150.228 66.3982 150.583 70.4627C150.939 74.5272 149.576 76.8448 146.527 77.1115ZM182.175 69.7466L180.899 55.1623L171.186 56.012L160.568 71.637L161.117 77.913L174.446 76.7468L174.817 80.9906L183.096 80.2664L182.724 76.0226L186.52 75.6905L185.971 69.4145L182.175 69.7466ZM167.74 71.0094L173.235 62.9097L173.897 70.4708L167.74 71.0094ZM198.928 79.7545L212.969 53.6815L209.299 51.6537L195.258 77.7267L198.928 79.7545ZM194.895 67.0377C199.676 66.6193 201.439 63.3633 201.123 59.7471C200.809 56.1608 198.508 53.2604 193.726 53.6787C188.944 54.0971 187.181 57.3531 187.495 60.9394C187.811 64.5556 190.113 67.456 194.895 67.0377ZM194.45 61.9571C193.285 62.0591 192.763 61.2615 192.695 60.4844C192.625 59.6775 193.005 58.8613 194.17 58.7593C195.336 58.6573 195.852 59.3951 195.923 60.2021C195.991 60.9791 195.616 61.8551 194.45 61.9571ZM214.484 77.8816C219.266 77.4632 221.029 74.2072 220.713 70.591C220.399 67.0047 218.097 64.1043 213.316 64.5226C208.534 64.941 206.771 68.197 207.085 71.7833C207.401 75.3995 209.703 78.2999 214.484 77.8816ZM214.04 72.801C212.874 72.903 212.353 72.1054 212.285 71.3284C212.214 70.5214 212.595 69.7052 213.76 69.6032C214.926 69.5012 215.442 70.2391 215.512 71.046C215.58 71.823 215.205 72.699 214.04 72.801Z" fill="black"/>
<path d="M153.208 112.996L158.906 112.497L151.285 96.2998L143.555 96.9762L138.863 114.251L144.561 113.752L145.105 111.476L152.277 110.849L153.208 112.996ZM146.102 107.273L147.395 101.86L148.351 101.776L150.565 106.883L146.102 107.273ZM159.703 112.428L165.222 111.945L164.901 108.279L168.906 107.928C173.449 107.531 175.981 105.262 175.587 100.759C175.193 96.256 172.305 94.4608 167.743 94.86L158.239 95.6915L159.703 112.428ZM164.501 103.696L164.159 99.7911L167.685 99.4826C169 99.3676 169.915 99.9501 170.028 101.245C170.141 102.54 169.342 103.273 168.007 103.389L164.501 103.696ZM195.075 109.333L191.605 104.095C192.933 102.975 193.809 101.293 193.613 99.0412C193.227 94.638 190.443 92.874 185.801 93.2801L176.217 94.1186L177.682 110.855L183.2 110.372L182.822 106.048L187.006 105.682L189.656 109.807L195.075 109.333ZM182.137 98.2182L185.823 97.8958C187.218 97.7737 187.994 98.3884 188.097 99.5639C188.2 100.739 187.542 101.48 186.147 101.602L182.461 101.924L182.137 98.2182Z" fill="black"/>
</svg>
