<svg width="271" height="226" viewBox="0 0 271 226" fill="none" xmlns="http://www.w3.org/2000/svg">
<g filter="url(#filter0_d)">
<rect x="0.810962" y="22.9111" width="152.914" height="152.914" transform="rotate(-5 0.810962 22.9111)" fill="#007EFC" stroke="black"/>
<rect x="11.8522" y="149.112" width="152.914" height="26.231" transform="rotate(-5 11.8522 149.112)" fill="#FDCB02" stroke="black"/>
<rect x="0.810962" y="22.9111" width="10.8396" height="152.914" transform="rotate(-5 0.810962 22.9111)" fill="#123CB1" stroke="black"/>
</g>
<path d="M81.6039 84.1619L94.2431 83.0561L93.8908 79.029L86.0806 79.7123L85.1518 69.0953L80.3227 69.5178L81.6039 84.1619ZM97.5473 82.767L102.376 82.3445L102.096 79.1368L105.6 78.8302C109.575 78.4825 111.79 76.4968 111.445 72.5569C111.101 68.6169 108.574 67.0461 104.582 67.3954L96.2661 68.123L97.5473 82.767ZM101.745 75.1271L101.446 71.7102L104.532 71.4402C105.682 71.3395 106.482 71.8492 106.581 72.9824C106.681 74.1156 105.981 74.7565 104.813 74.8587L101.745 75.1271Z" fill="white"/>
<path d="M81.6039 84.1619L80.6077 84.249L80.6949 85.2452L81.6911 85.1581L81.6039 84.1619ZM94.2431 83.0561L94.3303 84.0523L95.3265 83.9651L95.2393 82.9689L94.2431 83.0561ZM93.8908 79.029L94.887 78.9418L94.7998 77.9456L93.8036 78.0328L93.8908 79.029ZM86.0806 79.7123L85.0844 79.7994L85.1716 80.7956L86.1678 80.7085L86.0806 79.7123ZM85.1518 69.0953L86.148 69.0082L86.0608 68.012L85.0646 68.0991L85.1518 69.0953ZM80.3227 69.5178L80.2356 68.5216L79.2394 68.6088L79.3265 69.605L80.3227 69.5178ZM81.6911 85.1581L94.3303 84.0523L94.156 82.0599L81.5167 83.1657L81.6911 85.1581ZM95.2393 82.9689L94.887 78.9418L92.8946 79.1161L93.2469 83.1433L95.2393 82.9689ZM93.8036 78.0328L85.9935 78.7161L86.1678 80.7085L93.9779 80.0252L93.8036 78.0328ZM87.0768 79.6251L86.148 69.0082L84.1556 69.1825L85.0844 79.7994L87.0768 79.6251ZM85.0646 68.0991L80.2356 68.5216L80.4099 70.514L85.2389 70.0915L85.0646 68.0991ZM79.3265 69.605L80.6077 84.249L82.6001 84.0747L81.3189 69.4307L79.3265 69.605ZM97.5473 82.767L96.5511 82.8542L96.6383 83.8504L97.6345 83.7632L97.5473 82.767ZM102.376 82.3445L102.464 83.3407L103.46 83.2536L103.373 82.2574L102.376 82.3445ZM102.096 79.1368L102.009 78.1406L101.012 78.2277L101.1 79.2239L102.096 79.1368ZM96.2661 68.123L96.1789 67.1268L95.1828 67.2139L95.2699 68.2101L96.2661 68.123ZM101.745 75.1271L100.749 75.2143L100.836 76.2105L101.832 76.1233L101.745 75.1271ZM101.446 71.7102L101.359 70.714L100.363 70.8011L100.45 71.7973L101.446 71.7102ZM97.6345 83.7632L102.464 83.3407L102.289 81.3483L97.4601 81.7708L97.6345 83.7632ZM103.373 82.2574L103.092 79.0496L101.1 79.2239L101.38 82.4317L103.373 82.2574ZM102.183 80.133L105.687 79.8264L105.513 77.834L102.009 78.1406L102.183 80.133ZM105.687 79.8264C107.803 79.6413 109.62 79.0079 110.858 77.7391C112.122 76.4445 112.632 74.6457 112.442 72.4697L110.449 72.644C110.603 74.408 110.178 75.572 109.427 76.3421C108.65 77.1381 107.372 77.6714 105.513 77.834L105.687 79.8264ZM112.442 72.4697C112.251 70.2937 111.436 68.6104 109.964 67.555C108.522 66.521 106.618 66.2134 104.495 66.3992L104.669 68.3916C106.538 68.2281 107.893 68.5314 108.799 69.1804C109.674 69.8081 110.295 70.8801 110.449 72.644L112.442 72.4697ZM104.495 66.3992L96.1789 67.1268L96.3533 69.1192L104.669 68.3916L104.495 66.3992ZM95.2699 68.2101L96.5511 82.8542L98.5435 82.6799L97.2623 68.0358L95.2699 68.2101ZM102.741 75.0399L102.442 71.623L100.45 71.7973L100.749 75.2143L102.741 75.0399ZM101.533 72.7063L104.619 72.4364L104.445 70.444L101.359 70.714L101.533 72.7063ZM104.619 72.4364C105.041 72.3994 105.265 72.4869 105.366 72.5601C105.444 72.6159 105.556 72.736 105.585 73.0696L107.578 72.8953C107.508 72.0956 107.17 71.3944 106.535 70.9371C105.924 70.4974 105.173 70.3803 104.445 70.444L104.619 72.4364ZM105.585 73.0696C105.614 73.4029 105.525 73.5392 105.458 73.6071C105.37 73.6976 105.16 73.8245 104.726 73.8625L104.9 75.8549C105.634 75.7907 106.358 75.546 106.887 75.0072C107.437 74.4458 107.648 73.6951 107.578 72.8953L105.585 73.0696ZM104.726 73.8625L101.658 74.1309L101.832 76.1233L104.9 75.8549L104.726 73.8625Z" fill="black"/>
<circle cx="51.6612" cy="53.7214" r="26.139" fill="white" stroke="black"/>
<path fill-rule="evenodd" clip-rule="evenodd" d="M38.3282 40.5727C37.4527 37.4964 39.6069 34.3976 42.7358 34.1239C45.5037 33.8817 47.9903 35.9682 48.2325 38.7361L48.78 44.994C49.502 44.9308 50.2136 44.7473 50.9356 44.6841C51.6577 44.6209 52.2594 44.5683 52.992 44.6255L52.4445 38.3676C52.2023 35.5997 54.2888 33.1131 57.0567 32.871C60.1857 32.5972 62.8452 35.2749 62.6376 38.4459L61.9561 45.9027C66.8285 47.5379 70.7546 50.8324 71.1442 55.2851L71.3864 58.053C71.7127 61.7837 69.5796 65.1232 66.2686 67.4744C62.9682 69.9459 58.5004 71.5494 53.3256 72.0021C48.1509 72.4549 43.4725 71.6515 39.793 69.7907C36.2444 68.0396 33.5638 65.1213 33.2374 61.3906L32.9952 58.6227C32.6057 54.17 35.7798 50.2544 40.2942 47.7979L38.3282 40.5727ZM60.2351 47.0234L61.0415 38.2218C61.2131 36.024 59.4696 34.115 57.1831 34.3151C55.2576 34.4835 53.83 36.1849 53.9984 38.1104L54.6933 46.0531C54.2014 45.9748 53.5997 46.0275 53.1183 46.0696C52.3963 46.1328 51.784 46.0651 51.062 46.1282C50.3399 46.1914 49.6178 46.2546 48.9063 46.4381C48.4249 46.4802 47.8337 46.6532 47.3524 46.6953L46.668 38.873C46.4995 36.9475 44.7982 35.5199 42.8727 35.6883C40.7065 35.8779 39.2007 38.0711 39.8716 40.1952L42.1941 48.7231C37.3081 51.0908 34.2333 54.7552 34.5702 58.6062L34.8124 61.3741C35.3283 67.2709 43.5718 71.4003 53.1993 70.558C62.8268 69.7157 70.228 64.2176 69.7121 58.3208L69.4699 55.5529C69.2428 51.571 65.5784 48.4962 60.2351 47.0234Z" fill="#633001"/>
<path d="M69.8218 58.1899C70.3377 64.0868 62.9365 69.5849 53.309 70.4272C43.6815 71.2695 35.438 67.1401 34.9221 61.2433L34.6799 58.4753L69.7 55.4115L69.9421 58.1794L69.8218 58.1899Z" fill="#FEDC90"/>
<path fill-rule="evenodd" clip-rule="evenodd" d="M39.8717 40.1952C39.2008 38.0711 40.7066 35.8779 42.8728 35.6884C44.7983 35.5199 46.4996 36.9475 46.6681 38.873L47.363 46.8157C48.5559 46.5901 49.7488 46.3644 51.0726 46.2486C52.276 46.1433 53.49 46.1584 54.704 46.1735L54.0091 38.2308C53.8406 36.3053 55.2682 34.6039 57.1937 34.4355C59.3599 34.246 61.2237 36.1444 61.0522 38.3422L60.2458 47.1438C65.4687 48.6271 69.2534 51.6914 69.5903 55.5424C70.1063 61.4392 62.7051 66.9373 53.0776 67.7796C43.4501 68.6219 35.2066 64.4925 34.6907 58.5957C34.3538 54.7447 37.4286 51.0803 42.3145 48.7126L39.8717 40.1952Z" fill="#D1884F"/>
<path d="M47.1325 56.6582C47.2694 58.2227 46.5428 59.6202 45.4597 59.7149C44.3766 59.8097 43.4184 58.5596 43.2815 56.9952C43.1446 55.4307 43.8712 54.0332 44.9543 53.9384C46.0374 53.8437 46.9956 55.0938 47.1325 56.6582Z" fill="#633001"/>
<path d="M60.4909 55.4895C60.6278 57.054 59.9012 58.4515 58.8181 58.5462C57.735 58.641 56.7768 57.3909 56.6399 55.8264C56.503 54.262 57.2296 52.8645 58.3127 52.7697C59.3958 52.675 60.354 53.9251 60.4909 55.4895Z" fill="#633001"/>
<circle cx="57.691" cy="109.477" r="26.139" fill="white" stroke="black"/>
<path d="M48.745 107.427L56.0615 98.7113L64.7843 106.03L69.0387 100.957L55.2452 89.3799L43.6712 103.173L48.745 107.427Z" fill="#F3BA2F"/>
<path d="M40.6658 106.755L36.4097 111.827L41.4819 116.083L45.738 111.011L40.6658 106.755Z" fill="#F3BA2F"/>
<path d="M49.3216 114.016L58.0408 121.332L65.3601 112.61L70.4336 116.861L70.4306 116.865L58.8569 130.661L45.0639 119.09L45.0568 119.084L49.3216 114.016Z" fill="#F3BA2F"/>
<path d="M72.6182 103.961L68.3621 109.033L73.4343 113.289L77.6904 108.217L72.6182 103.961Z" fill="#F3BA2F"/>
<path d="M61.7818 109.605L56.6365 105.284L53.444 109.089L53.0748 109.525L52.3191 110.426L52.3131 110.433L52.3205 110.442L57.4652 114.756L61.7821 109.608L61.7851 109.604L61.7818 109.605Z" fill="#F3BA2F"/>
<path d="M43.5576 164.909L42.2764 150.265L45.017 150.025L46.0932 162.326L49.5868 162.021L49.7918 164.364L43.5576 164.909ZM50.5232 164.3L49.242 149.656L53.3214 149.299C54.744 149.174 55.7113 149.308 56.2233 149.698C56.7341 150.075 57.045 150.898 57.156 152.168L57.4653 155.703C57.5788 157 57.4168 157.879 56.9792 158.338C56.5543 158.783 55.6236 159.068 54.1871 159.194L52.8482 159.311L53.2637 164.06L50.5232 164.3ZM53.4791 151.583L52.182 151.696L52.6487 157.031L53.9458 156.917C54.2247 156.893 54.4303 156.833 54.5624 156.737C54.6933 156.627 54.7448 156.412 54.7167 156.091L54.3836 152.284C54.3555 151.963 54.2675 151.76 54.1195 151.674C53.9715 151.589 53.758 151.558 53.4791 151.583ZM58.3356 158.367L58.1471 156.213L63.5236 155.742L63.7121 157.897L58.3356 158.367ZM67.4821 147.976L67.9632 147.933C69.4416 147.804 70.4443 147.941 70.9715 148.345C71.4975 148.735 71.8196 149.606 71.938 150.959L72.1723 153.636L69.4317 153.876L69.1828 151.031C69.1499 150.654 69.0518 150.417 68.8886 150.319C68.7394 150.22 68.4974 150.184 68.1627 150.214L67.6816 150.256C67.3608 150.284 67.1286 150.36 66.9849 150.485C66.8413 150.61 66.7859 150.861 66.8189 151.238L67.5583 159.69C67.5912 160.066 67.6893 160.303 67.8525 160.402C68.0156 160.5 68.2576 160.535 68.5784 160.507L69.0596 160.465C69.3943 160.435 69.6265 160.359 69.7562 160.235C69.8999 160.11 69.9552 159.859 69.9223 159.483L69.6367 156.219L72.3773 155.979L72.6481 159.076C72.7665 160.428 72.6011 161.349 72.1521 161.838C71.7017 162.313 70.7374 162.616 69.2591 162.745L68.7779 162.787C67.3135 162.915 66.3113 162.785 65.7714 162.397C65.2442 161.993 64.9215 161.115 64.8031 159.762L64.093 151.645C63.9746 150.292 64.1406 149.378 64.5909 148.903C65.0539 148.413 66.0177 148.104 67.4821 147.976ZM78.8882 147.062L82.6589 161.488L79.9184 161.728L79.222 159.07L76.3978 159.317L76.1946 162.054L73.4331 162.295L74.6414 147.434L78.8882 147.062ZM76.8893 149.514L76.431 156.805L78.7323 156.604L77.0148 149.503L76.8893 149.514ZM85.6347 155.452L86.1362 161.184L83.3957 161.424L82.1145 146.78L84.855 146.54L85.3821 152.565L86.2608 152.488L87.3027 146.326L90.2524 146.068L88.8083 153.656L91.68 160.699L88.6466 160.964L86.618 155.366L85.6347 155.452ZM94.6134 154.076L94.9612 158.051L98.7686 157.718L98.9736 160.061L92.4256 160.634L91.1444 145.99L97.6924 145.417L97.8974 147.76L94.09 148.093L94.4084 151.733L97.8603 151.431L98.0652 153.774L94.6134 154.076ZM99.7117 160.713L101.372 144.273L103.025 144.128L101.343 160.57L99.7117 160.713ZM103.656 144.895L106.439 144.652L108.343 155.573L108.364 155.571L108.677 144.456L111.564 144.203L113.782 155.097L113.803 155.096L113.781 144.009L116.585 143.764L116.339 158.542L112.071 158.915L110.682 150.752L110.661 150.754L110.711 159.034L106.464 159.406L103.656 144.895ZM118.595 158.344L117.314 143.7L121.247 143.356C122.697 143.229 123.679 143.361 124.191 143.752C124.715 144.128 125.036 144.978 125.152 146.303L125.274 147.705C125.351 148.583 125.287 149.214 125.082 149.598C124.889 149.966 124.51 150.217 123.946 150.35C124.552 150.368 124.981 150.541 125.235 150.87C125.503 151.198 125.675 151.808 125.754 152.701L125.904 154.416C125.959 155.044 125.961 155.557 125.912 155.954C125.875 156.337 125.798 156.66 125.68 156.923C125.576 157.171 125.368 157.365 125.057 157.505C124.746 157.645 124.418 157.751 124.073 157.823C123.726 157.881 123.226 157.939 122.57 157.996L118.595 158.344ZM120.779 151.745L121.136 155.824L122.371 155.716C122.663 155.691 122.875 155.623 123.006 155.513C123.136 155.389 123.186 155.153 123.155 154.804L122.945 152.399C122.915 152.064 122.819 151.847 122.656 151.749C122.507 151.65 122.279 151.614 121.972 151.64L120.779 151.745ZM120.254 145.741L120.593 149.611L121.848 149.501C122.127 149.477 122.324 149.403 122.44 149.281C122.556 149.158 122.599 148.929 122.57 148.595L122.377 146.398C122.348 146.063 122.259 145.846 122.11 145.747C121.96 145.648 121.739 145.611 121.446 145.636L120.254 145.741ZM126.079 142.933L128.841 142.692L132.079 150.545L132.1 150.544L131.393 142.468L133.966 142.243L135.247 156.887L132.381 157.138L129.388 149.664L129.367 149.665L130.038 157.343L127.361 157.577L126.079 142.933ZM136.492 156.778L135.21 142.134L139.143 141.79C140.594 141.663 141.575 141.795 142.087 142.186C142.612 142.562 142.932 143.412 143.048 144.737L143.171 146.139C143.248 147.018 143.183 147.649 142.978 148.032C142.785 148.4 142.407 148.651 141.842 148.785C142.448 148.802 142.878 148.975 143.132 149.304C143.399 149.632 143.572 150.243 143.65 151.135L143.8 152.851C143.855 153.478 143.858 153.991 143.808 154.389C143.771 154.771 143.694 155.094 143.577 155.358C143.472 155.606 143.264 155.8 142.953 155.939C142.642 156.079 142.314 156.185 141.969 156.257C141.623 156.316 141.122 156.373 140.467 156.431L136.492 156.778ZM138.676 150.179L139.033 154.258L140.267 154.15C140.56 154.125 140.772 154.057 140.903 153.947C141.032 153.824 141.082 153.587 141.052 153.239L140.841 150.833C140.812 150.498 140.716 150.282 140.552 150.183C140.403 150.084 140.175 150.048 139.868 150.075L138.676 150.179ZM138.151 144.175L138.489 148.045L139.744 147.935C140.023 147.911 140.221 147.837 140.336 147.715C140.452 147.592 140.495 147.364 140.466 147.029L140.274 144.832C140.245 144.498 140.155 144.281 140.006 144.181C139.857 144.082 139.636 144.045 139.343 144.071L138.151 144.175Z" fill="black"/>
<circle cx="192.889" cy="82.8556" r="70.5374" transform="rotate(-5 192.889 82.8556)" fill="white" stroke="black"/>
<path d="M171.086 34.1168L173.908 33.87L173.77 32.292L179.125 31.8234L179.244 33.1862L182.089 32.9373L181.97 31.5745L187.015 31.1332L186.791 28.5749L181.746 29.0163L181.602 27.3666L178.757 27.6155L178.901 29.2652L173.546 29.7338L173.401 28.0841L170.58 28.3309L170.725 29.9806L165.608 30.4282L165.832 32.9864L170.948 32.5388L171.086 34.1168ZM171.834 34.1237C171.489 34.5875 171.096 35.0555 170.656 35.5277C169.984 35.0083 169.245 34.5429 168.34 34.1162L166.627 35.7357C167.507 36.1645 168.225 36.6559 168.847 37.1556C167.853 37.917 166.808 38.6349 165.724 39.1875C166.316 39.6175 167.154 40.3874 167.587 40.9277C168.549 40.3617 169.529 39.7219 170.455 39.0145C170.708 39.426 170.935 39.8157 171.094 40.2595C170.132 41.9337 168.033 43.8278 166.211 44.7582C166.831 45.234 167.602 46.0579 168.041 46.67C169.265 45.792 170.669 44.4887 171.781 43.1626L171.802 43.4017C171.993 45.5774 171.907 47.0786 171.46 47.7441C171.289 47.9999 171.132 48.1341 170.776 48.1894C170.304 48.303 169.419 48.3804 168.241 48.4111C168.78 49.0627 169.125 49.9721 169.22 50.7829C170.372 50.7303 171.302 50.6248 172.194 50.3541C172.757 50.1843 173.212 49.8795 173.535 49.4417C174.509 48.176 174.653 45.971 174.423 43.3411C174.237 41.2132 173.814 39.1302 172.447 37.2742C173.112 36.6138 173.727 35.9336 174.242 35.2139L171.834 34.1237ZM187.663 39.364L187.433 36.7341L185.042 36.9432L186.657 35.5733C186.055 34.7586 184.757 33.6917 183.636 32.9947L181.841 34.5009C182.818 35.2104 183.941 36.1964 184.564 36.9851L181.838 37.2235L181.83 37.1279L181.508 33.446L178.854 33.6782L179.174 37.3362L179.184 37.4557L174.259 37.8866L174.489 40.5166L179.199 40.1045C178.979 42.822 177.902 45.9277 174.361 48.6948C175.095 49.0884 176.096 49.7958 176.626 50.3517C179.311 48.2618 180.69 45.8525 181.35 43.4819C182.742 46.1788 184.606 48.2081 187.205 49.2816C187.523 48.507 188.244 47.3839 188.796 46.8056C185.67 45.7781 183.587 43.1658 182.307 39.8326L187.663 39.364ZM206.973 29.0498L200.757 29.5936L200.653 28.3982L206.869 27.8543L206.973 29.0498ZM207.245 32.1579L201.029 32.7017L200.92 31.4585L207.137 30.9146L207.245 32.1579ZM209.564 25.6189L197.729 26.6543L198.453 34.9267L210.288 33.8913L209.564 25.6189ZM193.559 26.3446C192.695 28.0344 190.76 30.155 188.996 31.4658C189.478 32.0259 190.274 33.1367 190.617 33.7572C192.737 32.1021 194.971 29.5457 196.356 27.2081L193.559 26.3446ZM194.636 31.5023C193.454 33.9667 191.314 36.4908 189.316 38.1593C189.807 38.815 190.667 40.3781 190.936 40.9809C191.605 40.3682 192.264 39.636 192.919 38.856L193.787 48.7781L196.536 48.5376L195.4 35.5552C196.101 34.482 196.731 33.4151 197.217 32.3607L194.636 31.5023ZM211.969 38.5143L208.718 38.7988L208.598 37.436L211.372 37.1934L211.169 34.8742L197.326 36.0854L197.529 38.4045L205.706 37.6891L205.825 39.0519L197.074 39.8175L197.285 42.2323L200.633 41.9394L198.966 43.2657C200.058 44.1821 201.401 45.486 202.006 46.3485L204.002 44.6561C203.331 43.8716 202.051 42.7308 201.015 41.906L206.036 41.4667L206.327 44.79C206.35 45.053 206.262 45.157 205.93 45.2102C205.619 45.2374 204.495 45.3357 203.487 45.3757C203.908 46.0616 204.407 47.078 204.593 47.8327C206.219 47.6904 207.415 47.5858 208.264 47.102C209.161 46.614 209.341 45.9236 209.226 44.6086L208.929 41.2136L212.204 40.927L211.969 38.5143Z" fill="black"/>
<line x1="174.063" y1="57.8543" x2="209.447" y2="54.7586" stroke="black"/>
<path d="M143.625 101.022C152.481 100.247 157.599 96.4965 157.111 90.9178C156.781 87.1522 154.377 84.9734 151.372 84.358L151.33 83.8699C153.533 82.5528 155.26 80.6099 154.971 77.2975C154.534 72.3116 149.889 69.4154 141.207 70.175C132.665 70.9223 128.28 74.6086 128.996 81.9942L137.573 81.2438C137.375 78.9775 139.048 78.023 141.803 77.782C144.348 77.5593 146.257 78.095 146.4 79.7337C146.47 80.5357 146.17 82.3187 141.672 82.7122L140.068 82.8525L140.544 88.2917L142.148 88.1514C146.715 87.7518 147.383 89.7662 147.454 90.5682C147.591 92.1372 145.889 93.1644 142.751 93.439C139.996 93.6799 138.166 93.2428 137.819 90.884L129.172 91.6406C129.756 99.1082 134.455 101.824 143.625 101.022ZM174.352 98.3334C183.836 97.5036 188.767 91.6265 187.892 81.6197C187.016 71.6129 181.139 66.6814 171.655 67.5111C162.172 68.3408 157.24 74.218 158.116 84.2248C158.991 94.2316 164.868 99.1631 174.352 98.3334ZM173.641 90.2094C170.085 90.5205 168.049 88.1339 167.634 83.392C167.219 78.6501 168.81 75.9462 172.366 75.6351C175.923 75.3239 177.958 77.7106 178.373 82.4525C178.788 87.1944 177.198 89.8983 173.641 90.2094ZM204.342 95.7096C213.199 94.9347 218.316 91.1844 217.828 85.6057C217.499 81.8401 215.095 79.6614 212.09 79.0459L212.047 78.5578C214.25 77.2407 215.978 75.2978 215.688 71.9854C215.252 66.9995 210.607 64.1033 201.925 64.8629C193.382 65.6102 188.997 69.2965 189.713 76.6821L198.291 75.9317C198.092 73.6654 199.766 72.7109 202.52 72.4699C205.065 72.2473 206.974 72.7829 207.118 74.4217C207.188 75.2236 206.887 77.0066 202.389 77.4001L200.785 77.5404L201.261 82.9797L202.865 82.8393C207.433 82.4397 208.101 84.4542 208.171 85.2561C208.308 86.8251 206.606 87.8523 203.468 88.1269C200.714 88.3679 198.884 87.9307 198.537 85.572L189.89 86.3285C190.473 93.7961 195.172 96.5118 204.342 95.7096ZM232.406 93.5002L248.787 63.0818L244.505 60.716L228.123 91.1345L232.406 93.5002ZM227.7 78.6639C233.279 78.1759 235.335 74.3772 234.966 70.1583C234.6 65.9743 231.915 62.5904 226.336 63.0785C220.758 63.5665 218.701 67.3653 219.067 71.5493C219.436 75.7682 222.121 79.152 227.7 78.6639ZM227.181 72.7366C225.822 72.8556 225.213 71.925 225.134 71.0185C225.051 70.0771 225.495 69.1248 226.855 69.0058C228.215 68.8869 228.817 69.7476 228.899 70.689C228.979 71.5956 228.541 72.6176 227.181 72.7366ZM250.555 91.3152C256.133 90.8271 258.19 87.0284 257.821 82.8095C257.455 78.6255 254.77 75.2416 249.191 75.7297C243.612 76.2178 241.556 80.0165 241.922 84.2005C242.291 88.4194 244.976 91.8032 250.555 91.3152ZM250.036 85.3878C248.676 85.5068 248.068 84.5763 247.988 83.6697C247.906 82.7283 248.35 81.776 249.71 81.6571C251.069 81.5381 251.672 82.3989 251.754 83.3403C251.833 84.2468 251.396 85.2688 250.036 85.3878Z" fill="black"/>
<path d="M183.484 128.793L189.183 128.295L181.562 112.097L173.831 112.774L169.139 130.049L174.837 129.55L175.381 127.274L182.554 126.646L183.484 128.793ZM176.379 123.071L177.672 117.658L178.628 117.574L180.842 122.681L176.379 123.071ZM189.98 128.225L195.499 127.742L195.178 124.076L199.183 123.726C203.725 123.329 206.257 121.059 205.863 116.556C205.469 112.054 202.582 110.258 198.019 110.658L188.516 111.489L189.98 128.225ZM194.777 119.494L194.435 115.589L197.962 115.28C199.277 115.165 200.191 115.748 200.305 117.043C200.418 118.338 199.619 119.07 198.284 119.187L194.777 119.494ZM225.352 125.131L221.882 119.893C223.209 118.773 224.086 117.09 223.889 114.839C223.504 110.436 220.719 108.672 216.077 109.078L206.494 109.916L207.958 126.652L213.477 126.169L213.099 121.846L217.283 121.48L219.932 125.605L225.352 125.131ZM212.414 114.016L216.1 113.693C217.494 113.571 218.271 114.186 218.374 115.362C218.476 116.537 217.818 117.277 216.424 117.399L212.738 117.722L212.414 114.016Z" fill="black"/>
<defs>
<filter id="filter0_d" x="0.269287" y="9.04202" width="216.743" height="216.743" filterUnits="userSpaceOnUse" color-interpolation-filters="sRGB">
<feFlood flood-opacity="0" result="BackgroundImageFix"/>
<feColorMatrix in="SourceAlpha" type="matrix" values="0 0 0 0 0 0 0 0 0 0 0 0 0 0 0 0 0 0 127 0"/>
<feOffset dx="25" dy="25"/>
<feGaussianBlur stdDeviation="12.5"/>
<feColorMatrix type="matrix" values="0 0 0 0 0 0 0 0 0 0 0 0 0 0 0 0 0 0 0.25 0"/>
<feBlend mode="normal" in2="BackgroundImageFix" result="effect1_dropShadow"/>
<feBlend mode="normal" in="SourceGraphic" in2="effect1_dropShadow" result="shape"/>
</filter>
</defs>
</svg>
