<svg width="229" height="151" viewBox="0 0 229 151" fill="none" xmlns="http://www.w3.org/2000/svg">
<rect x="0.810962" y="19.422" width="129" height="129" transform="rotate(-5 0.810962 19.422)" fill="#007EFC" stroke="black"/>
<rect x="10.1366" y="126.015" width="129" height="22" transform="rotate(-5 10.1366 126.015)" fill="#FDCB02" stroke="black"/>
<rect x="0.810962" y="19.422" width="9" height="129" transform="rotate(-5 0.810962 19.422)" fill="#123CB1" stroke="black"/>
<path d="M29.7728 142.831L28.4916 128.187L31.2322 127.947L32.3084 140.248L35.802 139.942L36.007 142.285L29.7728 142.831ZM36.7384 142.221L35.4572 127.577L39.5366 127.22C40.9592 127.096 41.9265 127.229 42.4385 127.62C42.9493 127.997 43.2602 128.82 43.3713 130.089L43.6806 133.625C43.794 134.922 43.632 135.8 43.1944 136.26C42.7696 136.705 41.8389 136.99 40.4024 137.116L39.0635 137.233L39.4789 141.982L36.7384 142.221ZM39.6943 129.504L38.3973 129.618L38.864 134.952L40.161 134.839C40.44 134.814 40.6455 134.754 40.7776 134.658C40.9086 134.549 40.96 134.333 40.9319 134.013L40.5988 130.205C40.5708 129.884 40.4827 129.681 40.3347 129.596C40.1867 129.51 39.9732 129.48 39.6943 129.504ZM44.5508 136.289L44.3623 134.134L49.7388 133.664L49.9273 135.818L44.5508 136.289ZM49.7064 126.331L52.4888 126.087L54.3929 137.009L54.4138 137.007L54.7272 125.891L57.6142 125.639L59.8321 136.533L59.8531 136.531L59.8317 125.445L62.635 125.199L62.3891 139.977L58.1214 140.351L56.7326 132.187L56.7117 132.189L56.7616 140.469L52.5148 140.841L49.7064 126.331ZM64.6455 139.78L63.3643 125.136L67.2973 124.792C68.7477 124.665 69.729 124.797 70.241 125.188C70.7657 125.563 71.0861 126.414 71.202 127.738L71.3246 129.14C71.4015 130.019 71.3372 130.65 71.1318 131.033C70.9392 131.401 70.5606 131.652 69.9961 131.786C70.602 131.803 71.0317 131.976 71.2853 132.306C71.5529 132.634 71.7258 133.244 71.8039 134.136L71.954 135.852C72.0089 136.479 72.0116 136.992 71.962 137.39C71.9253 137.773 71.8481 138.096 71.7306 138.359C71.6258 138.607 71.4179 138.801 71.1069 138.94C70.7959 139.08 70.4679 139.186 70.1229 139.258C69.7767 139.317 69.2758 139.375 68.6203 139.432L64.6455 139.78ZM66.8296 133.18L67.1865 137.26L68.4208 137.152C68.7137 137.126 68.9256 137.058 69.0565 136.949C69.1862 136.825 69.2358 136.589 69.2053 136.24L68.9948 133.834C68.9655 133.499 68.8693 133.283 68.7061 133.185C68.5569 133.085 68.3289 133.049 68.0221 133.076L66.8296 133.18ZM66.3043 127.176L66.6429 131.046L67.8981 130.937C68.1771 130.912 68.3744 130.839 68.4902 130.716C68.6059 130.594 68.6492 130.365 68.6199 130.03L68.4277 127.834C68.3984 127.499 68.3092 127.282 68.1599 127.182C68.0107 127.083 67.7897 127.046 67.4968 127.072L66.3043 127.176ZM72.1296 124.369L74.8911 124.127L78.1289 131.981L78.1498 131.979L77.4434 123.904L80.0165 123.679L81.2977 138.323L78.4317 138.574L75.4378 131.099L75.4169 131.101L76.0886 138.779L73.4108 139.013L72.1296 124.369ZM82.542 138.214L81.2608 123.57L85.1938 123.226C86.6442 123.099 87.6254 123.231 88.1375 123.622C88.6622 123.997 88.9825 124.848 89.0985 126.173L89.2211 127.574C89.2979 128.453 89.2337 129.084 89.0283 129.467C88.8357 129.836 88.4571 130.087 87.8926 130.22C88.4984 130.238 88.9282 130.411 89.1818 130.74C89.4494 131.068 89.6223 131.678 89.7004 132.571L89.8504 134.286C89.9053 134.914 89.908 135.426 89.8585 135.824C89.8217 136.207 89.7446 136.53 89.6271 136.793C89.5223 137.041 89.3144 137.235 89.0034 137.375C88.6924 137.514 88.3644 137.62 88.0194 137.693C87.6731 137.751 87.1723 137.809 86.5168 137.866L82.542 138.214ZM84.7261 131.615L85.083 135.694L86.3173 135.586C86.6102 135.56 86.8221 135.493 86.953 135.383C87.0827 135.259 87.1323 135.023 87.1018 134.674L86.8913 132.268C86.862 131.934 86.7658 131.717 86.6026 131.619C86.4534 131.52 86.2254 131.483 85.9185 131.51L84.7261 131.615ZM84.2008 125.61L84.5394 129.481L85.7946 129.371C86.0735 129.346 86.2709 129.273 86.3867 129.15C86.5024 129.028 86.5456 128.799 86.5164 128.465L86.3242 126.268C86.2949 125.933 86.2056 125.716 86.0564 125.617C85.9072 125.517 85.6861 125.481 85.3933 125.506L84.2008 125.61ZM91.0139 138.19L92.6744 121.749L94.327 121.605L92.6457 138.047L91.0139 138.19ZM96.6998 136.975L95.4186 122.331L99.3516 121.987C100.802 121.86 101.783 121.992 102.295 122.383C102.82 122.759 103.14 123.609 103.256 124.934L103.379 126.336C103.456 127.214 103.392 127.845 103.186 128.229C102.994 128.597 102.615 128.848 102.05 128.982C102.656 128.999 103.086 129.172 103.34 129.501C103.607 129.829 103.78 130.439 103.858 131.332L104.008 133.047C104.063 133.675 104.066 134.188 104.016 134.586C103.98 134.968 103.902 135.291 103.785 135.554C103.68 135.803 103.472 135.996 103.161 136.136C102.85 136.276 102.522 136.382 102.177 136.454C101.831 136.512 101.33 136.57 100.675 136.628L96.6998 136.975ZM98.8839 130.376L99.2408 134.455L100.475 134.347C100.768 134.322 100.98 134.254 101.111 134.144C101.241 134.02 101.29 133.784 101.26 133.435L101.049 131.03C101.02 130.695 100.924 130.478 100.76 130.38C100.611 130.281 100.383 130.245 100.076 130.272L98.8839 130.376ZM98.3586 124.372L98.6972 128.242L99.9524 128.132C100.231 128.108 100.429 128.034 100.544 127.912C100.66 127.789 100.703 127.561 100.674 127.226L100.482 125.029C100.453 124.695 100.363 124.477 100.214 124.378C100.065 124.279 99.844 124.242 99.5511 124.267L98.3586 124.372ZM104.1 121.572L106.862 121.33L107.867 132.815C107.902 133.22 107.981 133.48 108.103 133.596C108.225 133.697 108.439 133.735 108.746 133.708L109.541 133.638C109.848 133.612 110.052 133.538 110.154 133.416C110.254 133.281 110.287 133.011 110.251 132.607L109.247 121.121L111.987 120.882L112.983 132.262C113.101 133.615 112.929 134.537 112.466 135.027C112.015 135.502 111.058 135.803 109.594 135.932L109.071 135.977C107.606 136.105 106.604 135.975 106.064 135.587C105.537 135.183 105.214 134.305 105.096 132.952L104.1 121.572ZM116.742 120.381L117.035 120.356C118.513 120.226 119.516 120.364 120.043 120.767C120.569 121.157 120.891 122.028 121.01 123.381L121.156 125.054L118.416 125.294L118.253 123.432C118.22 123.056 118.122 122.825 117.96 122.741C117.811 122.642 117.569 122.607 117.234 122.636L116.942 122.662C116.607 122.691 116.368 122.768 116.224 122.893C116.093 123.003 116.044 123.246 116.077 123.623L116.178 124.773C116.219 125.247 116.331 125.561 116.513 125.714C116.709 125.865 117.131 126.032 117.779 126.214L119.202 126.575C119.634 126.691 119.944 126.784 120.133 126.851C120.322 126.919 120.544 127.047 120.799 127.236C121.054 127.424 121.239 127.682 121.351 128.01C121.477 128.322 121.562 128.729 121.606 129.231L121.804 131.491C121.922 132.843 121.75 133.765 121.287 134.255C120.836 134.73 119.879 135.032 118.414 135.16L118.038 135.193C116.56 135.322 115.557 135.192 115.031 134.802C114.504 134.399 114.182 133.521 114.063 132.168L113.913 130.452L116.654 130.213L116.818 132.095C116.852 132.486 116.944 132.731 117.093 132.83C117.255 132.914 117.504 132.942 117.838 132.913L118.215 132.88C118.438 132.86 118.604 132.831 118.713 132.794C118.836 132.755 118.934 132.662 119.005 132.515C119.077 132.369 119.101 132.163 119.078 131.898L118.926 130.161C118.912 130.008 118.887 129.877 118.849 129.767C118.812 129.658 118.776 129.577 118.744 129.524C118.71 129.456 118.634 129.393 118.516 129.333C118.412 129.272 118.331 129.23 118.273 129.207C118.229 129.182 118.113 129.143 117.926 129.089C117.751 129.02 117.627 128.975 117.555 128.953L116.024 128.56C115.591 128.429 115.273 128.324 115.069 128.243C114.865 128.163 114.629 128.029 114.359 127.841C114.09 127.654 113.892 127.398 113.765 127.071C113.638 126.745 113.553 126.338 113.51 125.85L113.353 124.051C113.235 122.698 113.401 121.784 113.851 121.309C114.314 120.819 115.278 120.51 116.742 120.381ZM123.095 134.666L121.814 120.022L125.935 119.661C127.372 119.536 128.346 119.668 128.858 120.059C129.384 120.449 129.704 121.299 129.819 122.61L130.529 130.727C130.644 132.038 130.476 132.931 130.026 133.406C129.589 133.88 128.653 134.18 127.216 134.305L123.095 134.666ZM126.135 121.942L124.775 122.061L125.636 132.146L127.017 132.025C127.31 132 127.521 131.925 127.651 131.801C127.78 131.677 127.83 131.441 127.8 131.092L127.062 122.662C127.033 122.327 126.944 122.117 126.796 122.031C126.662 121.945 126.441 121.915 126.135 121.942Z" fill="black"/>
<path d="M66.8987 75.7302L79.5379 74.6244L79.1856 70.5973L71.3754 71.2806L70.4466 60.6636L65.6175 61.0861L66.8987 75.7302ZM82.8421 74.3353L87.6712 73.9128L87.3905 70.7051L90.8946 70.3985C94.8695 70.0508 97.0848 68.0651 96.7401 64.1252C96.3954 60.1852 93.8689 58.6144 89.8767 58.9637L81.5609 59.6913L82.8421 74.3353ZM87.0397 66.6954L86.7408 63.2785L89.8265 63.0085C90.9771 62.9078 91.7771 63.4175 91.8762 64.5507C91.9753 65.6839 91.276 66.3248 90.108 66.427L87.0397 66.6954Z" fill="white"/>
<path d="M66.8987 75.7302L65.9025 75.8173L65.9897 76.8135L66.9859 76.7264L66.8987 75.7302ZM79.5379 74.6244L79.6251 75.6206L80.6213 75.5334L80.5341 74.5372L79.5379 74.6244ZM79.1856 70.5973L80.1818 70.5101L80.0946 69.5139L79.0985 69.6011L79.1856 70.5973ZM71.3754 71.2806L70.3792 71.3677L70.4664 72.3639L71.4626 72.2768L71.3754 71.2806ZM70.4466 60.6636L71.4428 60.5765L71.3556 59.5803L70.3594 59.6674L70.4466 60.6636ZM65.6175 61.0861L65.5304 60.0899L64.5342 60.1771L64.6213 61.1733L65.6175 61.0861ZM66.9859 76.7264L79.6251 75.6206L79.4508 73.6282L66.8116 74.734L66.9859 76.7264ZM80.5341 74.5372L80.1818 70.5101L78.1894 70.6844L78.5417 74.7116L80.5341 74.5372ZM79.0985 69.6011L71.2883 70.2844L71.4626 72.2768L79.2728 71.5935L79.0985 69.6011ZM72.3716 71.1934L71.4428 60.5765L69.4504 60.7508L70.3792 71.3677L72.3716 71.1934ZM70.3594 59.6674L65.5304 60.0899L65.7047 62.0823L70.5337 61.6598L70.3594 59.6674ZM64.6213 61.1733L65.9025 75.8173L67.8949 75.643L66.6137 60.999L64.6213 61.1733ZM82.8421 74.3353L81.8459 74.4225L81.9331 75.4187L82.9293 75.3315L82.8421 74.3353ZM87.6712 73.9128L87.7583 74.909L88.7545 74.8219L88.6674 73.8257L87.6712 73.9128ZM87.3905 70.7051L87.3034 69.7089L86.3072 69.796L86.3943 70.7922L87.3905 70.7051ZM81.5609 59.6913L81.4738 58.6951L80.4776 58.7822L80.5647 59.7784L81.5609 59.6913ZM87.0397 66.6954L86.0435 66.7826L86.1307 67.7788L87.1269 67.6916L87.0397 66.6954ZM86.7408 63.2785L86.6536 62.2823L85.6574 62.3694L85.7446 63.3656L86.7408 63.2785ZM82.9293 75.3315L87.7583 74.909L87.584 72.9166L82.755 73.3391L82.9293 75.3315ZM88.6674 73.8257L88.3867 70.6179L86.3943 70.7922L86.675 74L88.6674 73.8257ZM87.4777 71.7013L90.9818 71.3947L90.8075 69.4023L87.3034 69.7089L87.4777 71.7013ZM90.9818 71.3947C93.0977 71.2096 94.9145 70.5762 96.1528 69.3074C97.4164 68.0128 97.9267 66.214 97.7363 64.038L95.7439 64.2123C95.8983 65.9763 95.4732 67.1403 94.7216 67.9104C93.9447 68.7064 92.6664 69.2397 90.8075 69.4023L90.9818 71.3947ZM97.7363 64.038C97.5459 61.862 96.7309 60.1787 95.2589 59.1233C93.8167 58.0893 91.9132 57.7817 89.7895 57.9675L89.9638 59.9599C91.8324 59.7964 93.1883 60.0997 94.0935 60.7487C94.969 61.3764 95.5896 62.4484 95.7439 64.2123L97.7363 64.038ZM89.7895 57.9675L81.4738 58.6951L81.6481 60.6875L89.9638 59.9599L89.7895 57.9675ZM80.5647 59.7784L81.8459 74.4225L83.8383 74.2482L82.5571 59.6041L80.5647 59.7784ZM88.0359 66.6082L87.737 63.1913L85.7446 63.3656L86.0435 66.7826L88.0359 66.6082ZM86.8279 64.2746L89.9136 64.0047L89.7393 62.0123L86.6536 62.2823L86.8279 64.2746ZM89.9136 64.0047C90.3359 63.9677 90.5596 64.0552 90.6613 64.1284C90.7387 64.1842 90.8508 64.3043 90.88 64.6379L92.8724 64.4636C92.8024 63.664 92.465 62.9627 91.83 62.5054C91.2193 62.0657 90.4677 61.9486 89.7393 62.0123L89.9136 64.0047ZM90.88 64.6379C90.9092 64.9712 90.8198 65.1075 90.7532 65.1754C90.6645 65.2659 90.4551 65.3928 90.0208 65.4308L90.1952 67.4232C90.9289 67.359 91.6532 67.1143 92.1814 66.5755C92.7317 66.0141 92.9424 65.2634 92.8724 64.4636L90.88 64.6379ZM90.0208 65.4308L86.9526 65.6992L87.1269 67.6916L90.1952 67.4232L90.0208 65.4308Z" fill="black"/>
<circle cx="47.615" cy="94.4071" r="22" fill="white" stroke="black"/>
<path d="M47.6762 111.135C56.8812 111.135 64.3433 103.673 64.3433 94.4683C64.3433 85.2634 56.8812 77.8013 47.6762 77.8013C38.4712 77.8013 31.0092 85.2634 31.0092 94.4683C31.0092 103.673 38.4712 111.135 47.6762 111.135Z" fill="#F0B90B"/>
<path fill-rule="evenodd" clip-rule="evenodd" d="M40.5829 90.2349L47.6831 83.1347L50.5141 85.9658L43.414 93.066L40.5829 90.2349ZM40.5881 98.7194L51.9348 87.3727L54.7659 90.2037L43.4191 101.55L40.5881 98.7194ZM56.1786 91.6244L44.8318 102.971L47.6627 105.802L59.0098 94.4553L56.1786 91.6244ZM36.3427 94.4743L39.1737 91.6433L42.0048 94.4743L39.1737 97.3054L36.3427 94.4743Z" fill="white"/>
<circle cx="43.6764" cy="46.4071" r="22" fill="white" stroke="black"/>
<path d="M36.2134 44.7683L42.3932 37.4068L49.7606 43.5886L53.354 39.3033L41.7036 29.5252L31.928 41.175L36.2134 44.7683Z" fill="#F3BA2F"/>
<path d="M29.3894 44.2008L25.7946 48.4848L30.0787 52.0795L33.6735 47.7955L29.3894 44.2008Z" fill="#F3BA2F"/>
<path d="M36.7003 50.3338L44.0648 56.5132L50.2468 49.1459L54.532 52.7364L54.5295 52.7394L44.7541 64.392L33.1042 54.6194L33.0982 54.6144L36.7003 50.3338Z" fill="#F3BA2F"/>
<path d="M56.3773 41.8407L52.7825 46.1247L57.0666 49.7194L60.6614 45.4354L56.3773 41.8407Z" fill="#F3BA2F"/>
<path d="M47.2247 46.6076L42.8788 42.9586L40.1823 46.172L39.8705 46.5406L39.2322 47.3013L39.2272 47.3073L39.2334 47.3151L43.5787 50.9586L47.2249 46.6104L47.2274 46.6074L47.2247 46.6076Z" fill="#F3BA2F"/>
<circle cx="162.961" cy="69.9821" r="59.5" transform="rotate(-5 162.961 69.9821)" fill="white" stroke="black"/>
<path d="M142.678 27.0432L145.499 26.7964L145.361 25.2184L150.717 24.7499L150.836 26.1127L153.681 25.8637L153.562 24.501L158.607 24.0596L158.383 21.5014L153.338 21.9427L153.194 20.293L150.349 20.5419L150.493 22.1916L145.137 22.6602L144.993 21.0105L142.172 21.2573L142.316 22.907L137.2 23.3546L137.424 25.9129L142.54 25.4652L142.678 27.0432ZM143.425 27.0501C143.081 27.5139 142.688 27.9819 142.247 28.4541C141.576 27.9347 140.836 27.4694 139.932 27.0426L138.218 28.6621C139.099 29.091 139.816 29.5823 140.438 30.082C139.445 30.8435 138.4 31.5613 137.316 32.1139C137.907 32.5439 138.746 33.3138 139.178 33.8542C140.141 33.2881 141.121 32.6483 142.046 31.9409C142.299 32.3524 142.526 32.7421 142.685 33.1859C141.724 34.8601 139.625 36.7543 137.803 37.6846C138.423 38.1604 139.193 38.9844 139.633 39.5964C140.857 38.7184 142.26 37.4151 143.373 36.0891L143.394 36.3281C143.584 38.5038 143.499 40.005 143.051 40.6706C142.881 40.9264 142.724 41.0606 142.367 41.1158C141.895 41.2294 141.011 41.3068 139.833 41.3376C140.372 41.9891 140.716 42.8985 140.811 43.7093C141.963 43.6567 142.894 43.5512 143.785 43.2805C144.349 43.1107 144.804 42.8059 145.127 42.3681C146.1 41.1024 146.245 38.8975 146.015 36.2675C145.829 34.1396 145.405 32.0566 144.038 30.2007C144.703 29.5402 145.318 28.86 145.834 28.1404L143.425 27.0501ZM159.254 32.2905L159.024 29.6605L156.633 29.8697L158.248 28.4997C157.647 27.685 156.349 26.6181 155.228 25.9211L153.432 27.4274C154.41 28.1369 155.532 29.1228 156.155 29.9115L153.43 30.15L153.421 30.0543L153.099 26.3724L150.445 26.6046L150.765 30.2626L150.776 30.3822L145.851 30.813L146.081 33.443L150.791 33.0309C150.571 35.7484 149.493 38.8542 145.953 41.6213C146.686 42.0149 147.688 42.7223 148.218 43.2781C150.902 41.1883 152.281 38.7789 152.941 36.4083C154.334 39.1053 156.198 41.1345 158.797 42.2081C159.115 41.4334 159.836 40.3103 160.387 39.732C157.262 38.7045 155.178 36.0922 153.899 32.759L159.254 32.2905ZM178.565 21.9762L172.349 22.52L172.244 21.3246L178.46 20.7807L178.565 21.9762ZM178.837 25.0843L172.621 25.6282L172.512 24.3849L178.728 23.8411L178.837 25.0843ZM181.156 18.5453L169.321 19.5807L170.045 27.8531L181.88 26.8177L181.156 18.5453ZM165.15 19.2711C164.286 20.9608 162.352 23.0815 160.587 24.3922C161.07 24.9523 161.866 26.0632 162.209 26.6836C164.329 25.0286 166.563 22.4722 167.948 20.1345L165.15 19.2711ZM166.228 24.4288C165.046 26.8931 162.906 29.4173 160.908 31.0858C161.399 31.7415 162.258 33.3045 162.528 33.9073C163.197 33.2947 163.856 32.5625 164.51 31.7825L165.378 41.7046L168.128 41.464L166.992 28.4816C167.693 27.4084 168.322 26.3415 168.808 25.2871L166.228 24.4288ZM183.561 31.4408L180.309 31.7253L180.19 30.3625L182.963 30.1198L182.761 27.8007L168.917 29.0118L169.12 31.3309L177.297 30.6156L177.416 31.9784L168.666 32.7439L168.877 35.1587L172.224 34.8659L170.557 36.1922C171.65 37.1085 172.992 38.4124 173.598 39.2749L175.594 37.5825C174.923 36.798 173.643 35.6573 172.607 34.8324L177.628 34.3931L177.918 37.7164C177.941 37.9794 177.854 38.0834 177.521 38.1366C177.211 38.1638 176.087 38.2621 175.079 38.3022C175.5 38.988 175.998 40.0045 176.185 40.7591C177.811 40.6169 179.006 40.5123 179.855 40.0284C180.752 39.5404 180.933 38.85 180.818 37.5351L180.521 34.14L183.796 33.8535L183.561 31.4408Z" fill="black"/>
<line x1="147.053" y1="48.7879" x2="176.939" y2="46.1732" stroke="black"/>
<path d="M128.101 74.4774L126.825 59.8931L117.112 60.7429L106.493 76.3678L107.042 82.6439L120.371 81.4777L120.743 85.7215L129.021 84.9972L128.65 80.7535L132.445 80.4214L131.896 74.1454L128.101 74.4774ZM113.666 75.7403L119.161 67.6406L119.822 75.2017L113.666 75.7403ZM147.137 84.0749C155.266 83.3637 159.493 78.3261 158.742 69.7489C157.992 61.1716 152.954 56.9446 144.825 57.6558C136.696 58.367 132.469 63.4045 133.22 71.9818C133.97 80.559 139.008 84.7861 147.137 84.0749ZM146.527 77.1115C143.479 77.3782 141.734 75.3325 141.379 71.268C141.023 67.2035 142.386 64.8859 145.435 64.6192C148.483 64.3525 150.228 66.3982 150.583 70.4627C150.939 74.5271 149.576 76.8448 146.527 77.1115ZM182.175 69.7465L180.899 55.1622L171.187 56.012L160.568 71.6369L161.117 77.9129L174.446 76.7468L174.817 80.9906L183.096 80.2663L182.725 76.0225L186.52 75.6905L185.971 69.4144L182.175 69.7465ZM167.741 71.0094L173.236 62.9097L173.897 70.4708L167.741 71.0094ZM198.928 79.7545L212.97 53.6815L209.299 51.6537L195.258 77.7267L198.928 79.7545ZM194.895 67.0376C199.677 66.6193 201.439 63.3632 201.123 59.7471C200.809 56.1608 198.508 53.2603 193.726 53.6787C188.944 54.097 187.181 57.3531 187.495 60.9394C187.812 64.5555 190.113 67.456 194.895 67.0376ZM194.45 61.957C193.285 62.059 192.763 61.2614 192.695 60.4844C192.625 59.6775 193.005 58.8612 194.171 58.7593C195.336 58.6573 195.852 59.3951 195.923 60.202C195.991 60.979 195.616 61.8551 194.45 61.957ZM214.484 77.8816C219.266 77.4632 221.029 74.2072 220.713 70.591C220.399 67.0047 218.097 64.1042 213.316 64.5226C208.534 64.9409 206.771 68.197 207.085 71.7833C207.401 75.3995 209.703 78.2999 214.484 77.8816ZM214.04 72.801C212.874 72.9029 212.353 72.1053 212.285 71.3283C212.214 70.5214 212.595 69.7051 213.76 69.6032C214.926 69.5012 215.442 70.239 215.513 71.0459C215.581 71.823 215.206 72.699 214.04 72.801Z" fill="black"/>
<path d="M153.208 112.996L158.906 112.497L151.285 96.2998L143.555 96.9761L138.863 114.251L144.561 113.752L145.105 111.476L152.277 110.849L153.208 112.996ZM146.102 107.273L147.395 101.86L148.352 101.776L150.565 106.883L146.102 107.273ZM159.703 112.427L165.222 111.945L164.902 108.279L168.906 107.928C173.449 107.531 175.981 105.262 175.587 100.759C175.193 96.256 172.305 94.4608 167.743 94.86L158.239 95.6914L159.703 112.427ZM164.501 103.696L164.159 99.7911L167.686 99.4825C169.001 99.3675 169.915 99.95 170.028 101.245C170.141 102.54 169.342 103.273 168.007 103.389L164.501 103.696ZM195.075 109.333L191.606 104.095C192.933 102.975 193.81 101.293 193.613 99.0412C193.227 94.638 190.443 92.874 185.801 93.2801L176.217 94.1185L177.682 110.855L183.201 110.372L182.822 106.048L187.006 105.682L189.656 109.807L195.075 109.333ZM182.137 98.2182L185.823 97.8957C187.218 97.7737 187.994 98.3884 188.097 99.5639C188.2 100.739 187.542 101.48 186.147 101.602L182.461 101.924L182.137 98.2182Z" fill="black"/>
</svg>
