<svg width="721" height="339" viewBox="0 0 721 339" fill="none" xmlns="http://www.w3.org/2000/svg">
<rect x="0.769287" y="159.5" width="719" height="179" fill="#FDCB02" stroke="black"/>
<rect x="8.76929" y="167.5" width="703" height="163" stroke="black"/>
<rect x="0.769287" y="4.5" width="719" height="155" fill="white" stroke="black"/>
<rect x="174.769" y="30.5" width="35" height="11" stroke="black"/>
<rect x="181.269" y="30" width="18" height="12" fill="black"/>
<line x1="210.269" y1="35.5" x2="230.269" y2="35.5" stroke="black"/>
<circle cx="234.269" cy="36" r="4.5" stroke="black"/>
<line x1="230.916" y1="39.7175" x2="237.987" y2="32.6464" stroke="black"/>
<rect x="-0.5" y="0.5" width="35" height="11" transform="matrix(-1 0 0 1 544.269 30)" stroke="black"/>
<rect width="18" height="12" transform="matrix(-1 0 0 1 538.269 30)" fill="black"/>
<line y1="-0.5" x2="20" y2="-0.5" transform="matrix(-1 0 0 1 509.269 36)" stroke="black"/>
<circle r="4.5" transform="matrix(-1 0 0 1 485.269 36)" stroke="black"/>
<line y1="-0.5" x2="10" y2="-0.5" transform="matrix(-0.707107 -0.707107 -0.707107 0.707107 488.269 40.071)" stroke="black"/>
<circle cx="34.2693" cy="109" r="9.5" stroke="black"/>
<line x1="34.7693" y1="92" x2="34.7693" y2="127" stroke="black"/>
<line x1="52.2693" y1="109.5" x2="17.2693" y2="109.5" stroke="black"/>
<circle cx="684.269" cy="109" r="9.5" stroke="black"/>
<line x1="684.769" y1="92" x2="684.769" y2="127" stroke="black"/>
<line x1="702.269" y1="109.5" x2="667.269" y2="109.5" stroke="black"/>
<line x1="151.269" y1="275.5" x2="581.269" y2="275.5" stroke="black" stroke-dasharray="5 5"/>
<path d="M346.308 179.4L351.108 213H343.476L342.756 207.336H337.812L337.14 213H329.46L334.26 179.4H346.308ZM340.164 185.832L338.34 200.616H342.228L340.356 185.832H340.164ZM352.262 213V179.4H362.15C365.83 179.4 368.246 179.944 369.398 181.032C370.582 182.088 371.174 184.216 371.174 187.416V194.568C371.174 197.832 370.598 199.992 369.446 201.048C368.294 202.072 365.862 202.584 362.15 202.584H359.942V213H352.262ZM362.102 185.64H359.942V196.344H362.102C362.582 196.344 362.934 196.264 363.158 196.104C363.382 195.912 363.494 195.544 363.494 195V187.032C363.494 186.488 363.382 186.12 363.158 185.928C362.934 185.736 362.582 185.64 362.102 185.64ZM372.652 213V179.4H382.636C386.348 179.4 388.78 179.928 389.932 180.984C391.084 182.008 391.66 184.152 391.66 187.416V191.208C391.66 193.448 391.356 194.968 390.748 195.768C390.14 196.568 389.004 197.032 387.34 197.16C389.036 197.384 390.172 197.944 390.748 198.84C391.356 199.704 391.66 201.272 391.66 203.544V213H383.98V202.68C383.98 201.272 383.516 200.536 382.588 200.472H380.332V213H372.652ZM380.332 185.64V194.568H382.636C383.116 194.568 383.452 194.488 383.644 194.328C383.868 194.136 383.98 193.752 383.98 193.176V186.984C383.98 186.44 383.868 186.088 383.644 185.928C383.42 185.736 383.068 185.64 382.588 185.64H380.332ZM231.278 262.432H219.502V260H231.278V262.432ZM252.91 244.704H198.382V274.08H207.406V252.192H243.502V265.888C243.502 266.784 243.118 267.04 242.158 267.04C241.774 267.04 240.686 267.104 239.406 267.104V253.728H210.926V271.008H219.502V268.704H236.078C236.846 270.304 237.55 272.096 237.87 273.568C242.606 273.632 246.382 273.568 249.134 272.608C251.95 271.52 252.91 269.856 252.91 265.952V244.704ZM237.358 236.64H214.062V234.464H237.358V236.64ZM247.214 228.384H204.782V242.72H247.214V228.384ZM231.726 218.848C230.958 216.864 229.934 214.56 229.166 212.704L219.438 215.072C219.822 216.224 220.334 217.568 220.718 218.848H196.91V226.592H253.998V218.848H231.726ZM319.214 256.416C315.31 250.912 307.886 243.36 300.846 237.472C301.038 236.256 301.23 235.04 301.422 233.76H318.062V224.736H302.19C302.382 221.152 302.446 217.44 302.51 213.472H292.782C292.718 217.504 292.718 221.28 292.59 224.736H278.83V233.76H291.822C290.478 243.104 286.894 250.08 276.91 254.88C279.086 256.608 281.774 260.064 282.926 262.432C290.67 258.528 295.342 253.28 298.094 246.816C303.47 252.128 308.654 258.08 311.342 262.368L319.214 256.416ZM276.526 226.592C275.182 222.944 271.662 217.824 268.59 214.048L260.59 218.144C263.534 222.176 266.798 227.616 267.886 231.2L276.526 226.592ZM275.886 236.192H259.63V245.152H266.478V258.912C263.854 260.192 260.974 262.24 258.414 264.992L264.814 274.4C266.542 271.008 269.102 266.464 270.83 266.464C272.302 266.464 274.606 268.384 277.742 269.92C282.606 272.352 288.11 273.12 296.366 273.12C303.214 273.12 313.198 272.736 317.678 272.416C317.806 269.728 319.342 264.928 320.43 262.304C313.838 263.456 302.958 264.096 296.75 264.096C289.646 264.096 283.438 263.712 278.958 261.344C277.742 260.768 276.782 260.192 275.886 259.68V236.192ZM362.008 249.227V223.2H344.675L323.448 249.227V260.427H347.235V268H362.008V260.427H368.782V249.227H362.008ZM336.248 249.227L347.235 235.733V249.227H336.248ZM394.234 269.173C408.741 269.173 417.008 260.907 417.008 245.6C417.008 230.293 408.741 222.027 394.234 222.027C379.728 222.027 371.461 230.293 371.461 245.6C371.461 260.907 379.728 269.173 394.234 269.173ZM394.234 256.747C388.794 256.747 386.021 252.853 386.021 245.6C386.021 238.347 388.794 234.453 394.234 234.453C399.674 234.453 402.448 238.347 402.448 245.6C402.448 252.853 399.674 256.747 394.234 256.747ZM441.922 269.173C456.428 269.173 464.695 260.907 464.695 245.6C464.695 230.293 456.428 222.027 441.922 222.027C427.415 222.027 419.148 230.293 419.148 245.6C419.148 260.907 427.415 269.173 441.922 269.173ZM441.922 256.747C436.482 256.747 433.708 252.853 433.708 245.6C433.708 238.347 436.482 234.453 441.922 234.453C447.362 234.453 450.135 238.347 450.135 245.6C450.135 252.853 447.362 256.747 441.922 256.747ZM485.503 269.547L514.409 225.547L508.223 221.387L479.316 265.387L485.503 269.547ZM480.329 246.4C488.863 246.4 492.489 240.907 492.489 234.453C492.489 228.053 488.863 222.56 480.329 222.56C471.796 222.56 468.169 228.053 468.169 234.453C468.169 240.907 471.796 246.4 480.329 246.4ZM480.329 237.333C478.249 237.333 477.449 235.84 477.449 234.453C477.449 233.013 478.249 231.627 480.329 231.627C482.409 231.627 483.209 233.013 483.209 234.453C483.209 235.84 482.409 237.333 480.329 237.333ZM513.343 268.64C521.876 268.64 525.503 263.147 525.503 256.693C525.503 250.293 521.876 244.8 513.343 244.8C504.809 244.8 501.183 250.293 501.183 256.693C501.183 263.147 504.809 268.64 513.343 268.64ZM513.343 259.573C511.263 259.573 510.463 258.08 510.463 256.693C510.463 255.253 511.263 253.867 513.343 253.867C515.423 253.867 516.223 255.253 516.223 256.693C516.223 258.08 515.423 259.573 513.343 259.573ZM279.846 291.772C279.198 290.224 277.614 287.992 276.282 286.372L272.538 287.92C273.798 289.612 275.31 291.988 275.886 293.428L279.846 291.772ZM285.75 293.86C285.786 292.636 285.822 291.52 285.822 290.44V285.544H281.466V290.404C281.466 291.484 281.43 292.636 281.358 293.86H270.306V298.216H280.854C279.774 304.084 276.93 310.564 269.406 315.244C270.486 315.964 272.142 317.476 272.826 318.448C281.322 312.868 284.31 305.092 285.318 298.216H295.758C295.398 308.44 294.93 312.868 293.994 313.876C293.526 314.344 293.13 314.452 292.41 314.452C291.438 314.452 289.386 314.452 287.19 314.272C287.982 315.532 288.594 317.44 288.666 318.772C290.826 318.844 293.058 318.88 294.426 318.664C295.938 318.448 296.982 318.016 297.99 316.684C299.394 314.92 299.862 309.736 300.366 295.912C300.366 295.336 300.402 293.86 300.402 293.86H285.75ZM292.914 308.116C292.05 306.316 290.142 303.544 288.522 301.564L284.922 303.22C286.506 305.344 288.306 308.188 289.062 310.024L292.914 308.116ZM311.85 304.408H316.314V306.856H311.85V304.408ZM316.314 293.5V295.588H311.85V293.5H316.314ZM311.85 298.864H316.314V301.132H311.85V298.864ZM322.434 306.856H320.238V293.5H322.686V289.756H320.238V285.94H316.314V289.756H311.85V285.94H307.998V289.756H305.19V293.5H307.998V306.856H304.758V310.6H322.434V306.856ZM309.222 310.852C308.214 313.012 306.342 315.28 304.47 316.684C305.442 317.26 307.098 318.484 307.89 319.24C309.834 317.476 311.958 314.668 313.218 312.04L309.222 310.852ZM327.87 303.4C327.906 302.284 327.906 301.24 327.906 300.304V298.972H333.09V303.4H327.87ZM333.09 290.98V295.192H327.906V290.98H333.09ZM337.23 287.092H323.91V300.304C323.91 304.984 323.73 311.068 321.642 315.568C320.742 314.092 319.05 312.112 317.754 310.672L314.514 312.436C315.918 314.092 317.646 316.468 318.366 317.872L321.354 316.18C321.246 316.396 321.102 316.576 320.994 316.792C321.93 317.152 323.694 318.448 324.378 319.204C326.322 315.964 327.222 311.464 327.618 307.216H333.09V314.308C333.09 314.884 332.91 315.064 332.37 315.064C331.866 315.064 330.138 315.1 328.59 314.992C329.13 316.072 329.67 317.944 329.814 319.06C332.478 319.096 334.314 318.988 335.574 318.304C336.834 317.62 337.23 316.504 337.23 314.38V287.092ZM349.434 316.504C354.51 316.504 358.794 313.66 358.794 308.764C358.794 305.272 356.49 303.04 353.502 302.212V302.032C356.31 300.916 357.93 298.828 357.93 295.948C357.93 291.412 354.438 288.856 349.29 288.856C346.158 288.856 343.602 290.116 341.298 292.132L343.998 295.372C345.582 293.896 347.13 293.032 349.038 293.032C351.306 293.032 352.602 294.256 352.602 296.344C352.602 298.72 351.018 300.412 346.122 300.412V304.192C351.918 304.192 353.466 305.848 353.466 308.44C353.466 310.852 351.63 312.184 348.93 312.184C346.518 312.184 344.574 310.996 342.99 309.448L340.506 312.796C342.378 314.92 345.222 316.504 349.434 316.504ZM371.389 316.504C376.825 316.504 380.389 311.752 380.389 302.572C380.389 293.392 376.825 288.856 371.389 288.856C365.953 288.856 362.353 293.356 362.353 302.572C362.353 311.752 365.953 316.504 371.389 316.504ZM371.389 312.364C369.085 312.364 367.357 310.06 367.357 302.572C367.357 295.12 369.085 292.96 371.389 292.96C373.693 292.96 375.385 295.12 375.385 302.572C375.385 310.06 373.693 312.364 371.389 312.364ZM415.593 303.112V298.72H401.877C401.913 297.784 401.949 296.884 401.949 296.02V292.312H414.189V287.92H385.677V292.312H397.449V295.948C397.449 296.848 397.413 297.748 397.341 298.72H384.381V303.112H396.441C394.965 307.684 391.437 312.328 383.121 315.28C384.057 316.108 385.353 317.908 385.929 318.988C394.029 315.964 398.097 311.428 400.077 306.64C403.101 312.544 407.457 316.72 414.225 318.88C414.837 317.656 416.133 315.784 417.177 314.884C410.157 313.048 405.549 308.836 403.029 303.112H415.593ZM425.133 306.748H428.805L429.777 294.436L429.957 289.072H423.981L424.161 294.436L425.133 306.748ZM426.969 316.324C428.769 316.324 430.137 315.028 430.137 313.156C430.137 311.248 428.769 309.952 426.969 309.952C425.169 309.952 423.801 311.248 423.801 313.156C423.801 315.028 425.133 316.324 426.969 316.324Z" fill="black"/>
<path d="M69.4912 138H114.671V121.56H89.2312V87.6H69.4912V138ZM159.156 138H179.496L161.616 87.6H134.016L116.136 138H136.476L138.156 132.54H157.536L159.156 138ZM142.536 118.08L146.196 106.02H149.496L153.156 118.08H142.536ZM204.369 139.68C222.909 139.68 231.669 132.24 231.669 115.2V87.6H211.989V114.9C211.989 119.94 209.889 123.18 204.369 123.18C198.849 123.18 196.929 119.94 196.929 114.9V87.6H177.069V115.38C177.069 132.24 185.829 139.68 204.369 139.68ZM235.288 138H254.488V115.2H256.288L269.068 138H291.088V87.6H271.888V110.4H270.148L257.848 87.6H235.288V138ZM322.602 139.68C335.862 139.68 349.182 133.92 350.322 115.26H331.602C330.702 120.3 327.522 122.7 322.602 122.7C317.562 122.7 313.422 119.04 313.422 112.8C313.422 106.56 317.562 102.9 322.602 102.9C327.522 102.9 330.702 105.24 331.602 110.16H350.322C349.182 91.62 335.742 85.92 322.602 85.92C305.202 85.92 293.802 96.42 293.802 112.8C293.802 129.12 305.202 139.68 322.602 139.68ZM388.631 87.6V104.52H372.731V87.6H352.991V138H372.731V121.08H388.631V138H408.371V87.6H388.631ZM427.874 138H447.614V128.58H458.114C471.974 128.58 480.674 122.64 480.674 108.06C480.674 93.48 471.974 87.6 457.994 87.6H427.874V138ZM447.614 112.26V103.92H456.254C458.894 103.92 460.754 105.3 460.754 108.06C460.754 110.82 458.894 112.26 456.134 112.26H447.614ZM511.962 139.68C529.842 139.68 541.062 129.12 541.062 112.8C541.062 96.42 529.842 85.92 511.962 85.92C494.022 85.92 482.802 96.42 482.802 112.8C482.802 129.12 494.022 139.68 511.962 139.68ZM511.962 122.7C506.922 122.7 502.422 119.46 502.422 112.8C502.422 106.08 506.922 102.9 511.962 102.9C516.942 102.9 521.502 106.08 521.502 112.8C521.502 119.46 516.942 122.7 511.962 122.7ZM572.782 139.68C590.662 139.68 601.882 129.12 601.882 112.8C601.882 96.42 590.662 85.92 572.782 85.92C554.842 85.92 543.622 96.42 543.622 112.8C543.622 129.12 554.842 139.68 572.782 139.68ZM572.782 122.7C567.742 122.7 563.242 119.46 563.242 112.8C563.242 106.08 567.742 102.9 572.782 102.9C577.762 102.9 582.322 106.08 582.322 112.8C582.322 119.46 577.762 122.7 572.782 122.7ZM604.569 138H649.749V121.56H624.309V87.6H604.569V138Z" fill="black"/>
<line x1="0.269287" y1="66.5" x2="720.269" y2="66.5" stroke="black"/>
<path d="M277.863 58V13.2H291.047C295.954 13.2 299.175 13.9253 300.711 15.376C302.29 16.784 303.079 19.6213 303.079 23.888V33.424C303.079 37.776 302.311 40.656 300.775 42.064C299.239 43.4293 295.997 44.112 291.047 44.112H288.103V58H277.863ZM290.983 21.52H288.103V35.792H290.983C291.623 35.792 292.093 35.6853 292.391 35.472C292.69 35.216 292.839 34.7253 292.839 34V23.376C292.839 22.6507 292.69 22.16 292.391 21.904C292.093 21.648 291.623 21.52 290.983 21.52ZM305.051 58V13.2H318.363C323.312 13.2 326.555 13.904 328.091 15.312C329.627 16.6773 330.395 19.536 330.395 23.888V28.944C330.395 31.9307 329.989 33.9573 329.179 35.024C328.368 36.0907 326.853 36.7093 324.635 36.88C326.896 37.1787 328.411 37.9253 329.179 39.12C329.989 40.272 330.395 42.3627 330.395 45.392V58H320.155V44.24C320.155 42.3627 319.536 41.3813 318.299 41.296H315.291V58H305.051ZM315.291 21.52V33.424H318.363C319.003 33.424 319.451 33.3173 319.707 33.104C320.005 32.848 320.155 32.336 320.155 31.568V23.312C320.155 22.5867 320.005 22.1173 319.707 21.904C319.408 21.648 318.939 21.52 318.299 21.52H315.291ZM342.856 39.44V49.296H353.928V58H332.68V13.2H353.928V21.904H342.856V30.736H352.776V39.44H342.856ZM355.79 42.704V34.768H372.878V42.704H355.79ZM375.305 58V13.2H385.481V58H375.305ZM388.363 58V13.2H401.611C406.561 13.2 409.803 13.904 411.339 15.312C412.918 16.72 413.707 19.6213 413.707 24.016V47.184C413.707 51.5787 412.918 54.48 411.339 55.888C409.803 57.296 406.561 58 401.611 58H388.363ZM401.611 21.52H398.603V49.68H401.611C402.294 49.68 402.785 49.552 403.083 49.296C403.382 48.9973 403.531 48.464 403.531 47.696V23.376C403.531 22.608 403.382 22.1173 403.083 21.904C402.785 21.648 402.294 21.52 401.611 21.52ZM428.273 12.944H429.489C434.481 12.944 437.767 13.648 439.345 15.056C440.924 16.464 441.713 19.3867 441.713 23.824V47.376C441.713 51.7707 440.924 54.6933 439.345 56.144C437.767 57.552 434.481 58.256 429.489 58.256H428.273C423.324 58.256 420.039 57.5307 418.417 56.08C416.839 54.6293 416.049 51.728 416.049 47.376V23.824C416.049 19.3867 416.839 16.464 418.417 15.056C419.996 13.648 423.281 12.944 428.273 12.944ZM428.337 49.936H429.425C430.151 49.936 430.663 49.808 430.961 49.552C431.303 49.296 431.473 48.7413 431.473 47.888V23.312C431.473 22.4587 431.303 21.904 430.961 21.648C430.663 21.392 430.151 21.264 429.425 21.264H428.337C427.612 21.264 427.079 21.392 426.737 21.648C426.439 21.904 426.289 22.4587 426.289 23.312V47.888C426.289 48.7413 426.439 49.296 426.737 49.552C427.079 49.808 427.612 49.936 428.337 49.936Z" fill="black"/>
</svg>
