<svg width="760" height="291" viewBox="0 0 760 291" fill="none" xmlns="http://www.w3.org/2000/svg">
<path d="M403.94 65.4223L265.41 35.0912C258.014 33.4717 250.705 38.1549 249.085 45.5512L218.754 184.081C217.135 191.478 221.818 198.786 229.214 200.406L367.744 230.737C375.141 232.356 382.449 227.673 384.069 220.277L414.4 81.7468C416.019 74.3504 411.336 67.0417 403.94 65.4223Z" fill="#007EFC"/>
<path d="M370.672 231.512C369.655 231.515 368.641 231.407 367.647 231.19L229.111 200.844C227.295 200.448 225.575 199.697 224.049 198.636C222.523 197.574 221.222 196.222 220.219 194.657C219.216 193.092 218.531 191.345 218.203 189.515C217.876 187.686 217.912 185.81 218.31 183.994L248.646 45.4575C249.453 41.7917 251.682 38.5958 254.843 36.571C258.003 34.5461 261.838 33.8575 265.506 34.6563L404.042 64.9927C407.708 65.8002 410.905 68.0283 412.931 71.1886C414.957 74.3488 415.648 78.1835 414.852 81.8522L384.498 220.389C383.803 223.539 382.055 226.359 379.541 228.381C377.027 230.404 373.898 231.508 370.672 231.512ZM367.835 230.304C371.271 231.05 374.863 230.403 377.823 228.506C380.784 226.609 382.872 223.616 383.63 220.183L413.957 81.6643C414.706 78.2293 414.061 74.6377 412.166 71.6769C410.27 68.7161 407.278 66.6277 403.845 65.8697L265.318 35.5332C263.616 35.1604 261.858 35.1264 260.143 35.4332C258.428 35.7401 256.79 36.3818 255.324 37.3217C253.857 38.2616 252.59 39.4812 251.594 40.911C250.599 42.3407 249.895 43.9525 249.523 45.6543L219.187 184.182C218.814 185.883 218.78 187.642 219.087 189.357C219.393 191.071 220.035 192.709 220.975 194.176C221.915 195.643 223.135 196.91 224.564 197.905C225.994 198.9 227.606 199.604 229.308 199.976L367.835 230.304Z" fill="black"/>
<path d="M365.634 219.181C364.926 219.178 364.221 219.1 363.531 218.948L237.997 191.466C236.744 191.191 235.557 190.673 234.505 189.939C233.453 189.206 232.555 188.272 231.864 187.192C231.172 186.112 230.7 184.906 230.475 183.643C230.25 182.38 230.276 181.085 230.552 179.833L258.033 54.3436C258.59 51.8144 260.128 49.6095 262.309 48.2135C264.491 46.8175 267.137 46.3444 269.667 46.8982L395.165 74.38C397.693 74.9388 399.896 76.4772 401.292 78.6579C402.687 80.8386 403.161 83.4837 402.61 86.0134L375.119 211.511C374.642 213.676 373.444 215.614 371.72 217.008C369.996 218.401 367.85 219.167 365.634 219.181ZM363.719 218.071C364.856 218.322 366.032 218.347 367.18 218.143C368.327 217.938 369.422 217.51 370.403 216.881C371.385 216.253 372.232 215.437 372.897 214.48C373.562 213.523 374.031 212.444 374.278 211.306L401.724 85.8166C402.225 83.5193 401.793 81.1174 400.525 79.1377C399.257 77.1581 397.255 75.7624 394.959 75.257L269.47 47.7484C267.173 47.2478 264.771 47.679 262.791 48.9473C260.811 50.2157 259.416 52.2175 258.91 54.5137L231.402 180.03C231.15 181.167 231.126 182.343 231.33 183.491C231.534 184.638 231.963 185.733 232.591 186.714C233.22 187.695 234.036 188.543 234.993 189.208C235.95 189.873 237.028 190.342 238.167 190.589L363.719 218.071Z" fill="black"/>
<path d="M266.159 122.372L264.808 128.547L271.823 130.077L273.175 123.912C277.351 124.622 280.387 124.299 282.285 122.945C284.182 121.591 285.611 118.659 286.571 114.148L288.361 105.916C288.729 104.399 288.898 102.841 288.862 101.28C288.815 100.081 288.414 98.9219 287.708 97.9511C287.163 97.1643 286.513 96.4566 285.775 95.8482C285.184 95.4007 284.182 94.7296 282.786 93.8347L278.141 90.98C276.67 90.1532 275.351 89.0819 274.24 87.8122C273.739 87.0694 273.676 85.8255 274.052 84.0984L274.947 79.9104C275.251 78.5412 275.707 77.7179 276.325 77.4584C277.223 77.1872 278.182 77.1872 279.081 77.4584L280.146 77.6911C281.075 77.8182 281.944 78.2202 282.643 78.8455C283.099 79.3377 283.171 80.2773 282.866 81.6464L281.426 88.4296L291.403 90.6131L292.737 84.519C293.733 79.9969 293.7 76.7425 292.638 74.7559C291.576 72.7692 289.014 71.2241 284.951 70.1204L286.124 64.7511L279.108 63.2119L277.944 68.5812C273.834 67.8892 270.869 68.2382 269.049 69.6282C267.23 71.0183 265.831 73.9445 264.852 78.407L263.421 84.9664C263.052 86.4734 262.898 88.025 262.964 89.5751C263.031 90.806 263.467 91.9881 264.217 92.9667C264.828 93.7783 265.527 94.5196 266.302 95.177C266.928 95.6871 267.949 96.412 269.336 97.3516L274.356 100.448C274.589 100.6 274.982 100.886 275.564 101.343C276.146 101.799 276.459 102.041 276.656 102.184C276.853 102.327 277.05 102.56 277.381 102.9C277.646 103.142 277.84 103.451 277.944 103.795C277.999 104.129 278.032 104.467 278.043 104.806C278.046 105.306 277.989 105.805 277.873 106.291L276.486 112.618C276.38 113.386 276.071 114.113 275.591 114.721C275.433 114.919 275.235 115.081 275.01 115.197C274.784 115.313 274.537 115.379 274.284 115.392C273.645 115.379 273.008 115.295 272.387 115.142L271.018 114.838C270.088 114.713 269.216 114.314 268.512 113.692C268.065 113.191 267.993 112.233 268.307 110.811L269.81 103.956L259.743 101.728L258.373 107.992C257.395 112.46 257.431 115.703 258.481 117.719C259.531 119.736 262.09 121.287 266.159 122.372Z" fill="black"/>
<path d="M294.186 104.716C294.975 105.819 296.057 106.678 297.31 107.195C299.158 107.881 301.058 108.417 302.992 108.797L305.041 109.253C306.454 109.654 307.951 109.654 309.364 109.253L307.171 119.213C306.867 120.636 306.384 121.531 305.748 121.898C304.903 122.277 303.95 122.337 303.064 122.068L301.614 121.746C300.697 121.619 299.86 121.153 299.269 120.439C299.032 119.979 298.89 119.475 298.851 118.959C298.813 118.442 298.879 117.923 299.046 117.433L299.869 113.701L290.696 111.696L289.998 114.864C288.895 119.894 288.96 123.354 290.195 125.245C291.43 127.136 294.69 128.66 299.976 129.818L301.345 130.122C306.583 131.267 310.22 131.187 312.254 129.88C314.288 128.574 315.866 125.379 316.988 120.296L323.368 91.1858C324.353 86.6696 324.144 83.3108 322.742 81.1094C321.34 78.908 318.059 77.2465 312.898 76.1249L311.753 75.8744C306.384 74.6812 302.628 74.6812 300.486 75.8744C298.345 77.0675 296.752 80.1668 295.708 85.1722L293.99 93.0113C293.411 95.4006 293.064 97.8399 292.951 100.296C292.861 101.865 293.296 103.421 294.186 104.716ZM303.341 96.9667L305.677 86.3892C305.793 85.6196 306.132 84.901 306.652 84.322C306.992 83.9596 307.454 83.7364 307.95 83.6956C308.577 83.7022 309.202 83.7833 309.811 83.9372L311.332 84.2773C312.227 84.4023 313.063 84.7954 313.731 85.4048C314.178 85.897 314.259 86.8366 313.954 88.2058L311.538 99.2576C311.27 100.451 310.921 101.185 310.491 101.459C309.792 101.716 309.024 101.716 308.325 101.459L306.044 100.958C305.121 100.833 304.261 100.423 303.583 99.7856C303.126 99.3023 303.046 98.3538 303.341 96.9667Z" fill="black"/>
<path d="M324.201 111.285C324.992 112.391 326.077 113.252 327.333 113.772C329.178 114.458 331.075 114.994 333.006 115.374L335.065 115.822C336.475 116.222 337.968 116.222 339.378 115.822L337.194 125.8C336.878 127.225 336.404 128.12 335.772 128.484C334.926 128.862 333.972 128.92 333.087 128.645L331.628 128.287C330.71 128.157 329.874 127.688 329.284 126.972C328.827 126.345 328.756 125.343 329.06 123.965L329.839 120.233L320.702 118.238L319.995 121.468C318.897 126.498 318.966 129.961 320.201 131.858C321.436 133.755 324.693 135.279 329.973 136.431L331.351 136.735C336.577 137.88 340.213 137.797 342.259 136.484C344.306 135.172 345.884 131.977 346.993 126.9L353.365 97.7988C354.355 93.2767 354.146 89.9179 352.738 87.7225C351.331 85.527 348.049 83.8655 342.895 82.738L341.749 82.4874C336.38 81.2942 332.628 81.2942 330.492 82.4874C328.356 83.6806 326.751 86.762 325.677 91.7315L323.959 99.5796C323.377 101.965 323.029 104.402 322.921 106.855C322.841 108.433 323.291 109.993 324.201 111.285ZM333.364 103.553L335.682 92.9665C335.792 92.1966 336.128 91.4769 336.649 90.8993C336.989 90.5363 337.451 90.3103 337.946 90.2639C338.574 90.2785 339.198 90.3625 339.807 90.5145L341.329 90.8456C342.235 90.9743 343.082 91.3699 343.763 91.9821C344.21 92.4743 344.282 93.4139 343.987 94.7831L341.561 105.826C341.302 107.052 340.953 107.786 340.523 108.036C339.824 108.289 339.057 108.289 338.358 108.036L336.103 107.58C335.185 107.448 334.329 107.039 333.651 106.408C333.141 105.915 333.06 104.922 333.364 103.553Z" fill="black"/>
<path d="M390.046 93.3692L379.298 91.0157L368.784 111.705L365.58 111.007L370.385 89.0649L360.407 86.8813L348.729 140.216L358.707 142.4L363.28 121.522L366.86 122.31L367.853 144.404L378.896 146.82L376.515 118.676L390.046 93.3692Z" fill="black"/>
<path d="M289.92 135.931L286.347 152.252L289.398 152.92L292.971 136.599L289.92 135.931Z" fill="black"/>
<path d="M295.708 145.335L295.725 145.344L296.441 154.463L299.636 155.161L303.207 138.847L300.343 138.221L298.365 147.214H298.347L297.497 137.594L294.419 136.923L290.848 153.237L293.828 153.89L295.708 145.335Z" fill="black"/>
<path d="M304.641 139.162L301.062 155.482L304.112 156.151L307.692 139.831L304.641 139.162Z" fill="black"/>
<path d="M310.921 157.631L313.919 143.93L316.809 144.565L317.382 141.952L308.522 140.01L307.95 142.624L310.84 143.25L307.842 156.96L310.921 157.631Z" fill="black"/>
<path d="M318.219 142.136L314.646 158.457L317.696 159.125L321.27 142.804L318.219 142.136Z" fill="black"/>
<path d="M318.518 159.304L321.596 159.975L322.742 157.076L325.892 157.765L325.74 160.879L328.8 161.55L329.597 144.628L324.863 143.59L318.518 159.304ZM326.742 146.641L326.196 154.919L323.628 154.364L326.599 146.606L326.742 146.641Z" fill="black"/>
<path d="M337.132 160.637L333.239 159.787L336.237 146.078L333.185 145.416L329.615 161.729L336.559 163.25L337.132 160.637Z" fill="black"/>
<path d="M257.532 153.935L251.85 165.944L251.814 165.935L251.671 152.655L246.534 151.528L241.675 173.712L245.764 174.607L248.342 161.926L248.467 161.953L248.234 175.152L251.277 175.815L256.584 163.725L256.682 163.752L253.684 176.343L257.809 177.246L262.669 155.062L257.532 153.935Z" fill="black"/>
<path d="M267.546 156.127L258.919 177.506L263.098 178.401L264.664 174.454L268.987 175.403L268.79 179.645L272.942 180.54L274.025 157.532L267.546 156.127ZM269.336 171.537L265.846 170.776L269.881 160.235L270.078 160.279L269.336 171.537Z" fill="black"/>
<path d="M287.135 173.739C286.981 173.384 286.753 173.068 286.465 172.81C286.178 172.552 285.839 172.359 285.47 172.244C285.829 172.311 286.197 172.302 286.552 172.217C286.906 172.133 287.239 171.974 287.528 171.752C288.187 170.996 288.604 170.062 288.728 169.067L289.408 165.953C289.828 164.011 289.757 162.651 289.193 161.855C288.629 161.058 287.26 160.441 285.103 159.966L278.83 158.597L273.971 180.781L278.123 181.676L279.993 173.032L282.088 173.488C282.911 173.667 283.206 174.284 282.982 175.349L281.425 182.446L285.613 183.341L287.045 176.781C287.346 175.793 287.377 174.743 287.135 173.739ZM285.273 164.79L284.316 169.193C284.199 169.703 284.038 169.998 283.833 170.087C283.525 170.189 283.192 170.189 282.884 170.087L280.727 169.622L282.195 162.928L284.28 163.394C284.609 163.439 284.919 163.576 285.175 163.787C285.354 163.984 285.381 164.307 285.273 164.799V164.79Z" fill="black"/>
<path d="M304.281 164.172L299.806 163.197L295.439 171.805L294.106 171.51L296.102 162.382L291.949 161.479L287.09 183.663L291.242 184.566L293.148 175.886L294.634 176.208L295.046 185.399L299.645 186.41L298.652 174.696L304.281 164.172Z" fill="black"/>
<path d="M314.787 170.195L315.565 166.642L305.641 164.477L300.782 186.661L310.706 188.835L311.476 185.283L305.713 184.021L307.028 177.998L312.263 179.144L313.033 175.591L307.807 174.446L309.015 168.933L314.787 170.195Z" fill="black"/>
<path d="M315.512 170.356L319.44 171.215L315.359 189.846L319.547 190.768L323.628 172.128L327.557 172.996L328.335 169.443L316.29 166.803L315.512 170.356Z" fill="black"/>
<path d="M342.921 185.793L338.769 184.898L337.686 189.846C337.561 190.41 337.373 190.741 337.114 190.875C336.738 190.997 336.335 190.997 335.959 190.875L335.234 190.714C334.851 190.661 334.494 190.489 334.214 190.222C334.017 190.007 333.982 189.614 334.107 189.041L336.908 176.235C337.033 175.662 337.23 175.34 337.498 175.206C337.868 175.086 338.266 175.086 338.635 175.206L339.36 175.358C339.751 175.409 340.115 175.585 340.398 175.859C340.586 176.074 340.613 176.468 340.487 177.041L339.548 181.345L343.7 182.24L344.595 178.186C345.042 176.134 344.971 174.693 344.38 173.864C343.789 173.04 342.367 172.378 340.129 171.886L339.405 171.734C337.185 171.242 335.619 171.251 334.724 171.734C333.829 172.217 333.158 173.524 332.711 175.564L330.026 187.86C329.579 189.906 329.656 191.347 330.259 192.182C330.867 193.005 332.272 193.667 334.492 194.151L335.225 194.312C337.463 194.801 339.026 194.801 339.915 194.312C340.81 193.802 341.463 192.522 341.91 190.482L342.921 185.793Z" fill="black"/>
<path d="M350.206 174.231L341.57 195.592L345.758 196.486L347.315 192.549L351.593 193.444L351.396 197.686L355.548 198.58L356.685 175.636L350.206 174.231ZM351.996 189.641L348.506 188.88L352.542 178.338H352.729L351.996 189.641Z" fill="black"/>
<path d="M367.629 178.052L361.454 176.692L356.595 198.885L360.747 199.78L362.322 192.621L364.354 193.068C366.528 193.542 368.032 193.551 368.882 193.068C369.732 192.585 370.358 191.386 370.797 189.417L371.969 184.048C372.393 182.121 372.312 180.757 371.728 179.958C371.155 179.162 369.786 178.517 367.629 178.052ZM367.826 182.938L366.528 188.71C366.421 189.193 366.242 189.479 366 189.605C365.677 189.705 365.331 189.705 365.007 189.605L363.038 189.175L364.828 181.121L366.797 181.551C367.132 181.6 367.444 181.75 367.692 181.98C367.783 182.12 367.843 182.279 367.866 182.444C367.889 182.61 367.875 182.778 367.826 182.938Z" fill="black"/>
<path d="M249.843 136.332L249.651 137.207L280.632 143.99L280.823 143.116L249.843 136.332Z" fill="black"/>
<path d="M341.828 155.079L341.636 155.954L372.617 162.737L372.808 161.863L341.828 155.079Z" fill="black"/>
<g filter="url(#filter0_d)">
<path d="M237.82 97.7074C239.118 103.077 234.446 109.207 234.795 114.504C235.144 119.945 240.549 125.467 239.959 130.764C239.368 136.062 232.862 140.366 231.35 145.503C229.838 150.64 233.006 157.736 230.616 162.55C228.227 167.365 220.683 169.119 217.497 173.459C214.311 177.799 214.911 185.513 211 189.245C207.09 192.976 199.456 192.01 194.893 195.017C190.329 198.023 188.423 205.424 183.42 207.572C178.561 209.702 171.688 206.185 166.355 207.482C161.021 208.78 156.511 215.053 151.231 215.402C145.791 215.751 140.493 210.086 135.222 209.496C129.951 208.905 123.436 213.29 118.282 211.778C113.127 210.265 110.103 203.097 105.288 200.735C100.474 198.372 92.9658 200.261 88.6167 197.066C84.2675 193.871 83.8828 186.166 80.1422 182.256C76.4016 178.345 68.7414 177.629 65.7256 173.119C62.7099 168.609 65.0366 161.289 62.8531 156.295C60.7322 151.436 53.7521 148.089 52.4546 142.765C51.157 137.44 55.8283 131.256 55.4793 125.968C55.1303 120.527 49.7252 114.996 50.3158 109.699C50.9064 104.401 57.4301 100.106 58.9246 94.9601C60.419 89.8145 57.269 82.7271 59.6584 77.9574C62.0477 73.1876 69.5915 71.3889 72.7862 67.0488C75.981 62.7086 75.3724 55.0037 79.2741 51.2631C83.1758 47.5225 90.8181 48.5069 95.382 45.4911C99.9458 42.4754 101.861 35.0389 106.854 32.8554C111.714 30.7345 118.595 34.2514 123.92 32.9538C129.244 31.6563 133.754 25.3742 139.043 25.0163C144.484 24.6583 149.782 30.3229 155.062 30.9135C160.341 31.5041 166.838 27.164 171.975 28.6763C177.111 30.1887 180.172 37.3298 184.986 39.7102C189.801 42.0906 197.318 40.1934 201.658 43.3792C205.998 46.565 206.401 54.2878 210.132 58.1984C213.864 62.109 221.542 62.816 224.549 67.3351C227.556 71.8543 225.238 79.1565 227.421 84.1589C229.542 89.036 236.522 92.3739 237.82 97.7074Z" fill="#FF6C22"/>
<path d="M139.535 25.912C142.112 25.912 144.797 27.3885 147.401 28.8114C149.844 30.1537 152.377 31.5408 154.963 31.8271C155.33 31.8271 155.723 31.8898 156.126 31.8898C158.515 31.7574 160.875 31.3029 163.142 30.5385C165.226 29.8272 167.396 29.3998 169.594 29.2678C170.314 29.2593 171.031 29.3527 171.724 29.5452C174.292 30.3058 176.324 32.6146 178.462 35.0666C180.315 37.1785 182.23 39.362 184.592 40.5343C186.955 41.7066 189.863 41.9124 192.646 42.1093C195.895 42.333 198.955 42.5478 201.103 44.1228C203.251 45.6978 204.351 48.5435 205.533 51.5682C206.562 54.1991 207.627 56.9375 209.461 58.8346C211.296 60.7317 213.935 61.8951 216.477 63.0316C219.457 64.356 222.285 65.6088 223.779 67.846C225.274 70.0832 225.3 73.0811 225.372 76.3027C225.435 79.1394 225.497 82.0746 226.571 84.5356C227.645 86.9965 229.676 88.8936 231.681 90.7997C233.936 92.9743 236.281 95.2294 236.925 97.8872C237.569 100.545 236.531 103.632 235.52 106.603C234.625 109.234 233.73 111.973 233.873 114.532C234.017 117.091 235.332 119.848 236.558 122.398C237.981 125.297 239.314 128.036 239.028 130.64C238.742 133.244 236.8 135.723 234.75 138.273C232.961 140.457 231.171 142.747 230.446 145.226C229.721 147.705 229.999 150.676 230.294 153.477C230.634 156.708 230.947 159.741 229.775 162.131C228.603 164.52 225.963 166.113 223.188 167.795C220.781 169.263 218.294 170.775 216.727 172.905C215.161 175.035 214.472 177.845 213.792 180.574C213.014 183.733 212.271 186.722 210.338 188.574C208.405 190.427 205.434 190.999 202.284 191.635C199.51 192.19 196.646 192.771 194.427 194.248C192.208 195.724 190.651 198.078 189.058 200.387C187.223 203.071 185.478 205.675 183.008 206.767C181.9 207.213 180.712 207.423 179.518 207.385C177.822 207.337 176.132 207.16 174.462 206.857C172.668 206.536 170.852 206.35 169.03 206.302C168.039 206.287 167.05 206.395 166.086 206.624C163.455 207.259 161.066 208.995 158.757 210.678C156.162 212.566 153.71 214.347 151.124 214.517H150.685C148.117 214.517 145.423 213.049 142.819 211.617C140.376 210.284 137.853 208.933 135.267 208.611C134.88 208.567 134.492 208.546 134.103 208.548C131.714 208.674 129.353 209.129 127.087 209.899C125 210.61 122.827 211.037 120.626 211.17C119.906 211.176 119.189 211.079 118.496 210.884C115.928 210.132 113.906 207.814 111.758 205.362C109.906 203.25 107.991 201.067 105.628 199.895C103.266 198.722 100.357 198.525 97.5742 198.328C94.3347 198.105 91.31 197.89 89.1176 196.315C86.9251 194.74 85.8692 191.841 84.6879 188.861C83.6588 186.239 82.5939 183.491 80.7594 181.603C78.9249 179.715 76.285 178.534 73.7525 177.397C70.7636 176.073 67.9447 174.829 66.4503 172.583C64.9558 170.337 64.929 167.357 64.8484 164.126C64.7858 161.289 64.7232 158.363 63.6493 155.902C62.5755 153.441 60.5441 151.535 58.5485 149.638C56.2844 147.455 53.9488 145.164 53.2955 142.542C52.6423 139.92 53.6982 136.805 54.7005 133.826C55.5954 131.195 56.4903 128.456 56.3471 125.897C56.2039 123.338 54.8884 120.581 53.6624 118.031C52.2575 115.14 50.9152 112.402 51.1657 109.798C51.4163 107.194 53.4029 104.715 55.4433 102.165C57.233 99.9901 59.0228 97.6903 59.7476 95.2204C60.4725 92.7505 60.1951 89.7706 59.8998 86.9607C59.5687 83.7391 59.2465 80.6965 60.4277 78.3161C61.609 75.9358 64.231 74.3339 67.0051 72.6426C69.4123 71.175 71.9001 69.6626 73.4661 67.5328C75.0322 65.403 75.7302 62.5931 76.4013 59.8637C77.1888 56.7048 77.9226 53.7159 79.8556 51.8724C81.7885 50.029 84.7685 49.4473 87.9095 48.803C90.6836 48.2482 93.5472 47.6754 95.7665 46.1989C97.9858 44.7223 99.5429 42.3599 101.136 40.0511C102.97 37.3664 104.715 34.7623 107.185 33.6795C108.292 33.2306 109.481 33.0172 110.675 33.0531C112.371 33.1057 114.061 33.2821 115.731 33.5811C117.525 33.9046 119.341 34.0931 121.163 34.1449C122.154 34.1554 123.142 34.0472 124.107 33.8227C126.738 33.1784 129.128 31.4423 131.436 29.7689C134.058 27.8807 136.51 26.0909 139.106 25.912H139.535ZM139.535 25.0171H139.043C133.754 25.375 129.253 31.6571 123.919 32.9547C123.039 33.1554 122.138 33.2545 121.235 33.25C117.834 33.25 114.076 32.1582 110.747 32.1582C109.43 32.1206 108.119 32.3583 106.899 32.8562C101.905 35.0397 99.8204 42.4941 95.3817 45.4472C90.9431 48.4003 83.1935 47.5233 79.2739 51.2192C75.3543 54.915 75.9629 62.6736 72.786 67.0049C69.6092 71.3361 62.0475 73.0811 59.6581 77.9134C57.2688 82.7458 60.4546 89.7795 58.9243 94.9162C57.3941 100.053 50.9152 104.303 50.3156 109.7C49.716 115.096 55.1301 120.528 55.4791 125.968C55.8281 131.257 51.1568 137.432 52.4544 142.765C53.7519 148.099 60.732 151.437 62.8529 156.296C65.0364 161.289 62.7723 168.681 65.7254 173.12C68.6785 177.558 76.464 178.382 80.1419 182.256C83.8199 186.131 84.2852 193.89 88.6165 197.067C92.9477 200.244 100.456 198.337 105.288 200.736C110.12 203.134 113.118 210.257 118.282 211.779C119.056 211.998 119.857 212.107 120.662 212.101C124.949 212.101 129.808 209.479 134.139 209.479C134.495 209.479 134.85 209.497 135.204 209.532C140.341 210.105 145.45 215.448 150.721 215.448H151.213C156.502 215.099 161.003 208.816 166.337 207.528C167.231 207.32 168.148 207.221 169.066 207.233C172.467 207.233 176.225 208.315 179.554 208.315C180.871 208.353 182.182 208.115 183.402 207.617C188.405 205.434 190.481 197.979 194.919 195.026C199.358 192.073 207.107 192.959 211.027 189.254C214.947 185.55 214.338 177.8 217.524 173.469C220.71 169.137 228.262 167.392 230.643 162.56C233.023 157.728 229.855 150.703 231.377 145.513C232.898 140.322 239.431 136.17 239.985 130.774C240.54 125.378 235.171 119.955 234.822 114.514C234.473 109.216 239.144 103.051 237.847 97.7171C236.549 92.3836 229.542 89.0368 227.457 84.1776C225.274 79.1752 227.538 71.7925 224.585 67.3539C221.631 62.9153 213.846 62.083 210.168 58.2171C206.49 54.3513 206.025 46.5837 201.693 43.3979C197.362 40.2122 189.854 42.1272 185.022 39.7289C180.19 37.3306 177.165 30.2163 171.975 28.695C171.201 28.471 170.399 28.3624 169.594 28.3729C165.308 28.3729 160.457 30.9949 156.171 30.9949C155.815 30.9966 155.459 30.9757 155.106 30.9322C149.916 30.3864 144.806 25.0171 139.535 25.0171Z" fill="black"/>
<path d="M149.763 199.321C147.338 199.321 144.985 198.032 142.703 196.78C140.689 195.679 138.801 194.641 136.895 194.426C134.989 194.211 132.734 194.847 130.631 195.455C128.018 196.207 125.262 196.977 122.881 196.27C120.501 195.563 118.559 193.415 116.76 191.357C115.266 189.674 113.807 187.983 112.017 187.124C110.228 186.265 107.99 186.095 105.753 185.943C103.069 185.755 100.196 185.558 98.1468 184.054C96.0975 182.551 95.0774 179.92 94.0841 177.379C93.2787 175.311 92.4464 173.182 91.0952 171.768C89.7439 170.354 87.6857 169.45 85.6722 168.564C83.1576 167.445 80.5624 166.291 79.1396 164.152C77.7167 162.014 77.6809 159.257 77.6183 156.546C77.5735 154.318 77.5198 152.009 76.7234 150.192C75.9269 148.376 74.4325 146.962 72.8217 145.378C70.8261 143.463 68.7768 141.476 68.1594 138.944C67.5419 136.411 68.4636 133.708 69.3496 131.086C70.0744 128.93 70.7724 126.89 70.6471 124.992C70.5219 123.095 69.5017 120.948 68.5263 118.979C67.3361 116.536 66.1012 114.012 66.3786 111.524C66.656 109.037 68.4457 106.746 70.1639 104.607C71.542 102.871 72.9649 101.081 73.5376 99.2377C74.1103 97.3943 73.8508 95.0855 73.6182 92.8751C73.3318 90.1905 73.0365 87.3537 74.164 85.0807C75.2916 82.8077 77.7435 81.3312 80.0523 79.9173C81.9405 78.7629 83.8914 77.5816 85.0458 76.0066C86.2002 74.4316 86.746 72.2302 87.274 70.0915C87.9362 67.4068 88.6163 64.7222 90.4598 62.9324C92.3032 61.1427 95.0147 60.6147 97.6994 60.0778C99.8829 59.6393 102.129 59.1829 103.767 58.1001C105.404 57.0173 106.568 55.2454 107.847 53.3483C109.386 51.0574 110.979 48.6949 113.351 47.6568C115.722 46.6188 118.389 47.0841 121.065 47.4958C123.284 47.8358 125.539 48.1848 127.517 47.7105C129.494 47.2362 131.347 45.876 133.155 44.5605C135.347 42.9677 137.629 41.3211 140.081 41.16C142.533 40.9989 145.164 42.3591 147.589 43.6925C149.593 44.7843 151.491 45.8223 153.388 46.0371C155.285 46.2519 157.549 45.6255 159.652 45.0169C162.274 44.2652 165.021 43.4867 167.402 44.2026C169.782 44.9185 171.724 47.0483 173.532 49.1155C174.981 50.771 176.485 52.4892 178.221 53.3483C179.957 54.2074 182.248 54.3684 184.485 54.5206C187.214 54.7174 190.033 54.9143 192.082 56.4177C194.132 57.9211 195.152 60.5431 196.145 63.0935C196.951 65.1517 197.792 67.2905 199.143 68.7044C200.494 70.1183 202.552 71.0132 204.512 71.9081C207.027 73.0177 209.622 74.1721 211.045 76.3109C212.468 78.4496 212.504 81.2059 212.566 83.9263C212.62 86.1546 212.665 88.4544 213.461 90.271C214.257 92.0876 215.77 93.5105 217.407 95.0855C219.403 97.0095 221.461 98.9871 222.07 101.52C222.678 104.052 221.774 106.764 220.889 109.377C220.155 111.533 219.466 113.574 219.582 115.471C219.698 117.368 220.727 119.516 221.703 121.52C222.893 123.963 224.128 126.487 223.851 128.984C223.573 131.48 221.783 133.753 220.065 135.901C218.687 137.61 217.264 139.382 216.727 141.27C216.19 143.158 216.405 145.431 216.638 147.633C216.924 150.317 217.22 153.154 216.092 155.427C214.964 157.7 212.512 159.177 210.204 160.6C208.315 161.745 206.365 162.935 205.21 164.501C204.056 166.067 203.519 168.278 202.982 170.416C202.329 173.101 201.64 175.786 199.796 177.576C197.953 179.365 195.241 179.831 192.557 180.385C190.382 180.824 188.127 181.28 186.489 182.372C184.852 183.464 183.688 185.218 182.409 187.115C180.87 189.406 179.277 191.768 176.905 192.806C174.534 193.844 171.867 193.379 169.191 192.967C166.972 192.627 164.717 192.278 162.739 192.753C160.762 193.227 158.918 194.587 157.102 195.912C154.918 197.496 152.627 199.142 150.175 199.303L149.763 199.321ZM136.072 193.486C136.371 193.487 136.67 193.505 136.967 193.54C139.043 193.773 141.11 194.9 143.106 195.992C145.405 197.254 147.795 198.56 150.112 198.408C152.43 198.256 154.399 196.771 156.574 195.187C158.462 193.818 160.404 192.404 162.524 191.885C164.645 191.366 166.999 191.733 169.326 192.082C172.01 192.493 174.507 192.878 176.547 191.992C178.588 191.106 180.198 188.797 181.675 186.623C182.937 184.735 184.252 182.784 185.997 181.62C187.742 180.457 190.114 179.965 192.378 179.508C195.062 178.98 197.559 178.47 199.197 176.904C200.834 175.338 201.505 172.698 202.132 170.157C202.687 167.938 203.25 165.638 204.512 163.893C205.774 162.148 207.796 160.949 209.765 159.75C211.993 158.398 214.293 156.993 215.304 154.953C216.316 152.913 216.047 150.353 215.77 147.642C215.528 145.36 215.278 142.988 215.886 140.939C216.495 138.89 217.953 137.082 219.385 135.301C221.032 133.261 222.723 131.14 222.965 128.849C223.206 126.558 222.07 124.312 220.897 121.878C219.886 119.802 218.83 117.645 218.696 115.489C218.562 113.332 219.314 111.202 220.038 109.055C220.88 106.558 221.757 103.981 221.202 101.699C220.647 99.4167 218.687 97.5285 216.79 95.694C215.161 94.128 213.47 92.4993 212.638 90.5932C211.806 88.6871 211.743 86.2262 211.671 83.9084C211.609 81.2238 211.555 78.6465 210.302 76.7494C209.049 74.8522 206.544 73.7336 204.145 72.6687C202.06 71.7738 199.904 70.7895 198.454 69.2682C197.004 67.7469 196.109 65.5097 195.268 63.362C194.275 60.8295 193.344 58.4312 191.51 57.0978C189.675 55.7644 186.973 55.5586 184.351 55.3796C182.06 55.2186 179.688 55.0575 177.782 54.1089C175.876 53.1603 174.319 51.4243 172.816 49.6345C171.088 47.6658 169.308 45.6344 167.106 44.9901C164.905 44.3458 162.462 45.0527 159.849 45.8044C157.638 46.4398 155.374 47.0931 153.209 46.8514C151.043 46.6098 149.074 45.4912 147.079 44.3995C144.77 43.1377 142.399 41.8222 140.063 41.9833C137.727 42.1444 135.785 43.6209 133.602 45.2138C131.723 46.583 129.772 47.9969 127.651 48.507C125.53 49.017 123.177 48.6591 120.85 48.3101C118.165 47.8984 115.669 47.5137 113.628 48.4085C111.588 49.3034 109.977 51.5943 108.51 53.7778C107.239 55.666 105.923 57.6168 104.187 58.7712C102.451 59.9256 100.062 60.4268 97.7978 60.8832C95.1132 61.4201 92.6165 61.9212 90.9788 63.4873C89.3412 65.0533 88.7506 67.7737 88.1152 70.3062C87.5604 72.5345 86.9966 74.8343 85.7438 76.5704C84.4909 78.3065 82.4864 79.4877 80.4908 80.6779C78.2626 82.0292 75.9538 83.4341 74.9426 85.4834C73.9314 87.5327 74.1998 90.0741 74.4772 92.7856C74.7189 95.0765 74.9694 97.439 74.3699 99.4883C73.7703 101.538 72.2937 103.354 70.8619 105.126C69.2243 107.175 67.524 109.287 67.2824 111.587C67.0408 113.887 68.1773 116.115 69.3406 118.549C70.3518 120.634 71.4078 122.782 71.551 124.939C71.6942 127.095 70.9335 129.225 70.1997 131.373C69.3585 133.87 68.4815 136.456 69.0364 138.729C69.5912 141.002 71.551 142.908 73.4481 144.733C75.0858 146.308 76.7681 147.937 77.6004 149.834C78.4326 151.731 78.4952 154.21 78.5668 156.519C78.6295 159.204 78.6921 161.79 79.936 163.678C81.1799 165.566 83.6945 166.703 86.0928 167.759C88.1778 168.654 90.3345 169.647 91.7932 171.168C93.2518 172.689 94.1377 174.927 94.97 177.065C95.9633 179.607 96.9029 181.996 98.7285 183.33C100.554 184.663 103.266 184.869 105.888 185.048C108.187 185.209 110.55 185.37 112.456 186.318C114.362 187.267 115.919 189.003 117.431 190.793C119.15 192.753 120.93 194.784 123.132 195.437C125.333 196.091 127.776 195.366 130.389 194.623C132.223 193.989 134.135 193.607 136.072 193.486Z" fill="black"/>
<path d="M98.2287 90.965L81.9939 94.9106L92.0703 136.372L108.305 132.426L98.2287 90.965Z" fill="black"/>
<path d="M133.28 126.352C150.703 122.111 154.345 111.927 151.446 99.9803C148.546 88.0336 140.654 80.6509 123.203 84.8837L101.189 90.2529L111.266 131.713L133.28 126.352ZM126.541 98.3963C130.04 97.5015 133.7 98.1637 135.15 103.936C136.6 109.708 133.539 111.909 130.031 112.759L124.259 114.164L120.76 99.8013L126.541 98.3963Z" fill="black"/>
<path d="M182.525 115.847C197.237 112.267 204.36 101.341 201.094 87.9085C197.828 74.4763 186.489 68.0421 171.778 71.6217C157.066 75.2012 149.889 86.0829 153.182 99.5598C156.475 113.037 167.769 119.426 182.525 115.847ZM175.178 85.5818C179.268 84.5885 183.662 86.2977 185.022 91.8459C186.382 97.3942 183.232 100.902 179.151 101.904C175.071 102.907 170.659 101.144 169.308 95.6402C167.956 90.1367 171.026 86.593 175.178 85.5818Z" fill="black"/>
<path d="M131.607 131.695L124.134 133.511L126.237 142.183L133.718 140.366L133.253 138.478L128.116 139.731L127.714 138.084L132.671 136.876L132.278 135.256L127.32 136.465L126.926 134.836L132.072 133.583L131.607 131.695Z" fill="black"/>
<path d="M140.725 138.666L143.356 138.022L141.253 129.35L138.98 129.905L140.305 135.355L140.099 135.4L135.132 130.836L132.43 131.498L134.542 140.169L136.815 139.615L135.49 134.165L135.705 134.111L140.725 138.666Z" fill="black"/>
<path d="M148.296 136.823C151.714 135.99 152.52 133.816 151.875 131.346C151.231 128.876 149.567 127.319 146.139 128.151L142.032 129.153L144.135 137.825L148.296 136.823ZM146.658 130.102C147.277 129.982 147.919 130.105 148.45 130.446C148.981 130.786 149.36 131.318 149.508 131.931C149.657 132.544 149.564 133.191 149.248 133.737C148.932 134.283 148.418 134.686 147.813 134.863L146.023 135.292L144.877 130.532L146.658 130.102Z" fill="black"/>
<path d="M158.82 124.777C155.929 125.475 154.453 127.829 155.124 130.567C155.795 133.306 158.175 134.728 161.066 134.022C163.956 133.315 165.424 130.961 164.753 128.232C164.082 125.502 161.701 124.07 158.82 124.777ZM160.609 132.008C160.095 132.155 159.548 132.145 159.039 131.979C158.53 131.812 158.083 131.498 157.754 131.076C157.425 130.653 157.23 130.142 157.194 129.608C157.158 129.074 157.282 128.542 157.551 128.079C157.82 127.616 158.22 127.244 158.702 127.01C159.184 126.777 159.724 126.693 160.254 126.769C160.784 126.845 161.279 127.078 161.676 127.437C162.072 127.797 162.352 128.267 162.48 128.786C162.583 129.123 162.615 129.477 162.574 129.826C162.533 130.175 162.42 130.512 162.241 130.815C162.063 131.118 161.823 131.381 161.537 131.586C161.252 131.792 160.927 131.935 160.583 132.008H160.609Z" fill="black"/>
<path d="M172.467 125.681L167.607 126.863L167.178 125.1L172.306 123.856L171.831 121.914L164.377 123.73L166.48 132.402L168.816 131.838L168.019 128.581L172.887 127.399L172.467 125.681Z" fill="black"/>
<path d="M127.58 146.407L118.335 148.653L121.575 162.022C122.416 165.459 120.429 165.763 120.143 165.826C119.329 166.031 117.87 166.291 117.306 163.741L108.062 165.987C109.968 174.425 115.221 175.32 121.852 173.718C129.19 171.929 132.877 168.206 130.712 159.293L127.58 146.407Z" fill="black"/>
<path d="M154.972 139.758L145.728 142.004L148.842 154.837C149.424 157.208 148.842 158.971 146.211 159.597C143.58 160.224 142.345 158.926 141.737 156.555L138.622 143.731L129.289 145.995L132.466 159.051C134.39 166.971 139.356 169.468 148.063 167.347C156.771 165.226 160.046 160.734 158.095 152.734L154.972 139.758Z" fill="black"/>
<path d="M169.773 153.047L165.898 137.091L156.618 139.346L162.381 163.034L183.608 157.87L181.729 150.147L169.773 153.047Z" fill="black"/>
<path d="M188.932 131.498L186.57 140.313L185.917 140.465L179.796 133.717L170.095 136.071L183.706 150.147L185.469 157.423L194.713 155.168L192.968 147.982L198.606 129.145L188.932 131.498Z" fill="black"/>
</g>
<g filter="url(#filter1_d)">
<path d="M683.758 62.235L402.874 93.1953C395.412 94.0178 390.03 100.734 390.852 108.196L400.873 199.111C401.696 206.573 408.412 211.956 415.874 211.133L696.758 180.173C704.22 179.35 709.602 172.634 708.78 165.172L698.759 74.2571C697.936 66.795 691.22 61.4125 683.758 62.235Z" fill="#07BCED"/>
<path d="M414.36 211.654C410.904 211.646 407.573 210.363 405.004 208.051C402.434 205.74 400.808 202.562 400.436 199.126L390.413 108.224C390.212 106.39 390.374 104.535 390.89 102.764C391.407 100.994 392.267 99.3421 393.423 97.9042C394.578 96.4663 396.005 95.2703 397.623 94.3846C399.241 93.4989 401.018 92.9409 402.852 92.7425L683.71 61.7797C685.545 61.5783 687.401 61.7404 689.173 62.2566C690.944 62.7728 692.597 63.633 694.037 64.7881C695.476 65.9432 696.674 67.3706 697.561 68.9887C698.449 70.6068 699.009 72.3839 699.209 74.2185L709.232 165.138C709.435 166.971 709.274 168.826 708.759 170.597C708.245 172.367 707.386 174.019 706.232 175.458C705.079 176.897 703.653 178.094 702.036 178.981C700.42 179.868 698.644 180.428 696.811 180.629L415.926 211.565C415.406 211.625 414.883 211.655 414.36 211.654ZM685.258 62.5851C684.774 62.5856 684.29 62.6125 683.808 62.6656L402.924 93.6285C399.459 94.0133 396.288 95.7566 394.107 98.476C391.927 101.195 390.913 104.669 391.29 108.134L401.313 199.054C401.501 200.771 402.026 202.433 402.857 203.947C403.688 205.461 404.809 206.796 406.156 207.876C407.503 208.956 409.05 209.761 410.708 210.243C412.366 210.726 414.102 210.877 415.819 210.688L696.704 179.716C698.42 179.528 700.083 179.003 701.596 178.172C703.11 177.341 704.445 176.22 705.526 174.873C706.606 173.526 707.41 171.979 707.893 170.321C708.375 168.663 708.526 166.926 708.337 165.21L698.314 74.2901C697.958 71.0751 696.429 68.1042 694.021 65.9449C691.612 63.7857 688.493 62.5896 685.258 62.5851Z" fill="black"/>
<path d="M419.291 202.088C416.803 202.081 414.404 201.159 412.552 199.497C410.7 197.835 409.525 195.549 409.25 193.076L400.301 111.902C400.01 109.235 400.789 106.561 402.466 104.467C404.144 102.373 406.584 101.031 409.25 100.734L679.182 70.979C680.503 70.8323 681.84 70.9475 683.116 71.318C684.393 71.6884 685.584 72.3069 686.621 73.1381C687.658 73.9692 688.522 74.9967 689.161 76.1617C689.801 77.3268 690.205 78.6066 690.35 79.9278L699.299 161.093C699.59 163.761 698.812 166.434 697.134 168.528C695.456 170.622 693.016 171.965 690.35 172.262L420.418 202.025C420.044 202.068 419.668 202.089 419.291 202.088ZM680.309 71.8113C679.966 71.8113 679.622 71.8292 679.28 71.865L409.349 101.629C408.145 101.76 406.979 102.128 405.917 102.71C404.855 103.293 403.919 104.08 403.162 105.025C402.404 105.97 401.841 107.055 401.504 108.218C401.167 109.382 401.062 110.6 401.196 111.803L410.145 192.978C410.415 195.408 411.638 197.632 413.545 199.162C415.453 200.692 417.889 201.403 420.32 201.139L690.251 171.376V171.823V171.376C692.682 171.103 694.906 169.879 696.436 167.97C697.966 166.061 698.677 163.624 698.413 161.192L689.464 80.0263C689.217 77.7701 688.147 75.6842 686.457 74.1684C684.768 72.6525 682.579 71.8132 680.309 71.8113Z" fill="black"/>
<path d="M439.64 107.785L442.647 134.999L442.558 135.008L431.667 108.662L418.933 110.067L425.269 167.608L437.851 166.23L435.059 140.905L435.139 140.896L444.589 165.487L457.985 164.002L451.65 106.461L439.64 107.785Z" fill="black"/>
<path d="M462.004 105.325L460.124 163.769L473.279 162.319L473.36 152.476L481.825 151.581L484.125 161.138L497.199 159.697L482.63 103.052L462.004 105.325ZM472.993 140.887L473.324 115.222H473.655L479.651 140.189L472.993 140.887Z" fill="black"/>
<path d="M509.289 132.726L518.739 157.308L532.135 155.832L525.791 98.2908L513.79 99.6152L516.788 126.82L516.708 126.828L505.817 100.492L493.074 101.897L499.418 159.438L511.991 158.051L509.199 132.735L509.289 132.726Z" fill="black"/>
<path d="M534.167 141.8C534.763 147.384 536.201 150.996 538.48 152.637C540.759 154.277 545.066 154.746 551.402 154.042L552.968 153.872C559.375 153.162 563.495 151.778 565.326 149.719C567.116 147.661 567.751 143.804 567.116 138.167L563.787 107.911C563.149 102.213 561.72 98.5711 559.501 96.9842C557.281 95.3973 552.965 94.9677 546.552 95.6956L544.986 95.8656C538.578 96.5576 534.453 97.9179 532.61 99.9463C530.766 101.975 530.17 105.852 530.82 111.58L534.167 141.8ZM544.288 107.231C544.848 106.789 545.535 106.538 546.248 106.515L547.644 106.363C548.344 106.229 549.068 106.323 549.711 106.631C550.158 106.917 550.445 107.606 550.606 108.707L554.087 140.27C554.181 140.644 554.196 141.035 554.129 141.416C554.063 141.796 553.917 142.159 553.702 142.48C553.142 142.921 552.455 143.169 551.742 143.187L550.346 143.348C549.645 143.484 548.919 143.386 548.279 143.071C547.831 142.793 547.545 142.104 547.429 141.003L543.948 109.441C543.842 109.07 543.818 108.68 543.877 108.299C543.935 107.917 544.076 107.553 544.288 107.231Z" fill="black"/>
<path d="M601.998 121.647L588.683 123.115L590.123 136.18C590.297 136.918 590.175 137.696 589.783 138.345C589.294 138.798 588.659 139.061 587.994 139.088L586.597 139.24C585.929 139.382 585.231 139.264 584.647 138.909C584.122 138.364 583.833 137.634 583.841 136.878L580.333 105.539C580.161 104.803 580.283 104.03 580.673 103.382C581.163 102.93 581.797 102.666 582.463 102.64L583.859 102.488C584.527 102.349 585.222 102.464 585.81 102.81C586.071 103.079 586.277 103.397 586.415 103.745C586.553 104.094 586.621 104.466 586.615 104.841L587.922 116.278L601.238 114.81L600.056 104.072C599.421 98.3712 597.998 94.7201 595.761 93.1003C593.524 91.4806 589.184 91.0421 582.723 91.7491L581.327 91.9101C574.86 92.6201 570.713 94.0041 568.888 96.0624C567.062 98.1206 566.466 101.998 567.098 107.696L570.409 137.755C571.006 143.458 572.435 147.115 574.696 148.726C576.957 150.337 581.306 150.784 587.743 150.068L589.139 149.916C595.6 149.212 599.746 147.825 601.578 145.755C603.409 143.685 604.006 139.807 603.368 134.122L601.998 121.647Z" fill="black"/>
<path d="M608.809 89.136L606.938 147.599L620.093 146.149L620.174 136.305L628.639 135.41L630.939 144.914L644.013 143.473L629.444 86.863L608.809 89.136ZM619.807 124.699L620.138 99.0424H620.469L626.465 124.001L619.807 124.699Z" fill="black"/>
<path d="M674.895 108.143L673.553 95.9013C672.957 90.4186 671.552 86.8689 669.338 85.2522C667.125 83.6354 662.871 83.1761 656.577 83.8741L639.637 85.7444L645.982 143.285L659.137 141.826L657.168 123.992L660.953 123.58C667.307 122.876 671.373 121.525 673.15 119.526C674.928 117.528 675.51 113.733 674.895 108.143ZM661.472 112.251C660.964 112.658 660.334 112.885 659.683 112.895L655.978 113.307L653.964 94.9795L657.669 94.5679C658.305 94.4453 658.964 94.5498 659.53 94.8632C659.777 95.0919 659.974 95.3687 660.11 95.6765C660.245 95.9843 660.316 96.3167 660.318 96.653L661.821 110.3C661.91 110.631 661.924 110.977 661.864 111.314C661.804 111.651 661.67 111.971 661.472 112.251Z" fill="black"/>
<path d="M518.864 179.018L517.057 162.391L512.367 162.901L514.614 183.537L523.956 182.517L523.518 178.508L518.864 179.018Z" fill="black"/>
<path d="M524.869 161.541L524.162 182.499L528.878 181.98V178.463L531.92 178.132L532.735 181.559L537.424 181.049L532.234 160.735L524.869 161.541ZM528.788 174.302L528.923 165.093H529.03L531.169 174.042L528.788 174.302Z" fill="black"/>
<path d="M547.304 159.107L542.588 159.617L544.315 175.564C544.38 175.831 544.348 176.113 544.225 176.36C544.06 176.529 543.835 176.625 543.599 176.628L542.865 176.709C542.633 176.758 542.392 176.713 542.194 176.584C542.02 176.369 541.928 176.099 541.934 175.823L540.198 159.876L535.482 160.386L537.191 176.127C537.418 178.15 537.928 179.453 538.722 180.038C539.518 180.611 541.066 180.781 543.366 180.53L543.93 180.467C546.227 180.217 547.703 179.725 548.359 178.991C549.013 178.248 549.254 176.87 549.013 174.848L547.304 159.107Z" fill="black"/>
<path d="M556.029 158.158L557.085 167.912H557.058L553.165 158.462L548.601 158.964L550.838 179.599L555.348 179.107L554.364 170.024H554.391L557.774 178.848L562.57 178.32L560.333 157.684L556.029 158.158Z" fill="black"/>
<path d="M574.669 167.527L569.89 168.047L570.4 172.736C570.432 172.866 570.437 173.001 570.416 173.133C570.394 173.265 570.346 173.392 570.275 173.505C570.099 173.674 569.866 173.77 569.622 173.774L569.121 173.827C568.882 173.874 568.634 173.833 568.423 173.711C568.329 173.614 568.255 173.499 568.206 173.373C568.157 173.247 568.133 173.113 568.136 172.977L566.91 161.72C566.85 161.454 566.895 161.175 567.036 160.941C567.214 160.777 567.447 160.685 567.689 160.682L568.19 160.628C568.432 160.576 568.685 160.617 568.897 160.744C569.079 160.942 569.181 161.2 569.183 161.469L569.622 165.568L574.4 165.049L573.98 161.192C573.756 159.142 573.246 157.836 572.45 157.254C571.653 156.673 570.096 156.512 567.778 156.762L567.268 156.816C564.95 157.066 563.465 157.567 562.794 158.301C562.123 159.035 561.899 160.431 562.141 162.471L563.313 173.264C563.537 175.304 564.047 176.619 564.843 177.192C565.64 177.765 567.206 177.944 569.523 177.684L570.024 177.631C572.339 177.38 573.831 176.885 574.499 176.145C575.167 175.405 575.385 174.015 575.152 171.975L574.669 167.527Z" fill="black"/>
<path d="M581.765 155.357L582.642 163.438L580.28 163.698L579.403 155.617L574.714 156.127L576.96 176.763L581.64 176.253L580.727 167.823L583.09 167.563L584.002 175.993L588.692 175.483L586.445 154.847L581.765 155.357Z" fill="black"/>
<path d="M504.41 175.38L426.163 183.687L426.258 184.576L504.505 176.269L504.41 175.38Z" fill="black"/>
<path d="M673.54 156.573L595.293 164.88L595.387 165.77L673.635 157.463L673.54 156.573Z" fill="black"/>
</g>
<defs>
<filter id="filter0_d" x="0.269287" y="0" width="289.756" height="290.448" filterUnits="userSpaceOnUse" color-interpolation-filters="sRGB">
<feFlood flood-opacity="0" result="BackgroundImageFix"/>
<feColorMatrix in="SourceAlpha" type="matrix" values="0 0 0 0 0 0 0 0 0 0 0 0 0 0 0 0 0 0 127 0"/>
<feOffset dy="25"/>
<feGaussianBlur stdDeviation="25"/>
<feColorMatrix type="matrix" values="0 0 0 0 0 0 0 0 0 0 0 0 0 0 0 0 0 0 0.35 0"/>
<feBlend mode="normal" in2="BackgroundImageFix" result="effect1_dropShadow"/>
<feBlend mode="normal" in="SourceGraphic" in2="effect1_dropShadow" result="shape"/>
</filter>
<filter id="filter1_d" x="340.329" y="36.6958" width="418.988" height="249.958" filterUnits="userSpaceOnUse" color-interpolation-filters="sRGB">
<feFlood flood-opacity="0" result="BackgroundImageFix"/>
<feColorMatrix in="SourceAlpha" type="matrix" values="0 0 0 0 0 0 0 0 0 0 0 0 0 0 0 0 0 0 127 0"/>
<feOffset dy="25"/>
<feGaussianBlur stdDeviation="25"/>
<feColorMatrix type="matrix" values="0 0 0 0 0 0 0 0 0 0 0 0 0 0 0 0 0 0 0.45 0"/>
<feBlend mode="normal" in2="BackgroundImageFix" result="effect1_dropShadow"/>
<feBlend mode="normal" in="SourceGraphic" in2="effect1_dropShadow" result="shape"/>
</filter>
</defs>
</svg>
