<svg width="824" height="294" viewBox="0 0 824 294" fill="none" xmlns="http://www.w3.org/2000/svg">
<path d="M421.614 59.1803L270.936 26.1894C262.891 24.4279 254.942 29.5217 253.18 37.5667L220.189 188.245C218.428 196.29 223.522 204.24 231.567 206.001L382.245 238.992C390.29 240.753 398.239 235.66 400.001 227.615L432.992 76.9364C434.753 68.8914 429.659 60.9417 421.614 59.1803Z" fill="#007EFC"/>
<path d="M385.458 239.845C384.338 239.842 383.222 239.718 382.129 239.475L231.454 206.478C227.467 205.602 223.991 203.18 221.789 199.744C219.586 196.308 218.837 192.138 219.706 188.15L252.702 37.4646C253.134 35.4884 253.95 33.6166 255.106 31.9563C256.261 30.2961 257.732 28.8798 259.436 27.7887C261.139 26.6975 263.04 25.9528 265.032 25.5972C267.023 25.2416 269.065 25.2821 271.04 25.7163L421.716 58.713C423.694 59.1421 425.567 59.9573 427.23 61.1117C428.892 62.2662 430.311 63.7372 431.404 65.4406C432.497 67.1441 433.243 69.0464 433.6 71.0387C433.957 73.0309 433.917 75.0741 433.483 77.051L400.487 227.736C399.733 231.159 397.835 234.223 395.107 236.424C392.379 238.625 388.983 239.832 385.478 239.845H385.458ZM267.711 26.3295C264.427 26.3417 261.246 27.4726 258.691 29.5357C256.136 31.5989 254.36 34.4711 253.656 37.6788L220.65 188.354C219.833 192.092 220.534 196.001 222.598 199.222C224.663 202.444 227.921 204.714 231.658 205.534L382.343 238.521C386.079 239.337 389.985 238.637 393.205 236.575C396.424 234.513 398.693 231.256 399.513 227.522L432.51 76.8466C432.918 74.9962 432.958 73.0834 432.626 71.2178C432.294 69.3522 431.597 67.5705 430.575 65.9746C429.553 64.3787 428.227 63.0001 426.672 61.9177C425.116 60.8354 423.363 60.0705 421.511 59.6669L270.826 26.6701C269.804 26.441 268.759 26.3267 267.711 26.3295Z" fill="black"/>
<path d="M379.891 226.412C379.125 226.412 378.361 226.331 377.613 226.169L241.119 196.277C238.368 195.672 235.97 193.999 234.452 191.626C232.933 189.254 232.419 186.375 233.021 183.624L262.913 47.1301C263.211 45.7672 263.776 44.4766 264.573 43.332C265.371 42.1873 266.386 41.211 267.562 40.459C268.737 39.7069 270.048 39.1938 271.422 38.9489C272.795 38.704 274.204 38.7321 275.566 39.0318L412.07 68.9235C413.433 69.2221 414.723 69.7864 415.868 70.5841C417.012 71.3817 417.989 72.3971 418.741 73.5722C419.493 74.7474 420.006 76.0591 420.251 77.4327C420.496 78.8062 420.468 80.2145 420.168 81.5771L390.257 218.08C389.734 220.441 388.422 222.553 386.538 224.068C384.653 225.583 382.308 226.41 379.891 226.412ZM377.827 225.215C380.326 225.757 382.937 225.287 385.089 223.908C387.242 222.528 388.761 220.353 389.313 217.856L419.204 81.363C419.752 78.8641 419.284 76.2502 417.904 74.0963C416.524 71.9423 414.345 70.4248 411.846 69.8774L275.343 39.9564C274.105 39.6842 272.826 39.6587 271.579 39.8813C270.332 40.1039 269.141 40.5703 268.074 41.2538C267.007 41.9373 266.085 42.8244 265.362 43.8645C264.638 44.9045 264.127 46.0771 263.857 47.315L233.946 183.838C233.399 186.337 233.867 188.95 235.246 191.104C236.626 193.258 238.806 194.776 241.304 195.323L377.808 225.215H377.827Z" fill="black"/>
<path d="M270.281 127.841L271.751 121.124C267.312 119.918 264.529 118.221 263.4 116.034C262.27 113.847 262.231 110.323 263.283 105.463L264.772 98.6497L275.625 101.025L273.999 108.481C273.659 110.028 273.727 111.07 274.223 111.615C274.987 112.293 275.936 112.727 276.949 112.861L278.438 113.192C279.113 113.359 279.806 113.45 280.501 113.464C280.776 113.45 281.045 113.378 281.29 113.252C281.535 113.126 281.751 112.949 281.922 112.734C282.441 112.066 282.776 111.274 282.896 110.437L284.405 103.565C284.527 103.035 284.586 102.493 284.58 101.949C284.606 101.586 284.599 101.221 284.56 100.859C284.454 100.483 284.241 100.145 283.947 99.8859C283.597 99.516 283.334 99.2532 283.168 99.1072C283.003 98.9612 282.604 98.6497 281.971 98.1923C281.338 97.7348 280.91 97.4233 280.657 97.2189L275.226 93.8511C273.678 92.8875 272.578 92.099 271.907 91.5442C271.069 90.8305 270.314 90.024 269.658 89.14C268.838 88.0823 268.362 86.7979 268.296 85.4608C268.225 83.7722 268.389 82.0819 268.782 80.4383L270.34 73.3133C271.41 68.4595 272.935 65.2766 274.914 63.7647C276.893 62.2527 280.109 61.8699 284.56 62.6161L285.835 56.776L293.457 58.4502L292.191 64.2903C296.61 65.4973 299.397 67.1812 300.552 69.342C301.708 71.5029 301.743 75.0426 300.66 79.9613L299.161 86.5801L288.347 84.2051L289.962 76.8271C290.293 75.3379 290.206 74.3159 289.719 73.7708C288.953 73.0964 288.005 72.6631 286.994 72.5249L285.835 72.2718C284.859 71.9721 283.814 71.9721 282.837 72.2718C282.166 72.5541 281.669 73.4496 281.348 74.9388L280.375 79.4941C279.966 81.3727 280.034 82.7159 280.579 83.5335C281.786 84.9128 283.218 86.0779 284.813 86.9792L289.865 90.0842C291.393 91.0576 292.474 91.7876 293.126 92.2743C293.931 92.9336 294.639 93.7037 295.228 94.5616C295.991 95.6157 296.425 96.8723 296.474 98.1728C296.508 99.8741 296.318 101.573 295.91 103.224L293.963 112.179C292.886 117.098 291.328 120.278 289.291 121.718C287.253 123.159 283.947 123.516 279.372 122.789L277.903 129.505L270.281 127.841Z" fill="black"/>
<path d="M314.043 106.845L311.804 106.359C309.704 105.945 307.64 105.362 305.633 104.616C304.27 104.051 303.09 103.118 302.227 101.92C301.262 100.509 300.793 98.8181 300.893 97.1118C301.01 94.4403 301.388 91.7866 302.022 89.1887L303.891 80.6524C305.066 75.2405 306.811 71.889 309.128 70.5976C311.444 69.3063 315.529 69.3063 321.382 70.5976L322.618 70.8702C328.193 72.0966 331.761 73.9038 333.325 76.2918C334.889 78.6797 335.116 82.3331 334.007 87.2517L327.076 118.915C325.869 124.437 324.153 127.909 321.927 129.33C319.702 130.751 315.747 130.842 310.062 129.602L308.563 129.271C302.82 128.013 299.277 126.355 297.934 124.298C296.591 122.241 296.503 118.461 297.671 112.958L298.44 109.483L308.378 111.693L307.492 115.752C307.162 117.241 307.239 118.331 307.736 119.012C308.374 119.795 309.286 120.306 310.286 120.443L311.863 120.784C312.825 121.082 313.863 121.02 314.783 120.609C315.477 120.213 315.993 119.239 316.331 117.689L318.706 106.836C317.182 107.268 315.569 107.272 314.043 106.845ZM315.143 97.8808L317.625 98.4259C318.385 98.7059 319.22 98.7059 319.981 98.4259C320.448 98.1533 320.827 97.3552 321.119 96.0314L323.748 84.0105C324.078 82.5212 323.991 81.4992 323.504 80.9639C322.768 80.2978 321.849 79.8673 320.866 79.7277L319.202 79.3676C318.539 79.2023 317.86 79.1109 317.177 79.095C316.64 79.1498 316.139 79.3949 315.766 79.7861C315.219 80.4059 314.861 81.1692 314.734 81.9859L312.194 93.4909C311.863 94.9899 311.95 96.0217 312.466 96.5959C313.203 97.2926 314.139 97.7418 315.143 97.8808Z" fill="black"/>
<path d="M346.699 114L344.46 113.513C342.357 113.099 340.29 112.516 338.28 111.771C336.917 111.204 335.74 110.266 334.883 109.065C333.919 107.653 333.447 105.963 333.539 104.256C333.666 101.589 334.044 98.9394 334.669 96.3429L336.537 87.8066C337.725 82.3947 339.474 79.0431 341.784 77.7518C344.094 76.4605 348.175 76.4605 354.029 77.7518L355.274 78.0244C360.849 79.2443 364.418 81.0515 365.981 83.4459C367.545 85.8404 367.772 89.4937 366.663 94.4059L359.732 126.059C358.519 131.588 356.803 135.063 354.583 136.484C352.364 137.905 348.406 137.993 342.708 136.747L341.219 136.426C335.476 135.173 331.93 133.512 330.58 131.442C329.231 129.372 329.14 125.605 330.308 120.141L331.067 116.667L341.015 118.798L340.129 122.857C339.944 123.39 339.87 123.954 339.91 124.516C339.95 125.079 340.104 125.627 340.363 126.128C341.02 126.912 341.947 127.422 342.962 127.558L344.538 127.899C345.501 128.198 346.539 128.136 347.458 127.724C348.159 127.325 348.675 126.351 349.016 124.804L351.391 113.951C349.862 114.401 348.237 114.418 346.699 114ZM347.828 105.035L350.32 105.58C351.081 105.855 351.915 105.855 352.676 105.58C353.133 105.307 353.513 104.5 353.805 103.176L356.433 91.1646C356.764 89.6657 356.676 88.6534 356.189 88.1083C355.451 87.4473 354.533 87.0204 353.552 86.8819L351.897 86.5217C351.234 86.3565 350.555 86.2651 349.872 86.2492C349.333 86.2997 348.831 86.5455 348.461 86.9403C347.897 87.5673 347.528 88.3454 347.4 89.179L344.879 100.704C344.558 102.193 344.645 103.225 345.152 103.799C345.895 104.478 346.83 104.91 347.828 105.035Z" fill="black"/>
<path d="M377.389 120.2L372.415 142.908L361.553 140.533L374.255 82.5212L385.118 84.8962L379.891 108.763L383.366 109.522L394.812 87.0181L406.493 89.5781L391.785 117.105L394.374 147.717L382.353 145.079L381.283 121.047L377.389 120.2Z" fill="black"/>
<path d="M254.386 177.102C254.085 176.314 253.569 175.155 253.024 174.075L251.233 182.251L248.429 181.638L250.152 173.783C249.307 174.372 248.419 174.896 247.495 175.35C247.387 174.353 247.158 173.372 246.814 172.43C249.52 171.249 251.908 169.445 253.783 167.164L248.867 166.084L249.403 163.65L253.296 164.497C252.95 163.43 252.551 162.38 252.099 161.353L254.493 160.643C255.03 161.748 255.498 162.886 255.895 164.049L254.133 164.682L255.798 165.052H256.177L257.472 166.454C256.377 168.057 255.125 169.547 253.734 170.902L253.656 171.243L253.968 171.671C254.738 171.111 255.47 170.5 256.158 169.841L257.589 171.7C256.615 172.177 255.71 172.751 254.951 173.15C255.593 174.056 256.158 174.97 256.382 175.35L254.386 177.102ZM269.795 165.899C269.795 165.899 269.551 166.872 269.483 167.213C266.767 178.64 265.706 182.514 264.616 183.555C264.328 183.866 263.971 184.106 263.574 184.254C263.177 184.403 262.75 184.457 262.329 184.412C261.2 184.317 260.085 184.105 259 183.779C259.116 182.852 259.039 181.911 258.776 181.015C259.694 181.305 260.627 181.549 261.57 181.745C261.739 181.803 261.921 181.809 262.094 181.764C262.267 181.719 262.423 181.625 262.543 181.492C263.351 180.859 264.383 177.219 266.582 167.923L263.516 167.252C261.511 174.951 259.234 180.275 254.367 182.884C253.94 181.961 253.401 181.094 252.761 180.304C257.16 178.29 259.117 173.403 260.762 166.677L257.842 166.055L258.416 163.436L269.795 165.899Z" fill="black"/>
<path d="M279.694 171.126C278.88 174.462 277.599 177.667 275.888 180.645C276.458 181.511 276.963 182.419 277.396 183.361L275.284 185.259C274.98 184.457 274.609 183.682 274.175 182.942C272.886 184.419 271.25 185.553 269.415 186.242C269.163 185.362 268.786 184.523 268.296 183.75C270.054 183.176 271.598 182.084 272.724 180.616C271.897 179.36 271.021 178.144 270.174 177.102C270.924 175.739 271.8 173.948 272.627 172.011L271.128 171.681L271.673 169.198L273.62 169.627C274.175 168.167 274.69 166.707 275.099 165.363L277.62 166.084C277.173 167.369 276.647 168.78 276.082 170.162L277.747 170.522L278.204 170.581L279.694 171.126ZM275.09 172.547C274.437 174.075 273.737 175.545 273.143 176.839C273.542 177.326 273.931 177.813 274.291 178.348C275.261 176.611 276.048 174.778 276.637 172.878L275.09 172.547ZM279.392 178.475L290.001 180.801L287.918 190.291L285.349 189.727L285.534 188.88L279.956 187.663L279.762 188.568L277.299 188.033L279.392 178.475ZM289.427 179.759C289.427 179.273 289.271 178.698 289.164 178.105C281.377 177.131 280.278 176.966 279.333 177.131C279.333 176.577 279.168 175.185 279.022 174.416C279.557 174.416 279.995 174.017 280.774 173.316C282.5 171.545 284.021 169.586 285.31 167.476L287.967 168.838C286.487 170.93 284.822 172.884 282.993 174.678L288.454 175.496C288.127 174.421 287.741 173.365 287.295 172.333L289.69 171.739C290.812 174.027 291.596 176.467 292.016 178.981L289.427 179.759ZM281.368 181.385L280.521 185.23L286.098 186.446L286.945 182.602L281.368 181.385Z" fill="black"/>
<path d="M306.033 177.988L305.478 180.528L312.788 182.134L311.123 189.853C310.831 191.196 310.393 191.897 309.352 192.092C307.968 192.22 306.573 192.078 305.244 191.673C305.28 190.708 305.168 189.743 304.913 188.812C306.042 189.123 307.386 189.415 307.726 189.473C308.067 189.532 308.252 189.473 308.31 189.191L309.41 184.208L304.894 183.234L302.655 193.474L299.832 192.861L302.081 182.553L297.866 181.638L296.114 189.619L293.389 189.026L295.715 178.397L302.655 179.915L303.21 177.365L294.362 175.418L294.936 172.78L304.027 174.786C303.862 173.89 303.638 172.839 303.414 172.021L306.334 171.768C306.675 172.946 307.123 174.474 307.308 175.496L315.708 177.336L315.124 179.974L306.033 177.988Z" fill="black"/>
<path d="M337.559 186.339C337.559 186.339 337.345 187.176 337.228 187.507C335.077 195.177 333.968 198.029 332.955 198.837C332.68 199.092 332.351 199.283 331.992 199.394C331.633 199.505 331.254 199.534 330.882 199.48C329.966 199.403 329.06 199.236 328.176 198.983C328.321 198.086 328.261 197.168 328.001 196.297C328.675 196.52 329.361 196.709 330.055 196.861C330.211 196.905 330.375 196.91 330.533 196.874C330.691 196.838 330.838 196.764 330.96 196.657C331.602 196.229 332.547 193.97 334.153 188.266L333.354 188.091C330.863 192.841 327.563 196.229 323.679 197.951C323.16 197.256 322.584 196.604 321.957 196.005C325.762 194.642 328.77 191.625 330.902 187.517L329.597 187.235C328.178 189.689 326.051 191.656 323.494 192.88C323.193 192.463 322.868 192.063 322.521 191.683V192.063C319.912 192.52 317.07 193.036 314.822 193.338L314.54 190.418C315.386 190.369 316.389 190.252 317.537 190.126L319.056 183.176L316.603 182.64L317.158 180.071L319.62 180.606L320.74 175.506L323.261 176.061L322.151 181.161L324.4 181.657L323.835 184.227L321.587 183.731L320.214 189.853L322.502 189.561V190.846C324.388 189.943 325.976 188.517 327.076 186.738L326.852 186.69C326.172 186.473 325.447 186.44 324.75 186.592C324.672 185.979 324.4 184.577 324.215 183.818C325.119 183.761 326.005 183.543 326.833 183.176C328.297 182.609 329.726 181.959 331.116 181.229L325.11 179.915L325.665 177.365L334.571 179.312L335.214 179.214L336.81 181.161C334.535 182.497 332.16 183.652 329.704 184.616L337.559 186.339Z" fill="black"/>
<path d="M336.693 198.555C337.998 197.231 339.018 195.654 339.691 193.922L342.163 194.963C341.477 196.919 340.394 198.712 338.981 200.229L336.693 198.555ZM348.5 194.204L341.239 192.608L342.962 184.694L346.436 185.454C346.167 184.174 345.753 182.93 345.2 181.745L347.78 181.171C348.521 182.495 349.028 183.937 349.279 185.434L347.848 185.765L352.043 186.68C353.184 185.453 354.201 184.116 355.08 182.689L357.649 184.47C356.793 185.444 355.858 186.417 354.973 187.322L358.204 188.033L356.472 195.956L349.24 194.369C350.308 195.509 351.23 196.778 351.985 198.146L349.629 199.441C348.844 197.867 347.845 196.409 346.66 195.109L348.5 194.204ZM350.505 201.202C351.547 201.426 351.819 201.202 352.335 199.45C353.016 200.106 353.806 200.636 354.671 201.017C353.698 203.743 352.724 204.268 350.213 203.714L345.775 202.74C342.426 202.01 341.735 201.047 342.28 198.565L343.195 194.35L346.115 194.983L345.21 199.149C345.044 199.879 345.268 200.044 346.612 200.346L350.505 201.202ZM344.762 190.71L353.96 192.773L354.583 189.931L345.385 187.906L344.762 190.71ZM356.199 196.842C357.222 198.624 357.927 200.57 358.282 202.594L355.712 203.441C355.44 201.399 354.807 199.422 353.844 197.601L356.199 196.842Z" fill="black"/>
<path d="M370.566 187.06C369.566 188.623 368.464 190.119 367.266 191.537L363.898 206.926L361.397 206.371L363.879 195.012C363.353 195.469 362.828 195.888 362.312 196.268C362.129 195.202 361.859 194.154 361.504 193.133C364.255 191.142 366.573 188.612 368.317 185.697L370.566 187.06ZM380.757 207.802L380.26 210.079L364.94 206.721L365.436 204.444L367.383 204.872L370.137 192.218L374.08 193.075C374.274 192.614 374.479 192.118 374.693 191.586L369.524 190.457L370.03 188.14L375.52 189.337C375.744 188.627 375.958 187.984 376.143 187.391L378.995 188.111C378.761 188.724 378.489 189.337 378.226 189.97L383.823 191.196L383.317 193.523L377.243 192.189C376.98 192.725 376.756 193.163 376.513 193.649L381.769 194.798L379.014 207.451L380.757 207.802ZM369.787 205.427L376.523 206.906L376.805 205.631L370.069 204.152L369.787 205.427ZM370.76 200.988L370.478 202.283L377.214 203.762L377.496 202.468L370.76 200.988ZM378.168 199.392L371.432 197.913L371.159 199.168L377.895 200.648L378.168 199.392ZM372.162 194.769L371.889 196.024L378.625 197.494L378.907 196.248L372.162 194.769Z" fill="black"/>
<path d="M254 140.207L253.791 141.158L287.489 148.536L287.697 147.585L254 140.207Z" fill="black"/>
<path d="M354.057 162.533L353.849 163.484L387.546 170.862L387.754 169.912L354.057 162.533Z" fill="black"/>
<path d="M305.301 143.921L302.404 156.489L303.352 156.707L306.249 144.14L305.301 143.921Z" fill="black"/>
<path d="M311.931 145.446L309.034 158.014L309.983 158.232L312.879 145.665L311.931 145.446Z" fill="black"/>
<path d="M318.571 146.983L315.674 159.551L316.622 159.769L319.519 147.202L318.571 146.983Z" fill="black"/>
<path d="M325.211 148.518L322.314 161.086L323.262 161.304L326.159 148.737L325.211 148.518Z" fill="black"/>
<path d="M331.843 150.044L328.946 162.611L329.895 162.83L332.792 150.262L331.843 150.044Z" fill="black"/>
<path d="M338.492 151.571L335.596 164.138L336.544 164.357L339.441 151.79L338.492 151.571Z" fill="black"/>
<g filter="url(#filter0_d)">
<path d="M152.211 218.275C149.48 218.275 146.694 216.745 144.017 215.271C141.568 213.932 139.037 212.539 136.497 212.257C136.133 212.257 135.751 212.203 135.369 212.203C132.96 212.328 130.579 212.784 128.295 213.559C126.133 214.293 123.882 214.734 121.604 214.87C120.828 214.879 120.055 214.775 119.309 214.561C116.578 213.75 114.366 211.238 112.236 208.807C110.415 206.695 108.467 204.501 106.145 203.345C103.824 202.188 100.91 201.988 98.0883 201.797C94.8746 201.569 91.5426 201.342 89.2575 199.658C86.9725 197.973 85.7617 194.878 84.5873 191.883C83.5585 189.252 82.4934 186.53 80.6908 184.6C78.8882 182.67 76.2663 181.568 73.6991 180.43C70.7403 179.119 67.6723 177.763 66.0791 175.368C64.4859 172.974 64.4586 169.906 64.3767 166.519C64.313 163.679 64.2492 160.748 63.1932 158.326C62.1372 155.904 60.107 154.002 58.1041 152.072C55.7553 149.805 53.3246 147.465 52.6418 144.634C51.959 141.803 53.0333 138.607 54.0802 135.53C54.9906 132.899 55.901 130.177 55.728 127.646C55.5551 125.115 54.2714 122.366 52.9969 119.808C51.5221 116.803 50.1383 113.954 50.4478 111.177C50.7573 108.4 52.8603 105.715 54.8905 103.175C56.6475 100.99 58.4592 98.7322 59.1875 96.265C59.9158 93.7979 59.6245 90.8027 59.3241 88.0715C58.9963 84.867 58.6504 81.5532 59.9067 78.9677C61.163 76.3822 64.0125 74.6889 66.771 73.0138C69.1835 71.548 71.678 70.0368 73.2165 67.9429C74.7551 65.849 75.447 63.0268 76.1207 60.2957C76.9036 57.1639 77.7047 53.923 79.7622 51.9383C81.8197 49.9537 84.915 49.371 88.2106 48.7065C90.9873 48.1511 93.855 47.5776 96.0399 46.121C98.2248 44.6643 99.7725 42.3064 101.338 39.9941C103.159 37.2629 105.035 34.5318 107.711 33.3483C108.895 32.8662 110.166 32.6367 111.444 32.6746C113.194 32.726 114.937 32.9086 116.66 33.2208C118.465 33.5424 120.29 33.731 122.122 33.7852C123.094 33.7946 124.063 33.6876 125.008 33.4666C127.603 32.8384 129.997 31.0996 132.291 29.4154C135.032 27.5036 137.581 25.6464 140.339 25.4734C140.497 25.4645 140.655 25.4645 140.813 25.4734C143.544 25.4734 146.339 27.0029 149.006 28.4777C151.455 29.8251 153.986 31.2088 156.526 31.4911C156.89 31.4911 157.272 31.5548 157.664 31.5548C160.064 31.4165 162.434 30.9541 164.71 30.1801C166.872 29.4465 169.123 29.0056 171.402 28.8692C172.177 28.8614 172.949 28.9625 173.696 29.1696C176.427 29.9798 178.639 32.4925 180.77 34.9232C182.59 37.0444 184.539 39.2293 186.86 40.3855C189.181 41.5417 192.104 41.742 194.917 41.9423C198.131 42.1608 201.463 42.3975 203.748 44.0817C206.033 45.7659 207.244 48.8521 208.418 51.8564C209.447 54.4874 210.512 57.2095 212.314 59.1395C214.117 61.0695 216.73 62.1255 219.333 63.2362C222.301 64.5563 225.36 65.9128 226.953 68.3071C228.547 70.7014 228.574 73.7694 228.656 77.1469C228.72 79.9873 228.783 82.9279 229.839 85.3404C230.895 87.7529 232.926 89.6556 234.928 91.5947C237.277 93.8525 239.708 96.1467 240.391 99.0326C241.073 101.919 239.999 105.059 238.952 108.136C238.042 110.777 237.132 113.499 237.304 116.029C237.477 118.56 238.761 121.31 240.036 123.859C241.501 126.872 242.894 129.713 242.585 132.498C242.275 135.284 240.163 137.961 238.133 140.492C236.376 142.676 234.564 144.943 233.836 147.41C233.108 149.878 233.399 152.818 233.699 155.604C234.036 158.809 234.382 162.122 233.126 164.653C231.869 167.184 229.011 168.932 226.252 170.607C223.84 172.073 221.345 173.593 219.807 175.687C218.268 177.781 217.513 180.676 216.848 183.407C216.065 186.548 215.264 189.78 213.207 191.764C211.149 193.749 208.063 194.332 204.767 194.996C201.991 195.552 199.114 196.134 196.938 197.582C194.762 199.029 193.196 201.396 191.64 203.709C189.819 206.44 187.943 209.171 185.267 210.355C184.083 210.837 182.812 211.066 181.534 211.028C179.785 210.975 178.041 210.796 176.318 210.491C174.514 210.165 172.688 209.976 170.855 209.927C169.885 209.915 168.916 210.019 167.969 210.236C165.375 210.864 162.99 212.603 160.686 214.287C157.955 216.245 155.443 218.102 152.675 218.284L152.211 218.275Z" fill="#FF6C22"/>
<path d="M140.813 25.9104C143.434 25.9104 146.166 27.4125 148.815 28.86C151.3 30.2256 153.877 31.6367 156.508 31.928C156.881 31.928 157.281 31.9918 157.691 31.9918C160.121 31.8571 162.522 31.3947 164.829 30.6171C166.949 29.8935 169.156 29.4587 171.392 29.3243C172.124 29.3157 172.854 29.4107 173.559 29.6066C176.172 30.3804 178.239 32.7292 180.423 35.2236C182.299 37.3721 184.247 39.5935 186.65 40.7861C189.054 41.9787 192.013 42.1881 194.844 42.3884C198.149 42.616 201.262 42.8345 203.447 44.4367C205.632 46.039 206.752 48.934 207.954 52.0111C209 54.6877 210.084 57.4735 211.95 59.4035C213.816 61.3335 216.502 62.517 219.088 63.6732C222.119 65.0206 224.996 66.2951 226.516 68.5711C228.037 70.847 228.064 73.8968 228.137 77.1742C228.2 80.0601 228.264 83.0462 229.366 85.5498C230.467 88.0533 232.516 89.9833 234.555 91.9225C236.849 94.1347 239.234 96.4289 239.89 99.1327C240.545 101.837 239.489 104.977 238.461 108C237.55 110.676 236.64 113.462 236.785 116.066C236.931 118.67 238.269 121.474 239.517 124.068C240.964 127.018 242.321 129.804 242.029 132.453C241.738 135.102 239.762 137.624 237.678 140.218C235.857 142.44 234.036 144.77 233.299 147.292C232.561 149.814 232.843 152.836 233.144 155.686C233.49 158.972 233.808 162.059 232.616 164.489C231.423 166.92 228.738 168.541 225.915 170.252C223.466 171.745 220.936 173.284 219.342 175.45C217.749 177.617 217.048 180.476 216.356 183.252C215.564 186.466 214.809 189.507 212.842 191.391C210.876 193.276 207.853 193.858 204.649 194.505C201.827 195.069 198.913 195.661 196.656 197.163C194.398 198.665 192.814 201.06 191.193 203.417C189.327 206.149 187.552 208.789 185.039 209.899C183.912 210.353 182.703 210.567 181.489 210.528C179.763 210.479 178.043 210.299 176.345 209.99C174.52 209.664 172.672 209.475 170.819 209.426C169.811 209.411 168.805 209.521 167.824 209.754C165.147 210.4 162.716 212.166 160.368 213.878C157.728 215.799 155.233 217.61 152.602 217.783H152.156C149.543 217.783 146.803 216.29 144.154 214.834C141.668 213.477 139.101 212.102 136.47 211.775C136.077 211.73 135.682 211.709 135.287 211.711C132.856 211.839 130.454 212.302 128.149 213.086C126.026 213.808 123.815 214.243 121.576 214.378C120.844 214.384 120.114 214.286 119.409 214.087C116.797 213.322 114.739 210.965 112.554 208.47C110.67 206.322 108.721 204.1 106.318 202.908C103.915 201.715 100.956 201.515 98.1246 201.314C94.829 201.087 91.7519 200.868 89.5305 199.266C87.3092 197.664 86.2167 194.714 84.9786 191.683C83.9317 189.015 82.8483 186.22 80.982 184.299C79.1157 182.378 76.4301 181.177 73.8537 180.02C70.813 178.673 67.9453 177.408 66.425 175.123C64.9046 172.838 64.8773 169.806 64.7954 166.519C64.7316 163.634 64.6679 160.657 63.5754 158.153C62.483 155.649 60.4164 153.71 58.3862 151.78C56.083 149.559 53.7069 147.228 53.0423 144.561C52.3777 141.894 53.452 138.725 54.4716 135.694C55.382 133.017 56.2924 130.231 56.1467 127.628C56.001 125.024 54.6628 122.22 53.4155 119.626C52.0227 116.685 50.6571 113.899 50.912 111.25C51.1669 108.601 53.1879 106.079 55.2636 103.484C57.0844 101.272 58.9052 98.9324 59.6426 96.4198C60.38 93.9071 60.0978 90.8755 59.7973 88.0169C59.4605 84.7395 59.1328 81.6442 60.3345 79.2226C61.5362 76.801 64.2036 75.1714 67.0258 73.4507C69.4747 71.9577 72.0056 70.4191 73.5988 68.2524C75.192 66.0857 75.9021 63.2271 76.5849 60.4504C77.386 57.2368 78.1325 54.1961 80.0989 52.3207C82.0654 50.4453 85.097 49.8535 88.2924 49.1981C91.1146 48.6336 94.0279 48.051 96.2856 46.5488C98.5434 45.0467 100.127 42.6433 101.748 40.2945C103.614 37.5633 105.389 34.9141 107.902 33.8125C109.029 33.3558 110.238 33.1387 111.453 33.1753C113.181 33.2292 114.903 33.4087 116.605 33.7124C118.427 34.042 120.272 34.2337 122.122 34.2859C123.13 34.2966 124.136 34.1866 125.118 33.9582C127.794 33.3027 130.225 31.5366 132.574 29.8341C135.241 27.9132 137.735 26.0925 140.376 25.9104H140.813ZM140.813 25H140.312C134.931 25.3642 130.352 31.7551 124.926 33.0751C124.03 33.2794 123.114 33.3802 122.195 33.3755C118.736 33.3755 114.912 32.2649 111.525 32.2649C110.185 32.2266 108.852 32.4684 107.611 32.975C102.531 35.1963 100.41 42.7798 95.8941 45.7841C91.3786 48.7884 83.4947 47.8962 79.5072 51.6561C75.5197 55.416 76.1388 63.309 72.9069 67.7153C69.675 72.1216 61.9823 73.8968 59.5515 78.8129C57.1208 83.729 60.3618 90.8846 58.805 96.1102C57.2483 101.336 50.6571 105.66 50.0471 111.15C49.4372 116.639 54.945 122.165 55.3 127.701C55.6551 133.081 50.9029 139.363 52.2229 144.789C53.543 150.214 60.644 153.61 62.8016 158.554C65.023 163.634 62.7197 171.153 65.724 175.669C68.7282 180.184 76.6486 181.022 80.3903 184.964C84.132 188.906 84.6054 196.799 89.0116 200.031C93.4179 203.263 101.056 201.324 105.972 203.763C110.888 206.203 113.938 213.45 119.191 214.998C119.979 215.221 120.794 215.331 121.613 215.325C125.973 215.325 130.917 212.658 135.323 212.658C135.685 212.658 136.046 212.676 136.406 212.712C141.632 213.295 146.83 218.73 152.192 218.73H152.693C158.083 218.375 162.653 211.984 168.079 210.673C168.989 210.461 169.921 210.361 170.855 210.373C174.315 210.373 178.138 211.474 181.525 211.474C182.865 211.513 184.198 211.271 185.44 210.764C190.529 208.543 192.641 200.959 197.156 197.955C201.672 194.951 209.556 195.852 213.543 192.083C217.531 188.314 216.912 180.43 220.153 176.024C223.394 171.618 231.077 169.842 233.499 164.926C235.921 160.01 232.698 152.864 234.245 147.583C235.793 142.303 242.439 138.079 243.003 132.589C243.568 127.1 238.087 121.574 237.723 116.039C237.368 110.649 242.12 104.377 240.8 98.9506C239.48 93.5247 232.379 90.129 230.258 85.1856C228.037 80.0965 230.34 72.5859 227.336 68.0704C224.331 63.5548 216.411 62.7082 212.669 58.7753C208.928 54.8424 208.454 46.9403 204.048 43.6993C199.642 40.4584 192.004 42.4066 187.087 39.9667C182.171 37.5269 179.094 30.2893 173.814 28.7417C173.027 28.5137 172.211 28.4033 171.392 28.4139C167.032 28.4139 162.097 31.0814 157.737 31.0814C157.375 31.0831 157.013 31.0618 156.653 31.0177C151.373 30.4623 146.175 25 140.813 25Z" fill="black"/>
<path d="M224.386 102.938C225.47 107.417 221.555 112.606 221.846 117.049C222.138 121.492 226.68 126.262 226.18 130.705C225.679 135.148 220.217 138.771 218.951 143.086C217.686 147.401 220.344 153.364 218.332 157.416C216.32 161.467 209.984 162.933 207.307 166.583C204.631 170.234 205.132 176.707 201.845 179.838C198.559 182.97 192.14 182.16 188.344 184.691C184.548 187.222 182.918 193.421 178.676 195.242C174.433 197.063 168.816 194.077 164.337 195.169C159.858 196.262 156.08 201.542 151.592 201.815C147.04 202.116 142.588 197.354 138.136 196.863C133.684 196.371 128.295 200.049 123.962 198.784C119.628 197.518 117.079 191.5 113.037 189.507C108.995 187.513 102.686 189.106 99.0351 186.421C95.3845 183.735 95.0477 177.262 91.8795 173.976C88.7114 170.689 82.2931 170.097 79.7623 166.301C77.2314 162.505 79.1887 156.36 77.3498 152.163C75.5108 147.966 69.7025 145.271 68.61 140.792C67.5176 136.313 71.4504 131.133 71.1591 126.681C70.8678 122.229 66.325 117.468 66.8166 113.025C67.3082 108.583 72.7796 104.959 74.0997 100.644C75.4197 96.3287 72.7068 90.3657 74.7096 86.3145C76.7125 82.2633 83.0579 80.8066 85.7344 77.156C88.4109 73.5054 87.9102 67.0325 91.1967 63.8917C94.4832 60.7508 100.892 61.5702 104.689 59.0393C108.485 56.5084 110.151 50.2996 114.366 48.4606C118.581 46.6217 124.226 49.6259 128.705 48.5426C133.184 47.4592 136.962 42.1699 141.45 41.8876C145.938 41.6054 150.445 46.3485 154.906 46.8493C159.366 47.35 164.801 43.6902 169.117 44.9648C173.432 46.2393 176.008 52.2478 180.041 54.2416C184.074 56.2353 190.392 54.6422 194.043 57.3187C197.694 59.9952 198.031 66.4863 201.171 69.7637C204.312 73.0411 210.749 73.651 213.279 77.4473C215.81 81.2436 213.862 87.3796 215.692 91.5765C217.522 95.7734 223.294 98.459 224.386 102.938Z" stroke="black" stroke-miterlimit="10"/>
<path d="M113.865 85.0854L115.795 93.0058L108.093 113.307L97.6422 115.802L105.408 95.5094L92.7899 98.5774L90.8599 90.657L113.865 85.0854Z" fill="black"/>
<path d="M147.522 101.19C148.15 103.794 147.841 105.169 146.348 106.297C144.855 107.426 142.288 108.118 138.564 109.029C137.777 107.549 136.801 106.178 135.66 104.95C138.227 104.486 141.25 103.712 142.033 103.512C142.816 103.311 143.125 102.947 142.943 102.183L141.668 96.9478L126.192 100.708C126.192 104.986 125.391 109.365 122.714 112.998C121.46 112.052 120.085 111.277 118.627 110.695C122.951 104.704 121.786 97.6761 120.447 92.1865L117.571 80.3332L141.04 74.616L147.522 101.19ZM123.033 83.4468L124.107 87.8166L138.6 84.2934L137.526 79.8781L123.033 83.4468ZM140.667 92.8237L139.593 88.4175L125.099 91.9407C125.391 93.3153 125.691 94.8539 125.919 96.4107L140.667 92.8237Z" fill="black"/>
<path d="M153.786 77.3836L155.315 83.6744C156.744 89.5281 158.365 98.5501 156.471 104.95C155.135 104.27 153.724 103.75 152.265 103.402C154.031 97.576 152.42 90.0015 151.127 84.694L148.669 74.5705L162.48 71.2112C161.962 70.4686 161.393 69.7629 160.777 69.0991L164.519 66.8777C165.541 67.849 166.457 68.9263 167.25 70.0914L179.213 67.1782L180.123 71.0109L153.786 77.3836ZM175.471 86.9062C177.62 91.4582 180.023 94.4624 181.398 94.1165C182.053 93.9617 182.017 92.3959 181.352 89.1913C182.544 89.8286 183.849 90.2275 185.194 90.3657C185.94 95.9646 184.912 97.5577 182.09 98.2405C178.23 99.1509 174.297 94.6627 171.247 87.935L163.764 89.7557L165.402 96.5108L169.171 94.5262C169.394 95.7678 169.729 96.9866 170.173 98.1677C164.255 101.527 163.144 102.328 162.516 103.056C161.976 101.949 161.267 100.932 160.413 100.043C160.814 99.7465 161.115 99.3355 161.278 98.8642C161.441 98.393 161.456 97.8835 161.324 97.403L156.981 79.5048C163.27 77.8705 169.419 75.7396 175.371 73.1321L179.313 75.6174C177.034 76.7102 174.7 77.6856 172.321 78.5398C172.813 80.224 173.341 81.7808 173.896 83.292L181.452 81.4712L182.363 85.2311L175.471 86.9062ZM169.754 84.3207C169.262 82.9005 168.762 81.4439 168.352 79.9782C166.231 80.6883 164.018 81.3347 161.906 81.9628L162.89 85.9958L169.754 84.3207ZM170.446 90.1563C172.454 92.691 174.279 95.3652 175.908 98.1586L172.904 100.389C171.355 97.487 169.568 94.719 167.56 92.1136L170.446 90.1563Z" fill="black"/>
<path d="M86.4172 126.963L103.878 122.712L114.721 167.321L97.2599 171.563L86.4172 126.963Z" fill="black"/>
<path d="M161.069 132.426C164.191 145.271 160.277 156.223 141.541 160.784L117.871 166.529L107.028 121.92L130.698 116.166C149.434 111.596 157.919 119.425 161.069 132.426ZM143.553 136.686C142.042 130.468 138.091 129.813 134.285 130.723L128.076 132.234L131.836 147.711L138.045 146.2C141.814 145.171 145.037 142.74 143.553 136.641V136.686Z" fill="black"/>
<path d="M162.89 131.925C159.366 117.441 167.032 105.733 182.918 101.882C198.804 98.0311 210.922 104.914 214.445 119.398C217.968 133.882 210.293 145.59 194.48 149.441C178.667 153.292 166.431 146.364 162.89 131.925ZM197.12 123.604C195.673 117.659 190.957 115.829 186.55 116.903C182.144 117.978 178.803 121.765 180.242 127.71C181.68 133.655 186.35 135.503 190.811 134.419C195.272 133.336 198.595 129.494 197.156 123.604H197.12Z" fill="black"/>
</g>
<g filter="url(#filter1_d)">
<path d="M744.978 43.6642L431.099 78.2614C422.76 79.1805 416.745 86.6855 417.664 95.0242L428.862 196.619C429.782 204.958 437.287 210.972 445.625 210.053L759.504 175.456C767.843 174.537 773.858 167.032 772.939 158.693L761.74 57.0986C760.821 48.7599 753.316 42.7451 744.978 43.6642Z" fill="#07BCED"/>
<path d="M443.954 210.635C440.089 210.628 436.362 209.196 433.488 206.613C430.613 204.03 428.792 200.477 428.374 196.635L417.174 95.0552C416.949 93.0063 417.13 90.9332 417.707 88.9544C418.284 86.9756 419.246 85.13 420.537 83.5232C421.828 81.9164 423.423 80.5799 425.231 79.5902C427.039 78.6004 429.024 77.9769 431.074 77.7552L744.924 43.1552C746.974 42.9302 749.048 43.1113 751.028 43.6881C753.008 44.2649 754.855 45.2262 756.463 46.517C758.072 47.8078 759.41 49.4029 760.402 51.2111C761.394 53.0192 762.02 55.0051 762.244 57.0552L773.444 158.655C773.67 160.703 773.491 162.776 772.915 164.755C772.34 166.734 771.381 168.58 770.092 170.187C768.803 171.795 767.209 173.133 765.403 174.124C763.596 175.115 761.612 175.741 759.564 175.965L445.684 210.535C445.11 210.603 444.532 210.636 443.954 210.635ZM746.674 44.0552C746.126 44.0555 745.578 44.0856 745.034 44.1452L431.154 78.7552C429.236 78.9644 427.378 79.5495 425.687 80.477C423.996 81.4045 422.504 82.6564 421.296 84.1609C420.089 85.6654 419.19 87.3931 418.651 89.2453C418.111 91.0975 417.943 93.0377 418.154 94.9552L429.354 196.555C429.564 198.473 430.15 200.331 431.079 202.023C432.008 203.714 433.26 205.206 434.766 206.413C436.271 207.621 437.999 208.519 439.852 209.058C441.705 209.598 443.646 209.766 445.564 209.555L759.444 174.945C761.362 174.739 763.221 174.155 764.914 173.228C766.607 172.302 768.1 171.05 769.308 169.545C770.516 168.04 771.414 166.311 771.952 164.458C772.491 162.604 772.658 160.663 772.444 158.745L761.244 57.1452C760.85 53.5533 759.147 50.2325 756.459 47.8176C753.771 45.4027 750.287 44.0632 746.674 44.0552Z" fill="black"/>
<path d="M449.444 199.945C446.663 199.938 443.983 198.907 441.913 197.05C439.844 195.193 438.531 192.639 438.224 189.875L428.224 99.1651C427.898 96.1847 428.768 93.1968 430.643 90.8571C432.518 88.5174 435.244 87.017 438.224 86.6851L739.864 53.4351C741.34 53.2712 742.834 53.3999 744.261 53.8139C745.687 54.2279 747.018 54.919 748.177 55.8478C749.336 56.7766 750.301 57.9247 751.016 59.2267C751.731 60.5286 752.182 61.9587 752.344 63.4351L762.344 154.135C762.672 157.117 761.804 160.108 759.928 162.45C758.053 164.792 755.325 166.293 752.344 166.625L450.704 199.875C450.286 199.923 449.865 199.947 449.444 199.945ZM741.074 54.3651C740.693 54.3652 740.312 54.3852 739.934 54.4251L438.334 87.6751C435.617 87.9767 433.131 89.345 431.423 91.479C429.714 93.613 428.923 96.3381 429.224 99.0551L439.224 189.765C439.526 192.481 440.892 194.966 443.023 196.676C445.155 198.385 447.877 199.18 450.594 198.885L752.234 165.625V166.125V165.625C754.951 165.323 757.438 163.956 759.148 161.822C760.858 159.688 761.651 156.963 761.354 154.245L751.354 63.5451C751.073 61.0171 749.868 58.6818 747.971 56.9876C746.074 55.2933 743.617 54.3594 741.074 54.3651Z" fill="black"/>
<path d="M451.894 115.175C452.684 113.435 453.454 111.545 454.124 109.675L458.914 112.055C456.744 117.219 454.099 122.17 451.014 126.845L459.014 124.675C459.042 126.318 459.169 127.958 459.394 129.585C447.534 133.215 445.564 134.045 444.394 134.955C443.742 133.334 442.967 131.766 442.074 130.265C443.314 129.825 444.254 128.535 445.684 126.525C446.962 124.633 448.121 122.662 449.154 120.625C444.534 121.705 443.344 122.145 442.574 122.625C441.911 120.924 441.126 119.273 440.224 117.685C441.224 117.255 441.894 116.055 442.784 114.255C444.944 109.567 446.528 104.634 447.504 99.5652L453.074 101.435C451.638 106.516 449.674 111.433 447.214 116.105L451.894 115.175ZM443.254 140.175C447.454 138.935 453.864 136.835 460.024 134.715L461.024 139.595C455.394 141.815 449.504 144.015 444.854 145.765L443.254 140.175ZM488.944 136.175C489.264 139.075 488.884 140.765 487.154 141.935C485.424 143.105 482.844 143.495 479.024 143.935C478.503 141.98 477.708 140.108 476.664 138.375C479.064 138.215 481.664 137.925 482.424 137.845C483.184 137.765 483.424 137.475 483.334 136.765L482.624 130.295L479.344 132.775C478.254 130.835 476.464 128.145 474.574 125.465C473.66 128.763 472.229 131.896 470.334 134.745C469.413 133.985 468.406 133.338 467.334 132.815L468.724 145.385L463.124 146.005L459.074 109.435L470.074 108.225C469.984 106.945 469.844 105.675 469.714 104.555L468.934 97.4252L474.684 96.7952L475.474 103.975C475.604 105.095 475.734 106.315 475.824 107.595L485.704 106.505L488.944 136.175ZM466.814 128.525C469.043 123.911 470.196 118.85 470.184 113.725L465.244 114.265L466.814 128.525ZM476.074 113.055C476.091 114.725 476.014 116.394 475.844 118.055C478.044 120.745 480.404 123.835 482.234 126.465L480.674 112.565L476.074 113.055Z" fill="black"/>
<path d="M523.794 116.675C528.933 122.428 535.235 127.022 542.284 130.155C540.721 131.901 539.377 133.832 538.284 135.905C531.317 132.135 525.114 127.099 519.994 121.055L522.074 139.645L515.554 140.365L513.554 121.935C510.006 129.024 505.076 135.331 499.054 140.485C497.553 138.784 495.877 137.245 494.054 135.895C500.331 131.258 505.463 125.244 509.054 118.315L493.554 120.055L492.874 113.855L512.374 111.705L510.294 92.8152L516.814 92.0552L518.894 110.945L538.444 108.785L539.124 114.945L523.794 116.675ZM501.284 110.675C499.328 106.588 496.759 102.824 493.664 99.5152L498.944 96.4552C502.142 99.6661 504.857 103.324 507.004 107.315L501.284 110.675ZM535.284 94.8752C533.282 99.4325 530.98 103.852 528.394 108.105L522.834 106.345C525.1 102.124 526.897 97.6674 528.194 93.0552L535.284 94.8752Z" fill="black"/>
<path d="M568.874 99.2352L569.504 104.935L585.894 103.135L587.784 120.295C588.114 123.295 587.694 125.045 585.654 126.195C583.614 127.345 580.724 127.765 576.804 128.195C576.186 126.159 575.266 124.228 574.074 122.465C576.634 122.335 579.644 122.005 580.394 121.875C581.144 121.745 581.494 121.545 581.394 120.875L580.164 109.725L570.084 110.835L572.674 133.755L566.364 134.455L563.844 111.545L554.424 112.545L556.424 130.415L550.314 131.085L547.684 107.305L563.214 105.595L562.594 99.8952L542.784 102.075L542.134 96.1752L562.554 93.9152C561.554 92.1752 560.384 90.1852 559.334 88.6052L565.074 86.0552C566.604 88.2652 568.624 91.1352 569.714 93.1252L588.534 91.0552L589.184 96.9552L568.874 99.2352Z" fill="black"/>
<path d="M607.804 84.0552C606.826 88.0056 605.58 91.8846 604.074 95.6652L607.884 130.055L602.284 130.675L599.484 105.265C598.704 106.585 597.904 107.805 597.104 108.975C595.97 106.872 594.666 104.865 593.204 102.975C597.493 96.9169 600.511 90.0521 602.074 82.7952L607.804 84.0552ZM643.624 120.055L644.184 125.145L609.924 128.915L609.364 123.825L613.734 123.345L610.634 95.1352L619.434 94.1352C619.524 93.0452 619.594 91.8552 619.664 90.6052L608.074 91.9252L607.504 86.7252L619.774 85.3752C619.774 83.7352 619.774 82.2352 619.684 80.7952L626.124 80.2952C626.074 81.7452 625.924 83.2052 625.834 84.7052L638.364 83.3252L638.934 88.5252L625.374 90.0552C625.204 91.3652 625.074 92.5152 624.884 93.6152L636.644 92.3252L639.754 120.525L643.624 120.055ZM616.464 98.9852L616.774 101.785L631.844 100.125L631.534 97.3252L616.464 98.9852ZM632.304 104.305L617.234 105.965L617.544 108.765L632.614 107.105L632.304 104.305ZM617.994 112.835L618.314 115.735L633.384 114.055L633.064 111.155L617.994 112.835ZM619.074 122.765L634.144 121.105L633.834 118.255L618.774 119.915L619.074 122.765Z" fill="black"/>
<path d="M688.164 95.8752C687.032 101.845 684.337 107.407 680.354 111.995C685.098 113.794 690.103 114.808 695.174 114.995C693.849 116.811 692.785 118.804 692.014 120.915C686.319 120.486 680.761 118.961 675.644 116.425C671.345 119.781 666.542 122.433 661.414 124.285C660.381 122.466 659.121 120.786 657.664 119.285C662.161 117.873 666.411 115.771 670.264 113.055C667.905 111.236 665.8 109.111 664.004 106.735C661.02 112.639 656.618 117.71 651.194 121.495C649.761 119.782 648.075 118.298 646.194 117.095C654.674 111.265 659.284 103.095 661.504 92.8852L654.894 93.6152C652.144 93.9152 650.044 94.5552 649.674 95.3752C648.923 93.556 648.071 91.7799 647.124 90.0552C648.028 89.5282 648.718 88.6998 649.074 87.7152C650.306 84.6998 651.156 81.5419 651.604 78.3152L658.124 78.6252C657.538 81.7004 656.664 84.7137 655.514 87.6252L662.514 86.8452C662.973 83.0924 663.21 79.3158 663.224 75.5352L670.124 75.9152C670.044 79.4252 669.854 82.8452 669.544 86.0752L689.964 83.8252L690.604 89.6252L668.724 92.0552C668.434 93.5752 668.124 94.9552 667.724 96.3852L682.594 94.7452L683.684 94.3652L688.164 95.8752ZM667.494 102.335C669.529 104.947 671.97 107.216 674.724 109.055C676.951 106.685 678.742 103.939 680.014 100.945L667.494 102.335ZM681.844 84.3352C680.354 82.5952 677.364 79.7352 675.124 77.6552L679.504 74.3452C681.724 76.2652 684.794 78.9152 686.384 80.6452L681.844 84.3352Z" fill="black"/>
<path d="M710.854 73.0552C707.414 78.6274 703.195 83.6786 698.324 88.0552C697.154 86.425 695.85 84.8963 694.424 83.4852C698.545 80.0853 702.035 75.986 704.734 71.3752L710.854 73.0552ZM713.934 83.6852C712.603 86.58 711.069 89.377 709.344 92.0552L712.274 118.635L706.214 119.305L704.074 99.4352C702.794 100.965 701.564 102.435 700.314 103.665C698.837 101.98 697.264 100.38 695.604 98.8752C700.845 94.2121 705.046 88.4983 707.934 82.1052L713.934 83.6852ZM743.074 90.0552L736.074 90.8252L738.074 108.695C738.424 111.955 738.004 113.695 735.864 114.865C733.724 116.035 730.584 116.475 726.044 116.975C725.46 114.878 724.617 112.863 723.534 110.975C726.454 110.815 729.814 110.445 730.724 110.285C731.634 110.125 731.974 109.945 731.894 109.185L729.894 91.4652L714.894 93.1152L714.264 87.3652L742.424 84.2652L743.074 90.0552ZM740.254 76.1952L715.514 78.9252L714.884 73.1652L739.624 70.4452L740.254 76.1952Z" fill="black"/>
<path d="M544.56 166.102L457.121 175.385L457.227 176.379L544.665 167.096L544.56 166.102Z" fill="black"/>
<path d="M733.557 145.087L646.118 154.369L646.224 155.364L733.662 146.081L733.557 145.087Z" fill="black"/>
<path d="M553.829 159.062L552.835 159.167L554.22 172.344L555.214 172.24L553.829 159.062Z" fill="black"/>
<path d="M560.785 158.339L559.79 158.443L561.175 171.621L562.17 171.516L560.785 158.339Z" fill="black"/>
<path d="M567.74 157.615L566.746 157.72L568.131 170.897L569.125 170.792L567.74 157.615Z" fill="black"/>
<path d="M574.705 156.872L573.71 156.976L575.095 170.154L576.09 170.049L574.705 156.872Z" fill="black"/>
<path d="M581.67 156.138L580.676 156.243L582.061 169.42L583.055 169.316L581.67 156.138Z" fill="black"/>
<path d="M588.636 155.404L587.641 155.508L589.026 168.685L590.021 168.581L588.636 155.404Z" fill="black"/>
<path d="M595.591 154.69L594.597 154.795L595.982 167.972L596.976 167.867L595.591 154.69Z" fill="black"/>
<path d="M602.557 153.946L601.562 154.051L602.948 167.228L603.942 167.124L602.557 153.946Z" fill="black"/>
<path d="M609.523 153.213L608.528 153.318L609.913 166.495L610.908 166.39L609.523 153.213Z" fill="black"/>
<path d="M616.477 152.48L615.483 152.584L616.868 165.761L617.862 165.657L616.477 152.48Z" fill="black"/>
<path d="M623.443 151.746L622.448 151.851L623.833 165.028L624.828 164.923L623.443 151.746Z" fill="black"/>
<path d="M630.408 151.011L629.414 151.116L630.799 164.293L631.793 164.189L630.408 151.011Z" fill="black"/>
<path d="M637.374 150.288L636.379 150.392L637.764 163.57L638.759 163.465L637.374 150.288Z" fill="black"/>
</g>
<defs>
<filter id="filter0_d" x="0" y="0" width="293.044" height="293.73" filterUnits="userSpaceOnUse" color-interpolation-filters="sRGB">
<feFlood flood-opacity="0" result="BackgroundImageFix"/>
<feColorMatrix in="SourceAlpha" type="matrix" values="0 0 0 0 0 0 0 0 0 0 0 0 0 0 0 0 0 0 127 0"/>
<feOffset dy="25"/>
<feGaussianBlur stdDeviation="25"/>
<feColorMatrix type="matrix" values="0 0 0 0 0 0 0 0 0 0 0 0 0 0 0 0 0 0 0.45 0"/>
<feBlend mode="normal" in2="BackgroundImageFix" result="effect1_dropShadow"/>
<feBlend mode="normal" in="SourceGraphic" in2="effect1_dropShadow" result="shape"/>
</filter>
<filter id="filter1_d" x="367.08" y="18.0615" width="456.459" height="267.574" filterUnits="userSpaceOnUse" color-interpolation-filters="sRGB">
<feFlood flood-opacity="0" result="BackgroundImageFix"/>
<feColorMatrix in="SourceAlpha" type="matrix" values="0 0 0 0 0 0 0 0 0 0 0 0 0 0 0 0 0 0 127 0"/>
<feOffset dy="25"/>
<feGaussianBlur stdDeviation="25"/>
<feColorMatrix type="matrix" values="0 0 0 0 0 0 0 0 0 0 0 0 0 0 0 0 0 0 0.45 0"/>
<feBlend mode="normal" in2="BackgroundImageFix" result="effect1_dropShadow"/>
<feBlend mode="normal" in="SourceGraphic" in2="effect1_dropShadow" result="shape"/>
</filter>
</defs>
</svg>
