<svg width="25" height="90" viewBox="0 0 25 90" fill="none" xmlns="http://www.w3.org/2000/svg">
<rect width="25" height="90" fill="black"/>
<path d="M8.2 73.3148V78.2382H18V73.3148C18 69.3248 15.9117 67.9248 13.1 67.9248C10.2767 67.9248 8.2 69.3248 8.2 73.3148ZM15.2933 73.3148V74.9948H10.9067V73.3148C10.9067 72.0548 11.525 71.1682 13.1 71.1682C14.6633 71.1682 15.2933 72.0548 15.2933 73.3148ZM18.3267 61.8403C18.3267 58.4686 16.2383 56.287 13.1 56.287C9.96167 56.287 7.87333 58.4686 7.87333 61.8403C7.87333 65.212 9.96167 67.3936 13.1 67.3936C16.2383 67.3936 18.3267 65.212 18.3267 61.8403ZM15.5383 61.8403C15.5383 63.1236 14.6517 64.1853 13.1 64.1853C11.5483 64.1853 10.6617 63.1236 10.6617 61.8403C10.6617 60.557 11.5483 59.4953 13.1 59.4953C14.6517 59.4953 15.5383 60.557 15.5383 61.8403ZM18 55.6385V52.4069H15.8533V50.0619C15.8533 47.4019 14.6633 45.8152 12.0267 45.8152C9.39 45.8152 8.2 47.4019 8.2 50.0735V55.6385H18ZM13.17 52.4069H10.8833V50.3419C10.8833 49.5719 11.2683 49.0702 12.0267 49.0702C12.785 49.0702 13.17 49.5719 13.17 50.3535V52.4069ZM18 45.1112V36.2795H15.41V41.8795H14.1617V36.4895H12.0383V41.8795H10.79V36.2795H8.2L8.2 45.1112H18ZM18 24.3737V21.037L8.2 24.642V29.1687L18 32.7737V29.437L16.705 29.0054V24.8054L18 24.3737ZM14.3133 28.212L11.2333 27.1854V26.6254L14.3133 25.5987V28.212ZM18 20.5702V17.3385H14.5583V12.0068H12.225V17.3385H10.895V11.7618H8.2V20.5702H18Z" fill="white"/>
</svg>
