<svg width="229" height="151" viewBox="0 0 229 151" fill="none" xmlns="http://www.w3.org/2000/svg">
<rect x="0.810962" y="19.4218" width="129" height="129" transform="rotate(-5 0.810962 19.4218)" fill="#007EFC" stroke="black"/>
<rect x="10.1366" y="126.015" width="129" height="22" transform="rotate(-5 10.1366 126.015)" fill="#FDCB02" stroke="black"/>
<rect x="0.810962" y="19.4218" width="9" height="129" transform="rotate(-5 0.810962 19.4218)" fill="#123CB1" stroke="black"/>
<path d="M29.9529 142.851L28.6718 128.207L31.4123 127.968L32.4885 140.269L35.9821 139.963L36.1871 142.306L29.9529 142.851ZM36.9185 142.242L35.6373 127.598L39.7167 127.241C41.1393 127.117 42.1066 127.25 42.6186 127.641C43.1294 128.018 43.4403 128.841 43.5514 130.11L43.8607 133.645C43.9742 134.942 43.8121 135.821 43.3745 136.281C42.9497 136.725 42.019 137.011 40.5825 137.136L39.2436 137.253L39.659 142.002L36.9185 142.242ZM39.8744 129.525L38.5774 129.639L39.0441 134.973L40.3411 134.86C40.6201 134.835 40.8256 134.775 40.9577 134.679C41.0887 134.569 41.1401 134.354 41.112 134.033L40.7789 130.226C40.7509 129.905 40.6628 129.702 40.5148 129.617C40.3668 129.531 40.1533 129.501 39.8744 129.525ZM44.731 136.31L44.5424 134.155L49.9189 133.684L50.1074 135.839L44.731 136.31ZM50.2028 126.324L52.9642 126.082L53.969 137.567C54.0044 137.972 54.0834 138.232 54.206 138.348C54.3273 138.449 54.5414 138.487 54.8482 138.46L55.6432 138.39C55.95 138.364 56.1543 138.29 56.2561 138.168C56.3567 138.033 56.3893 137.763 56.3539 137.359L55.3491 125.873L58.0896 125.634L59.0853 137.014C59.2037 138.367 59.0313 139.289 58.5683 139.779C58.118 140.254 57.1606 140.555 55.6962 140.684L55.1732 140.729C53.7088 140.857 52.7067 140.727 52.1667 140.339C51.6396 139.935 51.3168 139.057 51.1984 137.704L50.2028 126.324ZM62.8446 125.133L63.1375 125.108C64.6158 124.978 65.6186 125.116 66.1458 125.519C66.6717 125.909 66.9939 126.78 67.1122 128.133L67.2587 129.806L64.5181 130.046L64.3552 128.184C64.3223 127.808 64.2248 127.577 64.0629 127.493C63.9137 127.394 63.6717 127.359 63.337 127.388L63.0441 127.414C62.7094 127.443 62.4702 127.52 62.3265 127.645C62.1956 127.755 62.1466 127.998 62.1796 128.375L62.2802 129.525C62.3217 129.999 62.4335 130.313 62.6155 130.466C62.8114 130.617 63.2336 130.784 63.8819 130.966L65.3047 131.327C65.7365 131.443 66.0468 131.536 66.2354 131.603C66.424 131.671 66.646 131.799 66.9014 131.988C67.1568 132.176 67.341 132.434 67.454 132.762C67.5797 133.074 67.6645 133.481 67.7084 133.983L67.9061 136.243C68.0244 137.595 67.8521 138.517 67.3891 139.007C66.9387 139.482 65.9814 139.784 64.517 139.912L64.1404 139.945C62.6621 140.074 61.6599 139.944 61.1339 139.554C60.6068 139.151 60.284 138.273 60.1656 136.92L60.0156 135.204L62.7561 134.964L62.9208 136.847C62.955 137.238 63.0467 137.483 63.1959 137.582C63.3579 137.666 63.6062 137.694 63.9409 137.665L64.3175 137.632C64.5406 137.612 64.7068 137.583 64.8159 137.546C64.939 137.507 65.0363 137.414 65.1077 137.267C65.1792 137.121 65.2034 136.915 65.1802 136.65L65.0283 134.913C65.0148 134.76 64.9893 134.629 64.9517 134.519C64.914 134.41 64.8788 134.329 64.846 134.276C64.812 134.208 64.7362 134.145 64.6185 134.085C64.5148 134.024 64.4338 133.982 64.3756 133.959C64.3313 133.934 64.2155 133.895 64.028 133.841C63.8534 133.772 63.7299 133.727 63.6578 133.705L62.1267 133.312C61.6936 133.181 61.3752 133.076 61.1714 132.995C60.9676 132.915 60.7311 132.781 60.4617 132.593C60.1924 132.406 59.9942 132.149 59.8673 131.823C59.7404 131.497 59.6556 131.09 59.6129 130.602L59.4555 128.803C59.3371 127.45 59.5031 126.536 59.9534 126.061C60.4165 125.571 61.3802 125.261 62.8446 125.133ZM69.1976 139.418L67.9164 124.774L72.0376 124.413C73.4741 124.288 74.4484 124.42 74.9604 124.811C75.4864 125.201 75.8067 126.051 75.9214 127.362L76.6315 135.479C76.7462 136.79 76.5784 137.683 76.1281 138.158C75.6918 138.632 74.7553 138.932 73.3188 139.057L69.1976 139.418ZM72.2371 126.694L70.8773 126.813L71.7386 136.898L73.1193 136.777C73.4122 136.752 73.6235 136.677 73.7532 136.553C73.8829 136.429 73.9325 136.193 73.902 135.844L73.1644 127.414C73.1351 127.079 73.0465 126.869 72.8985 126.783C72.7644 126.697 72.544 126.667 72.2371 126.694ZM81.6983 125.929L82.7745 138.23L80.0131 138.472L78.9369 126.171L76.3428 126.398L76.1378 124.055L84.0874 123.359L84.2924 125.702L81.6983 125.929ZM84.7791 138.772L86.4395 122.331L88.0922 122.187L86.4108 138.629L84.7791 138.772ZM88.7235 122.954L91.5059 122.71L93.41 133.632L93.4309 133.63L93.7443 122.514L96.6313 122.262L98.8492 133.156L98.8702 133.154L98.8488 122.068L101.652 121.822L101.406 136.6L97.1385 136.974L95.7497 128.81L95.7288 128.812L95.7787 137.092L91.5319 137.464L88.7235 122.954ZM103.663 136.403L102.381 121.759L106.314 121.415C107.765 121.288 108.746 121.42 109.258 121.811C109.783 122.186 110.103 123.037 110.219 124.361L110.342 125.763C110.419 126.642 110.354 127.273 110.149 127.656C109.956 128.024 109.578 128.275 109.013 128.409C109.619 128.426 110.049 128.599 110.302 128.929C110.57 129.257 110.743 129.867 110.821 130.759L110.971 132.475C111.026 133.102 111.029 133.615 110.979 134.013C110.942 134.396 110.865 134.719 110.748 134.982C110.643 135.23 110.435 135.424 110.124 135.563C109.813 135.703 109.485 135.809 109.14 135.881C108.794 135.94 108.293 135.998 107.637 136.055L103.663 136.403ZM105.847 129.803L106.204 133.883L107.438 133.775C107.731 133.749 107.943 133.681 108.074 133.572C108.203 133.448 108.253 133.212 108.222 132.863L108.012 130.457C107.983 130.122 107.886 129.906 107.723 129.808C107.574 129.708 107.346 129.672 107.039 129.699L105.847 129.803ZM105.321 123.799L105.66 127.669L106.915 127.56C107.194 127.535 107.392 127.462 107.507 127.339C107.623 127.217 107.666 126.988 107.637 126.653L107.445 124.457C107.416 124.122 107.326 123.905 107.177 123.805C107.028 123.706 106.807 123.669 106.514 123.695L105.321 123.799ZM111.147 120.992L113.908 120.75L117.146 128.604L117.167 128.602L116.46 120.527L119.034 120.302L120.315 134.946L117.449 135.197L114.455 127.722L114.434 127.724L115.106 135.402L112.428 135.636L111.147 120.992ZM121.559 134.837L120.278 120.193L124.211 119.849C125.661 119.722 126.643 119.854 127.155 120.245C127.679 120.62 128 121.471 128.116 122.796L128.238 124.197C128.315 125.076 128.251 125.707 128.045 126.09C127.853 126.459 127.474 126.71 126.91 126.843C127.516 126.86 127.945 127.034 128.199 127.363C128.467 127.691 128.639 128.301 128.717 129.194L128.868 130.909C128.922 131.537 128.925 132.049 128.876 132.447C128.839 132.83 128.762 133.153 128.644 133.416C128.539 133.664 128.332 133.858 128.021 133.998C127.709 134.137 127.381 134.243 127.036 134.316C126.69 134.374 126.189 134.432 125.534 134.489L121.559 134.837ZM123.743 128.238L124.1 132.317L125.334 132.209C125.627 132.183 125.839 132.116 125.97 132.006C126.1 131.882 126.149 131.646 126.119 131.297L125.908 128.891C125.879 128.557 125.783 128.34 125.62 128.242C125.471 128.143 125.242 128.106 124.936 128.133L123.743 128.238ZM123.218 122.233L123.557 126.104L124.812 125.994C125.091 125.969 125.288 125.896 125.404 125.773C125.52 125.651 125.563 125.422 125.533 125.088L125.341 122.891C125.312 122.556 125.223 122.339 125.074 122.24C124.924 122.14 124.703 122.104 124.41 122.129L123.218 122.233Z" fill="black"/>
<path d="M66.8988 75.73L79.5381 74.6242L79.1857 70.5971L71.3756 71.2804L70.4467 60.6634L65.6176 61.0859L66.8988 75.73ZM82.8422 74.3351L87.6713 73.9126L87.3906 70.7049L90.8948 70.3983C94.8696 70.0505 97.0849 68.0649 96.7402 64.1249C96.3955 60.185 93.869 58.6142 89.8768 58.9635L81.561 59.691L82.8422 74.3351ZM87.0398 66.6952L86.7409 63.2782L89.8266 63.0083C90.9772 62.9076 91.7772 63.4173 91.8763 64.5505C91.9755 65.6837 91.2762 66.3245 90.1081 66.4267L87.0398 66.6952Z" fill="white"/>
<path d="M66.8988 75.73L65.9026 75.8171L65.9898 76.8133L66.986 76.7262L66.8988 75.73ZM79.5381 74.6242L79.6252 75.6204L80.6214 75.5332L80.5343 74.537L79.5381 74.6242ZM79.1857 70.5971L80.1819 70.5099L80.0948 69.5137L79.0986 69.6009L79.1857 70.5971ZM71.3756 71.2804L70.3794 71.3675L70.4665 72.3637L71.4627 72.2765L71.3756 71.2804ZM70.4467 60.6634L71.4429 60.5763L71.3557 59.5801L70.3595 59.6672L70.4467 60.6634ZM65.6176 61.0859L65.5305 60.0897L64.5343 60.1769L64.6215 61.1731L65.6176 61.0859ZM66.986 76.7262L79.6252 75.6204L79.4509 73.628L66.8117 74.7338L66.986 76.7262ZM80.5343 74.537L80.1819 70.5099L78.1895 70.6842L78.5419 74.7113L80.5343 74.537ZM79.0986 69.6009L71.2884 70.2842L71.4627 72.2765L79.2729 71.5932L79.0986 69.6009ZM72.3718 71.1932L71.4429 60.5763L69.4505 60.7506L70.3794 71.3675L72.3718 71.1932ZM70.3595 59.6672L65.5305 60.0897L65.7048 62.0821L70.5339 61.6596L70.3595 59.6672ZM64.6215 61.1731L65.9026 75.8171L67.895 75.6428L66.6138 60.9987L64.6215 61.1731ZM82.8422 74.3351L81.846 74.4222L81.9332 75.4184L82.9294 75.3313L82.8422 74.3351ZM87.6713 73.9126L87.7584 74.9088L88.7546 74.8216L88.6675 73.8254L87.6713 73.9126ZM87.3906 70.7049L87.3035 69.7087L86.3073 69.7958L86.3945 70.792L87.3906 70.7049ZM81.561 59.691L81.4739 58.6948L80.4777 58.782L80.5648 59.7782L81.561 59.691ZM87.0398 66.6952L86.0436 66.7823L86.1308 67.7785L87.127 67.6914L87.0398 66.6952ZM86.7409 63.2782L86.6537 62.282L85.6575 62.3692L85.7447 63.3654L86.7409 63.2782ZM82.9294 75.3313L87.7584 74.9088L87.5841 72.9164L82.7551 73.3389L82.9294 75.3313ZM88.6675 73.8254L88.3868 70.6177L86.3945 70.792L86.6751 73.9998L88.6675 73.8254ZM87.4778 71.7011L90.9819 71.3945L90.8076 69.4021L87.3035 69.7087L87.4778 71.7011ZM90.9819 71.3945C93.0978 71.2094 94.9146 70.5759 96.153 69.3072C97.4165 68.0125 97.9268 66.2137 97.7364 64.0378L95.7441 64.2121C95.8984 65.9761 95.4733 67.1401 94.7217 67.9102C93.9448 68.7062 92.6665 69.2395 90.8076 69.4021L90.9819 71.3945ZM97.7364 64.0378C97.5461 61.8618 96.7311 60.1785 95.259 59.1231C93.8168 58.089 91.9133 57.7815 89.7896 57.9673L89.9639 59.9597C91.8325 59.7962 93.1884 60.0994 94.0937 60.7485C94.9691 61.3761 95.5897 62.4482 95.7441 64.2121L97.7364 64.0378ZM89.7896 57.9673L81.4739 58.6948L81.6482 60.6872L89.9639 59.9597L89.7896 57.9673ZM80.5648 59.7782L81.846 74.4222L83.8384 74.2479L82.5572 59.6039L80.5648 59.7782ZM88.036 66.608L87.7371 63.1911L85.7447 63.3654L86.0436 66.7823L88.036 66.608ZM86.8281 64.2744L89.9138 64.0045L89.7395 62.0121L86.6537 62.282L86.8281 64.2744ZM89.9138 64.0045C90.336 63.9675 90.5597 64.0549 90.6614 64.1282C90.7388 64.1839 90.8509 64.3041 90.8801 64.6376L92.8725 64.4633C92.8026 63.6637 92.4651 62.9624 91.8301 62.5052C91.2194 62.0655 90.4678 61.9483 89.7395 62.0121L89.9138 64.0045ZM90.8801 64.6376C90.9093 64.9709 90.8199 65.1073 90.7533 65.1752C90.6647 65.2656 90.4552 65.3925 90.021 65.4305L90.1953 67.4229C90.9291 67.3587 91.6533 67.1141 92.1815 66.5753C92.7318 66.0139 92.9425 65.2632 92.8725 64.4633L90.8801 64.6376ZM90.021 65.4305L86.9527 65.699L87.127 67.6914L90.1953 67.4229L90.021 65.4305Z" fill="black"/>
<circle cx="47.615" cy="94.407" r="22" fill="white" stroke="black"/>
<path d="M40.2134 91.768L46.3932 84.4065L53.7606 90.5883L57.354 86.303L45.7036 76.5249L35.928 88.1747L40.2134 91.768Z" fill="#F3BA2F"/>
<path d="M33.3895 91.2006L29.7947 95.4846L34.0788 99.0793L37.6736 94.7953L33.3895 91.2006Z" fill="#F3BA2F"/>
<path d="M40.7003 97.3335L48.0648 103.513L54.2468 96.1456L58.532 99.7361L58.5295 99.7391L48.7541 111.392L37.1042 101.619L37.0982 101.614L40.7003 97.3335Z" fill="#F3BA2F"/>
<path d="M60.3773 88.8405L56.7825 93.1245L61.0666 96.7192L64.6614 92.4352L60.3773 88.8405Z" fill="#F3BA2F"/>
<path d="M51.2248 93.6073L46.8789 89.9583L44.1825 93.1717L43.8706 93.5403L43.2323 94.301L43.2273 94.307L43.2335 94.3148L47.5789 97.9583L51.225 93.61L51.2275 93.607L51.2248 93.6073Z" fill="#F3BA2F"/>
<circle cx="43.6763" cy="46.407" r="22" fill="white" stroke="black"/>
<path fill-rule="evenodd" clip-rule="evenodd" d="M30.8941 33.735L25.5196 48.1419C25.4991 48.1955 25.4962 48.2543 25.5115 48.3097C25.5268 48.365 25.5593 48.4141 25.6045 48.4496L44.8785 63.9344C44.9332 63.9784 45.0029 63.9995 45.0729 63.9934C45.1429 63.9873 45.2078 63.9544 45.254 63.9015L61.5464 45.3062C61.5847 45.2633 61.6083 45.2094 61.6137 45.1522C61.6191 45.095 61.6061 45.0376 61.5765 44.9884L53.782 31.7337C53.7567 31.6891 53.7191 31.6527 53.6736 31.6289C53.6282 31.6052 53.5769 31.595 53.5258 31.5996L31.1253 33.5594C31.0739 33.5632 31.0248 33.5818 30.9837 33.613C30.9427 33.6442 30.9116 33.6866 30.8941 33.735Z" fill="#50AF95"/>
<path fill-rule="evenodd" clip-rule="evenodd" d="M46.0513 47.7808C45.9245 47.8015 45.2683 47.8986 43.7969 48.0273C42.6266 48.1297 41.7926 48.1673 41.4999 48.179C36.9598 48.3757 33.5152 47.8838 33.4327 46.9411C33.3503 45.9985 36.6572 44.9169 41.1622 44.3191L41.4313 47.3949C41.7289 47.3903 42.5802 47.3662 43.7505 47.2638C45.1548 47.1409 45.853 47.0209 45.9785 46.9981L45.7095 43.9234C50.2402 43.7297 53.6774 44.2223 53.7597 45.1628C53.842 46.1032 50.5436 47.1851 46.0469 47.7801L46.0513 47.7808ZM45.686 43.6049L45.4452 40.8526L51.7435 40.3016L51.3763 36.1045L34.2283 37.6047L34.5955 41.8019L40.8927 41.2509L41.1334 44.0022C36.0355 44.6851 32.275 46.0358 32.3813 47.2507C32.4876 48.4657 36.4255 49.1418 41.5646 48.9302L42.3362 57.7499L46.8876 57.3518L46.1157 48.5288C51.2018 47.8469 54.956 46.4978 54.8498 45.2839C54.7436 44.07 50.8154 43.3931 45.6848 43.604L45.686 43.6049Z" fill="white"/>
<circle cx="162.961" cy="69.9818" r="59.5" transform="rotate(-5 162.961 69.9818)" fill="white" stroke="black"/>
<path d="M143.532 32.2837L143.93 36.8263L148.281 36.4456L148.515 39.1234L141.032 39.7781L139.568 23.042L147.051 22.3873L147.285 25.0651L142.934 25.4458L143.298 29.6059L147.243 29.2608L147.477 31.9385L143.532 32.2837ZM155.283 21.6671L159.592 38.1543L156.46 38.4283L155.665 35.3901L152.437 35.6725L152.205 38.8006L149.049 39.0767L150.43 22.0918L155.283 21.6671ZM152.999 24.4689L152.475 32.8023L155.105 32.5722L153.142 24.4564L152.999 24.4689ZM160.387 38.0848L158.922 21.3487L163.68 20.9325C165.306 20.7902 166.403 20.9352 166.971 21.3674C167.554 21.7981 167.91 22.7467 168.039 24.2131L168.244 26.5561C168.333 27.5762 168.244 28.2988 167.976 28.7238C167.722 29.1314 167.279 29.395 166.647 29.5145C167.343 29.5661 167.844 29.7953 168.153 30.2019C168.462 30.6086 168.661 31.3299 168.752 32.3659L169.185 37.315L166.029 37.5912L165.56 32.2356C165.491 31.4387 165.145 31.0674 164.523 31.1218L162.945 31.2598L163.519 37.8108L160.387 38.0848ZM162.282 23.6808L162.724 28.7255L164.35 28.5833C164.668 28.5554 164.887 28.488 165.006 28.3812C165.14 28.2571 165.19 28.0038 165.157 27.6212L164.866 24.2979C164.834 23.9313 164.742 23.7065 164.59 23.6234C164.438 23.5403 164.195 23.5134 163.86 23.5427L162.282 23.6808ZM168.847 20.4805L172.002 20.2044L175.703 29.18L175.727 29.1779L174.919 19.9492L177.86 19.6919L179.324 36.428L176.049 36.7145L172.627 28.1722L172.603 28.1743L173.371 36.9488L170.311 37.2166L168.847 20.4805Z" fill="black"/>
<line x1="147.053" y1="48.7875" x2="176.939" y2="46.1729" stroke="black"/>
<path d="M128.101 74.4772L126.825 59.893L117.112 60.7427L106.493 76.3677L107.042 82.6437L120.371 81.4775L120.743 85.7213L129.021 84.9971L128.65 80.7533L132.445 80.4212L131.896 74.1452L128.101 74.4772ZM113.666 75.7401L119.161 67.6404L119.822 75.2015L113.666 75.7401ZM147.137 84.0747C155.266 83.3635 159.493 78.3259 158.742 69.7487C157.992 61.1714 152.954 56.9444 144.825 57.6556C136.696 58.3668 132.469 63.4044 133.22 71.9816C133.97 80.5588 139.008 84.7859 147.137 84.0747ZM146.527 77.1113C143.479 77.378 141.734 75.3323 141.378 71.2678C141.023 67.2033 142.386 64.8857 145.434 64.619C148.483 64.3523 150.228 66.398 150.583 70.4625C150.939 74.527 149.576 76.8446 146.527 77.1113ZM182.175 69.7463L180.899 55.162L171.186 56.0118L160.568 71.6367L161.117 77.9128L174.446 76.7466L174.817 80.9904L183.096 80.2661L182.724 76.0224L186.52 75.6903L185.971 69.4143L182.175 69.7463ZM167.74 71.0092L173.235 62.9095L173.897 70.4706L167.74 71.0092ZM198.928 79.7543L212.969 53.6813L209.299 51.6535L195.258 77.7265L198.928 79.7543ZM194.895 67.0375C199.676 66.6191 201.439 63.3631 201.123 59.7469C200.809 56.1606 198.508 53.2601 193.726 53.6785C188.944 54.0968 187.181 57.3529 187.495 60.9392C187.811 64.5554 190.113 67.4558 194.895 67.0375ZM194.45 61.9569C193.285 62.0588 192.763 61.2612 192.695 60.4842C192.625 59.6773 193.005 58.861 194.17 58.7591C195.336 58.6571 195.852 59.3949 195.923 60.2018C195.991 60.9789 195.616 61.8549 194.45 61.9569ZM214.484 77.8814C219.266 77.463 221.029 74.207 220.713 70.5908C220.399 67.0045 218.097 64.104 213.316 64.5224C208.534 64.9407 206.771 68.1968 207.085 71.7831C207.401 75.3993 209.703 78.2997 214.484 77.8814ZM214.04 72.8008C212.874 72.9027 212.353 72.1052 212.285 71.3281C212.214 70.5212 212.595 69.705 213.76 69.603C214.926 69.501 215.442 70.2388 215.512 71.0457C215.58 71.8228 215.205 72.6988 214.04 72.8008Z" fill="black"/>
<path d="M153.208 112.996L158.906 112.497L151.285 96.2996L143.555 96.9759L138.863 114.251L144.561 113.752L145.105 111.476L152.277 110.849L153.208 112.996ZM146.102 107.273L147.395 101.86L148.351 101.776L150.565 106.883L146.102 107.273ZM159.703 112.427L165.222 111.944L164.901 108.278L168.906 107.928C173.449 107.531 175.981 105.261 175.587 100.759C175.193 96.2557 172.305 94.4606 167.743 94.8597L158.239 95.6912L159.703 112.427ZM164.501 103.696L164.159 99.7909L167.685 99.4823C169 99.3673 169.915 99.9498 170.028 101.245C170.141 102.54 169.342 103.272 168.007 103.389L164.501 103.696ZM195.075 109.333L191.605 104.095C192.933 102.975 193.809 101.292 193.613 99.041C193.227 94.6378 190.443 92.8737 185.801 93.2799L176.217 94.1183L177.682 110.854L183.2 110.372L182.822 106.048L187.006 105.682L189.656 109.807L195.075 109.333ZM182.137 98.218L185.823 97.8955C187.218 97.7735 187.994 98.3881 188.097 99.5637C188.2 100.739 187.542 101.479 186.147 101.601L182.461 101.924L182.137 98.218Z" fill="black"/>
</svg>
