<svg width="272" height="227" viewBox="0 0 272 227" fill="none" xmlns="http://www.w3.org/2000/svg">
<g filter="url(#filter0_d)">
<rect x="0.810962" y="23.0314" width="153.657" height="153.657" transform="rotate(-5 0.810962 23.0314)" fill="#007EFC" stroke="black"/>
<rect x="11.9054" y="149.841" width="153.657" height="26.3623" transform="rotate(-5 11.9054 149.841)" fill="#FDCB02" stroke="black"/>
<rect x="0.810962" y="23.0314" width="10.8967" height="153.657" transform="rotate(-5 0.810962 23.0314)" fill="#123CB1" stroke="black"/>
</g>
<path d="M48.7179 165.716L47.4367 151.072L50.1773 150.833L51.2535 163.134L54.7471 162.828L54.9521 165.171L48.7179 165.716ZM55.6835 165.107L54.4023 150.463L58.4817 150.106C59.9043 149.982 60.8716 150.115 61.3836 150.506C61.8944 150.883 62.2053 151.706 62.3164 152.975L62.6257 156.51C62.7391 157.807 62.5771 158.686 62.1395 159.146C61.7147 159.59 60.784 159.876 59.3475 160.001L58.0086 160.118L58.424 164.867L55.6835 165.107ZM58.6394 152.39L57.3424 152.503L57.8091 157.838L59.1061 157.725C59.3851 157.7 59.5906 157.64 59.7227 157.544C59.8537 157.434 59.9051 157.219 59.877 156.898L59.5439 153.091C59.5159 152.77 59.4278 152.567 59.2798 152.482C59.1318 152.396 58.9183 152.366 58.6394 152.39ZM63.4959 159.175L63.3074 157.02L68.6839 156.549L68.8724 158.704L63.4959 159.175ZM72.5204 157.268L72.8682 161.243L76.6756 160.909L76.8806 163.253L70.3326 163.825L69.0514 149.181L75.5994 148.608L75.8044 150.951L71.997 151.285L72.3154 154.925L75.7673 154.623L75.9722 156.966L72.5204 157.268ZM81.6475 150.44L82.7237 162.741L79.9623 162.983L78.8861 150.682L76.292 150.909L76.087 148.566L84.0366 147.87L84.2416 150.213L81.6475 150.44ZM86.0636 162.449L84.7824 147.805L87.5229 147.565L88.0464 153.548L90.3685 153.345L89.845 147.362L92.6065 147.121L93.8877 161.765L91.1262 162.006L90.5863 155.835L88.2642 156.038L88.8041 162.209L86.0636 162.449ZM94.8614 162.396L96.5219 145.956L98.1745 145.811L96.4932 162.253L94.8614 162.396ZM98.8059 146.578L101.588 146.335L103.492 157.256L103.513 157.254L103.827 146.139L106.714 145.886L108.932 156.78L108.953 156.779L108.931 145.692L111.734 145.447L111.489 160.225L107.221 160.598L105.832 152.435L105.811 152.437L105.861 160.717L101.614 161.089L98.8059 146.578ZM113.745 160.027L112.464 145.383L116.397 145.039C117.847 144.912 118.828 145.044 119.34 145.435C119.865 145.811 120.185 146.661 120.301 147.986L120.424 149.388C120.501 150.266 120.437 150.897 120.231 151.281C120.039 151.649 119.66 151.9 119.096 152.034C119.701 152.051 120.131 152.224 120.385 152.553C120.652 152.881 120.825 153.491 120.903 154.384L121.053 156.099C121.108 156.727 121.111 157.24 121.061 157.638C121.025 158.02 120.948 158.343 120.83 158.606C120.725 158.854 120.517 159.048 120.206 159.188C119.895 159.328 119.567 159.434 119.222 159.506C118.876 159.564 118.375 159.622 117.72 159.68L113.745 160.027ZM115.929 153.428L116.286 157.507L117.52 157.399C117.813 157.374 118.025 157.306 118.156 157.196C118.286 157.072 118.335 156.836 118.305 156.487L118.094 154.082C118.065 153.747 117.969 153.53 117.806 153.432C117.656 153.333 117.428 153.297 117.122 153.324L115.929 153.428ZM115.404 147.424L115.742 151.294L116.998 151.184C117.277 151.16 117.474 151.086 117.59 150.964C117.705 150.841 117.749 150.613 117.719 150.278L117.527 148.081C117.498 147.746 117.409 147.529 117.259 147.43C117.11 147.331 116.889 147.294 116.596 147.319L115.404 147.424ZM121.229 144.616L123.991 144.375L127.228 152.228L127.249 152.227L126.543 144.151L129.116 143.926L130.397 158.57L127.531 158.821L124.537 151.347L124.516 151.348L125.188 159.026L122.51 159.26L121.229 144.616ZM131.641 158.462L130.36 143.817L134.293 143.473C135.744 143.347 136.725 143.478 137.237 143.869C137.762 144.245 138.082 145.095 138.198 146.42L138.321 147.822C138.397 148.701 138.333 149.332 138.128 149.715C137.935 150.083 137.557 150.334 136.992 150.468C137.598 150.485 138.028 150.658 138.281 150.987C138.549 151.315 138.722 151.926 138.8 152.818L138.95 154.534C139.005 155.161 139.007 155.674 138.958 156.072C138.921 156.454 138.844 156.777 138.727 157.041C138.622 157.289 138.414 157.483 138.103 157.622C137.792 157.762 137.464 157.868 137.119 157.94C136.773 157.999 136.272 158.056 135.616 158.114L131.641 158.462ZM133.826 151.862L134.182 155.942L135.417 155.834C135.71 155.808 135.922 155.74 136.052 155.63C136.182 155.507 136.232 155.27 136.201 154.922L135.991 152.516C135.961 152.181 135.865 151.965 135.702 151.867C135.553 151.767 135.325 151.731 135.018 151.758L133.826 151.862ZM133.3 145.858L133.639 149.728L134.894 149.618C135.173 149.594 135.37 149.521 135.486 149.398C135.602 149.275 135.645 149.047 135.616 148.712L135.424 146.515C135.394 146.181 135.305 145.964 135.156 145.864C135.007 145.765 134.786 145.728 134.493 145.754L133.3 145.858Z" fill="black"/>
<path d="M82.575 86.2686L95.2142 85.1628L94.8619 81.1357L87.0517 81.819L86.1228 71.2021L81.2938 71.6246L82.575 86.2686ZM98.5184 84.8738L103.347 84.4513L103.067 81.2435L106.571 80.937C110.546 80.5892 112.761 78.6036 112.416 74.6636C112.072 70.7237 109.545 69.1529 105.553 69.5022L97.2372 70.2297L98.5184 84.8738ZM102.716 77.2338L102.417 73.8169L105.503 73.5469C106.653 73.4463 107.453 73.956 107.552 75.0891C107.652 76.2223 106.952 76.8632 105.784 76.9654L102.716 77.2338Z" fill="white"/>
<path d="M82.575 86.2686L81.5788 86.3558L81.6659 87.352L82.6621 87.2648L82.575 86.2686ZM95.2142 85.1628L95.3014 86.159L96.2975 86.0719L96.2104 85.0757L95.2142 85.1628ZM94.8619 81.1357L95.8581 81.0486L95.7709 80.0524L94.7747 80.1395L94.8619 81.1357ZM87.0517 81.819L86.0555 81.9062L86.1427 82.9024L87.1389 82.8152L87.0517 81.819ZM86.1228 71.2021L87.119 71.1149L87.0319 70.1187L86.0357 70.2059L86.1228 71.2021ZM81.2938 71.6246L81.2066 70.6284L80.2104 70.7155L80.2976 71.7117L81.2938 71.6246ZM82.6621 87.2648L95.3014 86.159L95.127 84.1666L82.4878 85.2724L82.6621 87.2648ZM96.2104 85.0757L95.8581 81.0486L93.8657 81.2229L94.218 85.25L96.2104 85.0757ZM94.7747 80.1395L86.9645 80.8228L87.1389 82.8152L94.949 82.1319L94.7747 80.1395ZM88.0479 81.7319L87.119 71.1149L85.1266 71.2892L86.0555 81.9062L88.0479 81.7319ZM86.0357 70.2059L81.2066 70.6284L81.3809 72.6208L86.21 72.1983L86.0357 70.2059ZM80.2976 71.7117L81.5788 86.3558L83.5712 86.1815L82.29 71.5374L80.2976 71.7117ZM98.5184 84.8738L97.5222 84.9609L97.6093 85.9571L98.6055 85.87L98.5184 84.8738ZM103.347 84.4513L103.435 85.4475L104.431 85.3603L104.344 84.3641L103.347 84.4513ZM103.067 81.2435L102.98 80.2473L101.983 80.3345L102.071 81.3307L103.067 81.2435ZM97.2372 70.2297L97.15 69.2335L96.1538 69.3207L96.241 70.3169L97.2372 70.2297ZM102.716 77.2338L101.72 77.321L101.807 78.3172L102.803 78.23L102.716 77.2338ZM102.417 73.8169L102.33 72.8207L101.334 72.9079L101.421 73.904L102.417 73.8169ZM98.6055 85.87L103.435 85.4475L103.26 83.4551L98.4312 83.8776L98.6055 85.87ZM104.344 84.3641L104.063 81.1564L102.071 81.3307L102.351 84.5384L104.344 84.3641ZM103.154 82.2397L106.658 81.9331L106.484 79.9408L102.98 80.2473L103.154 82.2397ZM106.658 81.9331C108.774 81.748 110.591 81.1146 111.829 79.8458C113.093 78.5512 113.603 76.7524 113.413 74.5765L111.42 74.7508C111.575 76.5148 111.149 77.6788 110.398 78.4489C109.621 79.2449 108.343 79.7781 106.484 79.9408L106.658 81.9331ZM113.413 74.5765C113.222 72.4004 112.407 70.7171 110.935 69.6617C109.493 68.6277 107.589 68.3202 105.466 68.506L105.64 70.4984C107.509 70.3349 108.865 70.6381 109.77 71.2871C110.645 71.9148 111.266 72.9868 111.42 74.7508L113.413 74.5765ZM105.466 68.506L97.15 69.2335L97.3243 71.2259L105.64 70.4984L105.466 68.506ZM96.241 70.3169L97.5222 84.9609L99.5146 84.7866L98.2334 70.1425L96.241 70.3169ZM103.712 77.1467L103.413 73.7297L101.421 73.904L101.72 77.321L103.712 77.1467ZM102.504 74.8131L105.59 74.5431L105.416 72.5507L102.33 72.8207L102.504 74.8131ZM105.59 74.5431C106.012 74.5062 106.236 74.5936 106.338 74.6669C106.415 74.7226 106.527 74.8427 106.556 75.1763L108.549 75.002C108.479 74.2024 108.141 73.5011 107.506 73.0438C106.896 72.6041 106.144 72.487 105.416 72.5507L105.59 74.5431ZM106.556 75.1763C106.585 75.5096 106.496 75.6459 106.429 75.7139C106.341 75.8043 106.131 75.9312 105.697 75.9692L105.871 77.9616C106.605 77.8974 107.329 77.6528 107.858 77.1139C108.408 76.5526 108.619 75.8019 108.549 75.002L106.556 75.1763ZM105.697 75.9692L102.629 76.2376L102.803 78.23L105.871 77.9616L105.697 75.9692Z" fill="black"/>
<circle cx="59.3159" cy="110.059" r="24.7441" fill="white" stroke="black"/>
<path d="M52.2134 108.345L58.3932 100.983L65.7606 107.165L69.354 102.88L57.7036 93.1018L47.928 104.752L52.2134 108.345Z" fill="#F3BA2F"/>
<path d="M45.3895 107.778L41.7947 112.062L46.0788 115.656L49.6736 111.372L45.3895 107.778Z" fill="#F3BA2F"/>
<path d="M52.7003 113.91L60.0648 120.09L66.2468 112.722L70.532 116.313L70.5295 116.316L60.7541 127.969L49.1042 118.196L49.0982 118.191L52.7003 113.91Z" fill="#F3BA2F"/>
<path d="M72.3773 105.417L68.7825 109.701L73.0666 113.296L76.6614 109.012L72.3773 105.417Z" fill="#F3BA2F"/>
<path d="M63.2248 110.184L58.8789 106.535L56.1825 109.749L55.8706 110.117L55.2323 110.878L55.2273 110.884L55.2335 110.892L59.5789 114.535L63.225 110.187L63.2275 110.184L63.2248 110.184Z" fill="#F3BA2F"/>
<circle cx="54.897" cy="56.2046" r="24.7441" fill="white" stroke="black"/>
<path d="M52.1117 35.055L51.9119 36.0461L54.365 64.0848L54.6741 64.3437L67.0163 55.5117L52.1117 35.055Z" fill="#343434"/>
<path d="M52.1117 35.0549L40.9858 57.7891L54.6741 64.3438L53.4835 50.7346L52.1117 35.0549Z" fill="#8C8C8C"/>
<path d="M54.8896 66.808L54.7465 67.0173L55.6203 77.0053L55.8214 77.4592L67.2398 57.9792L54.8896 66.808Z" fill="#3C3C3B"/>
<path d="M55.8215 77.4591L54.8896 66.8078L41.2017 60.2571L55.8215 77.4591Z" fill="#8C8C8C"/>
<path d="M54.674 64.3436L67.016 55.5117L53.4834 50.7346L54.674 64.3436Z" fill="#141414"/>
<path d="M40.9858 57.7891L54.6739 64.3436L53.4833 50.7346L40.9858 57.7891Z" fill="#393939"/>
<circle cx="193.818" cy="83.2673" r="70.8799" transform="rotate(-5 193.818 83.2673)" fill="white" stroke="black"/>
<path d="M173.497 35.3662L173.894 39.9088L178.246 39.5281L178.48 42.2059L170.996 42.8606L169.532 26.1245L177.016 25.4698L177.25 28.1476L172.898 28.5283L173.262 32.6884L177.207 32.3432L177.442 35.021L173.497 35.3662ZM185.247 24.7496L189.557 41.2368L186.425 41.5108L185.629 38.4726L182.401 38.755L182.169 41.8831L179.013 42.1592L180.394 25.1742L185.247 24.7496ZM182.963 27.5514L182.439 35.8847L185.069 35.6546L183.106 27.5388L182.963 27.5514ZM190.351 41.1673L188.887 24.4312L193.645 24.015C195.27 23.8727 196.367 24.0177 196.935 24.4498C197.519 24.8806 197.875 25.8292 198.003 27.2956L198.208 29.6386C198.297 30.6587 198.208 31.3813 197.94 31.8062C197.687 32.2139 197.244 32.4775 196.612 32.597C197.307 32.6486 197.809 32.8777 198.118 33.2844C198.426 33.691 198.626 34.4124 198.716 35.4484L199.149 40.3975L195.993 40.6736L195.525 35.3181C195.455 34.5211 195.11 34.1498 194.488 34.2042L192.91 34.3423L193.483 40.8933L190.351 41.1673ZM192.247 26.7632L192.688 31.808L194.314 31.6657C194.633 31.6378 194.852 31.5705 194.971 31.4637C195.105 31.3396 195.155 31.0863 195.121 30.7037L194.83 27.3804C194.798 27.0138 194.706 26.789 194.555 26.7059C194.403 26.6228 194.16 26.5959 193.825 26.6252L192.247 26.7632ZM198.811 23.563L201.967 23.2868L205.667 32.2625L205.691 32.2604L204.884 23.0317L207.825 22.7744L209.289 39.5104L206.013 39.797L202.592 31.2547L202.568 31.2568L203.335 40.0313L200.275 40.299L198.811 23.563Z" fill="black"/>
<line x1="174.901" y1="58.1477" x2="210.456" y2="55.0371" stroke="black"/>
<path d="M153.062 87.3941L151.573 70.3791L140.241 71.3705L127.853 89.5995L128.493 96.9216L144.044 95.5611L144.477 100.512L154.135 99.6672L153.702 94.7161L158.13 94.3287L157.49 87.0067L153.062 87.3941ZM136.221 88.8674L142.632 79.4177L143.403 88.239L136.221 88.8674ZM175.27 98.5911C184.754 97.7613 189.685 91.8842 188.81 81.8774C187.935 71.8706 182.057 66.9391 172.574 67.7688C163.09 68.5985 158.158 74.4757 159.034 84.4825C159.909 94.4893 165.786 99.4208 175.27 98.5911ZM174.559 90.4671C171.003 90.7782 168.967 88.3916 168.552 83.6497C168.138 78.9078 169.728 76.2039 173.284 75.8928C176.841 75.5816 178.876 77.9683 179.291 82.7102C179.706 87.4521 178.116 90.156 174.559 90.4671ZM216.149 81.8747L214.66 64.8597L203.328 65.851L190.94 84.0801L191.581 91.4022L207.131 90.0417L207.564 94.9928L217.222 94.1478L216.789 89.1967L221.217 88.8093L220.577 81.4872L216.149 81.8747ZM199.308 83.348L205.719 73.8983L206.491 82.7196L199.308 83.348ZM235.694 93.5506L252.075 63.1321L247.793 60.7664L231.411 91.1849L235.694 93.5506ZM230.988 78.7143C236.567 78.2262 238.623 74.4275 238.254 70.2086C237.888 66.0246 235.203 62.6408 229.624 63.1288C224.046 63.6169 221.989 67.4156 222.355 71.5996C222.724 75.8185 225.409 79.2024 230.988 78.7143ZM230.469 72.7869C229.11 72.9059 228.501 71.9754 228.422 71.0689C228.339 70.1275 228.783 69.1752 230.143 69.0562C231.503 68.9372 232.105 69.798 232.187 70.7394C232.267 71.646 231.829 72.668 230.469 72.7869ZM253.843 91.3655C259.421 90.8775 261.478 87.0788 261.109 82.8599C260.743 78.6759 258.058 75.292 252.479 75.7801C246.9 76.2681 244.844 80.0669 245.21 84.2509C245.579 88.4698 248.264 91.8536 253.843 91.3655ZM253.324 85.4382C251.964 85.5571 251.356 84.6266 251.276 83.7201C251.194 82.7787 251.638 81.8264 252.998 81.7074C254.357 81.5885 254.96 82.4492 255.042 83.3906C255.121 84.2972 254.684 85.3192 253.324 85.4382Z" fill="black"/>
<path d="M184.424 129.296L190.122 128.797L182.502 112.6L174.771 113.276L170.079 130.551L175.777 130.052L176.321 127.776L183.493 127.149L184.424 129.296ZM177.318 123.573L178.611 118.16L179.568 118.076L181.781 123.183L177.318 123.573ZM190.92 128.728L196.438 128.245L196.118 124.579L200.122 124.228C204.665 123.831 207.197 121.562 206.803 117.059C206.409 112.556 203.522 110.761 198.959 111.16L189.455 111.992L190.92 128.728ZM195.717 119.996L195.375 116.091L198.902 115.783C200.217 115.668 201.131 116.25 201.244 117.545C201.357 118.84 200.558 119.573 199.223 119.69L195.717 119.996ZM226.291 125.633L222.822 120.395C224.149 119.276 225.026 117.593 224.829 115.341C224.443 110.938 221.659 109.174 217.017 109.58L207.433 110.419L208.898 127.155L214.417 126.672L214.038 122.348L218.222 121.982L220.872 126.107L226.291 125.633ZM213.353 114.518L217.039 114.196C218.434 114.074 219.21 114.689 219.313 115.864C219.416 117.04 218.758 117.78 217.363 117.902L213.678 118.224L213.353 114.518Z" fill="black"/>
<defs>
<filter id="filter0_d" x="0.269287" y="9.09766" width="217.547" height="217.547" filterUnits="userSpaceOnUse" color-interpolation-filters="sRGB">
<feFlood flood-opacity="0" result="BackgroundImageFix"/>
<feColorMatrix in="SourceAlpha" type="matrix" values="0 0 0 0 0 0 0 0 0 0 0 0 0 0 0 0 0 0 127 0"/>
<feOffset dx="25" dy="25"/>
<feGaussianBlur stdDeviation="12.5"/>
<feColorMatrix type="matrix" values="0 0 0 0 0 0 0 0 0 0 0 0 0 0 0 0 0 0 0.25 0"/>
<feBlend mode="normal" in2="BackgroundImageFix" result="effect1_dropShadow"/>
<feBlend mode="normal" in="SourceGraphic" in2="effect1_dropShadow" result="shape"/>
</filter>
</defs>
</svg>
